<?xml version="1.0" encoding="utf-8"?>
<!-- Generator: Adobe Illustrator 19.0.0, SVG Export Plug-In . SVG Version: 6.00 Build 0)  -->
<svg version="1.1" id="Layer_1" xmlns="http://www.w3.org/2000/svg" xmlns:xlink="http://www.w3.org/1999/xlink" x="0px" y="0px"
	 viewBox="133 -134 765.8 475" style="enable-background:new 133 -134 765.8 475;" xml:space="preserve">
<style type="text/css">
	.st0{fill:#231F20;}
	.st1{fill:#BE1E2D;}
	.st2{fill:#1B75BB;}
</style>
<g id="XMLID_278_">
	<path id="XMLID_532_" class="st0" d="M496.5,1.5l30.6,88l-24.9,8.7l-30.6-88l-34.4,12l-8.3-23.8l93.8-32.7l8.3,23.8L496.5,1.5z"/>
	<path id="XMLID_529_" class="st0" d="M591.2,30l-7.4,2.3l10.9,34.8l-20.8,6.5l-29.3-93.5l37.1-11.6c18.5-5.8,34.3,3.2,39.5,19.8
		c4,12.7,0,24.5-10.2,32.2l30.8,31.9l-22.9,7.2L591.2,30z M590.4,10.6c8.6-2.7,11.7-8.9,9.6-15.5c-2.2-7-8.2-9.9-16.7-7.2l-12.3,3.8
		l7.1,22.7L590.4,10.6z"/>
	<path id="XMLID_527_" class="st0" d="M645.6,14.4l-16.9-60.3l21-5.9l16.4,58.5c3.2,11.4,11.2,15.4,21.2,12.6
		c10-2.8,14.8-10.3,11.6-21.7l-16.4-58.5l21-5.9l16.9,60.3c6.6,23.7-6.5,40.8-27.3,46.6C672.4,45.9,652.3,38.1,645.6,14.4z"/>
	<path id="XMLID_525_" class="st0" d="M748.8,22.7l-23.4-95.1l60.2-14.8l4.9,20l-39,9.6l4.5,18.1l35.4-8.7l4.6,18.6l-35.4,8.7
		L765-2.7l39.2-9.6l5,20.1L748.8,22.7z"/>
	<path id="XMLID_523_" class="st0" d="M459.7,258.7l-69.1-60.4l22.5,74.5l-25.1,7.6l-34.2-113.3l30.7-9.3l63.3,56L427,145l25.2-7.6
		l34.2,113.3L459.7,258.7z"/>
	<path id="XMLID_432_" class="st0" d="M528.8,137.5c26.8-6.2,54,8.1,61,38.4c7,30.1-11.3,54.9-38.1,61.1c-26.9,6.2-54.2-8-61.1-38.2
		C483.6,168.5,501.8,143.7,528.8,137.5z M546.9,216c13.2-3.1,25.4-15.2,20.8-35.1c-4.6-19.9-20.9-25.6-34.1-22.6
		c-13.3,3.1-25.5,15.4-20.9,35.3C517.3,213.5,533.6,219.1,546.9,216z"/>
	<path id="XMLID_429_" class="st0" d="M637.9,180.9l-7.6,1.2l5.6,36l-21.6,3.3l-15-96.8l38.3-5.9c19.1-3,33.4,8.2,36.1,25.4
		c2,13.1-3.7,24.2-14.9,30.3l25.7,36.1l-23.7,3.7L637.9,180.9z M640.1,161.5c8.9-1.4,12.9-7,11.8-13.8c-1.1-7.2-6.6-11-15.5-9.6
		l-12.7,2l3.6,23.5L640.1,161.5z"/>
	<path id="XMLID_427_" class="st0" d="M736.1,129.2l5.3,76.9l-21.8,1.5l-5.3-76.9l-30,2.1l-1.4-20.8l82-5.7l1.4,20.8L736.1,129.2z"
		/>
	<path id="XMLID_425_" class="st0" d="M842.1,207.3l2.4-38.9l-39-2.4l-2.4,38.9l-21.8-1.3l6-97.8l21.8,1.3l-2.3,38.3l39,2.4
		l2.3-38.3l21.9,1.3l-6,97.8L842.1,207.3z"/>
	<g id="XMLID_419_">
		<path id="XMLID_424_" class="st1" d="M258.9,61.8c0.1-0.1,0.1-0.2,0.2-0.3C259,61.6,258.9,61.7,258.9,61.8z"/>
		<path id="XMLID_423_" class="st1" d="M260.4,62.8c0,0-0.1,0.1-0.1,0.1C260.4,62.8,260.4,62.8,260.4,62.8z"/>
		<path id="XMLID_422_" class="st1" d="M280.5,29.4c-5.2,6.2-14.9,21.5-21.5,32.1c0.2-0.2,0.4-0.3,0.7-0.3c0.5,0,0.9,0.4,0.9,0.9
			c0,0.2-0.1,0.4-0.2,0.6c17.1-16.1,43.5-19.3,64.3-6.1c19,12.1,27.6,34.3,23.3,55.1c0.2-0.4,0.6-0.7,1.1-0.7c0.7,0,1.2,0.6,1.2,1.2
			c0,0.2,0,0.3-0.1,0.4c6.2-9.6,13.6-21.5,16.5-27.6c22-47.2,65.5-197.8,65.5-197.8S314-10.4,280.5,29.4z"/>
		<path id="XMLID_421_" class="st1" d="M259.7,61.2c-0.3,0-0.5,0.1-0.7,0.3c-0.1,0.1-0.1,0.2-0.2,0.3c0,0.1-0.1,0.2-0.1,0.3
			c0,0.5,0.4,0.9,0.9,0.9c0.2,0,0.4-0.1,0.6-0.2c0,0,0.1-0.1,0.1-0.1c0.1-0.2,0.2-0.4,0.2-0.6C260.7,61.6,260.2,61.2,259.7,61.2z"/>
		<path id="XMLID_420_" class="st1" d="M349.1,111c-0.5,0-0.9,0.3-1.1,0.7c0,0.1,0,0.2-0.1,0.3c0,0.1,0,0.2,0,0.2
			c0,0.7,0.6,1.3,1.2,1.3c0.3,0,0.6-0.1,0.9-0.3c0.1-0.2,0.2-0.3,0.3-0.5c0-0.1,0.1-0.3,0.1-0.4C350.3,111.5,349.8,111,349.1,111z"
			/>
	</g>
	<g id="XMLID_279_">
		<path id="XMLID_418_" class="st2" d="M331.9,141.7c-0.1,0.1-0.1,0.2-0.2,0.3C331.8,141.9,331.8,141.8,331.9,141.7z"/>
		<path id="XMLID_417_" class="st2" d="M330.3,140.8c0,0,0.1-0.1,0.1-0.1C330.4,140.7,330.4,140.7,330.3,140.8z"/>
		<path id="XMLID_310_" class="st2" d="M310.2,174.1c5.2-6.2,14.9-21.5,21.5-32.1c-0.2,0.2-0.4,0.3-0.7,0.3c-0.5,0-0.9-0.4-0.9-0.9
			c0-0.2,0.1-0.4,0.2-0.6c-17.1,16.1-43.5,19.3-64.3,6.1c-19-12.1-27.6-34.3-23.3-55.1c-0.2,0.4-0.6,0.7-1.1,0.7
			c-0.7,0-1.2-0.6-1.2-1.2c0-0.2,0-0.3,0.1-0.4c-6.2,9.6-13.6,21.5-16.5,27.6c-22,47.2-65.5,197.8-65.5,197.8
			S276.8,213.9,310.2,174.1z"/>
		<path id="XMLID_309_" class="st2" d="M331,142.3c0.3,0,0.5-0.1,0.7-0.3c0.1-0.1,0.1-0.2,0.2-0.3c0-0.1,0.1-0.2,0.1-0.3
			c0-0.5-0.4-0.9-0.9-0.9c-0.2,0-0.4,0.1-0.6,0.2c0,0-0.1,0.1-0.1,0.1c-0.1,0.2-0.2,0.4-0.2,0.6C330.1,141.9,330.5,142.3,331,142.3z
			"/>
		<path id="XMLID_308_" class="st2" d="M241.7,92.6c0.5,0,0.9-0.3,1.1-0.7c0-0.1,0-0.2,0.1-0.3c0-0.1,0-0.2,0-0.2
			c0-0.7-0.6-1.3-1.2-1.3c-0.3,0-0.6,0.1-0.9,0.3c-0.1,0.2-0.2,0.3-0.3,0.5c0,0.1-0.1,0.3-0.1,0.4C240.4,92,241,92.6,241.7,92.6z"/>
	</g>
</g>
</svg>