<?xml version="1.0" encoding="utf-8"?>
<!-- Generator: Adobe Illustrator 19.0.0, SVG Export Plug-In . SVG Version: 6.00 Build 0)  -->
<svg version="1.1" id="Layer_1" xmlns="http://www.w3.org/2000/svg" xmlns:xlink="http://www.w3.org/1999/xlink" x="0px" y="0px"
	 viewBox="-404.5 420.7 50 20.3" style="enable-background:new -404.5 420.7 50 20.3;" xml:space="preserve">
<g>
	<path id="XMLID_5_" d="M-379.7,440.8h-2.7v-3.9h2.7v0.7h-1.9v0.9h1.9v0.6h-1.9v1.1h1.9V440.8z"/>
	<path id="XMLID_7_" d="M-374.9,440.8h-2.8v-3.9h0.7v3.2h2C-374.9,440.1-374.9,440.8-374.9,440.8z"/>
	<path id="XMLID_12_" d="M-364.6,440.8h-2.7v-3.9h2.7v0.7h-1.8v0.9h1.9v0.6h-1.9v1.1h1.9C-364.6,440.2-364.6,440.8-364.6,440.8z"/>
	<path id="XMLID_14_" d="M-359.3,436.9l-2,3.2h2v0.7h-3.3l2-3.2h-1.9v-0.7H-359.3z"/>
	<path id="XMLID_18_" d="M-354.5,440.8h-2.7v-3.9h2.7v0.7h-1.9v0.9h1.9v0.6h-1.9v1.1h1.9V440.8z"/>
	<path id="XMLID_16_" d="M-397,420.7c-4.3,0-7,3.3-7.5,6.8l3.3,0.2c0.3-2.2,1.7-3.7,4.2-3.7c4.7,0,5.5,5,2.3,6.9l0,0l-8.6,7.7v2.3
		h1.5c0,0,8.2-6.2,10.8-8.7C-387.8,429-389.4,420.7-397,420.7z"/>
	<polygon id="XMLID_17_" points="-389.7,440.9 -389.7,437.9 -393.3,437.9 -396.6,440.9 	"/>
	<path id="XMLID_20_" d="M-375.4,423.7l-2.3,1.8c0.5,0.7,0.7,1.7,0.7,2.5c0,1.8-1.3,3.8-3.7,3.8h-4.4h-0.1l-2.5,2.2v6.9h3.1v-6h3.9
		c4.4,0,6.6-3.5,6.6-6.8C-374.1,426.6-374.5,424.9-375.4,423.7z"/>
	<path id="XMLID_21_" d="M-377,427.9c0-0.8-0.2-1.7-0.7-2.3l0,0C-377.2,426.2-377,427-377,427.9z"/>
	<path id="XMLID_22_" d="M-384.5,423.9h3.2l2.7-1.8c-0.7-0.2-1.3-0.2-2.1-0.2h-7v7.8l3.1-2.4L-384.5,423.9L-384.5,423.9z"/>
	<path d="M-371.1,436.6c-1.3,0-2.3,1-2.3,2.2s1,2.2,2.3,2.2s2.3-1,2.3-2.2C-368.9,437.6-369.9,436.6-371.1,436.6z M-371.1,440.2
		c-0.7,0-1.5-0.6-1.5-1.4s0.6-1.4,1.5-1.4s1.5,0.6,1.5,1.4S-370.4,440.2-371.1,440.2z"/>
</g>
</svg>
