<?xml version="1.0" encoding="utf-8"?>
<!-- Generator: Adobe Illustrator 19.0.0, SVG Export Plug-In . SVG Version: 6.00 Build 0)  -->
<svg version="1.1" id="Layer_1" xmlns="http://www.w3.org/2000/svg" xmlns:xlink="http://www.w3.org/1999/xlink" x="0px" y="0px"
	 viewBox="-461.5 370.8 49.1 50.2" style="enable-background:new -461.5 370.8 49.1 50.2;" xml:space="preserve">
<style type="text/css">
	.st0{fill:#37B34A;}
	.st1{fill:#404041;}
	.st2{fill:#231F20;}
</style>
<g id="XMLID_26_">
	<g id="XMLID_69_">
		<g id="XMLID_70_">
			<g id="XMLID_71_">
				<path id="XMLID_24_" class="st0" d="M-444.4,404.8L-444.4,404.8L-444.4,404.8c0,0,2.6-4.1,4.2-7.5l0.6-1.3l0.6,1.3
					c0,0,2.5,5.5,7.6,7l0,0l0,0l0,0c-4.1-1.2-6.8-3.7-8-5.2C-441.1,402.2-444.3,404.7-444.4,404.8L-444.4,404.8z"/>
			</g>
		</g>
	</g>
	<g id="XMLID_27_">
		<g id="XMLID_56_">
			<path id="XMLID_66_" class="st1" d="M-451.3,386c-0.1,0-0.1,0-0.3,0c0-0.1,0-0.2,0-0.3c0-0.3,0-0.7,0.2-1c0-0.1,0.1-0.2,0.1-0.3
				s0.1-0.2,0.2-0.3s0.1-0.2,0.2-0.2c0.1-0.1,0.1-0.1,0.2-0.2c0.1-0.1,0.1-0.1,0.2-0.2c0.1,0,0.1-0.1,0.1-0.1
				c0.1-0.1,0.1-0.1,0.1-0.1s-0.1,0-0.2,0s-0.1,0-0.2,0s-0.1,0-0.2,0.1c-0.1,0-0.2,0.1-0.3,0.1c-0.1,0-0.2,0.1-0.3,0.1
				c-0.1,0.1-0.2,0.1-0.3,0.2c-0.1,0.1-0.2,0.2-0.3,0.3c-0.4,0.4-0.7,0.9-0.8,1.2c-0.1,0.2-0.1,0.4-0.2,0.5c0,0.1,0,0.1,0,0.2
				c0,0.1,0,0,0,0.1s0,0.1,0,0.2c-0.3,0.1-0.7,0.4-1,0.6c-1.5,1.2-2.3,3.3-2.4,6.4c0,0.3-0.2,4.2,2,6.6c1,1.1,2.4,1.6,3.9,1.6
				c0.1,0,0.1,0,0.2,0l0,0c0,0,4.3-0.4,4.4-6.2l0,0l0,0C-445.9,394.8-446.5,386.1-451.3,386z M-450.4,399.8c-1.3,0-2.2-0.3-2.9-1.1
				c-1.8-1.8-1.6-5.3-1.6-5.4l0,0c0.1-2.5,0.7-4.3,1.8-5.2c0.8-0.7,1.6-0.7,1.7-0.7h0.1c2.7,0,3.7,5.6,3.8,7.7
				C-447.6,399.4-450.1,399.8-450.4,399.8z"/>
			<path id="XMLID_63_" class="st1" d="M-440.3,374.4c-0.6-0.5-1.2-0.7-1.7-0.8c0-0.1,0-0.1,0-0.2c0-0.3,0-0.7,0.1-1.1
				c0-0.1,0-0.2,0.1-0.3c0-0.1,0.1-0.2,0.1-0.3c0.1-0.1,0.1-0.2,0.1-0.3s0.1-0.2,0.1-0.2c0.1-0.1,0.2-0.3,0.2-0.3
				c0.1-0.1,0.1-0.1,0.1-0.1s0,0-0.1,0.1c-0.1,0-0.2,0.1-0.4,0.2c-0.1,0-0.1,0.1-0.2,0.2c-0.1,0.1-0.2,0.1-0.2,0.2
				c-0.1,0.1-0.2,0.2-0.2,0.2c-0.1,0.1-0.2,0.2-0.2,0.3c-0.3,0.4-0.5,0.8-0.7,1.1c-0.1,0.2-0.1,0.3-0.2,0.4c0,0,0,0.1-0.1,0.1l0,0
				c-0.6,0.1-1.5,0.4-2.4,1.2c-1.3,1.3-1.9,3.3-1.8,6.1c0.3,7.8,4.3,8.5,4.8,8.6c0.1,0,0.2,0,0.4,0c0.5,0,1.3-0.1,2.2-0.8
				c1.5-1.3,2.3-3.7,2.3-7.4C-438.1,377.9-438.9,375.6-440.3,374.4z M-441.3,387.5c-0.6,0.5-1.2,0.4-1.3,0.4l0,0
				c-0.1,0-3.1-0.4-3.4-7.1c-0.1-2.3,0.4-3.9,1.3-4.8c0.8-0.9,1.7-0.9,1.9-0.9l0,0l0,0h0.1h0.1c0,0,0.7-0.1,1.4,0.6
				c0.7,0.7,1.6,2.2,1.6,5.7C-439.6,385.2-440.5,386.8-441.3,387.5z"/>
			<path id="XMLID_60_" class="st1" d="M-430.4,373.6C-430.4,373.5-430.4,373.5-430.4,373.6c-0.1-0.2-0.2-0.3-0.2-0.5
				c-0.1-0.2-0.2-0.4-0.4-0.6c-0.1-0.2-0.3-0.4-0.5-0.6c-0.1-0.1-0.2-0.2-0.3-0.3s-0.2-0.2-0.3-0.2c-0.1-0.1-0.2-0.1-0.3-0.2
				c-0.1,0-0.2-0.1-0.3-0.1c-0.1,0-0.2-0.1-0.3-0.1s-0.1,0-0.2,0s-0.2,0-0.2,0s0.1,0,0.1,0.1c0,0,0.1,0,0.2,0.1
				c0.1,0,0.1,0.1,0.2,0.2c0.1,0.1,0.1,0.1,0.2,0.2c0.1,0.1,0.1,0.2,0.2,0.3c0,0.1,0.1,0.2,0.1,0.3s0.1,0.2,0.1,0.3
				c0.1,0.2,0.1,0.4,0.2,0.6c0,0.2,0.1,0.4,0.1,0.6l0,0c-0.5,0.1-1,0.3-1.6,0.7c-1.5,1.2-2.3,3.5-2.3,7l0,0c0,0.8,0.4,8,4.1,8.1h0.1
				c1,0,2-0.4,2.8-1.3c1.6-1.6,2.5-4.3,2.5-7.5C-426.2,375.1-429,373.8-430.4,373.6z M-429.8,387.1c-0.6,0.6-1.2,0.8-1.8,0.8
				c-1.8-0.1-2.5-4.5-2.5-6.6c0-3.6,0.9-5.1,1.7-5.7c0.6-0.6,1.3-0.5,1.3-0.5h0.1c2.1,0.1,3.3,2.2,3.3,5.7
				C-427.8,383.4-428.6,385.9-429.8,387.1z"/>
			<path id="XMLID_57_" class="st1" d="M-418.6,387.8c-0.7-0.9-1.6-1.4-2.2-1.6c0-0.1-0.1-0.3-0.2-0.4c-0.1-0.2-0.2-0.4-0.3-0.6
				s-0.3-0.4-0.4-0.6c-0.2-0.2-0.3-0.4-0.5-0.5c-0.1-0.1-0.2-0.1-0.3-0.2c-0.1-0.1-0.2-0.1-0.3-0.2c-0.1,0-0.2-0.1-0.2-0.1
				c-0.1,0-0.1,0-0.2-0.1c-0.1,0-0.2-0.1-0.2-0.1s0,0,0.1,0.1l0.1,0.1c0,0.1,0.1,0.1,0.1,0.2c0.1,0.1,0.1,0.1,0.2,0.2
				c0.1,0.1,0.1,0.2,0.1,0.3c0.1,0.2,0.2,0.4,0.2,0.6c0.1,0.2,0.1,0.4,0.1,0.6c0,0.2,0,0.4,0,0.5l0,0c-0.7,0.1-1.8,0.4-2.7,1.4
				c-1.7,1.5-2.5,4-2.6,7.5c-0.1,4.7,3.7,6.3,3.8,6.3c0,0,0.5,0.2,1.2,0.2c0.5,0,1.2-0.1,1.9-0.5c1.8-1,2.8-3.3,3.3-7.1
				C-417.1,391.2-417.5,389.1-418.6,387.8z M-419.1,393.5c-0.5,3.8-1.7,5.3-2.5,5.8c-0.9,0.5-1.7,0.2-1.7,0.2
				c-0.1-0.1-2.9-1.3-2.8-4.8c0.1-2.9,0.8-5.1,2.1-6.3c1-1,2.1-1,2.4-1l0,0c0.1,0,1,0.2,1.7,1.1
				C-419.1,389.7-418.8,391.5-419.1,393.5z"/>
		</g>
		<g id="XMLID_52_">
			<path id="XMLID_53_" class="st1" d="M-425.3,401.6c-3.4-2.7-5.9-7.9-6-8.7l-0.7-1.9l-0.8,1.4c0,0-1.1,1.9-2.1,3.2
				c-0.9-0.8-2.4-2.5-3.6-4.9l-0.7-1.4l-0.7,1.5c0,0.1-4,8.2-7.7,11.8c-3.3,3.2-1.9,6.6-0.6,7.9c0.2,0.3,1.5,1.8,3.3,1.8
				c0.9,0,1.9-0.4,2.6-1.1c1.8-1.5,4.1-2.4,6.7-2.4c2.4,0,4.6,0.7,6.4,2.1c1.5,1.1,2.7,1.7,3.9,1.7c2.1,0,3-1.8,3.2-2.7
				C-422,409.2-420.8,405.2-425.3,401.6z M-423.7,409.2L-423.7,409.2c0,0.1-0.4,1.7-1.8,1.7c-0.8,0-1.8-0.5-2.9-1.3
				c-2.1-1.6-4.6-2.4-7.4-2.4c-2.9,0-5.7,1-7.6,2.7c-0.6,0.5-1.1,0.7-1.7,0.7c-1.2,0-2.1-1.2-2.1-1.2l0,0c-0.1-0.1-2.5-2.7,0.6-5.8
				c2.9-2.8,6-8.3,7.4-10.9c1.9,3,3.8,4.6,3.9,4.7l0.6,0.5l0.5-0.6c0.7-0.8,1.4-1.8,1.9-2.6c1.1,2.4,3.3,6,6,8.1
				C-422.6,405.8-423.7,409.1-423.7,409.2z"/>
		</g>
		<g id="XMLID_28_">
			<path id="XMLID_49_" class="st2" d="M-458.8,414.7h0.7l2.6,6.1h-0.7l-0.9-2.1h-2.9l-0.9,2.1h-0.6L-458.8,414.7z M-457.3,418.2
				l-1.2-2.8l-1.2,2.8H-457.3z"/>
			<path id="XMLID_47_" class="st2" d="M-454.7,414.7h0.8l3.4,5.1v-5.1h0.6v6.1h-0.6l-3.6-5.4v5.4h-0.6L-454.7,414.7L-454.7,414.7z"
				/>
			<path id="XMLID_45_" class="st2" d="M-448.7,414.7h0.6v6.1h-0.6V414.7z"/>
			<path id="XMLID_43_" class="st2" d="M-446.8,414.7h1l2.3,5.2l2.3-5.2h1v6.1h-0.6v-5.5l-2.3,5.5h-0.5l-2.3-5.5v5.5h-0.6v-6.1
				H-446.8z"/>
			<path id="XMLID_40_" class="st2" d="M-437.1,414.7h0.7l2.6,6.1h-0.7l-0.9-2.1h-2.8l-0.9,2.1h-0.7L-437.1,414.7z M-435.5,418.2
				l-1.2-2.8l-1.2,2.8H-435.5z"/>
			<path id="XMLID_38_" class="st2" d="M-433.1,414.7h0.6v5.6h2.6v0.6h-3.1L-433.1,414.7L-433.1,414.7z"/>
			<path id="XMLID_36_" class="st2" d="M-426.1,415.3h-1.4v-0.6h3.4v0.6h-1.4v5.6h-0.6V415.3L-426.1,415.3z"/>
			<path id="XMLID_34_" class="st2" d="M-423.4,414.7h1.5c0.6,0,1.3,0,1.8,0.3c0.6,0.4,1,1,1,1.7c0,1-0.8,1.9-1.8,1.9l1.8,2.3h-0.9
				l-2.1-2.7h0.1c0.4,0,0.9,0,1.4-0.2s0.8-0.7,0.8-1.3c0-0.4-0.2-0.9-0.6-1.1c-0.4-0.2-0.9-0.2-1.4-0.2h-1v5.6h-0.6
				C-423.4,420.9-423.4,414.7-423.4,414.7z"/>
			<path id="XMLID_32_" class="st2" d="M-418.4,414.7h0.6v6.1h-0.6V414.7z"/>
			<path id="XMLID_29_" class="st2" d="M-416.5,414.7h1.6c0.6,0,1.2,0,1.7,0.3s0.8,0.9,0.8,1.5s-0.2,1.1-0.7,1.4
				c-0.5,0.4-1,0.4-1.6,0.4h-1.2v2.5h-0.6L-416.5,414.7L-416.5,414.7z M-414.8,417.9c0.4,0,0.9,0,1.3-0.3c0.4-0.2,0.5-0.6,0.5-1
				c0-0.5-0.3-1-0.8-1.2c-0.4-0.2-0.9-0.1-1.3-0.1h-0.8v2.5L-414.8,417.9L-414.8,417.9z"/>
		</g>
	</g>
</g>
</svg>
