<?xml version="1.0" encoding="utf-8"?>
<!-- Generator: Adobe Illustrator 19.0.0, SVG Export Plug-In . SVG Version: 6.00 Build 0)  -->
<svg version="1.1" id="Layer_1" xmlns="http://www.w3.org/2000/svg" xmlns:xlink="http://www.w3.org/1999/xlink" x="0px" y="0px"
	 viewBox="0 0 50 24.8" style="enable-background:new 0 0 50 24.8;" xml:space="preserve">
<style type="text/css">
	.st0{fill:#ECD2B9;}
	.st1{fill:#C3996B;}
	.st2{fill:#A2673D;}
	.st3{fill:#ECBA88;}
	.st4{fill:#2B292A;}
	.st5{fill:#2C2A2A;}
	.st6{fill:#2D2B2C;}
	.st7{fill:#2F2929;}
	.st8{fill:#2E2C2D;}
	.st9{fill:#2F2D2E;}
	.st10{fill:#2E2C2C;}
	.st11{fill:#EC2D2A;}
	.st12{fill:#343233;}
	.st13{fill:#EC2F2A;}
	.st14{fill:#E8302A;}
	.st15{fill:#333233;}
	.st16{fill:#373637;}
	.st17{fill:#302E2F;}
	.st18{fill:#312F30;}
	.st19{fill:#78797B;}
	.st20{fill:#656567;}
	.st21{fill:#5F5F61;}
	.st22{fill:#E82C29;}
</style>
<g id="XMLID_2_">
	<g id="XMLID_61_">
		<path id="XMLID_19_" class="st0" d="M11.1,6.1c0,0,0.2-2.8-0.7-4.2c0,0,0.9,2-2.7,2.6c0,0-1.1,0.2-3.1-0.6l-0.1,3
			C4.5,6.8,6.8,7.4,11.1,6.1z"/>
		<path id="XMLID_20_" class="st1" d="M5.9,7C5,7,4.5,6.9,4.5,6.9l-0.1,0l0.1-3.2l0.1,0c2,0.8,3.1,0.6,3.1,0.6C9,4.1,9.9,3.7,10.2,3
			c0.3-0.6,0.1-1.2,0.1-1.2l0.1-0.1c0.9,1.4,0.7,4.2,0.7,4.3l0,0l0,0C8.8,6.9,7,7,5.9,7z M4.6,6.8C4.9,6.9,7.2,7.2,11,6
			c0-0.3,0.1-2.3-0.5-3.7c0,0.2,0,0.5-0.2,0.8C10,3.8,9.1,4.3,7.7,4.5c0,0-1.1,0.2-3.1-0.6L4.6,6.8z"/>
	</g>
	<g id="XMLID_60_">
		<path id="XMLID_14_" class="st2" d="M4.4,6.9l0.2-3c0,0,3.3,1.5,5.4-0.4c0,0,1.6-1.8-1.5-2.9s-6.9,0-7.9,1.9S1.9,6.5,4.4,6.9z"/>
		<path id="XMLID_15_" class="st1" d="M4.5,7L4.5,7C2.8,6.7,1.2,5.7,0.5,4.5C0.2,3.8,0.1,3,0.5,2.4c0.5-0.9,1.7-1.7,3.2-2.1
			C5.2-0.1,6.9,0,8.4,0.5c1.1,0.4,1.8,1,1.9,1.6C10.6,2.9,10,3.5,10,3.5C8.1,5.2,5.2,4.2,4.6,3.9L4.5,7z M5.7,0.2
			c-2.3,0-4.5,1-5.1,2.3c-0.3,0.6-0.3,1.3,0.1,2c0.6,1.2,2.1,2.2,3.7,2.4l0.2-3.1l0.1,0c0,0,3.3,1.5,5.3-0.4c0,0,0.5-0.6,0.4-1.3
			C10.1,1.5,9.5,1,8.4,0.6C7.5,0.3,6.6,0.2,5.7,0.2z"/>
	</g>
	<g id="XMLID_59_">
		<path id="XMLID_8_" class="st2" d="M42.7,5.4c0,0,0.4,2,0.8,2.4c0,0-2.4-0.2-2.3-1.4S42.7,5.4,42.7,5.4z"/>
		<path id="XMLID_9_" class="st1" d="M43.7,7.9l-0.2,0c-0.1,0-2.4-0.2-2.3-1.4c0.1-1.2,1.6-1.1,1.6-1.1l0.1,0l0,0.1
			c0,0,0.4,2,0.7,2.4L43.7,7.9z M42.6,5.5c-0.3,0-1.3,0.1-1.3,1c-0.1,0.9,1.5,1.2,2,1.3C43,7.2,42.7,5.8,42.6,5.5
			C42.6,5.5,42.6,5.5,42.6,5.5z"/>
	</g>
	<g id="XMLID_58_">
		<path id="XMLID_1_" class="st0" d="M41.5,7.3c0,0,3.7,1.7,5.4-0.4c0,0,0.7-0.6,0.2-1.6c0,0,4.2,5.5,2,14.4c0,0-1.3,4-4.2,4.6
			c-2.3,0.5-3.4,0.3-5.4-1.8c0,0,3.7-1.8,4.7-4C45,16.9,46.6,13,41.5,7.3z"/>
		<path id="XMLID_5_" class="st1" d="M43.2,24.6c-1.3,0-2.3-0.5-3.7-2l-0.1-0.1l0.1,0c0,0,3.7-1.8,4.6-4c0.6-1.5,2.3-5.4-2.7-11.2
			l-0.2-0.2l0.3,0.1c0,0,3.7,1.6,5.4-0.4l0,0c0,0,0.6-0.6,0.2-1.5l-0.3-0.6l0.4,0.5c0,0,1.1,1.4,1.8,3.9c0.7,2.3,1.3,6,0.2,10.6
			c0,0-1.3,4.1-4.2,4.6C44.3,24.5,43.8,24.6,43.2,24.6z M39.7,22.6c1.9,2,3,2.1,5.3,1.7c2.8-0.6,4.1-4.5,4.1-4.5
			c1.1-4.6,0.5-8.2-0.2-10.5c-0.5-1.7-1.2-2.9-1.5-3.5C47.5,6.4,47,6.8,47,6.9c-0.7,0.9-1.9,1.2-3.4,1c-0.8-0.1-1.5-0.3-1.8-0.5
			c2.1,2.4,3.2,4.8,3.4,7c0.1,1.9-0.5,3.4-0.8,4.1C43.4,20.6,40.3,22.3,39.7,22.6z"/>
	</g>
	<g id="XMLID_57_">
		<path id="XMLID_69_" class="st3" d="M0.2,3.2c0,0,0,3.5,5.5,3.8C6.8,7,8.3,6.8,10.1,6.3c1.7-0.5,4.5-1.3,6.4-1.8
			c18.1-5,31.1-2.2,30.6,1.6c0,0,0.3,1.9-3.4,1.7l-0.9-2.4c0,0-2.2,0.1-1.3,1.7c0,0,4.9,5.7,3.3,10.2c0,0-0.8,2.7-2.2,3.3
			c0,0-5.1-4.6-20-1.3c0,0-4.8,1.3-8.9,3.6C9.8,25,3.3,25.7,1.2,21.7c0,0-1-4.9-1-9.8S0.2,3.2,0.2,3.2z"/>
	</g>
	<g id="XMLID_236_">
		<path id="XMLID_68_" class="st4" d="M1.9,18.3C1.9,18.3,1.9,18.2,1.9,18.3c0.5-0.5,0.5-0.9,0.6-1.4c0.1-0.9,0.4-1.7,0.8-2.5
			c0.3-0.6,0.8-1.1,1.5-1.5c0.2-0.1,0.5-0.2,0.8-0.3c0.2,0,0.3-0.1,0.5-0.1c0.6,0,1-0.3,1.2-0.7c0-0.1,0.1-0.1,0.1-0.2
			c-0.1,0,0,0.5,0,0.5c0,0.3,0.1,0.6,0,0.8c-0.2,0.6-0.2,0.9-0.2,1.6c0,0.1,0.2,0.5,0,0.6c-0.1,0-0.3,0-0.3-0.1
			c-0.1-0.2-0.1-0.4-0.1-0.5c-0.1-0.3-0.1-0.5-0.2-0.8c-0.1-0.2-0.2-0.4-0.6-0.5c-0.3,0-0.6,0.1-0.8,0.3c-0.1,0.2-0.3,0.3-0.5,0.5
			c-0.1,0.1-0.2,0.2-0.3,0.3c0,0,0.1,0,0.1,0.1c0,0,0,0,0,0c-1.2,1.8-1,3.7-0.4,5.5C4.4,21,5.9,21.5,7.2,21c0.4-0.2,1-0.3,1.4-0.5
			c0.2-0.1,0.8-0.3,1-0.5c0.1-0.1,0.3-0.3,0-0.4c0,0,0-0.2,0-0.2c0,0,0.1-0.1,0.2,0c0.1,0.1,0.2,0.1,0.2,0.2
			c0.1,0.4-0.1,0.8-0.5,1.1c-1.1,0.8-2.4,1.3-4,1.2c-0.8,0-1.4-0.4-1.9-0.9c-0.5-0.7-0.8-1.4-1-2.1c-0.1-0.3-0.2-0.4-0.5-0.5
			C2,18.4,2,18.3,1.9,18.3z"/>
	</g>
	<g id="XMLID_235_">
		<path id="XMLID_67_" class="st5" d="M26.7,14.8c-0.5,0.1-1.1,0.2-1.6,0.3c-0.1-0.1-0.1-0.1,0-0.3c0.1-0.1,0.1-0.2,0.1-0.3
			c-0.1-0.5-0.2-1.1-0.4-1.7c-0.4,0.1-0.8,0.1-1.2,0.2c-0.1,0-0.1,0.1-0.1,0.1c0.2,0.5,0.3,1.1,0.5,1.6c0,0.1,0.2,0.1,0.3,0.2
			c0.1,0,0.1,0.1,0.2,0.1c0,0,0,0.1-0.1,0.1c-0.5,0.1-1,0.3-1.6,0.4c-0.1-0.1-0.1-0.2,0-0.3c0.1-0.1,0.1-0.3,0.1-0.5
			c0-0.3-0.1-0.5-0.2-0.7c-0.2-0.8-0.4-1.6-0.6-2.5c0-0.1,0-0.2-0.1-0.3C22,11.2,21.9,11,21.6,11c-0.1-0.3-0.1-0.3,0.3-0.4
			c0.2,0,0.4-0.1,0.5-0.1c0,0,0.1,0,0.1,0c0.3,0.1,0.6-0.1,1-0.2c-0.1,0.1-0.1,0.2-0.1,0.3c-0.1,0.2-0.2,0.3-0.2,0.5
			c0,0.3,0,0.6,0.1,0.9c0,0.2,0.1,0.3-0.1,0.5c0,0,0,0.1,0,0.2c0.5-0.1,1-0.2,1.5-0.3c0.1,0,0.1-0.1,0.1-0.2
			c-0.1-0.4-0.1-0.7-0.2-1.1c-0.1-0.3-0.2-0.4-0.5-0.5c-0.1-0.3-0.1-0.3,0.3-0.4c0.5-0.1,1-0.2,1.6-0.3c-0.1,0.1-0.1,0.2-0.1,0.2
			c-0.2,0.1-0.2,0.3-0.2,0.4c0.1,0.6,0.1,1.2,0.2,1.8c0.1,0.6,0.3,1.1,0.4,1.7c0,0.1,0.1,0.2,0.1,0.3c0,0.1,0.1,0.2,0.2,0.2
			C26.7,14.6,26.7,14.7,26.7,14.8C26.7,14.8,26.7,14.8,26.7,14.8z"/>
	</g>
	<g id="XMLID_232_">
		<path id="XMLID_177_" class="st6" d="M17.9,12.2c-0.1-0.3,0.2-0.4,0.4-0.4c0.4-0.1,0.7-0.3,1.1-0.4c0.2-0.1,0.3-0.1,0.5-0.1
			c0.1,0,0.1,0,0.2-0.1c0.2-0.1,0.4-0.1,0.5,0c0.5,0.4,0.8,0.9,0.7,1.5c0,0.1-0.1,0.2-0.2,0.3c-0.1,0.1-0.1,0.2,0.1,0.3
			c0.6,0.3,0.8,0.8,0.9,1.4c0,0.1,0,0.2,0,0.3c0,0.5-0.3,0.8-0.9,1c-0.6,0.2-1.2,0.4-1.8,0.6c0,0-0.1,0-0.2,0c0,0,0-0.1,0-0.1
			c0.2-0.1,0.1-0.3,0.1-0.4c-0.1-0.5-0.2-0.9-0.4-1.4c0-0.1,0-0.2,0-0.2c0-0.1,0.1-0.2-0.1-0.3c0,0-0.1-0.1-0.1-0.1
			c-0.1-0.5-0.2-1-0.3-1.5C18.3,12.4,18.3,12.2,17.9,12.2z M19.9,13.6c-0.1-0.3,0-0.5,0.2-0.5c0.3,0,0.5-0.2,0.5-0.4
			c0-0.2,0-0.5,0-0.7c0,0-0.1-0.1-0.1-0.1c-0.3-0.2-0.6-0.2-0.9-0.1c-0.2,0.1-0.4,0.4-0.3,0.6c0.2,1,0.4,2,0.7,3
			c0,0.1,0.1,0.1,0.2,0.2c0.3,0.2,0.9,0,1-0.3c0.2-0.4,0.3-0.9-0.1-1.3C20.8,13.8,20.5,13.5,19.9,13.6z"/>
	</g>
	<g id="XMLID_229_">
		<path id="XMLID_173_" class="st7" d="M29.7,14.2c-0.3,0.2-0.7,0.2-1.1,0.2c-0.4,0-0.8-0.2-1.2-0.4c-0.4-0.3-0.7-0.7-0.8-1.2
			c0-0.1,0-0.2,0-0.2c0-0.2,0.1-0.3,0.1-0.5c0-0.1-0.1-0.2-0.3-0.1c-0.1-0.5,0-0.9,0.1-1.3c0-0.1,0-0.1,0.1-0.2
			c0.3-0.3,0.5-0.5,0.8-0.8c0.3-0.1,0.7-0.2,1-0.2c0.5-0.1,0.9,0.1,1.3,0.4c0.2,0.4,0.4,0.8,0.6,1.2c0.1,0.6,0.2,1.2,0.1,1.8
			c0,0.2-0.1,0.4-0.1,0.6C30.1,13.7,29.9,13.9,29.7,14.2z M29.3,13.7c0.1-0.1,0.2-0.3,0.2-0.4c0.2-0.8,0.1-1.7-0.3-2.5
			c-0.1-0.2-0.3-0.4-0.4-0.7c-0.1-0.1-0.3-0.3-0.5-0.3c-0.2,0-0.3,0.3-0.3,0.5c0,0,0,0,0,0.1c0,0.1,0,0.3,0,0.4
			c-0.4,0-0.5-0.3-0.5-0.5c-0.2,0.3-0.2,0.6-0.2,1c0.1,0.4,0.1,0.9,0.2,1.3c0.1,0.2,0.2,0.5,0.4,0.7c0.2,0.3,0.5,0.6,1,0.6
			C29.1,13.9,29.3,13.9,29.3,13.7z"/>
	</g>
	<g id="XMLID_228_">
		<path id="XMLID_66_" class="st8" d="M35.6,13.6c-0.5-0.1-0.7,0-0.6,0.4c0.1,0.6,0.6,0.9,1.3,1.1c0.4,0.1,0.8-0.2,0.9-0.5
			c0.1-0.3,0-0.7-0.1-1c-0.1-0.2-0.2-0.4-0.3-0.6c0-0.1-0.1-0.1-0.1-0.2c-0.1,0.1-0.1,0.2-0.2,0.3c-0.7-0.5-1.4-0.9-1.8-1.6
			c-0.2-0.5-0.1-0.9,0.3-1.3c0.3-0.3,0.7-0.4,1.2-0.3c0.4,0.1,0.9,0.2,1.3,0.3c0,0,0.1,0,0.1,0.1c0.1,0.5,0.1,0.9,0.2,1.4
			c-0.2,0-0.3-0.1-0.3-0.2c-0.2-0.5-0.6-0.8-1.1-1c-0.3-0.1-0.6-0.1-0.8,0c-0.2,0.1-0.3,0.4-0.1,0.6c0.4,0.4,0.7,0.7,1.1,1.1
			c0.8,0.6,1.2,1.4,1.3,2.2c0,0.5-0.1,0.9-0.7,1.1c-0.6,0.3-1.2,0.1-1.8-0.2c-0.4-0.2-0.8-0.6-0.9-1c-0.2-0.4-0.1-0.8,0.3-1.1
			C35,13,35.2,13,35.3,13c0.3,0,0.4,0,0.4,0.3C35.7,13.3,35.7,13.4,35.6,13.6C35.7,13.6,35.7,13.6,35.6,13.6z"/>
	</g>
	<g id="XMLID_227_">
		<path id="XMLID_65_" class="st8" d="M13.5,13.9c0-0.2,0-0.3,0.3-0.4c0.4-0.1,0.8-0.2,1.2-0.5c0.1,0,0.1-0.1,0.2-0.1
			c0,0,0.1,0,0.1,0c0,0.1-0.1,0.2-0.1,0.3c-0.2,0.2-0.2,0.4-0.2,0.6c0,0,0,0.1,0,0.1c0.1,0.4,0.1,0.7,0,1.1c0,0.2,0,0.2,0.3,0.2
			c0.1,0.3,0.2,0.7,0.3,1c0.1,0.2,0.1,0.3,0.2,0.5c0.3,0.4,0.9,0.4,1.3,0c0.3-0.3,0.3-0.7,0.3-1c-0.2-0.8-0.4-1.6-0.6-2.4
			c0,0,0,0,0,0c-0.1-0.3-0.2-0.4-0.6-0.3c-0.1-0.2,0-0.3,0.3-0.4c0.3-0.1,0.6-0.2,0.8-0.3c0.1,0,0.2-0.1,0.4-0.1
			c0,0.1,0,0.2-0.1,0.3c-0.2,0.2-0.2,0.5-0.2,0.7c0.2,0.8,0.3,1.6,0.5,2.4c0.1,0.4,0.1,0.8-0.1,1.2c-0.2,0.4-0.6,0.7-1.1,0.9
			c-0.2,0.1-0.4,0-0.6,0c-0.1,0-0.2,0-0.4-0.1c-0.5-0.1-0.8-0.3-0.9-0.7c-0.2-0.9-0.5-1.7-0.7-2.6c0-0.1,0-0.1-0.1-0.2
			C13.9,13.9,13.9,13.9,13.5,13.9z"/>
	</g>
	<g id="XMLID_226_">
		<path id="XMLID_64_" class="st9" d="M41.1,13.4c0.1,0.1,0.1,0.2,0.1,0.3c0,0.5,0,0.9,0,1.4c-0.3,0-0.3-0.1-0.3-0.2
			c-0.1-0.5-0.5-0.8-1-1c0,0-0.1,0-0.1,0c0,0.3,0,0.6,0,1c0,0,0,0.1,0,0.1c0,0.6,0.1,0.7,0.8,1c0.4,0.2,0.7,0.5,1.1,0.8
			c0.5,0.3,1,0.6,1.5,1c0.2,0.1,0.3,0.3,0.4,0.4c0,0,0,0-0.1,0.1c-0.3-0.2-0.6-0.3-0.9-0.5c-1.2-0.8-2.4-1.5-3.9-2
			c-0.1,0-0.2-0.1-0.2-0.2c0-0.1,0-0.2,0.2-0.2c0.1,0,0.2-0.1,0.2-0.2c0-0.4,0-0.9,0-1.3c0-0.1,0.1-0.1,0.1-0.2c0-0.1,0-0.1,0.1-0.2
			c0-0.1,0-0.2,0-0.3c0,0,0-0.1,0-0.1c-0.2-0.1-0.1-0.3-0.1-0.5c0-0.2,0-0.4,0-0.6c0-0.3,0.1-0.7-0.5-0.8c0.1-0.1,0.1-0.2,0.2-0.2
			c0.1,0,0.1,0,0.1,0c0.8,0.4,1.7,0.8,2.5,1.1c0.2,0.1,0.3,0.2,0.3,0.4c0,0.4,0.1,0.8,0.1,1.2c0,0,0,0.1-0.1,0.2
			c0-0.1-0.1-0.1-0.1-0.2c-0.2-0.4-0.3-0.8-0.5-1.2c-0.1-0.3-0.5-0.4-0.9-0.6c-0.1-0.1-0.2,0-0.2,0.1c0,0.5,0,1-0.1,1.5c0,0,0,0,0,0
			c0.3,0.1,0.6,0.3,1,0.4C40.8,13.7,41,13.5,41.1,13.4z"/>
	</g>
	<g id="XMLID_225_">
		<path id="XMLID_63_" class="st10" d="M31.1,9.4c0.2,0,0.4,0,0.6,0c0.2,0,0.3,0,0.5,0C32,9.6,32,9.7,31.9,9.8
			c-0.1,0.1-0.1,0.1-0.2,0.2c0,0.1,0,0.1,0,0.2c0,0.2,0,0.4,0,0.5c0,0.2-0.1,0.3-0.2,0.5c-0.1,0.1,0,0.2,0.2,0.2c0,0.3,0,0.7,0.1,1
			c0.1,0.3,0.2,0.5,0.3,0.8c0.1,0.2,0.4,0.4,0.8,0.4c0.4,0,0.5-0.3,0.6-0.5c0-0.2,0.1-0.4,0.1-0.5c0-0.7,0-1.4-0.1-2
			c0-0.3,0-0.7-0.6-0.7C33,9.6,33,9.5,33.3,9.6c0.3,0.1,0.7,0.1,1,0.1c0.1,0,0.2,0,0.2,0.1c0,0.1-0.1,0.1-0.1,0.2
			c-0.3,0.1-0.3,0.3-0.3,0.5c0,0.8,0,1.5,0,2.3c0,0.3-0.1,0.6-0.2,0.9c-0.2,0.6-1.4,0.8-1.9,0.3c-0.1-0.1-0.2-0.1-0.2-0.2
			c-0.6-0.3-0.7-0.7-0.8-1.2c-0.1-0.8-0.2-1.6-0.3-2.4c0-0.2,0-0.4-0.3-0.5c-0.1,0-0.1-0.1-0.2-0.1c0.1-0.1,0.2-0.1,0.3-0.2
			C30.7,9.4,30.9,9.4,31.1,9.4z"/>
	</g>
	<g id="XMLID_219_">
		<path id="XMLID_62_" class="st6" d="M9.5,15.4C9.4,15.1,9.4,15,9.8,15c0.5-0.1,0.9-0.3,1.2-0.5c0.1-0.1,0.2-0.1,0.3-0.1
			c0.1,0.2,0.2,0.3-0.1,0.4C11,14.9,11,15.1,11,15.3c0.1,0.7,0.3,1.4,0.4,2.1c0.1,0.4,0.2,0.9,0.4,1.3c0.1,0.2,0.1,0.2,0.4,0.2
			c0.3-0.1,0.6-0.2,0.8-0.4c0.1-0.1,0.2-0.2,0.3-0.3c0.1-0.3,0.2-0.5,0.4-0.8c0-0.1,0.1-0.1,0.2-0.1c0,0.1,0.1,0.1,0.1,0.2
			c-0.1,0.4-0.2,0.8-0.1,1.2c0,0.1-0.1,0.2-0.2,0.2c-0.7,0.2-1.3,0.4-2,0.6c-0.3,0.1-0.5,0.2-0.8,0.3c-0.1,0-0.2,0.1-0.3,0.1
			c-0.1-0.1-0.1-0.2,0.1-0.3c0.2-0.1,0.3-0.2,0.3-0.4c-0.1-0.4-0.2-0.9-0.3-1.3c0-0.1-0.1-0.3-0.1-0.4c0-0.1,0.1-0.1,0.1-0.2
			c0-0.1,0.1-0.2,0-0.2c-0.2-0.3-0.2-0.5-0.4-0.8c-0.1-0.1-0.1-0.3-0.1-0.5C10,15.3,10,15.3,9.5,15.4z"/>
	</g>
	<g id="XMLID_218_">
		<path id="XMLID_56_" class="st11" d="M29.7,14.2c0.2-0.3,0.4-0.5,0.6-0.8c0.3,0.3,0.5,0.6,0.8,0.9c0.7,0.8,1.5,1.5,2.2,2.3
			c0.1,0.1,0.2,0.3,0.2,0.4c0,0.2-0.3,0.3-0.5,0.2c-0.1,0-0.2-0.1-0.2-0.1C31.6,16.2,30.6,15.2,29.7,14.2z"/>
	</g>
	<g id="XMLID_217_">
		<path id="XMLID_55_" class="st11" d="M27.4,14c0.3,0.2,0.7,0.4,1.2,0.4c-0.5,0.8-1.1,1.6-2.3,1.9c-0.3,0.1-0.5,0.1-0.6-0.2
			c-0.1-0.2-0.1-0.4-0.1-0.6c0-0.2,0.2-0.3,0.4-0.4c0.3-0.1,0.5-0.3,0.7-0.4c0,0,0,0,0.1,0C27,14.5,27.2,14.3,27.4,14z"/>
	</g>
	<g id="XMLID_216_">
		<path id="XMLID_53_" class="st12" d="M12,9.1c-0.7,0.1-0.7,0.1-0.6,0.6c0,0.1,0,0.1,0,0.2c0.1,0.1,0.1,0.2,0.3,0.4
			c-0.2,0.1-0.5,0.2-0.8,0.3c0,0,0,0,0,0c0.2-0.3,0.1-0.6,0-0.9c-0.1-0.4-0.1-0.7-0.2-1.1c0-0.1-0.1-0.2-0.2-0.3
			c-0.1-0.1-0.1-0.1,0-0.2C10.7,8.1,11,8,11.3,8C11,8.3,11.3,8.7,11.1,9c0.3-0.1,0.5-0.1,0.7-0.2c0,0,0,0,0.1,0
			C12,8.6,11.8,8.1,11.6,8c-0.2-0.1,0-0.2,0.1-0.2c0.2-0.1,0.5-0.1,0.8-0.2c-0.3,0.4-0.1,0.8-0.1,1.2c0,0.2,0.1,0.5,0.1,0.7
			c0,0.1,0.1,0.2,0.2,0.4c-0.2,0.1-0.5,0.2-0.8,0.3c0,0-0.1,0-0.1,0C12.2,9.9,12,9.5,12,9.1z"/>
	</g>
	<g id="XMLID_215_">
		<path id="XMLID_52_" class="st13" d="M27.4,9.7c-0.3,0.3-0.5,0.5-0.8,0.8c-0.1-0.2-0.3-0.4-0.4-0.6c-0.4-0.5-0.7-1-1.1-1.5
			C25,8.2,25,7.9,25.3,7.7c0.3-0.1,0.6-0.1,0.7,0.1C26.5,8.4,27,9.1,27.4,9.7z"/>
	</g>
	<g id="XMLID_214_">
		<path id="XMLID_51_" class="st14" d="M31.1,9.4c-0.2,0-0.4,0-0.6,0c-0.1,0-0.2,0.1-0.3,0.2c0.1,0,0.1,0.1,0.2,0.1
			c0.3,0.1,0.3,0.3,0.3,0.5c-0.1,0.3-0.3,0.6-0.4,0.9c-0.2-0.4-0.4-0.8-0.6-1.2c0.2-0.4,0.5-0.9,0.7-1.3c0.2-0.3,0.5-0.5,0.8-0.4
			c0.3,0.1,0.5,0.3,0.3,0.7C31.3,9,31.2,9.2,31.1,9.4z"/>
	</g>
	<g id="XMLID_213_">
		<path id="XMLID_50_" class="st15" d="M8.2,9.7C8.2,9.7,8.2,9.7,8.2,9.7c0.2-0.2,0.1-0.4,0-0.5c0,0,0-0.1,0-0.1c0,0,0-0.1,0-0.1
			c0.3-0.1,0.6-0.2,0.9-0.4C9.3,8.4,9.6,8.4,10,8.2c0,0.1,0,0.2,0,0.2c0,0.2-0.1,0.5,0.2,0.6c0,0-0.1,0.1-0.1,0.1c0,0-0.1,0-0.1-0.1
			C9.9,9,9.8,8.8,9.6,8.7c0,0-0.2-0.1-0.2-0.1c0,0-0.1,0.1-0.1,0.1c0.1,0.6,0.2,1.3,0.3,2c0.1,0,0.2,0,0.4-0.1
			c-0.1,0.1-0.1,0.2-0.2,0.2c-0.3,0-0.6,0.2-0.8,0.3c0,0,0,0-0.1,0c-0.1-0.1-0.1-0.2,0-0.3c0.1-0.1,0.1-0.1,0.1-0.2
			C9.1,10.4,9,10,9,9.7c0-0.1,0-0.2-0.1-0.4c0,0,0,0,0-0.1c0-0.1-0.1-0.2-0.1-0.4c0,0-0.1,0-0.1,0c0,0,0,0,0,0c0,0,0,0,0,0
			c0,0.1-0.1,0.3-0.1,0.4c0,0,0,0.1,0,0.1c0,0,0,0.1,0,0.1c0,0,0,0,0,0c0,0,0,0.1,0,0.1c-0.1,0-0.1,0.1-0.2,0.1
			C8.2,9.8,8.2,9.8,8.2,9.7z"/>
	</g>
	<g id="XMLID_212_">
		<path id="XMLID_49_" class="st16" d="M14.9,9.2c0,0-0.1,0-0.1,0c-0.2,0.1-0.5,0.1-0.7,0.2c-0.3,0.1-0.7,0.3-1.1,0.4
			c0-0.1,0-0.2,0-0.2c0.2-0.1,0.1-0.3,0.1-0.5c0-0.2,0-0.4,0-0.6C13.1,8.3,13,8,13,7.7c0,0-0.1-0.1-0.2-0.1c0,0,0.1-0.1,0.1-0.1
			c0.5-0.1,0.9-0.3,1.4-0.4c0.1,0.2,0.1,0.4,0.2,0.6c0,0,0,0-0.1,0c-0.1-0.1-0.1-0.1-0.2-0.2c-0.1-0.1-0.3-0.2-0.5-0.1
			c-0.2,0.1-0.3,0.2-0.2,0.3c0,0.2,0.1,0.4,0.1,0.6c0.3,0,0.5-0.2,0.6-0.4c0,0,0.1,0,0.1,0c0,0.2,0.1,0.5,0.1,0.8
			c-0.3-0.2-0.5-0.3-0.7-0.1c0,0,0,0.1,0,0.1c0,0.1,0,0.1,0,0.2c0,0.1,0,0.2,0.1,0.4c0,0,0.1,0.1,0.1,0.1c0.1,0,0.1,0,0.2-0.1
			c0,0,0.1,0,0.1,0c0.1,0,0.1,0,0.2,0c0.1,0,0.1,0,0.2,0c0.2,0,0.4,0,0.6-0.1c0,0,0.1,0,0.1,0c0.1,0,0.1,0,0.2-0.1
			c0.1,0,0.1,0,0.2,0c0,0,0,0.1,0,0.1c-0.1,0-0.2,0.1-0.3,0.1C15.1,9.2,15,9.2,14.9,9.2z"/>
	</g>
	<g id="XMLID_211_">
		<path id="XMLID_48_" class="st17" d="M14.7,11.6c0,0.2,0,0.3-0.1,0.5c-0.1,0.1-0.2,0.2-0.4,0.3c-0.2,0.1-0.3-0.1-0.3-0.2
			c-0.2-0.3-0.1-0.6,0.2-0.9c0,0,0.2-0.1,0.3-0.1c0.1,0,0.2,0.1,0.3,0.2C14.7,11.4,14.7,11.5,14.7,11.6z"/>
	</g>
	<g id="XMLID_210_">
		<path id="XMLID_47_" class="st18" d="M16.7,10.8c0,0.2,0,0.3-0.1,0.5c-0.1,0.1-0.2,0.2-0.4,0.3c-0.2,0.1-0.2-0.1-0.3-0.2
			c-0.2-0.3,0-0.6,0.2-0.9c0,0,0.2-0.1,0.3-0.1c0.1,0,0.2,0.1,0.3,0.2C16.7,10.7,16.7,10.8,16.7,10.8z"/>
	</g>
	<g id="XMLID_209_">
		<path id="XMLID_46_" class="st19" d="M10.2,9.1C9.9,8.9,10,8.7,10,8.5c0,0.1,0,0.1,0,0.2c0,0.1,0,0.3,0.2,0.3
			C10.2,9,10.2,9.1,10.2,9.1z"/>
	</g>
	<g id="XMLID_208_">
		<path id="XMLID_45_" class="st20" d="M14.1,9.4c0.2-0.1,0.5-0.1,0.7-0.2C14.6,9.3,14.3,9.4,14.1,9.4z"/>
	</g>
	<g id="XMLID_207_">
		<path id="XMLID_44_" class="st20" d="M15,9.1c-0.2,0-0.4,0-0.6,0.1C14.6,9.1,14.8,9.1,15,9.1z"/>
	</g>
	<g id="XMLID_206_">
		<path id="XMLID_43_" class="st21" d="M8.2,9.2c0.1,0.1,0.2,0.3,0,0.4C8.2,9.5,8.2,9.4,8.2,9.2z"/>
	</g>
	<g id="XMLID_204_">
		<path id="XMLID_42_" class="st21" d="M8.5,9.4c0-0.1,0.1-0.3,0.1-0.4C8.5,9.1,8.5,9.3,8.5,9.4z"/>
	</g>
	<g id="XMLID_203_">
		<path id="XMLID_41_" class="st21" d="M8.8,8.9c0,0.1,0.1,0.2,0.1,0.4C8.9,9.1,8.8,9,8.8,8.9z"/>
	</g>
	<g id="XMLID_202_">
		<path id="XMLID_40_" class="st21" d="M8.9,9.3c0,0.1,0,0.2,0.1,0.4C9,9.6,8.9,9.4,8.9,9.3z"/>
	</g>
	<g id="XMLID_201_">
		<path id="XMLID_39_" class="st20" d="M13.6,9.2c0-0.1,0-0.2-0.1-0.4C13.6,8.9,13.6,9,13.6,9.2z"/>
	</g>
	<g id="XMLID_200_">
		<path id="XMLID_38_" class="st20" d="M14,9.2c-0.1,0-0.1,0-0.2,0.1C13.8,9.3,13.9,9.3,14,9.2z"/>
	</g>
	<g id="XMLID_199_">
		<path id="XMLID_37_" class="st20" d="M14.3,9.2c-0.1,0-0.1,0-0.2,0C14.1,9.2,14.2,9.2,14.3,9.2z"/>
	</g>
	<g id="XMLID_198_">
		<path id="XMLID_36_" class="st20" d="M15.3,9c-0.1,0-0.1,0-0.2,0.1C15.2,9,15.2,9,15.3,9z"/>
	</g>
	<g id="XMLID_197_">
		<path id="XMLID_35_" class="st20" d="M14.9,9.2c0.1,0,0.1,0,0.2,0C15.1,9.2,15,9.2,14.9,9.2z"/>
	</g>
	<g id="XMLID_191_">
		<path id="XMLID_34_" class="st20" d="M15.5,9C15.5,9,15.5,9,15.5,9C15.5,8.9,15.5,9,15.5,9C15.5,9,15.5,9,15.5,9z"/>
	</g>
	<g id="XMLID_190_">
		<path id="XMLID_33_" class="st19" d="M10,9.1c0,0,0.1,0,0.1,0.1C10.1,9.2,10,9.1,10,9.1z"/>
	</g>
	<g id="XMLID_189_">
		<path id="XMLID_32_" class="st21" d="M8.2,8.9c0,0,0,0.1,0,0.1C8.2,9,8.2,9,8.2,8.9z"/>
	</g>
	<g id="XMLID_188_">
		<path id="XMLID_29_" class="st20" d="M13.6,8.6c0,0,0-0.1,0-0.1C13.6,8.6,13.6,8.6,13.6,8.6z"/>
	</g>
	<g id="XMLID_187_">
		<path id="XMLID_25_" class="st21" d="M8.2,9.7c0,0,0,0.1,0,0.1C8.2,9.8,8.2,9.8,8.2,9.7z"/>
	</g>
	<g id="XMLID_186_">
		<path id="XMLID_23_" class="st21" d="M8.3,9.7C8.4,9.7,8.4,9.7,8.3,9.7C8.4,9.7,8.4,9.7,8.3,9.7z"/>
	</g>
	<g id="XMLID_185_">
		<path id="XMLID_17_" class="st21" d="M8.4,9.6C8.4,9.6,8.4,9.6,8.4,9.6C8.4,9.6,8.4,9.6,8.4,9.6z"/>
	</g>
	<g id="XMLID_184_">
		<path id="XMLID_11_" class="st21" d="M8.6,9C8.6,8.9,8.6,8.9,8.6,9C8.6,8.9,8.6,8.9,8.6,9z"/>
	</g>
	<g id="XMLID_182_">
		<path id="XMLID_10_" class="st22" d="M29.2,10.8c0.4,0.8,0.4,1.6,0.3,2.5c0,0.1-0.1,0.3-0.2,0.4c-0.1,0-0.1-0.1-0.2-0.1
			c-0.1,0.1-0.2,0.2-0.2,0.3c-0.5,0-0.8-0.3-1-0.6c0.1-0.2,0.2-0.4,0.3-0.6c0.1-0.2,0.1-0.3-0.1-0.4c-0.3-0.3-0.6-0.7-0.8-1
			c0-0.3,0-0.6,0.2-1c0.1,0.3,0.1,0.5,0.5,0.5c0-0.1,0-0.3,0-0.4c0.3,0.3,0.5,0.7,0.8,1C29,11.3,29.1,11,29.2,10.8z"/>
	</g>
	<g id="XMLID_54_">
		<g id="XMLID_3_">
			<path id="XMLID_4_" class="st1" d="M10.4,2.1c0.3,1.2,0.7,2.6,0.5,3.9c0,0.2,0.3,0.3,0.3,0.1C11.4,4.8,11,3.3,10.7,2
				C10.6,1.8,10.3,1.9,10.4,2.1L10.4,2.1z"/>
		</g>
	</g>
	<path id="XMLID_27_" class="st1" d="M50,15.1c0-1.7-0.3-3.3-0.6-4.9c-0.3-1.2-0.6-2.3-1.1-3.4C48,6.2,47.7,5.5,47.3,5
		c-0.1-0.1-0.3-0.3-0.4-0.4C46.6,4.4,46.3,4.2,46,4c-0.8-0.5-1.6-0.8-2.5-1.1c-2.1-0.7-4.4-1-6.6-1.1c-3.5-0.2-7,0-10.5,0.5
		c-3.1,0.4-6.2,1-9.3,1.8c-2.9,0.8-5.8,2-8.8,2.5C7.2,6.8,5.7,7,4.7,6.8c0,0,0,0,0,0c0-0.9,0-1.8,0-2.8C5.4,4.3,6.3,4.5,7,4.5
		c0.8,0,1.5-0.1,2.2-0.4c0.6-0.3,1.4-0.8,1.5-1.5C10.8,2,10.4,1.5,10,1.1C9.4,0.7,8.7,0.5,8.1,0.3C6.6,0,5-0.1,3.6,0.3
		C2.7,0.5,1.9,0.9,1.2,1.5c-0.4,0.3-0.8,0.8-1,1.3c0,0.2-0.1,0.3-0.1,0.5c0,0,0,0,0,0.1C-0.1,6.9,0,10.5,0.2,14.1
		c0.1,1.6,0.2,3.2,0.4,4.7c0.1,1,0.2,2,0.7,3c0.6,1.4,1.9,2.3,3.3,2.7c1.6,0.4,3.3,0.3,4.9,0c1.6-0.3,3.2-0.9,4.7-1.6
		c1-0.5,2-1,3.1-1.5c1.2-0.5,2.3-0.9,3.5-1.3c2.4-0.8,4.9-1.3,7.5-1.6c2.4-0.3,4.8-0.3,7.1-0.1c2,0.2,4.1,0.7,5.9,1.6
		c0.4,0.2,0.8,0.4,1.2,0.7c0,0,0,0,0,0c-0.8,0.7-1.8,1.3-2.7,1.7c0,0-0.2,0.1-0.2,0.1c0.6,1.3,2.2,1.9,3.5,2c1.3,0.1,2.7-0.2,3.8-1
		c0.7-0.5,1.1-1.2,1.6-1.9C49.5,19.7,50,17.4,50,15.1z M3,0.7c1.5-0.6,3.2-0.6,4.7-0.2c0.7,0.2,1.5,0.4,2.1,0.9
		c0.5,0.5,0.7,1.1,0.3,1.7C9,4.6,6.9,4.5,5.4,4C5.2,3.9,4.9,3.8,4.7,3.7c-0.1-0.1-0.4,0-0.4,0.1c0,1,0,2,0,2.9
		C4,6.7,3.6,6.6,3.3,6.4C2.1,6,0.9,5.1,0.6,3.8C0.2,2.3,1.7,1.2,3,0.7z M42.4,20.5c-3.4-2.3-7.8-2.6-11.8-2.5
		c-4.9,0.2-9.8,1.3-14.3,3.4c-1.7,0.8-3.3,1.7-5,2.3c-1.6,0.5-3.3,0.9-5,0.9c-1.5,0-3.1-0.4-4.1-1.6c-0.6-0.6-0.9-1.4-1.1-2.3
		c-0.1-0.6-0.2-1.3-0.3-1.9c-0.1-0.8-0.1-1.6-0.2-2.4c-0.3-4-0.4-8-0.2-12c0.2,0.5,0.6,1,1,1.3c1.1,0.9,2.5,1.4,3.9,1.4
		C6.2,7.1,7.1,7,8,6.9c0.8-0.1,1.6-0.3,2.3-0.4C11.9,6.1,13.4,5.5,15,5c1.3-0.4,2.6-0.8,4-1.1c3.2-0.8,6.6-1.3,9.9-1.7
		c3.5-0.3,7.1-0.4,10.6,0c1.8,0.2,3.6,0.6,5.3,1.4c0.8,0.4,1.7,0.8,2.2,1.6c0.5,0.8-0.1,1.8-0.9,2.2c-0.7,0.3-1.5,0.4-2.3,0.3
		C43.3,7,43,6.2,42.9,5.3c0-0.1-0.1-0.1-0.2-0.1c-0.7,0.1-2.1,0.4-1.8,1.4c0.1,0.3,0.3,0.5,0.5,0.7c0,0,0,0,0,0
		c0.9,1.1,1.7,2.3,2.2,3.6c1.1,2.3,1.6,5.1,0.5,7.4c-0.4,0.8-1,1.5-1.6,2.2C42.5,20.5,42.5,20.5,42.4,20.5z M41.4,6.2
		c0.1-0.5,0.7-0.7,1.2-0.8c0,0.8,0.3,1.5,0.7,2.2c-0.3-0.1-0.6-0.1-0.8-0.2C41.9,7.3,41.2,6.9,41.4,6.2z M48.7,20.6
		c-0.3,0.7-0.7,1.4-1.2,2c-0.3,0.4-0.7,0.9-1.2,1.1c-0.7,0.4-1.5,0.6-2.4,0.6c-1.2,0-2.4-0.2-3.4-1c-0.3-0.3-0.6-0.6-0.8-0.9
		c1.6-0.7,3.1-1.7,4.1-3.2c0.8-1.1,1.2-2.5,1.2-3.9c0-2.4-1-4.8-2.3-6.8c-0.2-0.3-0.4-0.6-0.6-0.9c0.1,0,0.2,0.1,0.3,0.1
		c1.1,0.3,2.3,0.4,3.4,0c0.8-0.3,1.6-1,1.6-1.9c0.1,0.1,0.2,0.3,0.2,0.4c1.1,2.1,1.6,4.5,1.9,6.8C49.9,15.6,49.7,18.2,48.7,20.6z"/>
</g>
</svg>
