<?xml version="1.0" encoding="utf-8"?>
<!-- Generator: Adobe Illustrator 19.0.0, SVG Export Plug-In . SVG Version: 6.00 Build 0)  -->
<svg version="1.1" id="Layer_1" xmlns="http://www.w3.org/2000/svg" xmlns:xlink="http://www.w3.org/1999/xlink" x="0px" y="0px"
	 viewBox="-197.9 385.4 56.1 50" style="enable-background:new -197.9 385.4 56.1 50;" xml:space="preserve">
<g id="content">
	<g id="XMLID_50_">
		<polygon id="XMLID_53_" points="-178.4,388.5 -185.8,388.5 -185.8,401 -184,401 -184,395.6 -180.4,395.6 -180.4,401 -178.6,401 
			-178.6,393.9 -180.4,393.9 -180.4,393.9 -184,393.9 -184,390.3 -178.4,390.3 		"/>
		<path id="XMLID_57_" d="M-180.3,391.3c-0.2,0.2-0.3,0.5-0.3,0.8c0,0.3,0.1,0.6,0.3,0.8c0.2,0.2,0.5,0.3,0.8,0.3
			c0.3,0,0.6-0.1,0.8-0.3c0.2-0.2,0.3-0.5,0.3-0.8c0-0.3-0.1-0.6-0.3-0.8c-0.2-0.2-0.5-0.3-0.8-0.3
			C-179.8,390.9-180.1,391-180.3,391.3z"/>
		<path id="XMLID_65_" d="M-174.1,395.3c0.4,0,0.7,0.1,1,0.2c0.3,0.1,0.6,0.3,0.8,0.6l1.5-0.8c-0.4-0.5-0.8-0.9-1.4-1.2
			c-0.6-0.3-1.2-0.4-1.9-0.4c-0.8,0-1.5,0.2-2.1,0.5s-1.1,0.8-1.4,1.4c-0.3,0.6-0.5,1.2-0.5,1.9c0,1,0.4,1.9,1.1,2.6
			c0.7,0.7,1.7,1.1,2.9,1.1c1.4,0,2.5-0.5,3.2-1.5l-1.4-1c-0.4,0.5-1.1,0.8-1.9,0.8c-0.6,0-1.2-0.2-1.6-0.6
			c-0.4-0.4-0.6-0.9-0.6-1.5c0-0.6,0.2-1.1,0.6-1.5C-175.3,395.5-174.8,395.3-174.1,395.3z"/>
		<path id="XMLID_68_" d="M-170.5,391.1v9.8h1.8v-2.8c0-0.8,0-1.2,0.1-1.5c0.1-0.4,0.3-0.7,0.5-1c0.3-0.2,0.6-0.4,0.9-0.4
			c0.3,0,0.5,0.1,0.7,0.2s0.3,0.4,0.4,0.6c0.1,0.3,0.1,0.8,0.1,1.7v3.1h1.8v-4.7c0-0.4-0.1-0.7-0.2-1.1h1.5v5.7h1.8v-3h0.9
			c0.1,0.8,0.4,1.6,1,2.2c0.7,0.7,1.6,1.1,2.7,1.1c0.7,0,1.3-0.1,1.9-0.4c0.5-0.2,1-0.6,1.3-1.2l-1.5-0.7c-0.5,0.5-1.1,0.7-1.7,0.7
			c-0.6,0-1-0.2-1.4-0.4s-0.6-0.7-0.7-1.2h5.7l0-0.3c0-1.2-0.3-2.1-1.1-2.8s-1.6-1.1-2.7-1.1c-1.1,0-1.9,0.4-2.6,1.1
			c-0.5,0.5-0.8,1.1-0.9,1.8h-0.9v-1.1h0v-0.2h0.8v-1.5h-0.8v-2.4h-1.8v2.4h-1.3h-2.3v0c0,0-0.1,0-0.1,0c-0.4,0-0.7,0.1-1.1,0.2
			s-0.7,0.4-1.1,0.7v-3.5L-170.5,391.1L-170.5,391.1z M-157.9,395.6c0.4-0.3,0.8-0.4,1.3-0.4c0.5,0,0.9,0.1,1.2,0.4s0.6,0.6,0.7,1
			h-3.3h-0.6C-158.3,396.1-158.1,395.8-157.9,395.6z"/>
		<polygon id="XMLID_69_" points="-142.7,385.4 -197.1,385.4 -197.9,386.8 -179.6,418.6 -178,417.6 -195.5,387.3 -144.3,387.3 
			-171,433.5 -169.9,435.4 -141.9,386.8 		"/>
	</g>
</g>
</svg>
