<?xml version="1.0" encoding="utf-8"?>
<!-- Generator: Adobe Illustrator 19.0.0, SVG Export Plug-In . SVG Version: 6.00 Build 0)  -->
<svg version="1.1" id="Layer_1" xmlns="http://www.w3.org/2000/svg" xmlns:xlink="http://www.w3.org/1999/xlink" x="0px" y="0px"
	 viewBox="0 0 199.8 188.3" style="enable-background:new 0 0 199.8 188.3;" xml:space="preserve">
<style type="text/css">
	.st0{fill:#2E416D;}
	.st1{fill:none;stroke:#000000;stroke-width:0.25;stroke-miterlimit:10;}
	.st2{stroke:#000000;stroke-width:0.25;stroke-miterlimit:10;}
</style>
<path class="st0" d="M18.8,155.2c0,0,0.1-0.1,0.1-0.2c0-0.1,0-0.1,0-0.2c0-0.1,0-0.1,0-0.2c0-0.1,0-0.1,0-0.2c0-0.2,0-0.3-0.1-0.4
	c0-0.1-0.1-0.2-0.2-0.3c-0.1-0.1-0.2-0.2-0.3-0.3c-0.1-0.1-0.2-0.2-0.3-0.3l4.6-0.1l7,16.7c0.1,0.3,0.2,0.5,0.4,0.7
	c0.1,0.2,0.2,0.4,0.4,0.5c0.1,0.1,0.2,0.3,0.4,0.4c0.1,0.1,0.3,0.3,0.4,0.4c0,0,0.1,0,0.1,0.1c0,0,0.1,0.1,0.1,0.1
	c0,0,0.1,0.1,0.1,0.1c0,0,0.1,0.1,0.1,0.1c0,0,0.1,0,0.1,0.1c0,0,0.1,0.1,0.1,0.1c0,0,0.1,0.1,0.1,0.1c0,0,0.1,0.1,0.1,0.1h-6.2
	c0.2-0.1,0.4-0.2,0.5-0.3c0.1-0.1,0.3-0.2,0.3-0.3c0.1-0.1,0.1-0.2,0.2-0.4c0-0.1,0.1-0.2,0.1-0.4c0-0.1,0-0.2,0-0.2
	c0-0.1,0-0.2-0.1-0.2c0,0,0-0.1,0-0.1c0,0,0-0.1,0-0.1c0,0,0,0,0-0.1c0,0,0-0.1,0-0.1c0,0,0-0.1-0.1-0.1c0,0,0-0.1-0.1-0.1
	c0,0,0-0.1-0.1-0.1c0,0,0-0.1,0-0.1l-1.9-4.7h-7.2l-1.9,5.1c0,0.1,0,0.2-0.1,0.3s0,0.2-0.1,0.2c0,0.1,0,0.1,0,0.2c0,0.1,0,0.1,0,0.1
	c0,0.1,0,0.2,0,0.3c0,0.1,0,0.2,0.1,0.3s0.1,0.2,0.2,0.2c0.1,0.1,0.1,0.1,0.2,0.2c0,0,0.1,0.1,0.1,0.1c0,0,0.1,0.1,0.1,0.1
	c0,0,0.1,0,0.1,0.1s0,0,0.1,0.1c0,0,0,0,0.1,0.1c0,0,0.1,0,0.1,0h-5.8c0,0,0.1,0,0.1,0c0,0,0.1-0.1,0.1-0.1c0,0,0.1-0.1,0.1-0.1
	c0,0,0.1-0.1,0.1-0.1c0.3-0.3,0.6-0.5,0.9-0.8c0.2-0.2,0.4-0.5,0.6-0.7c0.2-0.3,0.3-0.5,0.4-0.7c0.1-0.2,0.2-0.5,0.2-0.6v-0.1
	L18.8,155.2z M23.7,163.1l-2.8-7.2l-2.8,7.2H23.7z"/>
<path class="st0" d="M34.7,162.4c0.5-0.9,1.2-1.5,2-2c0.9-0.5,1.8-0.9,2.7-1.1c0.9-0.3,1.9-0.4,2.9-0.4c0.1,0,0.3,0,0.4,0
	c0.1,0,0.3,0,0.4,0c0.1,0,0.2,0,0.4,0s0.3,0,0.4,0c0.1,0,0.3,0,0.4,0.1c0.1,0,0.3,0,0.4,0.1c0.1,0,0.2,0,0.4,0.1
	c0.1,0,0.3,0,0.4,0.1v3.2c-0.2-0.2-0.4-0.4-0.7-0.5c-0.3-0.2-0.6-0.3-0.9-0.4c-0.3-0.1-0.6-0.2-1-0.3c-0.3-0.1-0.7-0.1-1-0.1
	c0,0,0,0-0.1,0c0,0,0,0-0.1,0s0,0,0,0c0,0,0,0,0,0c0,0,0,0-0.1,0h0c-0.6,0-1.2,0.1-1.7,0.3c-0.5,0.2-1.1,0.5-1.6,0.9
	c-0.5,0.4-0.9,0.9-1.1,1.5c-0.3,0.6-0.4,1.4-0.5,2.3c0.1,0.9,0.3,1.6,0.7,2.3c0.3,0.6,0.8,1.2,1.4,1.5c0.6,0.4,1.2,0.7,1.8,0.9
	c0.6,0.2,1.3,0.3,1.9,0.4c0,0,0.1,0,0.1,0c0,0,0.1,0,0.1,0c0,0,0.1,0,0.1,0c0,0,0.1,0,0.1,0c0.5,0,0.9,0,1.3-0.1
	c0.4-0.1,0.8-0.2,1.2-0.3c0.4-0.1,0.7-0.3,1.1-0.4s0.6-0.4,0.9-0.6l-1.6,2.9c-0.3,0.1-0.5,0.2-0.8,0.3c-0.3,0.1-0.6,0.2-0.9,0.2
	c-0.3,0.1-0.6,0.1-0.9,0.1c-0.3,0-0.6,0-1,0c0,0-0.1,0-0.1,0s-0.1,0-0.1,0c0,0-0.1,0-0.1,0c0,0-0.1,0-0.1,0c0,0-0.1,0-0.1,0
	c0,0-0.1,0-0.1,0c-0.1,0-0.1,0-0.1,0c0,0-0.1,0-0.1,0c-0.9-0.1-1.8-0.3-2.7-0.6s-1.7-0.8-2.4-1.4c-0.8-0.6-1.4-1.3-1.7-2.2
	s-0.6-2-0.6-3.2c0,0,0,0,0-0.1s0-0.1,0-0.1c0,0,0-0.1,0-0.1s0-0.1,0-0.1v-0.1C33.9,164.3,34.2,163.3,34.7,162.4z"/>
<path class="st0" d="M50,160.8c0-0.3-0.1-0.5-0.2-0.6c-0.1-0.2-0.2-0.3-0.3-0.4c-0.1-0.1-0.2-0.2-0.3-0.3c0,0,0,0-0.1-0.1
	c0,0-0.1,0-0.1-0.1c0,0,0,0-0.1-0.1c0,0-0.1,0-0.1-0.1c0,0,0,0-0.1,0c0,0-0.1,0-0.1,0c0,0,0,0-0.1-0.1c0,0,0,0-0.1-0.1
	c0.2,0,0.3,0,0.5,0.1c0.2,0,0.3,0,0.5,0.1c0.2,0,0.3,0,0.5,0c0.2,0,0.3,0,0.5,0c0.2,0,0.4,0,0.6,0c0.2,0,0.4,0,0.6,0
	c0.2,0,0.4-0.1,0.5-0.1c0.2,0,0.4-0.1,0.5-0.2v8.3c0,0.6,0.1,1.1,0.3,1.5c0.2,0.4,0.4,0.8,0.7,1.1c0.3,0.3,0.7,0.5,1,0.7
	c0.4,0.2,0.7,0.2,1.2,0.2c0.4,0,0.7-0.1,1-0.2c0.3-0.1,0.7-0.3,1-0.6c0.3-0.2,0.6-0.5,0.8-0.9c0.2-0.4,0.4-0.8,0.5-1.3v-6.1
	c0-0.4,0-0.7-0.1-1c-0.1-0.3-0.1-0.5-0.2-0.7c-0.1-0.2-0.2-0.3-0.4-0.5c-0.1-0.1-0.3-0.3-0.4-0.4c0.1,0,0.2,0,0.3,0.1
	c0.1,0,0.2,0,0.3,0c0.1,0,0.2,0,0.4,0s0.2,0,0.4,0c0,0,0,0,0.1,0s0.1,0,0.1,0s0,0,0,0c0,0,0,0,0,0s0,0,0.1,0c0.2,0,0.4,0,0.6,0
	c0.2,0,0.4,0,0.6,0c0.2,0,0.4-0.1,0.6-0.1c0.2,0,0.3-0.1,0.4-0.2v11.1c0,0.5,0,0.9,0.1,1.2c0.1,0.3,0.2,0.6,0.3,0.7
	c0.2,0.2,0.3,0.3,0.5,0.5s0.3,0.3,0.5,0.4h0h-4.2v-2.1c-0.1,0.4-0.2,0.8-0.5,1.1c-0.2,0.3-0.5,0.6-0.9,0.8c-0.4,0.2-0.8,0.3-1.2,0.4
	c-0.4,0.1-0.9,0.2-1.4,0.2c-0.1,0-0.1,0-0.2,0s-0.1,0-0.1,0c0,0,0,0-0.1,0s0,0-0.1,0c0,0-0.1,0-0.1,0s0,0-0.1,0
	c-0.6-0.1-1.1-0.2-1.6-0.4c-0.5-0.2-1-0.5-1.5-0.9c-0.5-0.4-0.8-0.8-1.1-1.4s-0.4-1.2-0.4-2v-6.5C50,161.4,50,161.1,50,160.8z"/>
<path class="st0" d="M67.5,162.2C67.5,162.2,67.5,162.2,67.5,162.2c0-0.1,0-0.1,0-0.1c0,0,0-0.1,0-0.1c0,0,0-0.1,0-0.1
	c0,0,0-0.1,0-0.1c0,0,0-0.1,0-0.1s0-0.1,0-0.1c0,0,0-0.1,0-0.1c0-0.2,0-0.4-0.1-0.7c0-0.2-0.1-0.4-0.1-0.7c-0.1-0.2-0.2-0.4-0.4-0.6
	c-0.2-0.2-0.4-0.3-0.6-0.5c0.1,0,0.1,0,0.2,0c0.1,0,0.2,0,0.2,0c0.1,0,0.2,0,0.2,0c0.1,0,0.2,0,0.2,0c0,0,0,0,0.1,0c0,0,0,0,0.1,0
	c0,0,0.1,0,0.1,0c0,0,0.1,0,0.1,0c0,0,0.1,0,0.1,0c0,0,0.1,0,0.1,0c0,0,0.1,0,0.1,0c0,0,0.1,0,0.1,0c0,0,0.1,0,0.2,0
	c0.3,0,0.5,0,0.7,0s0.4,0,0.6-0.1c0.2,0,0.4-0.1,0.5-0.1c0.1-0.1,0.2-0.1,0.2-0.2v2c0.3-0.3,0.6-0.5,0.9-0.8
	c0.4-0.2,0.7-0.4,1.2-0.6c0.5-0.2,0.9-0.3,1.4-0.4c0.5-0.1,1-0.1,1.5-0.1c0,0,0.1,0,0.1,0c0,0,0.1,0,0.1,0c0,0,0,0,0.1,0s0,0,0.1,0
	c0,0,0,0,0.1,0c0,0,0.1,0,0.1,0c0.7,0.1,1.4,0.2,2.1,0.5c0.7,0.3,1.3,0.7,1.9,1.2c0.6,0.5,1.1,1.3,1.5,2.1c0.3,0.9,0.6,1.9,0.6,3.1
	c0,0,0,0,0,0.1c0,0,0,0,0,0.1c0,0,0,0,0,0.1s0,0,0,0.1c0,0,0,0,0,0.1s0,0,0,0.1c-0.1,0.8-0.3,1.7-0.6,2.5c-0.3,0.8-0.8,1.5-1.4,2.2
	c-0.6,0.7-1.3,1.2-2.1,1.6c-0.8,0.3-1.8,0.5-2.8,0.5c-0.2,0-0.4,0-0.6,0c-0.2,0-0.4,0-0.6-0.1c-0.2,0-0.4-0.1-0.6-0.1
	c-0.2,0-0.4-0.1-0.6-0.2l-1.9-2.8c0.2,0.2,0.5,0.3,0.7,0.4c0.3,0.1,0.5,0.2,0.8,0.3c0.3,0.1,0.5,0.1,0.8,0.2s0.5,0.1,0.8,0.1
	c0,0,0.1,0,0.1,0s0.1,0,0.1,0c0,0,0.1,0,0.1,0c0,0,0.1,0,0.1,0c0.5,0,1-0.1,1.4-0.2c0.5-0.1,0.9-0.4,1.3-0.7
	c0.4-0.3,0.8-0.7,1.1-1.2s0.5-1.2,0.6-1.9c0-0.1,0-0.2,0-0.2s0-0.2,0-0.2c0,0,0-0.1,0-0.1s0-0.1,0-0.1c0,0,0-0.1,0-0.1s0-0.1,0-0.1
	c0,0,0,0,0-0.1c0,0,0,0,0-0.1s0,0,0-0.1s0,0,0-0.1c0-0.6-0.1-1.2-0.3-1.7c-0.2-0.6-0.5-1.1-0.9-1.6c-0.4-0.5-0.8-0.9-1.3-1.1
	s-1.1-0.4-1.7-0.4c-0.7,0-1.4,0.1-2,0.3c-0.6,0.2-1,0.4-1.4,0.8c-0.4,0.3-0.6,0.8-0.8,1.4s-0.3,1.3-0.3,2.2v9.7c0,0.5,0,0.9,0.1,1.2
	c0,0.4,0.1,0.7,0.2,1c0.1,0.3,0.2,0.5,0.4,0.8c0.2,0.2,0.4,0.4,0.7,0.5h-5.8c0.3-0.1,0.6-0.3,0.8-0.4c0.2-0.1,0.4-0.3,0.5-0.5
	c0.1-0.2,0.2-0.4,0.2-0.6c0.1-0.2,0.1-0.4,0.1-0.6c0,0,0,0,0,0c0,0,0,0,0,0c0,0,0,0,0-0.1V162.2z"/>
<path class="st0" d="M86,160.8c0-0.3-0.1-0.5-0.2-0.6c-0.1-0.2-0.2-0.3-0.3-0.4c-0.1-0.1-0.2-0.2-0.3-0.3c0,0,0,0-0.1-0.1
	c0,0-0.1,0-0.1-0.1c0,0,0,0-0.1-0.1c0,0-0.1,0-0.1-0.1c0,0,0,0-0.1,0c0,0-0.1,0-0.1,0c0,0,0,0-0.1-0.1c0,0,0,0-0.1-0.1
	c0.2,0,0.3,0,0.5,0.1c0.2,0,0.3,0,0.5,0.1c0.2,0,0.3,0,0.5,0c0.2,0,0.3,0,0.5,0c0.2,0,0.4,0,0.6,0c0.2,0,0.4,0,0.6,0
	c0.2,0,0.4-0.1,0.5-0.1c0.2,0,0.4-0.1,0.5-0.2v8.3c0,0.6,0.1,1.1,0.3,1.5c0.2,0.4,0.4,0.8,0.7,1.1c0.3,0.3,0.7,0.5,1,0.7
	c0.4,0.2,0.7,0.2,1.2,0.2c0.4,0,0.7-0.1,1-0.2c0.3-0.1,0.7-0.3,1-0.6c0.3-0.2,0.6-0.5,0.8-0.9c0.2-0.4,0.4-0.8,0.5-1.3v-6.1
	c0-0.4,0-0.7-0.1-1c-0.1-0.3-0.1-0.5-0.2-0.7c-0.1-0.2-0.2-0.3-0.4-0.5c-0.1-0.1-0.3-0.3-0.4-0.4c0.1,0,0.2,0,0.3,0.1
	c0.1,0,0.2,0,0.3,0c0.1,0,0.2,0,0.4,0s0.2,0,0.4,0c0,0,0,0,0.1,0s0.1,0,0.1,0s0,0,0,0c0,0,0,0,0,0s0,0,0.1,0c0.2,0,0.4,0,0.6,0
	c0.2,0,0.4,0,0.6,0c0.2,0,0.4-0.1,0.6-0.1c0.2,0,0.3-0.1,0.4-0.2v11.1c0,0.5,0,0.9,0.1,1.2c0.1,0.3,0.2,0.6,0.3,0.7
	c0.2,0.2,0.3,0.3,0.5,0.5s0.3,0.3,0.5,0.4h0h-4.2v-2.1c-0.1,0.4-0.2,0.8-0.5,1.1c-0.2,0.3-0.5,0.6-0.9,0.8c-0.4,0.2-0.8,0.3-1.2,0.4
	c-0.4,0.1-0.9,0.2-1.4,0.2c-0.1,0-0.1,0-0.2,0s-0.1,0-0.1,0c0,0,0,0-0.1,0s0,0-0.1,0c0,0-0.1,0-0.1,0s0,0-0.1,0
	c-0.6-0.1-1.1-0.2-1.6-0.4c-0.5-0.2-1-0.5-1.5-0.9c-0.5-0.4-0.8-0.8-1.1-1.4s-0.4-1.2-0.4-2v-6.5C86.1,161.4,86,161.1,86,160.8z"/>
<path class="st0" d="M103.7,161.5c0-0.4,0-0.7-0.1-1c-0.1-0.3-0.1-0.5-0.2-0.7c-0.1-0.2-0.2-0.3-0.4-0.5c-0.1-0.1-0.3-0.3-0.5-0.4
	c0.1,0,0.2,0,0.3,0c0.1,0,0.2,0,0.3,0c0,0,0.1,0,0.1,0c0,0,0.1,0,0.2,0c0,0,0.1,0,0.1,0c0,0,0.1,0,0.1,0c0.1,0,0.2,0,0.2,0
	c0.1,0,0.1,0,0.2,0c0.1,0,0.2,0,0.2,0c0.1,0,0.1,0,0.2,0c0.2,0,0.4,0,0.5,0s0.3,0,0.4-0.1c0.1,0,0.3-0.1,0.4-0.1
	c0.1-0.1,0.2-0.1,0.3-0.2v2.2c0.2-0.3,0.5-0.6,0.8-0.9s0.7-0.5,1.1-0.7c0.4-0.2,0.8-0.3,1.3-0.4c0.4-0.1,0.9-0.2,1.3-0.2
	c0.6,0,1.2,0.1,1.8,0.3c0.6,0.2,1.1,0.5,1.6,0.9c0.5,0.4,0.9,0.9,1.2,1.5c0.3,0.6,0.4,1.4,0.4,2.2c0,0,0,0,0,0.1s0,0,0,0s0,0,0,0
	s0,0,0,0.1s0,0,0,0.1c0,0,0,0,0,0.1s0,0.1,0,0.1c0,0,0,0,0,0.1s0,0,0,0.1v5.7c0,0.4,0,0.8,0.1,1.1c0,0.3,0.1,0.6,0.2,0.8
	c0.1,0.2,0.2,0.4,0.4,0.6c0.2,0.1,0.4,0.2,0.7,0.2h-5.6c0,0,0,0,0.1,0c0,0,0,0,0.1,0c0,0,0.1,0,0.1-0.1c0,0,0.1,0,0.1,0
	c0,0,0.1,0,0.1,0c0.2-0.1,0.3-0.2,0.4-0.3c0.1-0.1,0.2-0.2,0.3-0.4c0.1-0.2,0.1-0.4,0.2-0.7c0-0.3,0.1-0.7,0.1-1.2v-6.1
	c0-0.5-0.1-0.9-0.3-1.3c-0.2-0.4-0.4-0.7-0.8-1c-0.4-0.3-0.7-0.5-1.1-0.6c-0.4-0.2-0.8-0.2-1.2-0.3c0,0,0,0-0.1,0c0,0,0,0-0.1,0
	s0,0-0.1,0c-0.4,0-0.8,0.1-1.2,0.2c-0.4,0.1-0.7,0.4-1.1,0.6c-0.4,0.3-0.6,0.6-0.8,1.1c-0.2,0.4-0.3,0.9-0.3,1.5c0,0,0,0,0,0.1
	c0,0,0,0,0,0.1s0,0,0,0.1s0,0,0,0.1c0,0,0,0,0,0.1c0,0,0,0,0,0.1c0,0,0,0,0,0.1s0,0,0,0.1v5.1c0,0.5,0,0.9,0.1,1.3
	c0.1,0.4,0.2,0.7,0.3,0.9c0.1,0.2,0.3,0.4,0.5,0.6c0.2,0.1,0.5,0.2,0.8,0.3h-5.8h0c0,0,0,0,0.1,0c0.2-0.1,0.4-0.2,0.6-0.4
	c0.2-0.1,0.3-0.3,0.5-0.4c0.2-0.2,0.3-0.4,0.3-0.6c0.1-0.2,0.1-0.5,0.1-0.9v-0.1V161.5z"/>
<path class="st0" d="M120.5,162.4c0.5-0.9,1.2-1.5,2-2c0.9-0.5,1.8-0.9,2.7-1.1c0.9-0.3,1.9-0.4,2.9-0.4c0.1,0,0.3,0,0.4,0
	c0.1,0,0.3,0,0.4,0c0.1,0,0.2,0,0.4,0s0.3,0,0.4,0c0.1,0,0.3,0,0.4,0.1c0.1,0,0.3,0,0.4,0.1c0.1,0,0.2,0,0.4,0.1
	c0.1,0,0.3,0,0.4,0.1v3.2c-0.2-0.2-0.4-0.4-0.7-0.5c-0.3-0.2-0.6-0.3-0.9-0.4c-0.3-0.1-0.6-0.2-1-0.3c-0.3-0.1-0.7-0.1-1-0.1
	c0,0,0,0-0.1,0c0,0,0,0-0.1,0s0,0,0,0c0,0,0,0,0,0c0,0,0,0-0.1,0h0c-0.6,0-1.2,0.1-1.7,0.3c-0.5,0.2-1.1,0.5-1.6,0.9
	c-0.5,0.4-0.9,0.9-1.1,1.5c-0.3,0.6-0.4,1.4-0.5,2.3c0.1,0.9,0.3,1.6,0.7,2.3c0.3,0.6,0.8,1.2,1.4,1.5c0.6,0.4,1.2,0.7,1.8,0.9
	c0.6,0.2,1.3,0.3,1.9,0.4c0,0,0.1,0,0.1,0c0,0,0.1,0,0.1,0c0,0,0.1,0,0.1,0c0,0,0.1,0,0.1,0c0.5,0,0.9,0,1.3-0.1
	c0.4-0.1,0.8-0.2,1.2-0.3c0.4-0.1,0.7-0.3,1.1-0.4s0.6-0.4,0.9-0.6l-1.6,2.9c-0.3,0.1-0.5,0.2-0.8,0.3c-0.3,0.1-0.6,0.2-0.9,0.2
	c-0.3,0.1-0.6,0.1-0.9,0.1c-0.3,0-0.6,0-1,0c0,0-0.1,0-0.1,0s-0.1,0-0.1,0c0,0-0.1,0-0.1,0c0,0-0.1,0-0.1,0c0,0-0.1,0-0.1,0
	c0,0-0.1,0-0.1,0c-0.1,0-0.1,0-0.1,0c0,0-0.1,0-0.1,0c-0.9-0.1-1.8-0.3-2.7-0.6s-1.7-0.8-2.4-1.4c-0.8-0.6-1.4-1.3-1.7-2.2
	s-0.6-2-0.6-3.2c0,0,0,0,0-0.1s0-0.1,0-0.1c0,0,0-0.1,0-0.1s0-0.1,0-0.1v-0.1C119.7,164.3,120,163.3,120.5,162.4z"/>
<path class="st0" d="M136.5,161h-2.1v-1.1c0.5,0,1,0,1.4-0.3c0.4-0.2,0.8-0.5,1.1-0.9c0.3-0.4,0.6-0.9,0.7-1.6
	c0.2-0.6,0.2-1.4,0.2-2.3l1.1-0.1v4.4h2.1c0.2,0,0.4,0.1,0.6,0.1s0.3,0,0.5,0c0.1,0,0.2,0,0.4,0s0.2-0.1,0.4-0.1h0l0,0h0v2.7
	c-0.1-0.1-0.1-0.2-0.3-0.2c-0.1-0.1-0.3-0.2-0.4-0.2s-0.3-0.1-0.5-0.1c-0.2,0-0.4,0-0.6,0l-2.1-0.1v6.7c0,0.5,0.1,1,0.2,1.4
	c0.1,0.4,0.3,0.7,0.6,1c0.3,0.3,0.6,0.5,0.8,0.6c0.3,0.1,0.6,0.2,0.9,0.3c0,0,0,0,0.1,0c0,0,0,0,0.1,0c0,0,0.1,0,0.1,0s0.1,0,0.1,0
	c0.1,0,0.2,0,0.4,0c0.1,0,0.2,0,0.4-0.1c0.1,0,0.2-0.1,0.3-0.1c0.1,0,0.2-0.1,0.3-0.2l-1.6,2.3c-0.1,0-0.2,0-0.3,0
	c-0.1,0-0.2,0-0.3,0c-0.1,0-0.1,0-0.2,0s-0.1,0-0.1,0c0,0-0.1,0-0.1,0c0,0-0.1,0-0.1,0c-0.6,0-1.1-0.1-1.5-0.2
	c-0.4-0.1-0.8-0.3-1.1-0.6c-0.3-0.3-0.5-0.6-0.7-0.9c-0.2-0.3-0.3-0.7-0.4-1c0-0.1,0-0.2-0.1-0.3s-0.1-0.2-0.1-0.3
	c0-0.1,0-0.2,0-0.3s0-0.2,0-0.3v-0.1V161z"/>
<path class="st0" d="M146.7,160.8c0-0.3-0.1-0.5-0.2-0.6c-0.1-0.2-0.2-0.3-0.3-0.4c-0.1-0.1-0.2-0.2-0.3-0.3c0,0,0,0-0.1-0.1
	c0,0-0.1,0-0.1-0.1c0,0,0,0-0.1-0.1c0,0-0.1,0-0.1-0.1c0,0,0,0-0.1,0c0,0-0.1,0-0.1,0c0,0,0,0-0.1-0.1c0,0,0,0-0.1-0.1
	c0.2,0,0.3,0,0.5,0.1c0.2,0,0.3,0,0.5,0.1c0.2,0,0.3,0,0.5,0c0.2,0,0.3,0,0.5,0c0.2,0,0.4,0,0.6,0c0.2,0,0.4,0,0.6,0
	c0.2,0,0.4-0.1,0.5-0.1c0.2,0,0.4-0.1,0.5-0.2v8.3c0,0.6,0.1,1.1,0.3,1.5c0.2,0.4,0.4,0.8,0.7,1.1c0.3,0.3,0.7,0.5,1,0.7
	c0.4,0.2,0.7,0.2,1.2,0.2c0.4,0,0.7-0.1,1-0.2c0.3-0.1,0.7-0.3,1-0.6c0.3-0.2,0.6-0.5,0.8-0.9c0.2-0.4,0.4-0.8,0.5-1.3v-6.1
	c0-0.4,0-0.7-0.1-1c-0.1-0.3-0.1-0.5-0.2-0.7c-0.1-0.2-0.2-0.3-0.4-0.5c-0.1-0.1-0.3-0.3-0.4-0.4c0.1,0,0.2,0,0.3,0.1
	c0.1,0,0.2,0,0.3,0c0.1,0,0.2,0,0.4,0s0.2,0,0.4,0c0,0,0,0,0.1,0s0.1,0,0.1,0s0,0,0,0c0,0,0,0,0,0s0,0,0.1,0c0.2,0,0.4,0,0.6,0
	c0.2,0,0.4,0,0.6,0c0.2,0,0.4-0.1,0.6-0.1c0.2,0,0.3-0.1,0.4-0.2v11.1c0,0.5,0,0.9,0.1,1.2c0.1,0.3,0.2,0.6,0.3,0.7
	c0.2,0.2,0.3,0.3,0.5,0.5s0.3,0.3,0.5,0.4h0H156v-2.1c-0.1,0.4-0.2,0.8-0.5,1.1c-0.2,0.3-0.5,0.6-0.9,0.8c-0.4,0.2-0.8,0.3-1.2,0.4
	c-0.4,0.1-0.9,0.2-1.4,0.2c-0.1,0-0.1,0-0.2,0s-0.1,0-0.1,0c0,0,0,0-0.1,0s0,0-0.1,0c0,0-0.1,0-0.1,0s0,0-0.1,0
	c-0.6-0.1-1.1-0.2-1.6-0.4c-0.5-0.2-1-0.5-1.5-0.9c-0.5-0.4-0.8-0.8-1.1-1.4s-0.4-1.2-0.4-2v-6.5
	C146.8,161.4,146.8,161.1,146.7,160.8z"/>
<path class="st0" d="M164.5,161.5c0-0.3,0-0.6-0.1-0.8c0-0.2-0.1-0.5-0.2-0.6c-0.1-0.2-0.2-0.3-0.3-0.5c-0.1-0.2-0.2-0.3-0.4-0.4
	c0,0,0,0,0,0c0,0,0,0,0,0c0,0,0,0,0,0c0,0,0,0,0,0s0,0,0,0c0,0,0,0,0,0c0,0,0,0,0,0s0,0,0,0c0,0,0.1,0,0.1,0c0,0,0.1,0,0.1,0
	c0,0,0.1,0,0.1,0c0,0,0.1,0,0.1,0c0,0,0.1,0,0.1,0s0.1,0,0.1,0c0,0,0.1,0,0.1,0s0.1,0,0.1,0c0,0,0.1,0,0.1,0c0,0,0.1,0,0.1,0
	c0,0,0,0,0.1,0c0,0,0.1,0,0.1,0c0,0,0.1,0,0.1,0s0.1,0,0.2,0c0,0,0.1,0,0.1,0c0,0,0.1,0,0.1,0c0,0,0.1,0,0.1,0c0,0,0.1,0,0.2,0
	c0,0,0.1,0,0.1,0c0,0,0.1,0,0.1,0c0.2,0,0.4,0,0.5,0s0.3,0,0.5,0c0.2,0,0.3,0,0.4-0.1c0.1,0,0.2-0.1,0.2-0.1v2
	c0.2-0.3,0.4-0.6,0.6-0.8c0.2-0.2,0.5-0.4,0.8-0.6c0.3-0.2,0.6-0.3,0.9-0.4c0.3-0.1,0.6-0.1,1-0.1c0,0,0.1,0,0.1,0c0,0,0.1,0,0.2,0
	c0,0,0.1,0,0.1,0c0,0,0.1,0,0.1,0c0.1,0,0.2,0,0.3,0c0.1,0,0.2,0,0.3,0v2.7c-0.1-0.1-0.1-0.1-0.2-0.2c-0.1-0.1-0.2-0.1-0.3-0.2
	c-0.1-0.1-0.3-0.1-0.4-0.1c-0.1,0-0.3,0-0.4,0c0,0,0,0-0.1,0c0,0-0.1,0-0.1,0c0,0,0,0-0.1,0s-0.1,0-0.1,0c-0.1,0-0.1,0-0.2,0
	c-0.1,0-0.1,0-0.2,0c-0.3,0.1-0.6,0.2-0.8,0.4c-0.3,0.2-0.5,0.5-0.7,0.8c-0.2,0.3-0.4,0.7-0.5,1.2c-0.1,0.5-0.2,1-0.2,1.7
	c0,0,0,0.1,0,0.1s0,0.1,0,0.1c0,0,0,0,0,0.1c0,0,0,0,0,0.1s0,0,0,0.1v4.4c0,0.3,0,0.6,0.1,0.9c0.1,0.3,0.1,0.5,0.3,0.8
	c0.1,0.3,0.3,0.5,0.4,0.7s0.4,0.3,0.6,0.4h-5.6h0c0,0,0,0,0.1,0c0.1,0,0.1,0,0.2-0.1c0.1,0,0.1-0.1,0.2-0.1c0.1,0,0.1-0.1,0.2-0.2
	c0.1-0.1,0.1-0.2,0.2-0.2c0.1-0.2,0.2-0.3,0.3-0.5c0.1-0.2,0.1-0.4,0.2-0.6c0,0,0,0,0-0.1s0,0,0-0.1c0,0,0,0,0-0.1c0,0,0-0.1,0-0.1
	c0,0,0,0,0-0.1s0,0,0-0.1c0,0,0,0,0-0.1s0,0,0-0.1v-0.1V161.5z"/>
<path class="st0" d="M174.7,165.4c0-0.2,0-0.4,0.1-0.6c0-0.2,0.1-0.4,0.1-0.5c0-0.2,0.1-0.4,0.1-0.6c0.2-0.6,0.5-1.2,0.9-1.8
	c0.4-0.6,0.8-1.1,1.4-1.6c0.6-0.5,1.2-0.9,2-1.2s1.6-0.4,2.6-0.4c0,0,0,0,0.1,0s0,0,0.1,0c0,0,0.1,0,0.1,0c0,0,0.1,0,0.1,0
	c0,0,0.1,0,0.1,0c0.9,0,1.8,0.1,2.6,0.4s1.5,0.7,2.2,1.3c0.6,0.5,1.1,1.2,1.5,2.1c0.3,0.8,0.5,1.8,0.5,2.9l-10.9-0.1
	c0,0.2,0,0.3,0,0.4c0,0.1,0,0.2,0,0.4c0,0.1,0,0.2,0.1,0.4c0,0.1,0.1,0.2,0.1,0.4c0.1,0.5,0.3,1,0.6,1.4c0.3,0.5,0.6,0.9,1,1.3
	s0.9,0.7,1.5,1c0.6,0.2,1.3,0.4,2,0.4c0,0,0,0,0.1,0c0,0,0,0,0.1,0c0,0,0.1,0,0.1,0c0,0,0.1,0,0.1,0c0,0,0.1,0,0.1,0
	c0.3,0,0.7,0,1.1,0c0.4,0,0.8-0.1,1.2-0.2c0.5-0.1,0.9-0.2,1.4-0.5s0.9-0.6,1.4-1l-1.4,2.7c-0.1,0.1-0.2,0.1-0.3,0.1
	c-0.1,0-0.2,0.1-0.3,0.1c-0.1,0-0.2,0.1-0.3,0.1s-0.2,0.1-0.3,0.1c-0.2,0-0.4,0.1-0.5,0.1c-0.2,0-0.4,0.1-0.5,0.1
	c-0.1,0-0.2,0-0.3,0s-0.2,0-0.3,0c-0.1,0-0.2,0-0.3,0c-0.1,0-0.2,0-0.3,0c-0.2,0-0.4,0.1-0.5,0.1c-0.2,0-0.4,0-0.5,0
	c-1.2,0-2.2-0.2-3.3-0.5c-1-0.3-2-0.8-2.8-1.5c-0.9-0.7-1.5-1.5-1.9-2.3c-0.4-0.9-0.6-1.8-0.6-2.8v-0.1
	C174.7,165.8,174.7,165.6,174.7,165.4z M185.8,163.6c-0.1-0.4-0.2-0.8-0.5-1.1c-0.2-0.3-0.5-0.6-0.9-0.9s-0.7-0.4-1.1-0.5
	c-0.4-0.1-0.8-0.2-1.2-0.2c0,0,0,0-0.1,0s0,0-0.1,0c0,0,0,0-0.1,0s0,0-0.1,0c-0.4,0-0.8,0.1-1.2,0.2c-0.4,0.1-0.7,0.3-1.1,0.5
	c-0.4,0.2-0.7,0.5-0.9,0.8s-0.4,0.7-0.6,1.2v-0.1H185.8z"/>
<path class="st0" d="M52.6,127.2c0-0.1,0-0.2,0-0.3c0-0.1,0-0.2,0-0.3c0,0,0-0.1,0-0.1c0,0,0-0.1,0-0.2c0,0,0-0.1,0-0.1
	c0,0,0-0.1,0-0.2c0-0.2-0.1-0.4-0.1-0.6c-0.1-0.2-0.1-0.4-0.2-0.6c-0.1-0.2-0.2-0.4-0.3-0.6c-0.1-0.2-0.3-0.4-0.5-0.5l5.7-0.1
	c-0.2,0.2-0.4,0.3-0.6,0.6c-0.2,0.2-0.3,0.5-0.4,0.7c-0.1,0.3-0.2,0.6-0.3,1c-0.1,0.4-0.1,0.7-0.1,1.1v4.4h10.9v-4.7
	c0,0,0-0.1,0-0.1c0,0,0,0,0-0.1s0-0.1,0-0.1c0,0,0-0.1,0-0.1s0-0.1,0-0.1c0,0,0-0.1,0-0.1s0-0.1,0-0.1c0-0.2-0.1-0.5-0.2-0.7
	c-0.1-0.2-0.2-0.5-0.3-0.7c-0.1-0.2-0.3-0.4-0.5-0.6c-0.2-0.2-0.4-0.3-0.6-0.4l6.2-0.1c0,0,0,0.1,0,0.1c0,0,0,0.1,0,0.1c0,0,0,0,0,0
	c0,0,0,0,0,0c0,0,0,0-0.1,0.1s-0.1,0.1-0.1,0.1c0,0,0,0-0.1,0.1c0,0,0,0-0.1,0.1c0,0,0,0-0.1,0.1c0,0,0,0-0.1,0.1
	c-0.1,0.1-0.2,0.3-0.3,0.4c-0.1,0.1-0.2,0.3-0.3,0.5c-0.1,0.2-0.1,0.4-0.2,0.7c-0.1,0.3-0.1,0.6-0.1,0.9v13.7c0,0.4,0,0.7,0.1,1
	c0,0.3,0.1,0.5,0.2,0.7s0.2,0.4,0.4,0.6c0.2,0.2,0.4,0.4,0.6,0.5c0,0,0,0,0,0s0,0,0,0s0,0,0.1,0h-5.9c0.2-0.1,0.4-0.2,0.6-0.3
	c0.2-0.1,0.3-0.3,0.4-0.5c0.1-0.2,0.2-0.4,0.3-0.6c0.1-0.2,0.1-0.4,0.1-0.6c0,0,0-0.1,0-0.1c0,0,0,0,0-0.1c0,0,0,0,0-0.1
	c0,0,0-0.1,0-0.1c0,0,0-0.1,0-0.1s0-0.1,0-0.1c0,0,0-0.1,0-0.1s0-0.1,0-0.1v-6.9H55.7v6.7c0,0.3,0,0.6,0.1,0.9
	c0.1,0.3,0.2,0.5,0.3,0.8c0.1,0.2,0.3,0.5,0.4,0.7c0.2,0.2,0.4,0.4,0.6,0.5h-5.9c0.2-0.1,0.5-0.2,0.6-0.4c0.2-0.2,0.3-0.4,0.5-0.7
	c0.1-0.3,0.2-0.6,0.3-0.8c0.1-0.3,0.1-0.6,0.1-0.9v-0.1V127.2z"/>
<path class="st0" d="M74.1,136c0-0.2,0-0.4,0.1-0.6c0-0.2,0.1-0.4,0.2-0.7c0.1-0.2,0.1-0.5,0.2-0.7c0.2-0.6,0.5-1.1,0.9-1.7
	c0.4-0.5,0.9-1.1,1.5-1.6c0.6-0.5,1.3-0.9,2.1-1.1c0.8-0.3,1.8-0.4,2.8-0.4c0,0,0,0,0.1,0c0,0,0,0,0.1,0c0,0,0.1,0,0.1,0
	c0,0,0.1,0,0.1,0c0,0,0.1,0,0.1,0c0.1,0,0.2,0,0.4,0c0.1,0,0.2,0,0.4,0c0.1,0,0.2,0,0.4,0c0.1,0,0.2,0,0.4,0c0.7,0.1,1.4,0.4,2,0.8
	c0.6,0.4,1.3,0.9,1.9,1.4c0.6,0.6,1,1.2,1.3,2s0.5,1.6,0.5,2.6c0,0,0,0,0,0.1s0,0,0,0.1c0,0,0,0,0,0c0,0,0,0,0,0c0,0,0,0,0,0.1
	c0,0,0,0,0,0.1c0,0,0,0,0,0c0,0,0,0,0,0c0,0,0,0,0,0.1s0,0.1,0,0.1c0,0,0,0.1,0,0.1s0,0,0,0.1c0,0,0,0,0,0.1s0,0.1,0,0.1
	c0,0,0,0.1,0,0.1c0,0,0,0,0,0.1c-0.1,0.8-0.3,1.7-0.7,2.4c-0.4,0.8-0.9,1.5-1.5,2.2c-0.6,0.7-1.4,1.2-2.4,1.5
	c-0.9,0.3-2,0.5-3.2,0.5c-1.2,0-2.3-0.2-3.2-0.5c-0.9-0.3-1.7-0.9-2.3-1.5c-0.6-0.7-1.1-1.4-1.4-2.2c-0.3-0.8-0.5-1.6-0.6-2.4
	c0,0,0-0.1,0-0.1c0,0,0-0.1,0-0.2c0,0,0-0.1,0-0.1s0,0,0-0.1c0,0,0,0,0-0.1s0-0.1,0-0.1v-0.1C74.1,136.3,74.1,136.2,74.1,136z
	 M77.6,138.6c0.2,0.7,0.5,1.2,1,1.8c0.4,0.5,0.9,0.9,1.4,1.1c0.6,0.2,1.2,0.4,1.9,0.4c0.8,0,1.5-0.1,2.1-0.4
	c0.6-0.3,1.1-0.6,1.4-1.1c0.4-0.5,0.6-1.1,0.8-1.6c0.2-0.6,0.3-1.2,0.3-1.8c0,0,0,0,0-0.1c0,0,0,0,0-0.1c0,0,0,0,0-0.1s0-0.1,0-0.1
	c0-0.6-0.1-1.3-0.3-1.9c-0.2-0.6-0.5-1.2-0.9-1.7c-0.4-0.5-0.8-1-1.4-1.2c-0.5-0.3-1.2-0.4-1.9-0.4c0,0,0,0,0,0c0,0,0,0,0,0
	c0,0,0,0,0,0c0,0,0,0,0,0c-0.1,0-0.3,0-0.4,0c-0.2,0-0.3,0-0.5,0.1c-0.1,0-0.2,0-0.3,0.1c-0.1,0-0.2,0-0.3,0.1
	c-0.1,0-0.2,0.1-0.3,0.1c-0.1,0-0.2,0.1-0.3,0.1c-0.3,0.1-0.6,0.3-1,0.6c-0.3,0.3-0.6,0.5-0.9,0.9c-0.3,0.4-0.5,0.8-0.6,1.3
	c-0.1,0.5-0.2,1.1-0.2,1.8v-0.1C77.2,137.1,77.4,137.9,77.6,138.6z"/>
<path class="st0" d="M93.7,126.8c0-0.6,0-1-0.1-1.4c0-0.4-0.1-0.6-0.2-0.8c-0.1-0.2-0.2-0.3-0.3-0.4c-0.1-0.1-0.2-0.2-0.3-0.3
	c0,0-0.1,0-0.1-0.1c-0.1,0-0.1-0.1-0.1-0.1c0,0,0,0-0.1,0s-0.1,0-0.1,0c0,0-0.1,0-0.1-0.1c0,0-0.1,0-0.1-0.1c0,0,0.1,0,0.1,0
	c0,0,0.1,0,0.2,0c0,0,0.1,0,0.1,0c0,0,0.1,0,0.2,0c0,0,0.1,0,0.1,0c0,0,0.1,0,0.2,0c0,0,0.1,0,0.1,0c0,0,0.1,0,0.2,0
	c0,0,0.1,0,0.1,0c0,0,0.1,0,0.2,0c0,0,0.1,0,0.1,0c0,0,0.1,0,0.1,0c0,0,0.1,0,0.1,0c0,0,0.1,0,0.2,0c0,0,0.1,0,0.1,0
	c0,0,0.1,0,0.1,0c0.2,0,0.4,0,0.5,0c0.2,0,0.4,0,0.5-0.1s0.3-0.1,0.5-0.2c0.1-0.1,0.3-0.2,0.4-0.3v17.3c0,0.4,0,0.7,0.1,1
	c0.1,0.3,0.1,0.6,0.2,0.8c0.1,0.2,0.2,0.5,0.4,0.7c0.2,0.2,0.4,0.4,0.7,0.5h-5.7h0c0,0,0,0,0.1,0c0.2,0,0.3-0.1,0.5-0.2
	c0.2-0.1,0.3-0.3,0.4-0.5c0.1-0.2,0.2-0.4,0.3-0.6c0.1-0.2,0.1-0.5,0.1-0.8v-0.1V126.8z"/>
<path class="st0" d="M102.3,132c0-0.3,0-0.6-0.1-0.8c0-0.2-0.1-0.4-0.2-0.6c0-0.1-0.1-0.2-0.1-0.2c0-0.1-0.1-0.1-0.1-0.2
	c-0.1-0.1-0.1-0.1-0.2-0.2c0,0-0.1-0.1-0.1-0.1c0,0,0,0-0.1-0.1c0,0,0,0-0.1-0.1c0,0,0,0-0.1,0c0,0,0,0-0.1,0c0,0,0,0-0.1,0
	c0,0,0,0-0.1,0c0,0,0,0,0,0c0,0,0,0,0-0.1c0.1,0,0.1,0,0.2,0s0.1,0,0.2,0c0.1,0,0.1,0,0.2,0c0.1,0,0.2,0,0.2,0c0.1,0,0.1,0,0.2,0
	c0.1,0,0.2,0,0.2,0c0,0,0.1,0,0.1,0c0,0,0.1,0,0.2,0c0,0,0.1,0,0.1,0c0,0,0.1,0,0.1,0c0.2,0,0.5,0,0.7,0c0.2,0,0.4,0,0.6-0.1
	c0.2,0,0.4-0.1,0.5-0.2c0.1-0.1,0.2-0.1,0.3-0.2v12c0,0.3,0,0.5,0,0.7c0,0.2,0.1,0.3,0.1,0.5c0,0.1,0.1,0.3,0.2,0.4
	c0.1,0.1,0.2,0.2,0.4,0.4c0,0,0.1,0.1,0.1,0.1c0.1,0,0.1,0.1,0.2,0.1s0.1,0.1,0.2,0.1c0.1,0,0.2,0.1,0.2,0.1h-5.7c0,0,0,0,0,0
	c0,0,0,0,0,0c0,0,0,0,0.1,0c0,0,0.1,0,0.1-0.1c0,0,0.1,0,0.1-0.1c0.2-0.2,0.4-0.3,0.5-0.5c0.1-0.2,0.3-0.3,0.3-0.5
	c0.1-0.2,0.1-0.3,0.2-0.5c0-0.2,0.1-0.4,0.1-0.6V141V132z M101.5,124.9c0.1-0.2,0.3-0.4,0.5-0.5c0.2-0.2,0.4-0.3,0.6-0.3
	c0.2-0.1,0.4-0.1,0.7-0.1h0c0,0,0,0,0.1,0c0.2,0,0.5,0,0.7,0.1s0.4,0.2,0.6,0.3c0.2,0.1,0.4,0.3,0.5,0.6c0.1,0.2,0.2,0.5,0.2,0.8
	c0,0.4-0.1,0.7-0.2,0.9c-0.1,0.3-0.3,0.5-0.5,0.7c-0.2,0.2-0.4,0.3-0.6,0.4c-0.2,0.1-0.4,0.1-0.7,0.1c0,0,0,0-0.1,0h0
	c-0.2,0-0.5,0-0.7-0.1c-0.2-0.1-0.4-0.2-0.7-0.4c-0.2-0.2-0.4-0.4-0.5-0.7c-0.1-0.3-0.2-0.6-0.2-0.9v-0.1
	C101.4,125.3,101.4,125.1,101.5,124.9z"/>
<path class="st0" d="M110.4,131.4c0.3-0.5,0.7-0.9,1.2-1.1c0.5-0.3,1.1-0.5,1.6-0.6c0.6-0.2,1.2-0.2,1.8-0.3c0,0,0.1,0,0.1,0
	c0,0,0.1,0,0.1,0c0,0,0,0,0.1,0c0,0,0.1,0,0.1,0c0,0,0.1,0,0.1,0s0.1,0,0.1,0c0,0,0,0,0.1,0s0.1,0,0.1,0c0.3,0,0.6,0,0.8,0
	c0.3,0,0.5,0,0.8,0.1c0.3,0,0.5,0,0.8,0.1c0.2,0,0.4,0.1,0.6,0.1c0,0,0,0,0,0s0,0,0,0c0,0,0,0,0,0c0,0,0,0,0,0c0,0,0,0,0,0s0,0,0,0
	c0,0,0,0,0,0c0,0,0,0,0,0v2.6c-0.1,0-0.2,0-0.2-0.1c-0.1,0-0.2,0-0.2-0.1c-0.1,0-0.2,0-0.2-0.1c-0.1,0-0.2-0.1-0.3-0.1
	c-0.2-0.1-0.4-0.1-0.5-0.2c-0.2,0-0.3-0.1-0.5-0.1c-0.1,0-0.2,0-0.2,0c-0.1,0-0.2,0-0.2,0c-0.1,0-0.2,0-0.2,0c-0.1,0-0.2,0-0.2,0
	c-0.1,0-0.3,0-0.4,0c-0.2,0-0.3,0-0.4,0c-0.3,0-0.5,0-0.7,0.1c-0.2,0-0.5,0.1-0.7,0.2c-0.2,0.1-0.4,0.2-0.5,0.3
	c-0.2,0.1-0.3,0.2-0.4,0.4c-0.1,0.2-0.2,0.4-0.2,0.6c0,0.2,0.1,0.4,0.3,0.5c0.2,0.1,0.4,0.3,0.7,0.4c0.3,0.2,0.6,0.3,0.9,0.4
	c0.2,0.1,0.3,0.2,0.5,0.2s0.4,0.1,0.6,0.2c0.2,0.1,0.4,0.2,0.6,0.2c0.2,0.1,0.4,0.1,0.6,0.2c0.5,0.2,1,0.4,1.5,0.7
	c0.5,0.3,0.9,0.5,1.3,0.8c0.4,0.3,0.7,0.6,1,1c0.2,0.4,0.3,0.8,0.4,1.3c0,0.2,0,0.4-0.1,0.6c0,0.2-0.1,0.4-0.2,0.6
	c-0.1,0.2-0.2,0.4-0.3,0.7c-0.1,0.2-0.3,0.5-0.4,0.7c-0.3,0.4-0.6,0.7-0.9,1s-0.7,0.5-1.2,0.7c-0.4,0.2-0.9,0.3-1.4,0.4
	c-0.5,0.1-0.9,0.2-1.4,0.3c-0.1,0-0.2,0-0.3,0c-0.1,0-0.2,0-0.3,0c0,0-0.1,0-0.1,0c0,0-0.1,0-0.1,0c0,0-0.1,0-0.1,0c0,0-0.1,0-0.1,0
	c-0.4,0-0.8,0-1.2-0.1c-0.4,0-0.8-0.1-1.1-0.2c-0.4-0.1-0.7-0.2-1-0.3s-0.5-0.2-0.7-0.4l-0.9-2.9c0.2,0.2,0.5,0.4,0.8,0.6
	s0.6,0.3,1,0.5c0.3,0.1,0.7,0.3,1.1,0.4c0.4,0.1,0.7,0.2,1.1,0.3c0.2,0,0.3,0,0.5,0.1s0.3,0.1,0.4,0.1c0.2,0,0.3,0,0.5,0
	s0.3,0,0.4,0c0.4,0,0.8,0,1.1-0.1c0.4-0.1,0.7-0.2,1-0.3c0.3-0.1,0.6-0.3,0.8-0.6c0.2-0.2,0.3-0.5,0.4-0.8c0,0,0,0,0,0c0,0,0,0,0,0
	c0,0,0,0,0-0.1c0,0,0,0,0,0c0,0,0,0,0,0c0,0,0,0,0-0.1c0-0.2-0.1-0.4-0.2-0.6c-0.1-0.2-0.3-0.4-0.6-0.5c-0.3-0.2-0.5-0.3-0.8-0.4
	c-0.3-0.1-0.6-0.3-1-0.4c-0.1,0-0.2-0.1-0.4-0.1c-0.1,0-0.3-0.1-0.4-0.1c-0.1,0-0.3-0.1-0.4-0.1c-0.1,0-0.3-0.1-0.4-0.2
	c-0.5-0.2-1-0.4-1.5-0.6s-0.9-0.5-1.4-0.8c-0.4-0.3-0.8-0.7-1-1.1c-0.2-0.4-0.3-0.9-0.3-1.5v-0.1C110,132.5,110.1,131.9,110.4,131.4
	z"/>
<path class="st0" d="M125.7,131.5h-2.1v-1.2c0.5,0,1,0,1.4-0.3c0.4-0.2,0.8-0.5,1.1-1c0.3-0.4,0.6-1,0.8-1.6
	c0.2-0.7,0.2-1.4,0.2-2.3l1.2-0.1v4.5h2.1c0.2,0,0.4,0.1,0.6,0.1s0.3,0,0.5,0c0.1,0,0.2,0,0.4,0s0.2-0.1,0.4-0.1h0l0,0h0v2.8
	c-0.1-0.1-0.2-0.2-0.3-0.3c-0.1-0.1-0.3-0.2-0.4-0.2c-0.2-0.1-0.3-0.1-0.5-0.1c-0.2,0-0.4,0-0.7,0l-2.1-0.1v6.9c0,0.5,0.1,1,0.2,1.4
	c0.1,0.4,0.3,0.7,0.6,1c0.3,0.3,0.6,0.5,0.9,0.6s0.6,0.2,0.9,0.3c0,0,0,0,0.1,0c0,0,0,0,0.1,0c0,0,0.1,0,0.1,0s0.1,0,0.1,0
	c0.1,0,0.2,0,0.4,0c0.1,0,0.2,0,0.4-0.1c0.1,0,0.2-0.1,0.3-0.1c0.1,0,0.2-0.1,0.3-0.2l-1.7,2.3c-0.1,0-0.2,0-0.3,0
	c-0.1,0-0.2,0-0.3,0c-0.1,0-0.1,0-0.2,0s-0.1,0-0.1,0c0,0-0.1,0-0.1,0c-0.1,0-0.1,0-0.1,0c-0.6,0-1.1-0.1-1.6-0.2
	c-0.4-0.1-0.8-0.4-1.1-0.6c-0.3-0.3-0.5-0.6-0.7-0.9c-0.2-0.3-0.3-0.7-0.4-1c0-0.1,0-0.2-0.1-0.3s-0.1-0.2-0.1-0.3
	c0-0.1,0-0.2,0-0.3s0-0.2,0-0.3v-0.1V131.5z"/>
<path class="st0" d="M136.3,132c0-0.3,0-0.6-0.1-0.8c0-0.2-0.1-0.4-0.2-0.6c0-0.1-0.1-0.2-0.1-0.2c0-0.1-0.1-0.1-0.1-0.2
	c-0.1-0.1-0.1-0.1-0.2-0.2c0,0-0.1-0.1-0.1-0.1c0,0,0,0-0.1-0.1c0,0,0,0-0.1-0.1c0,0,0,0-0.1,0c0,0,0,0-0.1,0c0,0,0,0-0.1,0
	c0,0,0,0-0.1,0c0,0,0,0,0,0c0,0,0,0,0-0.1c0.1,0,0.1,0,0.2,0s0.1,0,0.2,0c0.1,0,0.1,0,0.2,0c0.1,0,0.2,0,0.2,0c0.1,0,0.1,0,0.2,0
	c0.1,0,0.2,0,0.2,0c0,0,0.1,0,0.1,0c0,0,0.1,0,0.2,0c0,0,0.1,0,0.1,0c0,0,0.1,0,0.1,0c0.2,0,0.5,0,0.7,0c0.2,0,0.4,0,0.6-0.1
	c0.2,0,0.4-0.1,0.5-0.2c0.1-0.1,0.2-0.1,0.3-0.2v12c0,0.3,0,0.5,0,0.7c0,0.2,0.1,0.3,0.1,0.5c0,0.1,0.1,0.3,0.2,0.4
	c0.1,0.1,0.2,0.2,0.4,0.4c0,0,0.1,0.1,0.1,0.1c0.1,0,0.1,0.1,0.2,0.1s0.1,0.1,0.2,0.1c0.1,0,0.2,0.1,0.2,0.1h-5.7c0,0,0,0,0,0
	c0,0,0,0,0,0c0,0,0,0,0.1,0c0,0,0.1,0,0.1-0.1c0,0,0.1,0,0.1-0.1c0.2-0.2,0.4-0.3,0.5-0.5c0.1-0.2,0.3-0.3,0.3-0.5
	c0.1-0.2,0.1-0.3,0.2-0.5c0-0.2,0.1-0.4,0.1-0.6V141V132z M135.5,124.9c0.1-0.2,0.3-0.4,0.5-0.5c0.2-0.2,0.4-0.3,0.6-0.3
	c0.2-0.1,0.4-0.1,0.7-0.1h0c0,0,0,0,0.1,0c0.2,0,0.5,0,0.7,0.1s0.4,0.2,0.6,0.3c0.2,0.1,0.4,0.3,0.5,0.6c0.1,0.2,0.2,0.5,0.2,0.8
	c0,0.4-0.1,0.7-0.2,0.9c-0.1,0.3-0.3,0.5-0.5,0.7c-0.2,0.2-0.4,0.3-0.6,0.4c-0.2,0.1-0.4,0.1-0.7,0.1c0,0,0,0-0.1,0h0
	c-0.2,0-0.5,0-0.7-0.1c-0.2-0.1-0.4-0.2-0.7-0.4c-0.2-0.2-0.4-0.4-0.5-0.7c-0.1-0.3-0.2-0.6-0.2-0.9v-0.1
	C135.3,125.3,135.4,125.1,135.5,124.9z"/>
<path class="st0" d="M144.5,132.9c0.5-0.9,1.2-1.6,2.1-2.1c0.9-0.5,1.8-0.9,2.8-1.2c1-0.3,2-0.4,3-0.4c0.1,0,0.3,0,0.4,0
	c0.1,0,0.3,0,0.4,0c0.1,0,0.3,0,0.4,0c0.1,0,0.3,0,0.4,0c0.1,0,0.3,0,0.4,0.1c0.1,0,0.3,0,0.4,0.1c0.1,0,0.2,0,0.4,0.1
	c0.1,0,0.3,0,0.4,0.1v3.3c-0.2-0.2-0.4-0.4-0.7-0.5c-0.3-0.2-0.6-0.3-0.9-0.5c-0.3-0.1-0.7-0.2-1-0.3c-0.4-0.1-0.7-0.1-1.1-0.1
	c0,0,0,0-0.1,0c0,0,0,0-0.1,0s0,0,0,0c0,0,0,0,0,0c0,0,0,0-0.1,0h0c-0.6,0-1.2,0.1-1.7,0.3c-0.6,0.2-1.1,0.5-1.6,0.9
	c-0.5,0.4-0.9,0.9-1.2,1.5c-0.3,0.6-0.4,1.4-0.5,2.3c0.1,0.9,0.3,1.7,0.7,2.3c0.4,0.7,0.8,1.2,1.4,1.6c0.6,0.4,1.2,0.7,1.8,0.9
	c0.6,0.2,1.3,0.4,2,0.4c0,0,0.1,0,0.1,0c0,0,0.1,0,0.1,0c0,0,0.1,0,0.1,0c0,0,0.1,0,0.1,0c0.5,0,0.9,0,1.3-0.1
	c0.4-0.1,0.8-0.2,1.2-0.3c0.4-0.1,0.8-0.3,1.1-0.5c0.3-0.2,0.6-0.4,0.9-0.6l-1.7,3c-0.3,0.1-0.5,0.2-0.8,0.3
	c-0.3,0.1-0.6,0.2-0.9,0.2c-0.3,0.1-0.6,0.1-1,0.1c-0.3,0-0.6,0-1,0c0,0-0.1,0-0.1,0s-0.1,0-0.1,0c0,0-0.1,0-0.1,0
	c-0.1,0-0.1,0-0.1,0c0,0-0.1,0-0.1,0c0,0-0.1,0-0.1,0c-0.1,0-0.1,0-0.2,0c0,0-0.1,0-0.1,0c-1-0.1-1.9-0.3-2.8-0.6
	c-0.9-0.3-1.7-0.8-2.5-1.4c-0.8-0.6-1.4-1.4-1.8-2.3s-0.6-2-0.6-3.2c0,0,0,0,0-0.1s0-0.1,0-0.1c0,0,0-0.1,0-0.1c0,0,0-0.1,0-0.1V136
	C143.6,134.8,143.9,133.8,144.5,132.9z"/>
<polygon class="st1" points="80.8,73.4 102.1,36.4 123.5,73.4 "/>
<path class="st2" d="M58.8,87.8c0.1,0,0.2,0,0.3,0c0.7-0.2,1.2-0.8,1.1-1.5c0-0.4-0.2-0.7-0.4-1c0.1,0,0.2-0.1,0.2-0.2l20.5-35.9
	c0.1-0.2,0.1-0.4-0.1-0.5c0.1-0.2,0.3-0.5,0.4-0.7c2.6-4.6,5.3-9.3,7.7-13.6c2.5-4.3,4.8-8.4,6.7-11.9c3.9-7,6.5-11.6,6.5-11.6
	s-2.7,4.6-6.7,11.5c-2,3.5-4.3,7.5-6.8,11.8c-2.5,4.3-5.1,9-7.8,13.6c-0.1,0.2-0.3,0.5-0.4,0.7c-0.1,0-0.1,0-0.2,0
	c-0.1,0-0.2,0.1-0.3,0.2L59.2,84.6c-0.1,0.1-0.1,0.2-0.1,0.3c-0.1,0-0.3-0.1-0.5-0.1c-0.1,0-0.2,0-0.3,0c-0.7,0.2-1.2,0.8-1.1,1.5
	C57.3,87.2,58,87.8,58.8,87.8z"/>
<path class="st2" d="M100.6,10.5c0,0.1-0.1,0.2-0.1,0.2c-0.2,0.7,0.1,1.4,0.7,1.7c0.3,0.2,0.7,0.2,1,0.1c0,0.1,0,0.2,0.1,0.3
	l20.8,35.8c0.1,0.2,0.3,0.3,0.5,0.2c0.1,0.2,0.3,0.5,0.4,0.7c2.7,4.6,5.4,9.2,7.9,13.5c2.5,4.3,4.9,8.3,6.9,11.8
	c4.1,6.9,6.8,11.5,6.8,11.5s-2.6-4.6-6.6-11.6c-2-3.5-4.3-7.5-6.8-11.8c-2.5-4.3-5.2-8.9-7.8-13.6c-0.1-0.2-0.3-0.5-0.4-0.7
	c0,0,0.1-0.1,0.1-0.2c0-0.1,0-0.3,0-0.4l-20.8-35.8c-0.1-0.1-0.1-0.2-0.2-0.2c0.1-0.1,0.2-0.2,0.3-0.4c0-0.1,0.1-0.2,0.1-0.2
	c0.2-0.7-0.1-1.4-0.7-1.7C101.9,9.5,101,9.7,100.6,10.5z"/>
<path class="st2" d="M146.4,85.1c0-0.1-0.1-0.1-0.2-0.2c-0.5-0.5-1.3-0.6-1.8-0.2c-0.3,0.2-0.5,0.5-0.6,0.8
	c-0.1-0.1-0.2-0.1-0.3-0.1l-41.4,0c-0.2,0-0.4,0.1-0.4,0.3c-0.3,0-0.5,0-0.8,0c-5.3,0-10.7,0-15.7,0c-5,0-9.7,0-13.7,0
	c-8,0-13.3,0.1-13.3,0.1s5.3,0,13.3,0.1c4,0,8.7,0,13.7,0.1c5,0,10.3,0,15.7,0c0.3,0,0.5,0,0.8,0c0,0.1,0.1,0.1,0.1,0.2
	c0.1,0.1,0.2,0.2,0.3,0.2l41.4,0c0.1,0,0.2,0,0.3-0.1c0,0.1,0.1,0.3,0.2,0.4c0,0.1,0.1,0.1,0.2,0.2c0.5,0.5,1.3,0.6,1.8,0.2
	C146.6,86.7,146.8,85.8,146.4,85.1z"/>
<path class="st2" d="M58,36.8c0,0.1,0.1,0.1,0.2,0.2c0.5,0.5,1.3,0.6,1.8,0.2c0.3-0.2,0.5-0.5,0.6-0.8c0.1,0.1,0.2,0.1,0.3,0.1
	l41.4,0.1c0.2,0,0.4-0.1,0.4-0.3c0.3,0,0.5,0,0.8,0c5.3,0,10.7,0,15.7,0c5,0,9.7,0,13.7,0c8,0,13.3-0.1,13.3-0.1s-5.3,0-13.3-0.1
	c-4,0-8.7,0-13.7-0.1c-5,0-10.3,0-15.7,0c-0.3,0-0.5,0-0.8,0c0-0.1-0.1-0.1-0.1-0.2c-0.1-0.1-0.2-0.2-0.3-0.2l-41.4-0.1
	c-0.1,0-0.2,0-0.3,0.1c0-0.1-0.1-0.3-0.2-0.4c0-0.1-0.1-0.1-0.2-0.2c-0.5-0.5-1.3-0.6-1.8-0.2C57.7,35.2,57.5,36.1,58,36.8z"/>
<path class="st2" d="M145.3,34.3c-0.1,0-0.2,0-0.3,0c-0.7,0.2-1.2,0.8-1.1,1.5c0,0.4,0.2,0.7,0.4,1c-0.1,0-0.2,0.1-0.2,0.2
	l-20.7,35.8c-0.1,0.2-0.1,0.4,0.1,0.5c-0.1,0.2-0.3,0.5-0.4,0.7c-2.7,4.6-5.3,9.2-7.8,13.6c-2.5,4.3-4.8,8.4-6.8,11.8
	c-4,6.9-6.6,11.6-6.6,11.6s2.7-4.6,6.7-11.5c2-3.5,4.4-7.5,6.9-11.8c2.5-4.3,5.2-8.9,7.9-13.5c0.1-0.2,0.3-0.5,0.4-0.7
	c0.1,0,0.1,0,0.2,0c0.1,0,0.2-0.1,0.3-0.2l20.7-35.8c0.1-0.1,0.1-0.2,0.1-0.3c0.1,0,0.3,0.1,0.5,0.1c0.1,0,0.2,0,0.3,0
	c0.7-0.2,1.2-0.8,1.1-1.5C146.8,34.9,146.2,34.3,145.3,34.3z"/>
<path class="st2" d="M103.2,111.3c0-0.1,0.1-0.2,0.1-0.2c0.2-0.7-0.1-1.4-0.7-1.7c-0.3-0.2-0.7-0.2-1-0.1c0-0.1,0-0.2-0.1-0.3
	L80.7,73.2c-0.1-0.2-0.3-0.3-0.5-0.2c-0.1-0.2-0.3-0.5-0.4-0.7c-2.7-4.6-5.4-9.2-7.9-13.5C69.3,54.4,67,50.4,65,47
	c-4.1-6.9-6.8-11.5-6.8-11.5s2.7,4.6,6.6,11.6c2,3.5,4.3,7.5,6.8,11.8c2.5,4.3,5.2,8.9,7.9,13.5c0.1,0.2,0.3,0.5,0.4,0.7
	c0,0-0.1,0.1-0.1,0.2c0,0.1,0,0.3,0,0.4l20.8,35.8c0.1,0.1,0.1,0.2,0.2,0.2c-0.1,0.1-0.2,0.2-0.3,0.4c0,0.1-0.1,0.2-0.1,0.2
	c-0.2,0.7,0.1,1.4,0.7,1.7C102,112.3,102.8,112,103.2,111.3z"/>
<line class="st1" x1="101.9" y1="10.8" x2="102.2" y2="60.9"/>
<line class="st1" x1="145.4" y1="86.2" x2="102.3" y2="60.8"/>
<line class="st1" x1="102.2" y1="60.8" x2="58.9" y2="86.1"/>
</svg>
