<?xml version="1.0" encoding="utf-8"?>
<!-- Generator: Adobe Illustrator 19.0.0, SVG Export Plug-In . SVG Version: 6.00 Build 0)  -->
<svg version="1.1" id="Layer_1" xmlns="http://www.w3.org/2000/svg" xmlns:xlink="http://www.w3.org/1999/xlink" x="0px" y="0px"
	 viewBox="0 0 50 39.3" style="enable-background:new 0 0 50 39.3;" xml:space="preserve">
<style type="text/css">
	.st0{fill:#FBB040;}
</style>
<g id="XMLID_344_">
	<polygon id="XMLID_343_" points="42.7,6.6 46.8,14 50,14 50,1.4 47.1,1.4 47.1,8.8 43,1.4 39.8,1.4 39.8,14 42.7,14 	"/>
	<path id="XMLID_342_" d="M31.4,5v3c0.4,0.6,0.5,1.4,0.5,2.1c0,0.8-0.2,1.5-0.5,2.1V14h8.1v-2.9h-5.2v-2h4.2V6.2h-4.2V4.3h5.2V1.4
		l-8.1,0v2.4c0.1,0.3,0.1,0.7,0.1,1C31.6,4.9,31.5,5,31.4,5z"/>
	<path id="XMLID_341_" d="M3.8,29.1c0.3-0.4,0.5-1,0.5-1.8v-2.9H3.2v2.9c0,0.4-0.1,0.7-0.2,0.8c-0.1,0.2-0.4,0.3-0.7,0.3
		c-0.6,0-0.9-0.4-0.9-1.1v-9.6c0-0.7,0.3-1.1,0.9-1.1c0.3,0,0.6,0.1,0.7,0.3c0.1,0.2,0.2,0.5,0.2,0.8v2.5h1.2v-2.5
		c0-1.6-0.7-2.4-2.1-2.4C0.8,15.2,0,16,0,17.6v9.6c0,1.6,0.8,2.4,2.3,2.4C3,29.7,3.5,29.5,3.8,29.1z"/>
	<path id="XMLID_375_" d="M9.8,27.2v-9.7c0-1.6-0.7-2.4-2.2-2.4c-1.5,0-2.2,0.8-2.2,2.4v9.7c0,1.6,0.7,2.4,2.2,2.4
		C9.1,29.7,9.8,28.9,9.8,27.2z M8.5,27.2c0,0.7-0.3,1.1-0.9,1.1c-0.6,0-0.9-0.4-0.9-1.1v-9.7c0-0.7,0.3-1.1,0.9-1.1
		c0.6,0,0.9,0.4,0.9,1.1V27.2z"/>
	<path id="XMLID_338_" d="M14.7,20c0,1,0,1.9,0,2.9c0,0.9,0,1.9,0,2.9l-2.2-10.4h-1.6v14.2h1.1v-4.1c0-1.1,0-2.1,0-3.1
		c0-1,0-2.1,0-3.1l2.4,10.4h1.3V15.3h-1.2L14.7,20L14.7,20z"/>
	<path id="XMLID_337_" d="M21.3,25.3c0-0.3,0-0.5,0-0.7c0-0.2,0-0.4-0.1-0.6c0-0.2-0.1-0.3-0.2-0.5c-0.1-0.1-0.2-0.3-0.3-0.4
		c-0.4-0.4-0.7-0.8-1.1-1.2c-0.4-0.3-0.7-0.7-1.1-1.2c-0.1-0.2-0.2-0.3-0.2-0.4c0-0.1-0.1-0.4-0.1-0.7v-2.1c0-0.7,0.3-1,0.9-1
		c0.4,0,0.6,0.1,0.7,0.3C20,17,20,17.3,20,17.7v2.4h1.2v-2.6c0-0.8-0.2-1.4-0.5-1.8c-0.3-0.4-0.9-0.6-1.7-0.6
		c-1.5,0-2.2,0.8-2.2,2.3v2.1c0,0.4,0,0.7,0.1,1c0,0.3,0.2,0.6,0.4,0.8c0.2,0.3,0.4,0.5,0.6,0.7c0.2,0.2,0.4,0.4,0.6,0.6
		c0.2,0.2,0.4,0.4,0.5,0.5c0.2,0.2,0.3,0.4,0.5,0.6c0.1,0.1,0.1,0.2,0.2,0.3c0.1,0.1,0.1,0.2,0.1,0.3c0,0.1,0.1,0.2,0.1,0.4
		c0,0.1,0,0.3,0,0.5v2c0,0.3-0.1,0.6-0.2,0.8c-0.1,0.2-0.4,0.3-0.7,0.3c-0.3,0-0.6-0.1-0.7-0.3c-0.1-0.2-0.2-0.5-0.2-0.9v-2.8h-1.3
		v3c0,0.8,0.2,1.3,0.5,1.7c0.4,0.4,0.9,0.6,1.7,0.6c0.8,0,1.4-0.2,1.7-0.6c0.3-0.4,0.5-1,0.5-1.7V25.3z"/>
	<path id="XMLID_336_" d="M25.5,27.2c0,0.7-0.3,1.1-0.9,1.1c-0.6,0-0.9-0.4-0.9-1.1V15.3h-1.3v11.9c0,1.6,0.7,2.4,2.2,2.4
		c1.5,0,2.2-0.8,2.2-2.4V15.3h-1.3V27.2z"/>
	<polygon id="XMLID_335_" points="29.3,15.3 28,15.3 28,29.5 31.9,29.5 31.9,28.2 29.3,28.2 	"/>
	<polygon id="XMLID_334_" points="31.6,16.6 33.2,16.6 33.2,29.5 34.5,29.5 34.5,16.6 36,16.6 36,15.3 31.6,15.3 	"/>
	<rect id="XMLID_333_" x="36.9" y="15.3" width="1.3" height="14.2"/>
	<path id="XMLID_332_" d="M43.2,20c0,1,0,1.9,0,2.9c0,0.9,0,1.9,0,2.9l-2.2-10.4h-1.6v14.2h1.1v-4.1c0-1.1,0-2.1,0-3.1
		c0-1,0-2.1,0-3.1l2.4,10.4h1.3V15.3h-1.2L43.2,20L43.2,20z"/>
	<path id="XMLID_331_" d="M31.4,8.5c0-0.1-0.1-0.1-0.1-0.2c0-0.1-0.1-0.1-0.1-0.2c0-0.1-0.1-0.1-0.1-0.2c-0.4-0.7-1-1.2-1.8-1.5
		c-0.2-0.1-0.4-0.2-0.6-0.2C28.5,6.1,28.3,6,28.1,6c-0.2-0.1-0.4-0.1-0.6-0.2c-0.2-0.1-0.4-0.2-0.5-0.3c-0.2-0.1-0.3-0.3-0.3-0.5
		c-0.1-0.2,0-0.4,0.1-0.6c0.1-0.1,0.2-0.2,0.3-0.3C27.1,4.1,27.2,4,27.3,4c0.1,0,0.1,0,0.2,0c0,0,0.1,0,0.1,0c0.1,0,0.1,0,0.2,0
		c0.1,0,0.3,0.1,0.4,0.2c0.2,0.1,0.3,0.3,0.3,0.6h2.8h0.1h0c0-0.2,0-0.4,0-0.5c0-0.2-0.1-0.3-0.1-0.5c0-0.1,0-0.1-0.1-0.2
		c-0.1-0.4-0.3-0.7-0.6-1.1c-0.3-0.3-0.6-0.6-0.9-0.8c-0.4-0.2-0.7-0.4-1.2-0.5c-0.3-0.1-0.7-0.1-1-0.1c-0.1,0-0.2,0-0.3,0
		c-0.4,0-0.8,0.1-1.2,0.3c-0.4,0.2-0.7,0.4-1,0.7c-0.3,0.3-0.6,0.6-0.8,1c-0.1,0.2-0.2,0.4-0.3,0.6c0.3,0.4,0.5,0.8,0.7,1.2
		c0.4,0.8,0.5,1.8,0.5,2.7c0,0,0,0,0,0c0.1,0.1,0.2,0.2,0.4,0.3c0.3,0.2,0.6,0.4,0.9,0.5c0.3,0.1,0.6,0.2,0.9,0.3
		c0.2,0.1,0.3,0.1,0.5,0.2C27.9,8.9,28,9,28.1,9c0.2,0.1,0.3,0.2,0.4,0.3c0.1,0.1,0.2,0.2,0.2,0.3c0.1,0.1,0.1,0.2,0.1,0.3
		c0,0.1,0,0.2,0,0.2c0,0.1,0,0.1,0,0.2c0,0.1,0,0.2-0.1,0.3c-0.1,0.1-0.1,0.2-0.2,0.3c-0.1,0.1-0.2,0.2-0.4,0.3
		c-0.2,0.1-0.4,0.1-0.6,0.1c0,0,0,0-0.1,0c-0.2,0-0.5-0.1-0.7-0.2c-0.1-0.1-0.2-0.2-0.4-0.4c-0.1-0.2-0.2-0.5-0.2-0.8h-1.4
		c-0.1,0.2-0.1,0.3-0.2,0.4c-0.2,0.5-0.5,1-0.9,1.5c0,0.1,0.1,0.1,0.1,0.2c0.3,0.6,0.8,1.2,1.4,1.6c0.4,0.2,0.7,0.4,1.1,0.5
		c0.4,0.1,0.8,0.2,1.2,0.2c0.3,0,0.6,0,0.9-0.1c0.3-0.1,0.6-0.2,0.9-0.3c0.8-0.3,1.3-0.8,1.8-1.5c0-0.1,0.1-0.1,0.1-0.2
		c0-0.1,0.1-0.1,0.1-0.2c0-0.1,0.1-0.1,0.1-0.2c0.2-0.5,0.3-1.1,0.3-1.7C31.8,9.5,31.7,9,31.4,8.5z"/>
	<path id="XMLID_330_" d="M11.2,7.7c0-1,0.2-1.9,0.5-2.7c0.2-0.4,0.4-0.9,0.7-1.3l-0.1-2.4h-3L6.6,9.3L3.8,1.3h-3L0,14h2.9l0.3-5.4
		L5.1,14h2.9l1.8-5.2l0.3,5.2H13l-0.1-1.7c-0.5-0.6-0.9-1.2-1.2-1.9C11.4,9.5,11.2,8.6,11.2,7.7z"/>
	<path id="XMLID_329_" d="M10,30.8c-0.6,0-1.1,0.5-1,1.1c0,0.6,0.5,1.1,1.1,1c0.6,0,1.1-0.5,1-1.1C11.1,31.2,10.6,30.8,10,30.8z"/>
	<path id="XMLID_328_" d="M18.9,30.8c-0.6,0-1.1,0.5-1,1.1c0,0.6,0.5,1.1,1.1,1c0.6,0,1.1-0.5,1-1.1C20,31.2,19.5,30.8,18.9,30.8z"
		/>
	<path id="XMLID_327_" d="M28,30.8c-0.6,0-1.1,0.4-1.1,1.1c0,0.6,0.5,1.1,1.1,1.1c0.6,0,1.1-0.5,1.1-1.1
		C29.1,31.3,28.6,30.8,28,30.8z"/>
	<path id="XMLID_326_" d="M45.8,30.8c-0.6,0-1.1,0.4-1.1,1.1c0,0.6,0.5,1.1,1.1,1.1c0.6,0,1.1-0.5,1.1-1.1
		C46.9,31.2,46.4,30.8,45.8,30.8z"/>
	<path id="XMLID_325_" d="M13.2,30.8c-0.6,0-1.1,0.4-1.2,1c0,0.6,0.5,1.1,1.1,1.1c0.6,0,1.1-0.4,1.1-1.1
		C14.2,31.3,13.8,30.9,13.2,30.8z"/>
	<path id="XMLID_324_" d="M22,30.8c-0.6,0-1,0.4-1.1,1c0,0.6,0.5,1.1,1.1,1.1c0.6,0,1.1-0.4,1.1-1.1C23.1,31.2,22.7,30.8,22,30.8z"
		/>
	<path id="XMLID_323_" d="M48.9,33c0.6,0,1.1-0.5,1-1.1c0-0.6-0.4-1-1-1c-0.6,0-1.1,0.4-1.1,1.1C47.8,32.5,48.3,33,48.9,33z"/>
	<path id="XMLID_322_" d="M4.2,34c-0.6,0-1.1,0.5-1.1,1.1c0,0.6,0.6,1.1,1.2,1.1c0.6,0,1-0.5,1-1.1C5.3,34.4,4.9,34,4.2,34z"/>
	<path id="XMLID_321_" d="M10,34c-0.7,0-1.1,0.4-1.1,1c0,0.6,0.5,1.1,1.1,1.1c0.6,0,1.1-0.5,1.1-1.1C11.1,34.4,10.7,34,10,34z"/>
	<path id="XMLID_320_" d="M13.2,34c-0.6,0-1.1,0.4-1.1,1.1c0,0.6,0.5,1.1,1.1,1.1c0.6,0,1-0.5,1.1-1C14.2,34.4,13.8,34,13.2,34z"/>
	<path id="XMLID_319_" d="M40,34c-0.6,0-1.1,0.4-1.1,1c0,0.6,0.5,1.1,1,1.2c0.6,0,1.1-0.5,1.1-1.1C41.1,34.4,40.7,34,40,34z"/>
	<path id="XMLID_318_" d="M48.9,34c-0.6,0-1.1,0.4-1.1,1c0,0.6,0.5,1.1,1,1.2c0.6,0,1.1-0.5,1.1-1.1C50,34.4,49.6,34,48.9,34z"/>
	<path id="XMLID_317_" d="M1.1,37.1c-0.6,0-1.1,0.5-1.1,1.1c0,0.6,0.5,1.1,1.1,1.1c0.6,0,1.1-0.5,1.1-1.1C2.2,37.5,1.7,37,1.1,37.1z
		"/>
	<path id="XMLID_316_" d="M10.1,37.1C9.5,37,9,37.4,8.9,38c-0.1,0.6,0.4,1.2,0.9,1.2c0.6,0.1,1.1-0.4,1.2-1
		C11.2,37.7,10.7,37.1,10.1,37.1z"/>
	<path id="XMLID_315_" d="M13.2,37.1c-0.6,0-1.1,0.4-1.1,1c0,0.6,0.5,1.1,1,1.1c0.6,0,1.1-0.5,1.1-1.1
		C14.2,37.6,13.8,37.1,13.2,37.1z"/>
	<path id="XMLID_314_" d="M18.9,37.1c-0.6,0-1.1,0.5-1.1,1.1c0,0.6,0.5,1.1,1.1,1.1c0.6,0,1.1-0.5,1.1-1.1
		C20,37.5,19.5,37,18.9,37.1z"/>
	<path id="XMLID_313_" d="M40,37.1c-0.6,0-1.1,0.5-1.1,1.1c0,0.6,0.5,1.1,1.1,1.1c0.6,0,1.1-0.5,1.1-1.1C41.1,37.5,40.6,37,40,37.1z
		"/>
	<path id="XMLID_312_" d="M45.8,37.1c-0.6,0-1.1,0.5-1.1,1.1c0,0.6,0.5,1.1,1.1,1.1c0.6,0,1.1-0.5,1.1-1.1
		C46.9,37.6,46.4,37.1,45.8,37.1z"/>
	<path id="XMLID_311_" class="st0" d="M24.4,7.4c0-0.1,0-0.1,0-0.2c0-0.1,0-0.1,0-0.2c-0.1-0.6-0.2-1.2-0.5-1.8
		c-0.1-0.2-0.2-0.4-0.3-0.5c0-0.1-0.1-0.1-0.1-0.2c0-0.1-0.1-0.1-0.1-0.2c-0.3-0.4-0.6-0.8-0.9-1.2c-0.6-0.6-1.2-1-2-1.4
		c-0.2-0.1-0.3-0.1-0.5-0.2v3.2c0.2,0.1,0.3,0.2,0.4,0.4c0.3,0.3,0.6,0.7,0.7,1.1c0.2,0.4,0.3,0.9,0.3,1.3c0,0.5-0.1,0.9-0.3,1.3
		c-0.2,0.4-0.4,0.8-0.7,1.1c-0.3,0.3-0.7,0.6-1.1,0.7c-0.4,0.2-0.9,0.3-1.3,0.3c-0.5,0-0.9-0.1-1.3-0.3c-0.4-0.2-0.8-0.4-1.1-0.7
		C15.4,9.8,15.2,9.4,15,9c-0.2-0.4-0.3-0.9-0.3-1.3c0-0.5,0.1-0.9,0.3-1.3c0.2-0.4,0.4-0.8,0.7-1.1C15.9,5.1,16,5,16.2,4.9V1.7
		c-0.2,0.1-0.3,0.1-0.5,0.2c-0.8,0.3-1.4,0.8-2,1.4c-0.4,0.4-0.7,0.8-1,1.3c0,0.1-0.1,0.1-0.1,0.2c0,0.1-0.1,0.1-0.1,0.2
		c-0.1,0.1-0.1,0.3-0.2,0.4C12,6,11.8,6.8,11.8,7.7c0,0.9,0.2,1.7,0.5,2.5c0.2,0.4,0.4,0.7,0.6,1.1c0,0.1,0.1,0.1,0.1,0.2
		c0,0.1,0.1,0.1,0.1,0.2c0.2,0.2,0.4,0.4,0.6,0.6c0.6,0.6,1.2,1,2,1.4c0.8,0.3,1.6,0.5,2.5,0.5c0.9,0,1.7-0.2,2.5-0.5
		c0.8-0.3,1.4-0.8,2-1.4c0.2-0.2,0.4-0.5,0.6-0.8c0,0,0-0.1,0.1-0.1c0,0,0.1-0.1,0.1-0.1c0.2-0.3,0.4-0.7,0.6-1
		C24,10.1,24,10,24,9.9c0,0,0-0.1,0-0.1c0,0,0-0.1,0-0.1c0.2-0.7,0.3-1.3,0.3-2.1C24.5,7.6,24.5,7.5,24.4,7.4z"/>
	<polygon id="XMLID_310_" class="st0" points="16.8,0 16.8,0.9 16.8,1.2 16.8,1.5 16.8,4.5 16.8,4.9 16.8,5.2 16.8,6.5 19.5,6.5 
		19.5,5.2 19.5,4.9 19.5,4.5 19.5,1.5 19.5,1.2 19.5,0.9 19.5,0 	"/>
	<path id="XMLID_309_" d="M50,22.9h-2.3v1.2h1.1v0.2h0l0,0.1v3c0,0.5-0.3,0.9-0.7,1c0,0,0,0,0,0c0,0,0,0,0,0c-0.1,0-0.1,0-0.2,0v0
		c0,0,0,0-0.1,0c-0.3,0-0.5-0.1-0.7-0.3c-0.2-0.2-0.3-0.5-0.3-0.8v-9.6c0-0.4,0.1-0.6,0.2-0.8c0.1-0.2,0.4-0.3,0.7-0.3
		c0.4,0,0.6,0.1,0.8,0.3c0.1,0.2,0.2,0.5,0.2,0.8v2.5h1.2v-2.5c0-0.8-0.2-1.4-0.5-1.8c-0.3-0.4-0.9-0.6-1.6-0.6
		c-0.8,0-1.3,0.2-1.7,0.6c-0.4,0.4-0.6,1-0.6,1.8v9.6c0,0.4,0.1,0.8,0.2,1.1c0.1,0.3,0.3,0.6,0.4,0.7c0.2,0.2,0.4,0.3,0.7,0.4
		c0.3,0.1,0.5,0.1,0.9,0.1c0.1,0,0.1,0,0.2,0c0.7,0,1.3-0.2,1.6-0.6c0.4-0.4,0.5-1,0.5-1.8v-2.9h0L50,22.9z"/>
</g>
</svg>
