<?xml version="1.0" encoding="utf-8"?>
<!-- Generator: Adobe Illustrator 19.0.0, SVG Export Plug-In . SVG Version: 6.00 Build 0)  -->
<svg version="1.1" id="Layer_1" xmlns="http://www.w3.org/2000/svg" xmlns:xlink="http://www.w3.org/1999/xlink" x="0px" y="0px"
	 viewBox="0 0 44.5 43.7" style="enable-background:new 0 0 44.5 43.7;" xml:space="preserve">
<style type="text/css">
	.st0{fill:#00FF73;}
	.st1{fill:#1D1D1B;}
</style>
<path class="st0" d="M39.1,20.8c0,9.3-7.6,16.9-16.9,16.9c-2.7,0-5.2-0.6-7.4-1.7c-1.2-0.6-6.9,1.9-7.9,1.1c-1.1-1,2.3-5.4,1.5-6.6
	c-1.9-2.7-3-6-3-9.6C5.4,11.5,12.9,4,22.3,4S39.1,11.5,39.1,20.8z"/>
<g>
	<path class="st1" d="M8.3,12.9l2.7-0.4l1.3,8.8l-1.7,0.3l-0.9-6c0-0.2-0.1-0.4-0.1-0.7c0-0.3-0.1-0.6-0.1-0.7l-0.6,7.7l-1.8,0.3
		L4.3,15c0,0.2,0.1,0.4,0.1,0.7c0.1,0.3,0.1,0.6,0.1,0.7l0.9,6l-1.7,0.3l-1.3-8.8l2.7-0.4l2.6,6.7L8.3,12.9z"/>
	<path class="st1" d="M19.4,19.6c-0.5,0.7-1.2,1.1-2.3,1.2s-1.9,0-2.5-0.5c-0.9-0.6-1.4-1.5-1.6-2.9c-0.2-1.4,0-2.4,0.7-3.2
		c0.5-0.7,1.2-1.1,2.3-1.2c1.1-0.2,1.9,0,2.5,0.5c0.8,0.6,1.4,1.5,1.6,2.9C20.2,17.8,20,18.8,19.4,19.6z M18.3,18.7
		c0.3-0.5,0.4-1.2,0.3-2c-0.1-0.8-0.4-1.4-0.8-1.8c-0.4-0.4-0.9-0.6-1.6-0.5c-0.6,0.1-1.1,0.4-1.4,0.9s-0.4,1.2-0.3,2
		s0.4,1.4,0.8,1.8s1,0.5,1.6,0.5C17.5,19.5,18,19.2,18.3,18.7z"/>
	<path class="st1" d="M22.5,17.5c0.1,0.3,0.2,0.6,0.4,0.7c0.3,0.3,0.8,0.4,1.4,0.3c0.4-0.1,0.7-0.1,0.9-0.3c0.4-0.2,0.6-0.5,0.5-1
		c0-0.2-0.2-0.4-0.4-0.5c-0.2-0.1-0.6-0.2-1.1-0.2l-0.8-0.1c-0.8-0.1-1.4-0.2-1.7-0.3c-0.5-0.3-0.9-0.8-1-1.5
		c-0.1-0.7,0.1-1.2,0.5-1.8c0.4-0.5,1.1-0.8,2-1c0.8-0.1,1.5,0,2.1,0.3c0.6,0.3,1,0.9,1.1,1.7L25,14.2c-0.1-0.4-0.3-0.7-0.7-0.9
		c-0.3-0.1-0.6-0.1-0.9,0c-0.4,0.1-0.7,0.2-0.9,0.4c-0.2,0.2-0.3,0.4-0.3,0.7c0,0.3,0.2,0.4,0.4,0.5c0.2,0.1,0.5,0.1,1,0.2l1.3,0.1
		c0.6,0,1,0.2,1.4,0.3c0.5,0.3,0.8,0.8,0.9,1.4c0.1,0.7-0.1,1.3-0.5,1.8c-0.5,0.5-1.2,0.9-2.1,1c-1,0.1-1.8,0-2.4-0.3
		c-0.6-0.4-1-0.9-1.1-1.7L22.5,17.5z"/>
	<path class="st1" d="M33.2,12.1l-3.9,0.6l0.2,1.6l3.6-0.5l0.2,1.3l-3.6,0.5l0.3,1.9l4.1-0.6l0.2,1.3l-5.6,0.8l-1.1-7.4l5.4-0.8
		L33.2,12.1z"/>
	<path class="st1" d="M34.3,10.5l1.6-0.2l3.7,4.7l-0.8-5.1l1.4-0.2l1.1,7.4l-1.5,0.2l-3.8-4.8l0.8,5.2l-1.4,0.2L34.3,10.5z"/>
</g>
<g>
	<path class="st1" d="M6,26.8l1.3-0.2l2.7,5.1l-1.2,0.2l-0.5-1l-2,0.3l-0.2,1.2l-1.2,0.2L6,26.8z M6.5,30.1l1.4-0.2l-1-2L6.5,30.1z"
		/>
	<path class="st1" d="M13.2,25.7l0.1,0.9l-1.6,0.2l0.7,4.4l-1.1,0.2l-0.7-4.4L9,27.3l-0.1-0.9L13.2,25.7z"/>
</g>
<g>
	<path class="st1" d="M16.3,24.2l1.3-0.2l0.8,5.3l3.2-0.5l0.2,1.2l-4.5,0.7L16.3,24.2z"/>
	<path class="st1" d="M23.3,24.2l1.3-0.2l2.7,5.1l-1.2,0.2l-0.5-1l-2,0.3l-0.2,1.2l-1.2,0.2L23.3,24.2z M23.7,27.5l1.4-0.2l-1-2
		L23.7,27.5z"/>
	<path class="st1" d="M30.6,23.3c0.2,0.1,0.4,0.2,0.6,0.3c0.1,0.1,0.2,0.3,0.3,0.4c0.1,0.2,0.2,0.3,0.2,0.5c0,0.3,0,0.5-0.1,0.8
		c-0.1,0.3-0.3,0.5-0.6,0.6c0.3,0.1,0.5,0.2,0.6,0.3c0.1,0.2,0.2,0.4,0.3,0.8l0.1,0.4c0,0.2,0.1,0.4,0.1,0.5
		c0.1,0.1,0.1,0.2,0.3,0.3l0,0.1l-1.2,0.2c-0.1-0.1-0.1-0.2-0.1-0.3c-0.1-0.1-0.1-0.3-0.1-0.5l-0.1-0.5c-0.1-0.3-0.1-0.6-0.3-0.7
		c-0.1-0.1-0.4-0.1-0.7-0.1l-1.1,0.2l0.3,2.1L28,29l-0.8-5.3l2.6-0.4C30.1,23.2,30.4,23.2,30.6,23.3z M28.4,24.4l0.2,1.4l1.2-0.2
		c0.2,0,0.4-0.1,0.5-0.2c0.2-0.1,0.3-0.3,0.2-0.6c0-0.3-0.2-0.5-0.4-0.6c-0.1,0-0.3-0.1-0.5,0L28.4,24.4z"/>
	<path class="st1" d="M36.4,24c-0.1-0.4-0.4-0.6-0.7-0.7c-0.2-0.1-0.4-0.1-0.6,0c-0.4,0.1-0.8,0.3-1,0.6c-0.2,0.4-0.3,0.9-0.2,1.5
		c0.1,0.7,0.3,1.1,0.7,1.3c0.3,0.2,0.7,0.3,1.1,0.3c0.4-0.1,0.7-0.2,0.9-0.5c0.2-0.3,0.3-0.6,0.3-0.9l-1.2,0.2l-0.1-0.9l2.2-0.3
		l0.4,2.9l-0.7,0.1l-0.2-0.7c-0.2,0.3-0.3,0.5-0.5,0.6c-0.3,0.2-0.6,0.4-1,0.4c-0.7,0.1-1.3-0.1-1.9-0.5c-0.5-0.4-0.9-1.1-1-1.9
		c-0.1-0.9,0-1.6,0.4-2.2c0.4-0.6,1-0.9,1.8-1.1c0.7-0.1,1.3,0,1.7,0.3c0.5,0.3,0.8,0.7,0.9,1.2L36.4,24z"/>
	<path class="st1" d="M42.4,22.3l-2.8,0.4l0.2,1.1l2.6-0.4l0.1,0.9l-2.6,0.4l0.2,1.4l3-0.4l0.1,1l-4.1,0.6L38.3,22l3.9-0.6
		L42.4,22.3z"/>
</g>
</svg>
