<?xml version="1.0" encoding="utf-8"?>
<!-- Generator: Adobe Illustrator 19.0.0, SVG Export Plug-In . SVG Version: 6.00 Build 0)  -->
<svg version="1.1" id="Layer_1" xmlns="http://www.w3.org/2000/svg" xmlns:xlink="http://www.w3.org/1999/xlink" x="0px" y="0px"
	 viewBox="0 0 50 39.4" style="enable-background:new 0 0 50 39.4;" xml:space="preserve">
<style type="text/css">
	.st0{fill:#FFF48F;}
</style>
<g id="XMLID_341_">
	<path id="XMLID_187_" class="st0" d="M42.1,25.1C39.8,32.3,33,37.6,25,37.6S10.2,32.3,7.9,25.1H6.1C8.4,33.3,16,39.4,25,39.4
		c9,0,16.6-6,18.9-14.3H42.1z"/>
	<path id="XMLID_185_" class="st0" d="M8.4,13C11,6.4,17.5,1.7,25,1.7c7.5,0,14,4.7,16.6,11.2h1.9C40.8,5.4,33.5,0,25,0
		C16.5,0,9.2,5.4,6.5,13H8.4z"/>
</g>
<g id="XMLID_333_">
	<path id="XMLID_182_" d="M17.5,28.3c0.2-0.3,0.3-0.5,0.3-0.9c0-0.3-0.1-0.6-0.3-0.8c-0.2-0.2-0.4-0.5-0.6-0.6
		c-0.3-0.2-0.5-0.3-0.8-0.4c-0.3-0.1-0.6-0.1-0.8-0.1c-0.1,0-0.2,0-0.2,0c0,0-0.1,0.1-0.1,0.2c0,0.1,0,0.1,0,0.1
		c0,0.1,0,0.1,0.1,0.1c0,0,0.1,0,0.2,0.1c0.1,0,0.1,0,0.2,0c0.1,0,0.1,0,0.1,0c0.2,0,0.4,0.1,0.6,0.2c0.2,0.1,0.4,0.2,0.6,0.4
		c0.2,0.1,0.3,0.3,0.5,0.5c0.1,0.2,0.2,0.4,0.2,0.6c0,0.3-0.1,0.5-0.2,0.7c-0.1,0.2-0.3,0.4-0.5,0.5c-0.2,0.1-0.4,0.3-0.7,0.4
		c-0.3,0.1-0.5,0.2-0.7,0.2c0-0.4,0.1-0.7,0.2-1.1c0.1-0.4,0.2-0.7,0.3-1.1c0-0.1,0-0.1,0.1-0.2c0-0.1,0-0.1,0.1-0.2
		c0-0.1,0-0.2,0.1-0.2c0-0.1,0-0.1,0-0.2c0-0.1,0-0.2-0.1-0.2c-0.1,0-0.1-0.1-0.2-0.1c0,0-0.1,0-0.1,0c0,0-0.1,0-0.1,0
		c0,0-0.1,0.1-0.1,0.1c0,0.1-0.1,0.1-0.1,0.2c0,0.1-0.1,0.2-0.1,0.2c0,0.1,0,0.1-0.1,0.2c-0.1,0.4-0.2,0.7-0.2,1
		c-0.1,0.3-0.1,0.7-0.2,1c0,0.3-0.1,0.7-0.1,1c0,0.3,0,0.7,0,1.1c0,0.1,0,0.1,0,0.2c0,0.1,0.1,0.1,0.2,0.1c0.1,0,0.1,0,0.2,0
		c0.1,0,0.1-0.1,0.2-0.1c0,0,0.1-0.1,0.1-0.1c0,0,0-0.1,0-0.2c0-0.1,0-0.1,0-0.2c0-0.1,0-0.1,0-0.2c0-0.1,0-0.2,0-0.3
		c0-0.1,0-0.2,0-0.3c0-0.1,0-0.2,0.1-0.2c0.3,0,0.6-0.1,0.9-0.3c0.3-0.1,0.6-0.3,0.9-0.5C17.1,28.8,17.3,28.6,17.5,28.3z"/>
	<path id="XMLID_180_" d="M22.9,28c-0.1,0-0.2-0.1-0.3-0.1c-0.1,0-0.2,0-0.2,0c-0.3,0-0.5,0.1-0.8,0.2c-0.2,0.1-0.4,0.2-0.6,0.4
		c-0.1,0.1-0.2,0.2-0.3,0.3c-0.1,0.1-0.2,0.2-0.2,0.4c-0.1,0.1-0.1,0.3-0.2,0.4c0,0,0,0,0,0c0,0,0,0,0,0.1c0,0.1-0.1,0.2-0.2,0.3
		c-0.1,0.1-0.2,0.2-0.3,0.3c-0.1,0.1-0.2,0.2-0.3,0.3c-0.1,0.1-0.2,0.1-0.3,0.1c-0.1,0-0.1,0-0.1-0.1c0-0.1-0.1-0.1-0.1-0.2
		s0-0.2,0-0.2c0-0.1,0-0.1,0-0.2c0-0.1,0-0.3,0-0.4c0-0.1,0-0.3,0.1-0.4c0-0.1,0-0.1,0.1-0.2c0-0.1,0.1-0.2,0.1-0.2
		c0-0.1,0-0.1-0.1-0.1s-0.1,0-0.1,0c-0.1,0-0.1,0-0.2,0.1c0,0-0.1,0.1-0.1,0.2c0,0.1-0.1,0.1-0.1,0.2c0,0.1-0.1,0.2-0.2,0.3
		c-0.1,0.1-0.1,0.2-0.2,0.4c-0.1,0.1-0.1,0.2-0.2,0.3c-0.1,0.1-0.1,0.2-0.2,0.3c-0.1,0.1-0.1,0.1-0.2,0.1c0,0-0.1,0-0.1-0.1
		c0,0,0-0.1,0-0.1c0-0.3,0.1-0.6,0.2-0.8c0.1-0.2,0.3-0.5,0.5-0.7c0.1-0.1,0.2-0.2,0.3-0.3c0.1-0.1,0.3-0.2,0.4-0.3c0,0,0,0,0.1,0
		c0,0,0,0,0-0.1c0-0.1,0-0.1-0.1-0.2c-0.1-0.1-0.1-0.1-0.2-0.1c-0.2,0-0.4,0.1-0.6,0.2c-0.2,0.2-0.4,0.3-0.5,0.6
		c-0.2,0.2-0.3,0.5-0.4,0.7c-0.1,0.3-0.1,0.5-0.1,0.7c0,0.1,0,0.2,0,0.2c0,0.1,0,0.2,0.1,0.3c0,0.1,0.1,0.1,0.1,0.2
		c0.1,0.1,0.1,0.1,0.2,0.1c0.1,0,0.2,0,0.3-0.1c0.1-0.1,0.2-0.2,0.3-0.3s0.2-0.2,0.3-0.3c0.1-0.1,0.1-0.2,0.2-0.3c0,0.1,0,0.2,0,0.3
		c0,0.1,0,0.3,0.1,0.4c0,0.1,0.1,0.2,0.2,0.3C18.9,31,19,31,19.1,31c0.1,0,0.3,0,0.4-0.1c0.1-0.1,0.3-0.2,0.4-0.3
		c0.1-0.1,0.2-0.2,0.3-0.4c0,0,0.1-0.1,0.1-0.1c0,0,0,0.1,0,0.1c0,0.1,0,0.2,0.1,0.2c0,0.1,0.1,0.1,0.2,0.2c0.1,0,0.2,0.1,0.3,0.1
		c0.2,0,0.3-0.1,0.5-0.2c0.2-0.1,0.3-0.2,0.4-0.4c0.1-0.1,0.3-0.3,0.4-0.5c0.1-0.2,0.2-0.3,0.3-0.4c0,0.1,0,0.2,0,0.3
		c0,0.1,0,0.2,0,0.3c0,0.1,0,0.3,0,0.5c0,0.2-0.1,0.4-0.1,0.7c0,0.2-0.1,0.5-0.2,0.8c-0.1,0.3-0.2,0.5-0.3,0.7
		c-0.1,0.2-0.2,0.4-0.3,0.5c-0.1,0.1-0.3,0.2-0.4,0.2c-0.1,0-0.1,0-0.2,0c0,0-0.1-0.1-0.1-0.1c0,0,0-0.1-0.1-0.1c0,0-0.1,0-0.1,0
		c-0.1,0-0.1,0-0.1,0.1c0,0,0,0.1,0,0.1c0,0,0,0,0,0.1c0,0,0,0,0,0.1c0.1,0.1,0.1,0.2,0.2,0.2c0.1,0,0.2,0.1,0.3,0.1
		c0.3,0,0.6-0.1,0.8-0.3c0.2-0.2,0.4-0.4,0.5-0.7c0.1-0.3,0.3-0.6,0.3-1c0.1-0.4,0.1-0.7,0.2-1.1c0-0.4,0.1-0.7,0.1-1
		c0-0.3,0-0.6,0-0.8c0-0.1,0-0.2-0.1-0.2c0-0.1-0.1-0.1-0.2-0.1c-0.1,0-0.2,0-0.3,0.1c-0.1,0.1-0.1,0.2-0.2,0.3
		c0,0.1-0.1,0.2-0.2,0.4c-0.1,0.2-0.2,0.3-0.4,0.5c-0.1,0.2-0.3,0.3-0.4,0.4c-0.2,0.1-0.3,0.2-0.4,0.2c-0.1,0-0.2,0-0.2-0.1
		c0-0.1,0-0.1,0-0.2c0-0.1,0-0.2,0.1-0.3c0-0.1,0.1-0.2,0.2-0.4c0.1-0.1,0.1-0.2,0.2-0.3c0.1-0.1,0.2-0.2,0.2-0.3
		c0.2-0.2,0.3-0.3,0.5-0.4c0.2-0.1,0.4-0.2,0.7-0.2c0.1,0,0.1,0,0.2,0c0.1,0,0.1,0,0.2,0.1c0,0,0.1,0,0.1,0.1c0,0,0.1,0,0.1,0
		c0,0,0,0,0.1,0c0,0,0,0,0-0.1c0-0.1,0-0.1-0.1-0.2C23.1,28.1,23,28,22.9,28z"/>
	<path id="XMLID_334_" d="M35.6,29.4C35.6,29.4,35.5,29.4,35.6,29.4c-0.1,0-0.2,0-0.2,0c0,0-0.1,0.1-0.1,0.1
		c-0.1,0.1-0.1,0.2-0.2,0.3c-0.1,0.1-0.2,0.3-0.3,0.4c-0.1,0.1-0.2,0.2-0.4,0.3c-0.1,0.1-0.2,0.1-0.4,0.1c-0.1,0-0.2-0.1-0.2-0.2
		c-0.1-0.1-0.1-0.3-0.1-0.4c0-0.2-0.1-0.3-0.1-0.5c0-0.2,0-0.3,0-0.3c0,0,0,0,0-0.1s0-0.1,0-0.1c0,0,0-0.1,0-0.1c0,0,0-0.1,0.1-0.1
		c0-0.1,0.1-0.1,0.1-0.1c0,0,0.1-0.1,0.1-0.2c0.1-0.2,0.2-0.4,0.4-0.7c0.1-0.2,0.2-0.5,0.3-0.7c0,0,0.1,0,0.1,0c0.1,0,0.1,0,0.2,0
		c0.1,0,0.1,0,0.2-0.1c0.1,0,0.1,0,0.1,0c0,0,0.1,0,0.1-0.1c0,0,0,0,0-0.1c0-0.1,0-0.1-0.1-0.1c-0.1,0-0.2,0-0.3,0
		c-0.1,0-0.2,0-0.3,0c0.1-0.2,0.1-0.4,0.1-0.6c0-0.2,0-0.4,0-0.6c0-0.1,0-0.1,0-0.2c0-0.1,0-0.2,0-0.2c0-0.1-0.1-0.1-0.1-0.2
		c0-0.1-0.1-0.1-0.2-0.1c-0.2,0-0.3,0.1-0.5,0.2c-0.1,0.2-0.3,0.4-0.4,0.6c-0.1,0.2-0.2,0.4-0.3,0.7c-0.1,0.2-0.1,0.4-0.2,0.5
		c-0.1,0-0.2,0-0.3,0.1c-0.1,0-0.1,0.1-0.1,0.2c0,0.1,0.1,0.2,0.2,0.2c0.1,0,0.1,0,0.2,0C33.1,27.8,33,28,33,28.3s0,0.5,0,0.7
		c0,0.1,0,0.2,0,0.3c0,0,0,0,0,0c0,0.1-0.1,0.2-0.2,0.3c-0.1,0.1-0.2,0.2-0.3,0.3c-0.1,0.1-0.2,0.2-0.3,0.3
		c-0.1,0.1-0.2,0.1-0.3,0.1c-0.1,0-0.1,0-0.1,0c0,0-0.1-0.1-0.1-0.1c0,0,0-0.1,0-0.1c0-0.1,0-0.1,0-0.1c0-0.2,0-0.4,0-0.5
		c0-0.2,0-0.4,0-0.5c0-0.1,0-0.1,0-0.2c0-0.1,0-0.2,0-0.2c0-0.1-0.1-0.1-0.1-0.2c0-0.1-0.1-0.1-0.2-0.1c-0.1,0-0.2,0.1-0.3,0.2
		c-0.1,0.1-0.3,0.2-0.4,0.4c-0.1,0.1-0.2,0.3-0.3,0.4c-0.1,0.2-0.2,0.3-0.2,0.3c0-0.1,0-0.3,0.1-0.4c0-0.1,0.1-0.3,0.1-0.4
		c0-0.1,0.1-0.3,0.1-0.4c0-0.1,0.1-0.3,0.1-0.4c0-0.1,0-0.1,0-0.2c0,0-0.1-0.1-0.2-0.1c-0.1,0-0.2,0-0.3,0.1
		c-0.1,0.1-0.1,0.2-0.2,0.2c0,0.1,0,0.2-0.1,0.4c0,0.1,0,0.2-0.1,0.4c-0.1,0.3-0.1,0.7-0.2,1c0,0.1-0.1,0.1-0.2,0.2
		c-0.1,0.1-0.2,0.2-0.3,0.3c-0.1,0.1-0.2,0.2-0.3,0.3c-0.1,0.1-0.2,0.1-0.3,0.1c-0.1,0-0.1,0-0.1-0.1c0-0.1-0.1-0.1-0.1-0.2
		s0-0.2,0-0.2c0-0.1,0-0.1,0-0.2c0-0.1,0-0.3,0-0.4c0-0.1,0-0.3,0.1-0.4c0-0.1,0-0.1,0.1-0.2c0-0.1,0.1-0.2,0.1-0.2
		c0-0.1,0-0.1-0.1-0.1s-0.1,0-0.1,0c-0.1,0-0.1,0-0.2,0.1c0,0-0.1,0.1-0.1,0.2c0,0.1-0.1,0.1-0.1,0.2c0,0.1-0.1,0.2-0.2,0.3
		c-0.1,0.1-0.1,0.2-0.2,0.4c-0.1,0.1-0.1,0.2-0.2,0.3c-0.1,0.1-0.1,0.2-0.2,0.3c-0.1,0.1-0.1,0.1-0.2,0.1c0,0-0.1,0-0.1-0.1
		c0,0,0-0.1,0-0.1c0-0.3,0.1-0.6,0.2-0.8c0.1-0.2,0.3-0.5,0.5-0.7c0.1-0.1,0.2-0.2,0.3-0.3c0.1-0.1,0.3-0.2,0.4-0.3c0,0,0,0,0.1,0
		c0,0,0,0,0-0.1c0-0.1,0-0.1-0.1-0.2c-0.1-0.1-0.1-0.1-0.2-0.1c-0.2,0-0.4,0.1-0.6,0.2c-0.2,0.2-0.4,0.3-0.5,0.6
		c-0.2,0.2-0.3,0.5-0.4,0.7c0,0,0,0.1,0,0.1c0,0,0,0,0,0c-0.1,0.1-0.2,0.3-0.3,0.4c-0.1,0.1-0.2,0.2-0.3,0.3
		c-0.1,0.1-0.3,0.2-0.4,0.2c-0.1,0.1-0.3,0.1-0.5,0.1c-0.2,0-0.3,0-0.4-0.1s-0.1-0.2-0.1-0.4c0-0.1,0-0.2,0-0.3
		c0.1,0,0.2-0.1,0.4-0.2c0.1-0.1,0.3-0.2,0.4-0.4c0.1-0.1,0.2-0.3,0.3-0.4c0.1-0.2,0.1-0.3,0.1-0.4c0-0.1,0-0.2-0.1-0.3
		c-0.1-0.1-0.2-0.1-0.3-0.1c-0.2,0-0.4,0.1-0.6,0.2c-0.2,0.2-0.3,0.3-0.4,0.6c-0.1,0.2-0.2,0.5-0.3,0.7c-0.1,0.2-0.1,0.4-0.1,0.6
		c0,0.1,0,0.3,0,0.4c0,0.1,0.1,0.2,0.1,0.3c0.1,0.1,0.2,0.2,0.3,0.2c0.1,0.1,0.2,0.1,0.4,0.1c0.2,0,0.4,0,0.6-0.1
		c0.2-0.1,0.4-0.2,0.5-0.3c0.2-0.1,0.3-0.3,0.5-0.4c0,0,0,0,0,0c0,0.1,0,0.1,0,0.2c0,0.1,0,0.2,0.1,0.3c0,0.1,0.1,0.1,0.1,0.2
		c0.1,0.1,0.1,0.1,0.2,0.1c0.1,0,0.2,0,0.3-0.1c0.1-0.1,0.2-0.2,0.3-0.3s0.2-0.2,0.3-0.3c0.1-0.1,0.1-0.2,0.2-0.3c0,0.1,0,0.2,0,0.3
		c0,0.1,0,0.3,0.1,0.4c0,0.1,0.1,0.2,0.2,0.3c0.1,0.1,0.2,0.1,0.3,0.1c0.1,0,0.3,0,0.4-0.1c0.1-0.1,0.3-0.2,0.4-0.3
		c0.1-0.1,0.2-0.2,0.3-0.3c0,0.2,0,0.4,0,0.6c0,0.1,0,0.1,0,0.1c0,0,0.1,0.1,0.1,0.1c0.1,0,0.1,0,0.2-0.1c0.1-0.1,0.1-0.1,0.1-0.2
		c0.1-0.2,0.2-0.4,0.3-0.6c0.1-0.2,0.2-0.4,0.3-0.5c0.1-0.1,0.2-0.3,0.3-0.5s0.2-0.3,0.4-0.4c0,0,0,0,0.1-0.1c0,0,0.1,0,0.1,0
		c0,0,0,0,0.1,0.1c0,0,0,0.1,0,0.1c0,0.1,0,0.3,0,0.4c0,0.1,0,0.3,0,0.4c0,0.1,0,0.2,0,0.3c0,0.1,0,0.2,0.1,0.3
		c0,0.1,0.1,0.2,0.2,0.3c0.1,0.1,0.2,0.1,0.3,0.1c0.1,0,0.3,0,0.4-0.1c0.1-0.1,0.3-0.2,0.4-0.3c0.1-0.1,0.3-0.3,0.4-0.4
		c0,0,0-0.1,0.1-0.1c0,0.2,0.1,0.3,0.1,0.5c0,0.2,0.1,0.3,0.2,0.4c0.1,0.1,0.2,0.2,0.2,0.3c0.1,0.1,0.2,0.1,0.3,0.1
		c0.2,0,0.3,0,0.5-0.1c0.2-0.1,0.3-0.2,0.4-0.4c0.1-0.1,0.3-0.3,0.4-0.4c0.1-0.2,0.2-0.3,0.3-0.4c0-0.1,0.1-0.1,0.1-0.2
		C35.6,29.6,35.6,29.5,35.6,29.4C35.6,29.5,35.6,29.4,35.6,29.4z M24.6,29.1c0-0.1,0.1-0.3,0.2-0.4c0.1-0.1,0.1-0.3,0.2-0.4
		c0.1-0.1,0.2-0.2,0.2-0.2c0.1,0,0.1,0,0.1,0.1c0,0,0,0.1,0,0.1c0,0.1,0,0.2-0.1,0.3c-0.1,0.1-0.1,0.2-0.2,0.3
		c-0.1,0.1-0.2,0.2-0.3,0.3c-0.1,0.1-0.2,0.2-0.3,0.2C24.5,29.4,24.5,29.3,24.6,29.1z M33.8,26.7c0-0.2,0.1-0.4,0.2-0.5
		c0.1-0.2,0.1-0.3,0.2-0.5c0.1-0.1,0.2-0.2,0.3-0.2c0,0,0,0,0,0c0,0,0,0,0,0.1c0,0,0,0.1,0,0.1s0,0,0,0.1c0,0.2,0,0.4-0.1,0.7
		c0,0.2-0.1,0.4-0.2,0.6c-0.1,0-0.2,0-0.3,0c-0.1,0-0.2,0-0.3,0C33.7,27,33.7,26.9,33.8,26.7z M33.5,28.7c0-0.2,0-0.4,0-0.6
		s0-0.4,0.1-0.6c0.1,0,0.2,0,0.3,0c0.1,0,0.2,0,0.3,0c0,0.1-0.1,0.2-0.1,0.3s-0.1,0.2-0.2,0.4c-0.1,0.1-0.1,0.2-0.2,0.3
		C33.6,28.5,33.6,28.6,33.5,28.7z"/>
</g>
<g id="XMLID_316_">
	<path id="XMLID_174_" d="M16.1,9l-0.9-1.5l0,0l1.4,0.7l-0.3-1.5l0,0l1.3,1.2l-0.1,0.1l-0.9-0.9l0.3,1.3l0,0l-1.3-0.6l0.6,1.1
		L16.1,9z"/>
	<path id="XMLID_173_" d="M17.4,6l0.1-0.1l0.9,1.5l-0.1,0.1L17.4,6z"/>
	<path id="XMLID_172_" d="M18.9,6.8L19,6.6c0.2,0.1,0.3,0.2,0.4,0.1c0.1,0,0.1-0.1,0.1-0.1c0,0,0.1-0.1,0.1-0.1c0-0.1,0-0.1,0-0.1
		c0-0.1-0.1-0.1-0.1-0.1c-0.1,0-0.2-0.1-0.4-0.1C18.9,6,18.8,6,18.7,6c-0.1,0-0.2-0.1-0.2-0.2c0-0.1,0-0.1,0-0.2
		c0-0.1,0-0.1,0.1-0.2c0-0.1,0.1-0.1,0.2-0.1c0.1,0,0.2,0,0.2,0s0.2,0,0.3,0.1l-0.1,0.2C19.1,5.4,19,5.4,19,5.4s-0.1,0-0.2,0
		c-0.1,0-0.1,0.1-0.1,0.1c0,0.1,0,0.1,0,0.2c0,0,0,0.1,0.1,0.1c0,0,0.1,0,0.1,0.1c0,0,0.1,0,0.3,0.1c0.2,0,0.3,0.1,0.4,0.1
		c0.1,0.1,0.1,0.1,0.2,0.2c0.1,0.1,0.1,0.2,0,0.4c0,0.1-0.1,0.2-0.3,0.3c-0.1,0-0.2,0.1-0.3,0C19.1,6.9,19,6.9,18.9,6.8z"/>
	<path id="XMLID_171_" d="M20.4,6.1L20.5,6c0.2,0.1,0.3,0.2,0.4,0.2c0.1,0,0.1,0,0.1-0.1c0,0,0.1-0.1,0.1-0.1c0-0.1,0-0.1,0-0.2
		c0-0.1-0.1-0.1-0.1-0.1c-0.1-0.1-0.2-0.1-0.4-0.2c-0.2-0.1-0.3-0.1-0.3-0.1c-0.1-0.1-0.1-0.1-0.2-0.2c0-0.1,0-0.1,0-0.2
		c0-0.1,0-0.1,0.1-0.2c0.1-0.1,0.1-0.1,0.2-0.1c0.1,0,0.2,0,0.2,0c0.1,0,0.2,0.1,0.3,0.1l-0.1,0.1c-0.1-0.1-0.2-0.1-0.2-0.1
		c-0.1,0-0.1,0-0.2,0c-0.1,0-0.1,0.1-0.1,0.1c0,0.1,0,0.1,0,0.2c0,0,0,0.1,0.1,0.1c0,0,0.1,0.1,0.1,0.1c0,0,0.1,0,0.3,0.1
		c0.2,0.1,0.3,0.1,0.4,0.2c0.1,0.1,0.1,0.1,0.2,0.2c0,0.1,0,0.2,0,0.4c-0.1,0.1-0.2,0.2-0.3,0.2c-0.1,0-0.2,0-0.3,0
		C20.6,6.3,20.5,6.2,20.4,6.1z"/>
	<path id="XMLID_326_" d="M23.9,3.9l0.9,1.7l-0.2,0L24.3,5l-0.7,0.1l-0.2,0.6l-0.2,0L23.9,3.9L23.9,3.9z M23.9,4.3l-0.2,0.6l0.6-0.1
		L23.9,4.3z"/>
	<path id="XMLID_323_" d="M25.6,3.9l0.3,0c0.2,0,0.3,0,0.4,0c0.1,0,0.2,0.1,0.2,0.2c0.1,0.1,0.1,0.2,0.1,0.3c0,0.1,0,0.2-0.1,0.2
		c0,0.1-0.1,0.1-0.2,0.1c-0.1,0-0.2,0-0.3,0l0.6,0.8l-0.2,0l-0.6-0.8l-0.1,0l-0.1,0.8l-0.2,0L25.6,3.9z M25.8,4l0,0.6l0.3,0
		c0.1,0,0.2,0,0.3,0c0.1,0,0.1-0.1,0.1-0.1c0,0,0.1-0.1,0.1-0.2c0-0.1,0-0.1,0-0.2c0,0-0.1-0.1-0.1-0.1c0,0-0.1,0-0.3,0L25.8,4z"/>
	<path id="XMLID_149_" d="M29.3,4.7l-0.2,0.1c-0.1-0.1-0.1-0.2-0.2-0.3c-0.1-0.1-0.2-0.1-0.3-0.1c-0.1,0-0.3,0-0.4,0
		c-0.1,0-0.2,0.1-0.3,0.2c-0.1,0.1-0.1,0.2-0.2,0.3c0,0.2,0,0.4,0.1,0.6c0.1,0.2,0.3,0.3,0.5,0.3c0.2,0.1,0.5,0,0.7-0.1L29,5.8
		C28.9,5.9,28.8,6,28.7,6c-0.1,0-0.3,0-0.4,0c-0.3-0.1-0.5-0.2-0.6-0.5c-0.1-0.2-0.1-0.4-0.1-0.6c0.1-0.2,0.2-0.4,0.4-0.6
		c0.2-0.1,0.4-0.2,0.7-0.1c0.2,0,0.3,0.1,0.4,0.2C29.1,4.5,29.2,4.6,29.3,4.7z"/>
	<path id="XMLID_148_" d="M30.3,4.8l0.2,0.1l-0.3,0.7L31,5.8l0.3-0.7l0.2,0.1l-0.6,1.6l-0.2-0.1L31,6l-0.8-0.3l-0.3,0.8l-0.2-0.1
		L30.3,4.8z"/>
	<path id="XMLID_147_" d="M32.4,5.7l0.9,0.5l-0.1,0.1l-0.7-0.4l-0.3,0.5l0.7,0.4L32.8,7l-0.7-0.4l-0.3,0.6l0.7,0.4l-0.1,0.1
		l-0.9-0.5L32.4,5.7z"/>
	<path id="XMLID_317_" d="M34.1,6.7l0.3,0.2c0.2,0.1,0.2,0.2,0.3,0.3c0.1,0.1,0.1,0.2,0.1,0.3c0,0.1,0,0.2-0.1,0.3
		c-0.1,0.1-0.1,0.1-0.2,0.2c-0.1,0-0.2,0-0.2,0c-0.1,0-0.2-0.1-0.3-0.2l0,1l-0.2-0.1l0-1l-0.1-0.1l-0.5,0.6L33,8.1L34.1,6.7z
		 M34.1,7l-0.4,0.5L34,7.6c0.1,0.1,0.2,0.1,0.2,0.1c0.1,0,0.1,0,0.2,0c0.1,0,0.1-0.1,0.1-0.1c0,0,0.1-0.1,0.1-0.2c0-0.1,0-0.1,0-0.2
		c0,0-0.1-0.1-0.2-0.2L34.1,7z"/>
</g>
<polygon id="XMLID_143_" points="23.5,9.2 24.1,10.3 26,10.3 26.5,9.1 25.6,9.2 25,8.5 24.5,9.2 "/>
<g id="XMLID_251_">
	<path id="XMLID_142_" d="M2,14.5c1.3,0,2,0.8,2,2.2v0.3H2.7v-0.4c0-0.6-0.2-0.8-0.7-0.8S1.4,16,1.4,16.6c0,0.6,0.3,1.1,1.2,1.9
		c1.1,1,1.5,1.7,1.5,2.7c0,1.4-0.7,2.2-2,2.2s-2-0.8-2-2.2v-0.5h1.3v0.6c0,0.6,0.3,0.8,0.7,0.8s0.7-0.2,0.7-0.8
		c0-0.6-0.3-1.1-1.2-1.9c-1.1-1-1.5-1.7-1.5-2.7C0,15.3,0.7,14.5,2,14.5z"/>
	<path id="XMLID_139_" d="M8.7,20v1.1c0,1.4-0.7,2.2-2,2.2c-1.3,0-2-0.8-2-2.2v-4.5c0-1.4,0.7-2.2,2-2.2c1.3,0,2,0.8,2,2.2v0.8H7.5
		v-0.9c0-0.6-0.3-0.8-0.7-0.8c-0.4,0-0.7,0.2-0.7,0.8v4.7c0,0.6,0.3,0.8,0.7,0.8c0.4,0,0.7-0.2,0.7-0.8V20H8.7z"/>
	<path id="XMLID_138_" d="M10.9,23.2H9.6v-8.6h1.4v3.7h1.5v-3.7h1.4v8.6h-1.4v-3.7h-1.5V23.2z"/>
	<path id="XMLID_309_" d="M14.7,16.7c0-1.4,0.7-2.2,2.1-2.2c1.3,0,2.1,0.8,2.1,2.2v4.5c0,1.4-0.7,2.2-2.1,2.2s-2.1-0.8-2.1-2.2V16.7
		z M16.1,21.2c0,0.6,0.3,0.8,0.7,0.8s0.7-0.2,0.7-0.8v-4.7c0-0.6-0.3-0.8-0.7-0.8s-0.7,0.2-0.7,0.8V21.2z"/>
	<path id="XMLID_15_" d="M19.7,14.6H21V22h2.2v1.2h-3.6V14.6z"/>
	<path id="XMLID_283_" d="M28.2,23.2h-1.4l-0.2-1.6H25l-0.2,1.6h-1.2l1.4-8.6h2L28.2,23.2z M25.1,20.5h1.3l-0.6-4.4h0L25.1,20.5z"/>
	<path id="XMLID_274_" d="M31.7,23.2c-0.1-0.2-0.1-0.4-0.1-1.1v-1.4c0-0.8-0.3-1.1-0.9-1.1h-0.5v3.5h-1.4v-8.6h2c1.4,0,2,0.7,2,2
		v0.7c0,0.9-0.3,1.5-0.9,1.7v0c0.7,0.3,0.9,0.9,0.9,1.8v1.3c0,0.4,0,0.7,0.1,1L31.7,23.2L31.7,23.2z M30.2,15.8v2.6h0.5
		c0.5,0,0.8-0.2,0.8-0.9v-0.8c0-0.6-0.2-0.9-0.7-0.9H30.2z"/>
	<path id="XMLID_5_" d="M35.6,14.5c1.3,0,2,0.8,2,2.2v0.3h-1.3v-0.4c0-0.6-0.2-0.8-0.7-0.8c-0.4,0-0.7,0.2-0.7,0.8
		c0,0.6,0.3,1.1,1.2,1.9c1.1,1,1.5,1.7,1.5,2.7c0,1.4-0.7,2.2-2,2.2c-1.3,0-2-0.8-2-2.2v-0.5h1.3v0.6c0,0.6,0.3,0.8,0.7,0.8
		c0.4,0,0.7-0.2,0.7-0.8c0-0.6-0.3-1.1-1.2-1.9c-1.1-1-1.5-1.7-1.5-2.7C33.6,15.3,34.3,14.5,35.6,14.5z"/>
	<path id="XMLID_4_" d="M39.8,23.2h-1.4v-8.6h1.4v3.7h1.5v-3.7h1.4v8.6h-1.4v-3.7h-1.5V23.2z"/>
	<path id="XMLID_3_" d="M43.7,14.6H45v8.6h-1.4V14.6z"/>
	<path id="XMLID_254_" d="M50,16.7v1.1c0,1.4-0.7,2.1-2,2.1h-0.6v3.2H46v-8.6h2C49.3,14.6,50,15.4,50,16.7z M47.3,15.8v2.9H48
		c0.4,0,0.7-0.2,0.7-0.8v-1.3c0-0.6-0.2-0.8-0.7-0.8H47.3z"/>
</g>
</svg>
