<?xml version="1.0" encoding="utf-8"?>
<!-- Generator: Adobe Illustrator 19.0.0, SVG Export Plug-In . SVG Version: 6.00 Build 0)  -->
<svg version="1.1" id="Layer_1" xmlns="http://www.w3.org/2000/svg" xmlns:xlink="http://www.w3.org/1999/xlink" x="0px" y="0px"
	 viewBox="-780.1 795.1 43.4 50" style="enable-background:new -780.1 795.1 43.4 50;" xml:space="preserve">
<style type="text/css">
	.st0{fill:#D0D2D3;}
	.st1{fill:#F1F1F2;}
	.st2{fill:#1A1A1A;}
	.st3{fill:none;}
	.st4{fill:#929497;}
	.st5{fill:#B3B3B3;}
	.st6{fill:#231F20;}
</style>
<path id="XMLID_2_" class="st0" d="M-774,827.7c2.8,6.1,8.8,9.9,15.7,9.9c7,0,13-3.8,15.7-9.9H-774z"/>
<path id="XMLID_3_" class="st1" d="M-758.4,802.6c-9.7,0-17.4,7.8-17.4,17.5c0,2.7,0.6,5,1.7,7.6h31.5c1-2.6,1.7-4.9,1.7-7.6
	C-740.9,810.5-748.7,802.6-758.4,802.6z"/>
<path class="st2" d="M-744.7,818.8c-0.3-0.4,0,0.1-0.1,0.5l-0.1-0.1c-0.6-0.5-2.4-0.3-3.2-0.5c-1-0.3-2.3-0.9-3,0.5
	c-0.2,0.3-0.8-0.5-0.1-0.9c0.3-0.1,1.7-0.5,2.1-0.5c1-0.1,2-0.3,2.7-0.5c0.3,0.4,0.2,1.1,0.3,0.5c0.1-0.3,0.1-0.4,0.1-0.6
	c0.3-0.1,0.6-0.2,0.7-0.3c0,0,0,0,0,0.1c0.1,0,0.1,0,0.2,0.1c0.4,0.3,0.3,1.4,0.4,0.7c0.1-0.4,0.1-0.7,0-1c0.5-0.3,0.1-0.8,0.3-1
	c0.2-0.3,0.5-2.6-0.4-3c-0.9-0.4-2.9-0.3-2.9-0.3c-0.1,0-0.2,0-0.3,0c-1.5-0.1-1.9-0.7-1.9-0.7s-0.6-2.9-3.4-2.7l-1.7,0.4
	c0,0-0.2-1.3-2-2.1c0,0-0.3-0.2-0.8-0.4c-0.3-0.3-0.8-0.6-1-1c0,0-0.8-1.4-1.9-1.7c-0.3,0-0.6,0-1,0.1c0.1,0.1,0.3,0.4,0.6,0.6
	c0,0,1,1.3,1.5,1.5c0,0,0.2,0.2,0.4,0.4c0.3,0.3,0.6,1,0.7,1.6c0,0,0.8,1.6,1.2,1.9l-1.2,0.8c0,0-0.7-1.1-1.7-1.2c0,0-1-0.8-1.1-1.9
	c0,0-0.1-0.4-0.3-1c-0.3-0.6-0.9-1.4-1.7-1.6c0,0-1.3-0.1-0.3,1.1c0,0,0.1,0.3,0.1,0.9c0,0.4,0,1-0.2,1.4c0,0,0,1.5,0.6,2.5
	c0,0,0.3,1,0.3,1.7c0,0,0,1,0.3,1.6c0,0,0.3,2.6,2.2,3.3c0,0-0.6,2.4-0.5,3.7l0,0l0.2,1.6c0,0,0,0-0.1,0.1c-0.2,0.4-0.4,1-0.6,1.2
	c-0.9,1.1,0.2,3.5,0.2,3.5l-3.9,5.2c0.1,0.3,0.2,0.3,0.2,0.3c0,0.1-0.2,0.2-0.3,0.2c1,0.3,7.2-3.4,12.8-4.6c4.7-1.2,5.7,0.2,7.1-1.6
	c-1.6-2.4-3.9-3.1-3.9-3.1c-1.7-0.3-1.5-2-1.5-2s1-0.3,1.6,0c0.8,0.4,2.4,0,2.4,0c1,0.4,1.5-0.4,1.5-0.4c0.2-0.4,0.5-1,0.7-1.3
	c0.1-0.1,0.1-0.2,0.1-0.2c0.1-0.2,0-0.3-0.1-0.5C-744.4,819.5-744.5,819.3-744.7,818.8z"/>
<g id="XMLID_474_">
	<path id="XMLID_475_" class="st3" d="M-762.4,823.4c-0.3,0-0.3,0.2-0.3,0.2c0,0.3-0.5,0.2-0.5,0.2c-1-0.1-0.8,0.5-0.8,0.5
		c0.1,0.5-0.3,0.3-0.3,0.3c0,0.3-0.1,0.5-0.1,0.8c-0.2,0.9-0.4,1.7-0.4,1.7c0.1,0.3,0.1,0.8,0,1.2c-0.1,0.3-0.2,0.7-0.2,0.7
		c0,1.1-0.1,2.6-0.1,2.6c0,0.4,0.2,1,0.3,1.3l3.9-5.2c0,0-1-2.3-0.2-3.5c0.2-0.3,0.5-0.8,0.6-1.2c-0.3,0.1-0.5,0.2-0.9,0.2
		C-761.7,823.3-762.1,823.4-762.4,823.4z"/>
</g>
<g id="XMLID_472_">
	<path id="XMLID_473_" class="st3" d="M-760,809.8c1,0.2,1.7,1.2,1.7,1.2l1.2-0.8c-0.5-0.3-1.2-1.9-1.2-1.9c0-0.6-0.3-1.1-0.7-1.6
		c-0.3,0-0.5,0-0.8,0c-0.6,0-1.2,0-1.7,0.1c0.3,0.5,0.3,1,0.3,1C-760.9,809-760,809.8-760,809.8z"/>
</g>
<g id="XMLID_468_">
	<path id="XMLID_469_" class="st3" d="M-754.9,809.4l1.7-0.4c2.8-0.2,3.4,2.7,3.4,2.7s0.4,0.6,1.9,0.7c-2.4-2.9-5.9-4.9-9.8-5.4
		c0.4,0.3,0.8,0.4,0.8,0.4C-755,808-754.9,809.4-754.9,809.4z"/>
</g>
<g id="XMLID_464_">
	<path id="XMLID_465_" class="st2" d="M-761.5,804.3L-761.5,804.3c0.3,0,0.7,0,1,0C-760.8,804.2-761.2,804.1-761.5,804.3z"/>
</g>
<g id="XMLID_460_">
	<path id="XMLID_461_" class="st2" d="M-745.2,817C-745.1,817-745.1,817-745.2,817c0-0.1,0-0.2-0.1-0.2
		C-745.3,817-745.3,817-745.2,817z"/>
</g>
<g id="XMLID_442_">
	<path id="XMLID_443_" class="st2" d="M-745.3,816.9L-745.3,816.9L-745.3,816.9L-745.3,816.9z"/>
</g>
<g>
	<path class="st4" d="M-765.2,833.4C-765.2,833.4-765.3,833.4-765.2,833.4L-765.2,833.4C-765.3,833.4-765.3,833.4-765.2,833.4z"/>
	<path class="st4" d="M-756.6,821.8c0,0-0.3-0.2-0.8,0c-0.1,0.1-0.4,0.1-0.6,0.3c0,0-0.3,0-0.4,0c-0.1,0-0.3,0-0.4-0.1l-1-0.2
		c0,0-0.2,0-0.3-0.1c0,0,0,0,0,0c-0.1-0.1-0.7,0-0.8-0.1c-0.3-0.1-0.5-0.1-1.1-0.1c0,0.1-0.7-0.2-0.9-0.2c-0.2,0-0.3-0.1-0.3-0.3
		c-0.2-0.3,0-0.3-0.9-0.3c0,0,0-0.5,0-1c0-0.3-0.1-0.5-0.1-0.6c0,0-0.1-0.2,0.4-0.2c0.1,0,0.7,0,0.9,0.1c0,0,0.3,0.1,0.7,0.1
		c0.3,0,0.2,0.2,0.4,0.3c0.3,0.1,0.2,0.2,0.4,0.2c0.3,0,0.2-0.2,0.5-0.3c0.2-0.2,0.3-0.5-0.1-0.8h-0.9c0,0-0.4,0-0.8-0.2
		c-0.3-0.2-0.9-0.4-1.3-0.5c-0.5-0.2-1.1-0.4-1.6-0.2h-0.3l-0.2-0.4c0,0,0.1-0.3,0-0.7c-0.1-0.4-0.2-1-0.3-1.2s-0.4-0.5-1-0.4
		c-0.3,0-0.5,0.2-0.9,0.6c-0.3,0.4-0.3,1,0.1,1.6c0.3,0.3,0.6,0.3,0.7,0.5l0.1,0.2v0.3c0,0-0.7,0.1-1.2,1c0,0-1.2,0.7-1.6,0.9
		c0,0-0.5,0.3-1.2,0.3h-0.9c0,0-1-0.7-1-0.1c0,0-0.4,0.3-0.3,0.7c0,0,0.3,0.3,0.5,0.2c0,0,0.5-0.2,0.7-0.2c0.3,0,0.3,0.1,0.6,0.1
		c0.4,0,0.8,0.1,1.1,0.1c0,0,0.5,0,0.9-0.1c0.6-0.3,1.6-0.9,2-1.1c0,0,0.2,0.2,0.5,1c0.2,0.3,0.1,0.3,0.3,0.5l0.3,0.3
		c0,0-0.3,0.1-0.3,0.7c0,0,0,0.9,0.3,1.7c0,0,0,0.3,0,0.6c0,0.5,0.2,1.3,0.4,2.3c0,0-0.2,0.4-0.3,1.1c-0.1,0.7-0.1,1.7,0.3,2.5v0.8
		l0.2,0.4c0,0-0.2,0.5,0.1,0.8l0.3,0.7c0,0,0.2,0.1,0.4,0.1l0.3-0.5c-0.1-0.3-0.3-0.9-0.3-1.3c0,0,0.1-1.5,0.1-2.6
		c0,0,0.1-0.3,0.2-0.7c0.1-0.3,0.1-0.9,0-1.2c0,0,0.3-0.8,0.4-1.7c0-0.3,0.1-0.5,0.1-0.8c0,0,0.4,0.2,0.3-0.3c0,0-0.3-0.7,0.8-0.5
		c0,0,0.5,0.2,0.5-0.2c0,0,0.2-0.1,0.3-0.2c0.2,0,0.7-0.2,1-0.3c0.3-0.1,0.8-0.1,1.1-0.2c0,0,0,0,0,0.1c0.1,0,0.1,0,0.2-0.1
		c0,0,0.2,0,0.4,0.1c0.3,0.1,0.3,0,0.7-0.1c0.1,0,0.5-0.2,0.7-0.2c0.1,0,0.2,0.2,0.3,0.2c0.1,0.1,0.3,0.2,0.3,0.2s0.1,0.1,0.3,0
		c0.1-0.1,0.2-0.2,0.3-0.3c0.1-0.1,0.1-0.1,0.2-0.2c0,0,0.3-0.2,0.4-0.3C-756.6,822.1-756.4,822-756.6,821.8z"/>
</g>
<g id="XMLID_430_">
	<path id="XMLID_431_" class="st5" d="M-765.1,833.4c0.2,0,0.3,0,0.3-0.2c0,0-0.1-0.2-0.2-0.3l-0.3,0.5
		C-765.2,833.4-765.2,833.4-765.1,833.4z"/>
</g>
<polygon id="XMLID_387_" class="st6" points="-776.5,808.8 -778.4,807.5 -778.4,807.5 -775.4,807.3 -774.8,806.5 -778,804.3 
	-778.6,805.2 -776.7,806.5 -776.7,806.5 -779.6,806.6 -780.1,807.4 -777,809.6 "/>
<path id="XMLID_390_" class="st6" d="M-774,805.6l-0.3-0.7l1-1l0.6,0.3l0.8-0.8l0,0l0.8-0.5l-1-1.9l0,0l1.9,1.4l0.3-0.2l-0.4-2.3
	l0,0l1.5,1.7l0.9-0.5l-2.6-2.9l-0.9,0.5l0.4,2.2l-1.7-1.3l-0.8,0.5l1.5,3.5l-3.6-1.7l-0.8,0.8l1.7,3.7L-774,805.6z M-775.2,803.1
	l1.1,0.6l-0.6,0.6L-775.2,803.1L-775.2,803.1z"/>
<polygon id="XMLID_391_" class="st6" points="-768.4,798 -767.3,800.7 -766.3,800.3 -767.5,797.6 -766.7,797.3 -767.1,796.6 
	-769.5,797.6 -769.2,798.3 "/>
<path id="XMLID_392_" class="st6" d="M-765.1,799.5c0.3,0.3,0.9,0.2,1.3,0.1s0.9-0.3,1.1-0.7c0.3-0.4,0.2-1,0.1-1.4l-0.5-2.1l-1,0.3
	l0.4,1.9c0.1,0.4,0.3,1-0.3,1.1c-0.6,0.2-0.8-0.3-0.9-0.9l-0.5-1.8l-1,0.3l0.5,2.1C-765.7,798.8-765.5,799.3-765.1,799.5z"/>
<polygon id="XMLID_393_" class="st6" points="-754.4,798.3 -755.6,798.1 -755.2,795.2 -756.2,795.1 -756.7,798.8 -754.5,799.1 "/>
<polygon id="XMLID_394_" class="st6" points="-752,798.9 -753.1,798.6 -753,797.9 -751.9,798.2 -751.7,797.4 -752.7,797.2 
	-752.7,796.6 -751.5,796.8 -751.3,796 -753.3,795.5 -754.3,799.2 -752.2,799.7 "/>
<polygon id="XMLID_395_" class="st6" points="-750.3,800.4 -749.3,797.6 -748.5,797.9 -748.1,797.2 -750.7,796.2 -750.9,797 
	-750.1,797.3 -751.2,800 "/>
<polygon id="XMLID_396_" class="st6" points="-748.5,801.3 -747.7,799.9 -746.4,800.6 -747.2,801.9 -746.3,802.5 -744.5,799.2 
	-745.3,798.6 -746,799.9 -747.3,799.3 -746.6,797.9 -747.4,797.4 -749.3,800.7 "/>
<polygon id="XMLID_397_" class="st6" points="-744.7,803.8 -742.6,802.7 -742.6,802.7 -743.6,804.7 -742.8,805.4 -739.3,803.4 
	-740.1,802.7 -742.3,804.1 -742.3,804.1 -741.2,801.8 -741.8,801.3 -744,802.6 -744,802.6 -742.9,800.3 -743.6,799.6 -745.3,803.2 
	"/>
<polygon id="XMLID_398_" class="st6" points="-740.7,808.2 -740,807.7 -740.7,806.7 -740.2,806.4 -739.5,807.3 -738.8,806.7 
	-739.5,805.9 -739,805.5 -738.3,806.4 -737.6,805.9 -738.9,804.2 -742,806.5 "/>
<rect id="XMLID_399_" x="-740.5" y="807.6" transform="matrix(-0.8553 0.5181 -0.5181 -0.8553 -951.6622 1881.9515)" class="st6" width="3.8" height="1"/>
<polygon id="XMLID_400_" class="st6" points="-770.7,837.4 -772,839.3 -772.1,839.3 -772.1,836.3 -772.9,835.7 -775.3,838.7 
	-774.5,839.3 -773,837.5 -773,837.5 -773,840.5 -772.2,841.1 -769.9,838 "/>
<rect id="XMLID_401_" x="-771.8" y="839.6" transform="matrix(0.4967 -0.8679 0.8679 0.4967 -1116.657 -245.3952)" class="st6" width="3.8" height="1"/>
<polygon id="XMLID_402_" class="st6" points="-765.5,840 -766.5,842.2 -766.5,842.2 -767.3,839.3 -768.2,839 -769.7,842.6 
	-768.7,842.9 -767.9,840.7 -767.9,840.7 -767,843.6 -766,844 -764.7,840.5 "/>
<polygon id="XMLID_403_" class="st6" points="-765.1,844.3 -762.9,844.7 -762.7,843.9 -764,843.7 -763.8,843 -762.7,843.3 
	-762.5,842.4 -763.6,842.2 -763.4,841.5 -762.3,841.8 -762,841 -764.2,840.5 "/>
<polygon id="XMLID_404_" class="st6" points="-755.4,844.1 -755.8,841.1 -756.7,841.3 -756.3,845.1 -754.1,844.8 -754.2,843.9 "/>
<rect id="XMLID_405_" x="-755.4" y="842.1" transform="matrix(-0.2135 -0.9769 0.9769 -0.2135 -1737.532 286.4604)" class="st6" width="3.8" height="1"/>
<polygon id="XMLID_406_" class="st6" points="-750.1,839.6 -750.2,841.9 -751.7,840.2 -752.6,840.6 -751.9,844.4 -750.9,844 
	-751.3,841.9 -751.3,841.9 -749.8,843.6 -749.3,843.4 -749.3,841.1 -749.3,841 -748.2,843 -747.3,842.6 -749.3,839.3 "/>
<path id="XMLID_409_" class="st6" d="M-745.8,839.3L-745.8,839.3c0.2-0.3,0.1-0.6-0.1-0.9c-0.3-0.6-1-0.6-1.5-0.3l-1.2,0.8l2,3.3
	l1.3-0.8c0.6-0.3,1-1,0.6-1.7C-744.9,839.3-745.3,839.1-745.8,839.3z M-746.8,839.6L-746.8,839.6l-0.4-0.5h0.1
	c0.3-0.2,0.5-0.3,0.7,0C-746.4,839.3-746.7,839.5-746.8,839.6z M-746,841L-746,841l-0.5-0.7l0.1-0.1c0.3-0.2,0.7-0.4,1-0.1
	C-745.3,840.6-745.8,840.8-746,841z"/>
<path id="XMLID_411_" class="st6" d="M-743.6,837.3l-0.3,0.1c-0.2,0.1-0.4,0.2-0.6,0c-0.2-0.2,0-0.4,0.1-0.5
	c0.2-0.2,0.4-0.3,0.7-0.3l-0.2-0.9c-0.3,0.1-0.9,0.3-1.1,0.5c-0.6,0.5-0.7,1.2-0.2,1.8c0.4,0.6,0.9,0.4,1.5,0.2
	c0.2-0.1,0.6-0.3,0.8-0.1c0.2,0.2,0.1,0.4-0.1,0.6c-0.3,0.3-0.6,0.3-1,0.3l0.2,0.9c0.5,0,1-0.2,1.3-0.5s0.5-0.6,0.6-1
	c0.1-0.4-0.1-0.8-0.3-1C-742.6,837-743.1,837-743.6,837.3z"/>
<g id="XMLID_1_">
	<path id="XMLID_386_" class="st6" d="M-758.4,800c-11,0-20,9-20,20c0,2.6,0.5,5.1,1.5,7.5c3,7.3,10.2,12.5,18.5,12.5
		s15.6-5.2,18.5-12.5c1-2.3,1.5-4.9,1.5-7.5C-738.4,809-747.3,800-758.4,800z M-742.7,827.5c-2.8,5.9-8.8,9.9-15.7,9.9
		s-13-4.1-15.7-9.9c-1-2.3-1.7-4.8-1.7-7.5c0-9.7,7.8-17.4,17.4-17.4c9.7,0,17.4,7.8,17.4,17.4
		C-740.9,822.7-741.5,825.3-742.7,827.5z"/>
	<polygon id="XMLID_173_" class="st6" points="-776.5,808.8 -778.4,807.5 -778.4,807.5 -775.4,807.3 -774.8,806.5 -778,804.3 
		-778.6,805.2 -776.7,806.5 -776.7,806.5 -779.6,806.6 -780.1,807.4 -777,809.6 	"/>
	<path id="XMLID_170_" class="st6" d="M-774,805.6l-0.3-0.7l1-1l0.6,0.3l0.8-0.8l0,0l0.8-0.5l-1-1.9l0,0l1.9,1.4l0.3-0.2l-0.4-2.3
		l0,0l1.5,1.7l0.9-0.5l-2.6-2.9l-0.9,0.5l0.4,2.2l-1.7-1.3l-0.8,0.5l1.5,3.5l-3.6-1.7l-0.8,0.8l1.7,3.7L-774,805.6z M-775.2,803.1
		l1.1,0.6l-0.6,0.6L-775.2,803.1L-775.2,803.1z"/>
	<polygon id="XMLID_169_" class="st6" points="-768.4,798 -767.3,800.7 -766.3,800.3 -767.5,797.6 -766.7,797.3 -767.1,796.6 
		-769.5,797.6 -769.2,798.3 	"/>
	<path id="XMLID_151_" class="st6" d="M-765.1,799.5c0.3,0.3,0.9,0.2,1.3,0.1s0.9-0.3,1.1-0.7c0.3-0.4,0.2-1,0.1-1.4l-0.5-2.1
		l-1,0.3l0.4,1.9c0.1,0.4,0.3,1-0.3,1.1c-0.6,0.2-0.8-0.3-0.9-0.9l-0.5-1.8l-1,0.3l0.5,2.1C-765.7,798.8-765.5,799.3-765.1,799.5z"
		/>
	<polygon id="XMLID_150_" class="st6" points="-754.4,798.3 -755.6,798.1 -755.2,795.2 -756.2,795.1 -756.7,798.8 -754.5,799.1 	"/>
	<polygon id="XMLID_149_" class="st6" points="-752,798.9 -753.1,798.6 -753,797.9 -751.9,798.2 -751.7,797.4 -752.7,797.2 
		-752.7,796.6 -751.5,796.8 -751.3,796 -753.3,795.5 -754.3,799.2 -752.2,799.7 	"/>
	<polygon id="XMLID_148_" class="st6" points="-750.3,800.4 -749.3,797.6 -748.5,797.9 -748.1,797.2 -750.7,796.2 -750.9,797 
		-750.1,797.3 -751.2,800 	"/>
	<polygon id="XMLID_147_" class="st6" points="-748.5,801.3 -747.7,799.9 -746.4,800.6 -747.2,801.9 -746.3,802.5 -744.5,799.2 
		-745.3,798.6 -746,799.9 -747.3,799.3 -746.6,797.9 -747.4,797.4 -749.3,800.7 	"/>
	<polygon id="XMLID_146_" class="st6" points="-744.7,803.8 -742.6,802.7 -742.6,802.7 -743.6,804.7 -742.8,805.4 -739.3,803.4 
		-740.1,802.7 -742.3,804.1 -742.3,804.1 -741.2,801.8 -741.8,801.3 -744,802.6 -744,802.6 -742.9,800.3 -743.6,799.6 -745.3,803.2 
			"/>
	<polygon id="XMLID_145_" class="st6" points="-740.7,808.2 -740,807.7 -740.7,806.7 -740.2,806.4 -739.5,807.3 -738.8,806.7 
		-739.5,805.9 -739,805.5 -738.3,806.4 -737.6,805.9 -738.9,804.2 -742,806.5 	"/>
	
		<rect id="XMLID_143_" x="-740.5" y="807.6" transform="matrix(-0.8553 0.5181 -0.5181 -0.8553 -951.6622 1881.9515)" class="st6" width="3.8" height="1"/>
	<polygon id="XMLID_142_" class="st6" points="-770.7,837.4 -772,839.3 -772.1,839.3 -772.1,836.3 -772.9,835.7 -775.3,838.7 
		-774.5,839.3 -773,837.5 -773,837.5 -773,840.5 -772.2,841.1 -769.9,838 	"/>
	
		<rect id="XMLID_139_" x="-771.8" y="839.6" transform="matrix(0.4967 -0.8679 0.8679 0.4967 -1116.657 -245.3952)" class="st6" width="3.8" height="1"/>
	<polygon id="XMLID_138_" class="st6" points="-765.5,840 -766.5,842.2 -766.5,842.2 -767.3,839.3 -768.2,839 -769.7,842.6 
		-768.7,842.9 -767.9,840.7 -767.9,840.7 -767,843.6 -766,844 -764.7,840.5 	"/>
	<polygon id="XMLID_21_" class="st6" points="-765.1,844.3 -762.9,844.7 -762.7,843.9 -764,843.7 -763.8,843 -762.7,843.3 
		-762.5,842.4 -763.6,842.2 -763.4,841.5 -762.3,841.8 -762,841 -764.2,840.5 	"/>
	<polygon id="XMLID_18_" class="st6" points="-755.4,844.1 -755.8,841.1 -756.7,841.3 -756.3,845.1 -754.1,844.8 -754.2,843.9 	"/>
	
		<rect id="XMLID_15_" x="-755.4" y="842.1" transform="matrix(-0.2135 -0.9769 0.9769 -0.2135 -1737.532 286.4604)" class="st6" width="3.8" height="1"/>
	<polygon id="XMLID_10_" class="st6" points="-750.1,839.6 -750.2,841.9 -751.7,840.2 -752.6,840.6 -751.9,844.4 -750.9,844 
		-751.3,841.9 -751.3,841.9 -749.8,843.6 -749.3,843.4 -749.3,841.1 -749.3,841 -748.2,843 -747.3,842.6 -749.3,839.3 	"/>
	<path id="XMLID_5_" class="st6" d="M-745.8,839.3L-745.8,839.3c0.2-0.3,0.1-0.6-0.1-0.9c-0.3-0.6-1-0.6-1.5-0.3l-1.2,0.8l2,3.3
		l1.3-0.8c0.6-0.3,1-1,0.6-1.7C-744.9,839.3-745.3,839.1-745.8,839.3z M-746.8,839.6L-746.8,839.6l-0.4-0.5h0.1
		c0.3-0.2,0.5-0.3,0.7,0C-746.4,839.3-746.7,839.5-746.8,839.6z M-746,841L-746,841l-0.5-0.7l0.1-0.1c0.3-0.2,0.7-0.4,1-0.1
		C-745.3,840.6-745.8,840.8-746,841z"/>
	<path id="XMLID_4_" class="st6" d="M-743.6,837.3l-0.3,0.1c-0.2,0.1-0.4,0.2-0.6,0c-0.2-0.2,0-0.4,0.1-0.5c0.2-0.2,0.4-0.3,0.7-0.3
		l-0.2-0.9c-0.3,0.1-0.9,0.3-1.1,0.5c-0.6,0.5-0.7,1.2-0.2,1.8c0.4,0.6,0.9,0.4,1.5,0.2c0.2-0.1,0.6-0.3,0.8-0.1
		c0.2,0.2,0.1,0.4-0.1,0.6c-0.3,0.3-0.6,0.3-1,0.3l0.2,0.9c0.5,0,1-0.2,1.3-0.5s0.5-0.6,0.6-1c0.1-0.4-0.1-0.8-0.3-1
		C-742.6,837-743.1,837-743.6,837.3z"/>
</g>
</svg>
