<?xml version="1.0" encoding="utf-8"?>
<!-- Generator: Adobe Illustrator 19.0.0, SVG Export Plug-In . SVG Version: 6.00 Build 0)  -->
<svg version="1.1" id="Layer_1" xmlns="http://www.w3.org/2000/svg" xmlns:xlink="http://www.w3.org/1999/xlink" x="0px" y="0px"
	 viewBox="-11.1 77 50.1 47.2" style="enable-background:new -11.1 77 50.1 47.2;" xml:space="preserve">
<style type="text/css">
	.st0{fill:#A2DADF;}
	.st1{fill:#FFFFFF;}
	.st2{fill:#0B0A0A;}
	.st3{fill:#545454;}
	.st4{fill:#86B7BB;}
	.st5{fill:#020308;}
	.st6{fill:#94C9CE;}
	.st7{fill:#2E60AA;}
	.st8{fill:#58595B;}
</style>
<path class="st0" d="M2,95c0,0,7.4-6,7.4-12.3H13V95H2z"/>
<path class="st0" d="M24.6,95c0,0-7.4-6-7.4-12.3h-3.6V95H24.6z"/>
<path class="st1" d="M38,105.1l-4.9,0c0,0,0,0,0,0h-3.3c0,0,0,0,0,0l-32.6-0.2l-0.2,0l0,0l-3.3,0l0,0l0,0l0,0l-4.8,0l2,5.4l-2,5.3
	h6.5v-1.9h36.3v1.8h6.2l-1.9-5.3L38,105.1z"/>
<path class="st0" d="M-3,104.8c-0.9-2.1-1.4-4.4-1.4-6.9c0-0.5,0-0.9,0.1-1.4c0.7,0.1,1.8,0.2,2.1,0.2c1.3,0,2.5-0.2,2.8-0.2
	c-0.1,3.7,0.4,6.3,0.4,6.3h11.9v-7.1H1.4l0,0c-0.4,0.1-2.2,0.5-3.5,0.6c-0.6,0-1.5,0-2.2-0.1c0.9-9,8.5-16,17.7-16
	c9.2,0,16.8,7,17.7,16c-0.7,0.1-1.7,0.1-2.4,0.1c-1.5-0.1-3.6-0.6-3.6-0.6H13.6v7.1h11.9c0,0,0.5-2.5,0.4-6.3c0,0,1.4,0.3,2.9,0.2
	c0.4,0,1.7-0.1,2.4-0.2c0,0.5,0.1,1,0.1,1.5c0,2.5-0.5,4.9-1.5,7.1h3.3c0.8-2.2,1.2-4.6,1.2-7.1C34.4,86.4,25,77,13.4,77
	S-7.5,86.4-7.5,98c0,2.4,0.4,4.7,1.2,6.8l0,0L-3,104.8z"/>
<polygon class="st0" points="-6.4,104.8 -6.4,104.8 -6.3,104.8 "/>
<path class="st2" d="M28.4,111.8c-0.3-0.9-0.7-1.6-1-2.5c-0.3,0.8-0.6,1.6-1,2.5c-0.7-1.8-1.4-3.6-2.1-5.4c0.4,0,0.8,0,1.2,0
	c0.3,0.8,0.6,1.6,1,2.4c0.3-0.8,0.6-1.6,0.9-2.4c0,0,0,0,0.1,0c0.3,0.8,0.6,1.5,1,2.3c0.1-0.2,0.2-0.4,0.3-0.6
	c0.1-0.3,0.3-0.6,0.4-0.9c0.1-0.2,0.2-0.5,0.2-0.7c0-0.1,0.1-0.2,0.2-0.2c0.3,0,0.7,0,1.1,0C29.9,108.2,29.2,109.9,28.4,111.8z
	 M1.4,109.1c0-1.5,1.2-2.7,2.7-2.7c1.4,0,2.7,1.2,2.7,2.7c0,1.4-1.2,2.7-2.7,2.7C2.7,111.8,1.5,110.6,1.4,109.1z M5.7,109.1
	c0-0.8-0.6-1.6-1.6-1.6c-0.9,0-1.6,0.7-1.6,1.6c0,0.8,0.6,1.6,1.6,1.6S5.8,109.8,5.7,109.1z M13.4,106.4c0.4,0,0.7,0,1.1,0
	c0,1.8,0,3.6,0,5.4c-0.3,0-0.7,0-1.1,0c0-0.7,0-1.4,0-2.1c-0.5,0-1.1,0-1.6,0c0,0.7,0,1.4,0,2.1c-0.4,0-0.7,0-1.1,0
	c0-1.8,0-3.6,0-5.3c0.4,0,0.7,0,1.1,0c0,0.7,0,1.4,0,2.1c0.5,0,1.1,0,1.6,0C13.4,107.8,13.4,107.1,13.4,106.4z M16.7,106.4
	c0.7,0,1.4,0,2,0c0.9,0.1,1.8,1,1.7,2.1c-0.1,1-0.9,1.7-1.9,1.7c-0.3,0-0.5,0-0.8,0c0,0.5,0,1.1,0,1.6c-0.4,0-0.7,0-1.1,0
	C16.7,110,16.7,108.2,16.7,106.4z M17.8,107.5c0,0.5,0,1.1,0,1.6c0.3,0,0.5,0,0.8,0c0.5,0,0.8-0.4,0.8-0.7c0-0.4-0.3-0.8-0.7-0.9
	C18.3,107.4,18.1,107.5,17.8,107.5z M-1.6,110.2c0,0.5,0,1.1,0,1.6c-0.4,0-0.7,0-1.1,0c0-1.8,0-3.6,0-5.4c0.1,0,0.2,0,0.2,0
	c0.5,0,1.1,0,1.6,0c0.9,0,1.6,0.6,1.9,1.4c0.3,1-0.4,2.2-1.5,2.4C-0.9,110.2-1.2,110.2-1.6,110.2z M-1.6,107.5c0,0.5,0,1.1,0,1.6
	c0.3,0,0.5,0,0.8,0c0.5,0,0.8-0.4,0.8-0.7c0-0.4-0.3-0.8-0.7-0.9C-1,107.4-1.3,107.5-1.6,107.5z M24.9,111.8c-0.4,0-0.8,0-1.2,0
	c-0.1-0.3-0.2-0.5-0.4-0.8c-0.3,0-0.6,0-0.9,0c-0.3,0-0.6,0-0.9,0c-0.1,0.3-0.2,0.5-0.4,0.8c-0.4,0-0.7,0-1.1,0
	c0.8-1.8,1.6-3.6,2.4-5.4C23.3,108.2,24.1,110,24.9,111.8z M22.1,109.9c0.3,0,0.5,0,0.8,0c-0.1-0.3-0.3-0.6-0.4-0.9
	C22.4,109.3,22.2,109.6,22.1,109.9z M7.1,110.1c0.3,0,0.7,0,1,0c0,0.1,0,0.1,0.1,0.2c0.1,0.3,0.4,0.4,0.7,0.3
	c0.3-0.1,0.4-0.4,0.3-0.7c0-0.1-0.1-0.2-0.3-0.2c-0.2-0.1-0.4-0.1-0.6-0.2c-0.3-0.1-0.6-0.3-0.8-0.5c-0.5-0.5-0.5-1.1-0.3-1.6
	c0.3-0.7,0.9-1.1,1.7-1c0.6,0.1,1.2,0.6,1.4,1.2c0,0.1,0,0.2,0,0.4c-0.1,0-0.1,0-0.1,0c-0.3,0-0.6,0-0.9,0c0-0.2-0.1-0.4-0.4-0.5
	c-0.2-0.1-0.5,0-0.6,0.2c-0.1,0.2-0.1,0.5,0.1,0.7c0.2,0.1,0.4,0.2,0.5,0.3c0.3,0.1,0.6,0.2,0.9,0.4c0.5,0.4,0.7,0.9,0.4,1.6
	c-0.2,0.7-1,1.1-1.7,1.1c-0.7-0.1-1.3-0.7-1.4-1.4C7.1,110.3,7.1,110.2,7.1,110.1z"/>
<path class="st3" d="M25.1,115.6h6.6c0.2,1.4,0.9,2,0.9,2l5.4-0.1c1.1-0.2,1-1.2,1-1.2l-1.6-4.7l1.5-4.3c0.5-1.4-0.9-2.2-0.9-2.2
	l-2,5l1.9,5.3h-6.2v-1.8h-2.5h-1.8h-32v1.9h-6.5c0,0,0.4,2,1.3,2s5.1,0,5.1,0s1.3,0.1,1.2-1.5l0-0.5h5.3"/>
<path id="XMLID_405_" class="st4" d="M8.8,117.2c0.1,0,0.2-0.1,0.2-0.1c0.1,0,0.2,0.1,0.2,0.2C9.1,117.2,8.9,117.2,8.8,117.2z"/>
<path id="XMLID_404_" class="st5" d="M12.9,118.9c0,0.1,0,0.2,0,0.3C13,119.1,12.9,119,12.9,118.9z"/>
<path id="XMLID_403_" class="st5" d="M13,119.5c0,0.1,0,0.1,0,0.2C13,119.6,13,119.5,13,119.5z"/>
<path id="XMLID_402_" class="st5" d="M13.1,120.1L13.1,120.1C13.1,120.2,13.1,120.2,13.1,120.1z"/>
<path id="XMLID_401_" class="st4" d="M9.2,117.4L9.2,117.4L9.2,117.4z"/>
<path id="XMLID_400_" class="st5" d="M13.1,120L13.1,120L13.1,120L13.1,120z"/>
<path id="XMLID_392_" class="st6" d="M12.8,117.7c-0.3,0-0.7,0-1-0.1c0.2-0.2,0.4-0.3,0.7-0.2c0.1,0,0.2,0.1,0.3,0.1
	C12.8,117.6,12.8,117.7,12.8,117.7z"/>
<path id="XMLID_138_" class="st7" d="M10.4,117.5L10.4,117.5L10.4,117.5z"/>
<path id="XMLID_446_" class="st5" d="M23.7,124C23.7,124,23.6,124,23.7,124c-0.3,0-0.4-0.2-0.6-0.3l-0.1-0.1c0-0.2,0-0.4-0.1-0.6
	c0-0.5,0.2-0.9,0.4-1.3c0.2-0.3,0.3-0.6,0.5-1c0-0.1,0.1-0.2,0.1-0.3c0-0.1,0-0.1,0.1-0.3c-0.5,0.4-1,0.3-1.5,0
	c-0.1,0.2-0.2,0.3-0.3,0.5c-0.3,0.4-0.5,0.8-0.9,1.1c-0.6,0.4-1.4,0.3-1.8-0.3l-0.1-0.1c-0.1,0.1-0.2,0.2-0.3,0.3
	c-0.2,0.2-0.5,0.2-0.7,0.2h-0.1c-0.6,0-1-0.4-1.3-0.9c-0.1-0.2-0.2-0.3-0.3-0.5c-0.2,0.3-0.4,0.5-0.5,0.7c-0.5,0.8-1.6,0.9-2.3,0.6
	c-0.2-0.1-0.4-0.3-0.5-0.5s-0.1-0.4-0.2-0.5c0-0.1-0.1-0.3-0.1-0.4v-0.1v-0.1l0,0c0-0.1,0-0.2,0-0.3c0-0.1,0-0.1,0-0.2
	c0-0.1,0-0.2,0-0.3c0-0.1,0-0.2,0-0.3c0,0,0,0,0-0.1c0-0.4-0.1-0.7-0.1-1.1c0,0,0-0.1-0.1-0.1s-0.2-0.1-0.3-0.1
	c-0.3-0.1-0.5-0.1-0.7,0.2c-0.1,0.1-0.1,0.1-0.2,0.2c-0.1,0.1-0.1,0.1-0.2,0.2c0,0-0.1,0-0.2,0s-0.1-0.1,0-0.2
	c0-0.1,0.1-0.1,0.1-0.2c0.2-0.2,0.4-0.4,0.7-0.6c0.2-0.2,0.5-0.4,0.8-0.3H13c0-0.1,0-0.2,0-0.3c0-0.3,0-0.6,0.1-1c0-0.1,0-0.1,0-0.2
	s0-0.2,0-0.2c0-0.1,0-0.1,0-0.2v-0.1c0-0.1,0.1-0.2,0.1-0.2c0.2-0.1,0.4-0.1,0.6,0c0.1,0.1,0.2,0.2,0.3,0.2l0.1,0.1l0.1,0.1
	c0,0.1,0.1,0.2,0.1,0.2c0.1,0.3,0.2,0.5,0.2,0.8c0.1,0.4,0.1,0.8,0.1,1.3c0,0.3,0.1,0.3,0.4,0.3c0.1,0,0.2-0.1,0.2-0.1
	c0.2-0.1,0.3-0.2,0.5-0.4c0.1,0,0.1-0.1,0.2-0.1s0.1,0,0.2,0c0,0,0,0.1,0,0.2c-0.1,0.1-0.2,0.3-0.2,0.4c-0.1,0.1-0.1,0.2-0.2,0.3
	c-0.2,0.3-0.4,0.5-0.7,0.6c0,0-0.1,0-0.1,0.1s0,0.2,0,0.2c0.1,0.5,0.1,0.9,0.1,1.4c0,0.2,0,0.4,0.1,0.5c0.1,0.1,0.2,0.2,0.4,0.1
	c0.1,0,0.2-0.1,0.2-0.1c0.1-0.1,0.3-0.3,0.4-0.4c0.2-0.2,0.4-0.5,0.6-0.7c0-0.1,0.1-0.1,0.1-0.2c0-0.1,0-0.2,0-0.2
	c0-0.6,0.2-1.1,0.5-1.6l0.1-0.1c0,0,0.1,0,0.1-0.1c0.4-0.4,0.8-0.6,1.4-0.6c0.1,0,0.2,0,0.3,0.1l0.1,0.1c0.1,0.1,0.2,0.2,0.4,0.3
	c0.1-0.2,0.1-0.3,0.2-0.5c0.1-0.2,0.3-0.2,0.5-0.2c0,0,0,0,0.1,0c0,0,0.1,0,0.1,0.1c0.4,0.1,0.5,0.4,0.6,0.7
	c0.1,0.5,0.2,1.1,0.1,1.6c-0.1,0.4-0.1,0.8-0.2,1.2c-0.1,0.3-0.1,0.6-0.1,0.9c0,0.1,0,0.2,0.1,0.3c0.3-0.1,1-1,1.4-1.7
	c-0.1-0.4-0.2-0.8-0.2-1.3c0-0.1,0-0.1,0-0.2s0-0.1,0-0.2c-0.1-0.2,0-0.3,0.1-0.5c0.2-0.5,0.5-0.8,1-1c0.2-0.1,0.3,0,0.5,0.1
	c0.2,0.1,0.3,0.2,0.5,0.4c0-0.2,0.1-0.3,0.2-0.5c0.2,0,0.4,0,0.6,0.2c0.3,0.3,0.4,0.6,0.4,1c0,0.2,0,0.4,0,0.6
	c0.1-0.1,0.1-0.2,0.2-0.3c0.2-0.3,0.3-0.5,0.6-0.7c0.2-0.1,0.3-0.2,0.5-0.2c0,0,0.1,0,0.1-0.1c0.2-0.1,0.4-0.3,0.6-0.4
	c0.1,0,0.2,0.1,0.3,0.1c0.4,0.1,0.6,0.5,0.5,0.9c-0.1,0.2-0.2,0.4-0.4,0.6c-0.1,0.1-0.2,0.2-0.3,0.3c-0.3,0.2-0.3,0.5-0.2,0.7
	c0,0.3,0.1,0.6,0.1,0.9c0.1,0.2,0.1,0.5,0.2,0.7c0.1,0.2,0.4,0.3,0.6,0.2c0.4-0.3,0.8-0.6,1.1-0.9c0.3-0.4,0.7-0.8,1.1-1.2
	c0.2,0.2,0.2,0.3,0,0.5c-0.4,0.5-0.8,1.1-1.2,1.6c0,0.1-0.1,0.1-0.1,0.2c-0.3,0.3-0.6,0.5-1,0.6c-0.6,0.2-1.3,0-1.7-0.6
	c-0.3-0.5-0.5-1-0.5-1.5c0-0.3,0-0.5,0-0.8c-0.2,0.3-0.3,0.5-0.5,0.8c0,0.1,0,0.2,0,0.2c0,0.5,0,1,0,1.5c0,0.1,0,0.2,0,0.3
	c0,0.2-0.1,0.5-0.1,0.7c0,0.4-0.2,0.8-0.4,1.2c-0.1,0.2-0.2,0.3-0.4,0.4c-0.1,0-0.1,0.1-0.1,0.1C24.1,124,23.9,124,23.7,124z
	 M18.7,117.3c-0.1,0.2-0.2,0.4-0.3,0.5c-0.2,0.4-0.4,0.9-0.3,1.4c0,0.4,0.1,0.7,0.1,1c0,0.2,0.2,0.4,0.3,0.6c0,0.1,0.1,0.1,0.2,0.1
	c0.2,0,0.5-0.2,0.5-0.5c0-0.1,0-0.3,0-0.4c0-0.4,0-0.8,0-1.1c0-0.4,0.1-0.7,0.2-1.1c0-0.1,0-0.2-0.1-0.2
	C19.1,117.6,19,117.4,18.7,117.3z M23.6,120c0.3-0.3,0.5-0.6,0.5-1s0-0.7,0.1-1.1c0-0.3-0.2-0.6-0.4-0.7c-0.1,0-0.2,0-0.2,0.1
	c0,0.1-0.1,0.1-0.1,0.2c-0.1,0.4-0.3,0.8-0.2,1.3c0,0.1,0,0.2,0.1,0.2c0.1,0.1,0.1,0.1,0,0.2C23.2,119.4,23.3,119.8,23.6,120z
	 M24.2,121.6c-0.3,0.4-0.4,0.7-0.6,1.1c0,0.1-0.1,0.2-0.1,0.4c0,0.4,0.1,0.6,0.5,0.5c0.1,0,0.2-0.1,0.2-0.2
	C24.5,122.7,24.3,122.2,24.2,121.6z M27.3,118.3c0.2-0.2,0.3-0.5,0.4-0.8c0-0.1,0-0.1-0.1-0.2C27.5,117.6,27.4,117.9,27.3,118.3z"/>
<path id="XMLID_3_" class="st5" d="M9.2,117.4L9.2,117.4c0-0.2-0.1-0.3-0.2-0.3s-0.2,0.1-0.2,0.1c-0.2,0.1-0.2,0.2-0.3,0.4
	c-0.1,0.2-0.2,0.4-0.2,0.6c0,0.1,0,0.3,0,0.4c0,0.3,0.1,0.7,0.1,1c0,0.3,0.1,0.7,0.1,1c0,0.2,0,0.5,0,0.7c-0.1,0.3-0.4,0.5-0.7,0.3
	c-0.1-0.1-0.3-0.1-0.4-0.2s-0.2-0.2-0.3-0.3c0,0.1-0.1,0.1-0.1,0.2c-0.1,0.3-0.3,0.4-0.6,0.4c-0.2,0.1-0.4,0.1-0.6,0.1
	c-0.4,0.1-0.7,0-1-0.2c-0.1-0.1-0.2-0.2-0.4-0.3c0,0,0.1,0,0.1-0.1s-0.1-0.1-0.1-0.2c-0.3-0.4-0.4-0.8-0.4-1.3c0-0.6-0.1-1.2,0-1.8
	c0-0.3,0.1-0.6,0.2-0.9c0-0.1,0.1-0.1,0.2-0.1c0.5,0.1,0.9,0.3,1,0.8c0.1,0.2,0.1,0.4,0.2,0.7c0,0.1,0,0.1,0,0.2
	c0,0.6,0.1,1.1,0.2,1.7c0,0.3,0,0.6,0.1,0.8s0.2,0.2,0.4,0.1c0.3-0.3,0.5-0.6,0.7-0.9c0-0.1,0-0.2,0-0.3c0-0.8-0.1-1.6-0.1-2.4
	c0-0.1,0-0.3,0-0.4c0-0.2,0-0.3,0-0.5c0.2-0.2,0.2-0.2,0.4-0.1c0.1,0.1,0.3,0.2,0.4,0.3s0.1,0.2,0.2,0.4c0.1-0.1,0.1-0.2,0.2-0.3
	c0.1-0.1,0.2-0.1,0.3-0.2c0.3-0.2,0.6-0.3,0.9-0.2c0.5,0.1,0.9,0.4,1.1,0.9l0,0l0,0c0,0,0,0,0,0.1c0.1,0.4,0.1,0.8,0.2,1.1
	c0.1,0.7,0.1,1.5,0,2.2c0,0.1,0,0.3,0,0.4c0,0,0,0,0.1,0c0.1-0.1,0.1-0.1,0.2-0.2c0.2-0.2,0.3-0.4,0.5-0.7c0.4-0.6,0.8-1.2,1.2-1.8
	c0,0,0-0.1,0.1-0.1c0-0.1,0.1-0.2,0.2-0.3c0,0.2,0,0.3,0.1,0.5c-0.2,0.4-0.3,0.7-0.5,1.1c-0.4,0.7-0.8,1.4-1.3,2.1
	c-0.2,0.3-0.5,0.3-0.8,0.2c-0.3-0.1-0.5-0.3-0.6-0.5c-0.2-0.4-0.3-0.9-0.3-1.4s0-1,0-1.4C9.3,118.4,9.3,117.9,9.2,117.4L9.2,117.4z"
	/>
<path id="XMLID_2_" class="st5" d="M3.7,115.3c-0.1,0.2-0.1,0.4-0.2,0.6c-0.1,0.3-0.2,0.6-0.2,0.9c0,0.2-0.1,0.5-0.2,0.7
	c-0.1,0.4-0.2,0.8-0.4,1.2c-0.2,0.5-0.5,0.9-0.7,1.4c-0.1,0.3-0.2,0.6-0.4,0.9c-0.1,0.2-0.3,0.5-0.5,0.7c0,0.1-0.1,0.1-0.2,0.1
	c-0.2,0.1-0.5,0.1-0.7,0c-0.1,0-0.1-0.1-0.2-0.1c-0.2-0.5-0.4-1-0.6-1.5c-0.1-0.3-0.2-0.6-0.3-1c-0.1-0.3-0.1-0.6-0.1-0.9
	c-0.1-0.5-0.1-1-0.2-1.5c0-0.1,0-0.2,0-0.2c0-0.1,0.1-0.2,0-0.3c0-0.1,0-0.2,0-0.3c0-0.1,0.1-0.2,0-0.3c0.2-0.1,0.2-0.3,0.2-0.5
	v-0.1c0-0.1-0.1-0.2-0.1-0.3c0.4-0.1,0.8-0.1,1.2,0.1c0.1,0.1,0.2,0.2,0.3,0.2l0.1,0.1c0.1,0.2,0.2,0.4,0.3,0.5
	c0.3,0.4,0.3,0.8,0.4,1.3c0.1,0.4,0.2,0.8,0.2,1.3c0.1,0.4,0.1,0.9,0.2,1.4c0.1-0.1,0.1-0.1,0.1-0.2c0.2-0.4,0.3-0.8,0.5-1.2
	c0.3-1.1,0.6-2.2,1-3.2c0-0.1,0.1-0.2,0.1-0.3v-0.1c0.1-0.2,0.1-0.2,0.4-0.1c0,0.1,0,0.2,0,0.3C3.8,114.9,3.8,115.1,3.7,115.3z"/>
<path id="XMLID_1_" class="st5" d="M5.2,115.2c0,0.3,0,0.6,0,0.8s-0.1,0.4-0.3,0.5c-0.1,0-0.1,0.1-0.1,0.1c-0.3,0.2-0.6,0.1-0.7-0.3
	c0-0.2,0-0.3,0-0.5c0-0.1,0-0.2,0-0.4c0-0.2,0-0.4,0-0.7c0-0.1,0-0.2,0-0.3c0.1,0,0.1-0.1,0.2-0.1c0.1,0,0.2,0.1,0.3,0.1
	c0.1,0.1,0.2,0.1,0.3,0.2c0.1,0.1,0.1,0.1,0.2,0.2c0,0.1,0.1,0.1,0.1,0.2C5.2,115,5.2,115.1,5.2,115.2z"/>
<path id="XMLID_145_" class="st8" d="M-9.2,110.1c-0.2-0.6-0.4-1.2-0.7-1.8c-0.2-0.5-0.4-1.1-0.6-1.6c0-0.1-0.1-0.2-0.1-0.3
	s-0.1-0.2-0.1-0.3c-0.1,0-0.2,0-0.2,0.1c-0.2,0.2-0.2,0.4-0.2,0.7c0.1,0.3,0.2,0.7,0.3,1c0.2,0.7,0.5,1.3,0.7,2
	c0.1,0.4,0.3,0.7,0.4,1.1c0,0.1,0.1,0.1,0.2,0.1c0-0.1,0.1-0.2,0.1-0.4c0-0.1,0-0.1,0.1-0.2C-9.1,110.4-9.2,110.3-9.2,110.1z"/>
</svg>
