<?xml version="1.0" encoding="utf-8"?>
<!-- Generator: Adobe Illustrator 19.0.0, SVG Export Plug-In . SVG Version: 6.00 Build 0)  -->
<svg version="1.1" id="Layer_1" xmlns="http://www.w3.org/2000/svg" xmlns:xlink="http://www.w3.org/1999/xlink" x="0px" y="0px"
	 viewBox="-272 388.7 50 64.2" style="enable-background:new -272 388.7 50 64.2;" xml:space="preserve">
<style type="text/css">
	.st0{display:none;}
	.st1{display:inline;fill:none;stroke:#000000;stroke-miterlimit:10;}
	.st2{display:inline;fill:none;}
	.st3{fill:#FFFFFF;}
	.st4{fill:none;}
</style>
<g id="background" class="st0">
	<polyline id="XMLID_6_" class="st1" points="-142.9,594.3 -142.9,783.2 -331.8,783.2 	"/>
	<polyline id="XMLID_10_" class="st1" points="46.1,594.3 46.1,783.2 -142.9,783.2 -142.9,594.3 	"/>
	<polyline id="XMLID_5_" class="st1" points="235.1,783.2 46.1,783.2 46.1,594.3 	"/>
	<polyline id="XMLID_13_" class="st1" points="-331.8,783.2 -142.9,783.2 -142.9,972.2 -331.8,972.2 	"/>
	<rect id="XMLID_31_" x="-142.9" y="783.2" class="st1" width="189" height="189"/>
	<polyline id="XMLID_9_" class="st1" points="235.1,972.2 46.1,972.2 46.1,783.2 235.1,783.2 	"/>
	<polyline id="XMLID_8_" class="st1" points="-331.8,972.2 -142.9,972.2 -142.9,1161.2 	"/>
	<polyline id="XMLID_11_" class="st1" points="-142.9,1161.2 -142.9,972.2 46.1,972.2 46.1,1161.2 	"/>
	<polyline id="XMLID_7_" class="st1" points="46.1,1161.2 46.1,972.2 235.1,972.2 	"/>
	<rect id="XMLID_14_" x="-327.5" y="598.6" class="st2" width="24.2" height="27.6"/>
	
		<text id="XMLID_12_" transform="matrix(1 0 0 1 -327.5399 607.1319)" style="display:inline; font-family:'ArialMT'; font-size:12px;">01</text>
	<rect id="XMLID_16_" x="-137.1" y="598.6" class="st2" width="24.2" height="27.6"/>
	
		<text id="XMLID_15_" transform="matrix(1 0 0 1 -137.1181 607.1319)" style="display:inline; font-family:'ArialMT'; font-size:12px;">02</text>
	<rect id="XMLID_19_" x="51.5" y="598.6" class="st2" width="24.2" height="27.6"/>
	
		<text id="XMLID_18_" transform="matrix(1 0 0 1 51.4982 607.1319)" style="display:inline; font-family:'ArialMT'; font-size:12px;">03</text>
	<rect id="XMLID_21_" x="51.5" y="788.6" class="st2" width="24.2" height="27.6"/>
	
		<text id="XMLID_20_" transform="matrix(1 0 0 1 51.4982 797.1771)" style="display:inline; font-family:'ArialMT'; font-size:12px;">06</text>
	<rect id="XMLID_23_" x="-137.1" y="788.6" class="st2" width="24.2" height="27.6"/>
	
		<text id="XMLID_22_" transform="matrix(1 0 0 1 -137.1181 797.1771)" style="display:inline; font-family:'ArialMT'; font-size:12px;">05</text>
	<rect id="XMLID_25_" x="-327.5" y="788.6" class="st2" width="24.2" height="27.6"/>
	
		<text id="XMLID_24_" transform="matrix(1 0 0 1 -327.5399 797.1771)" style="display:inline; font-family:'ArialMT'; font-size:12px;">04</text>
	<rect id="XMLID_27_" x="-327.5" y="976.3" class="st2" width="24.2" height="27.6"/>
	
		<text id="XMLID_26_" transform="matrix(1 0 0 1 -327.5399 984.8408)" style="display:inline; font-family:'ArialMT'; font-size:12px;">07</text>
	<rect id="XMLID_29_" x="-137.1" y="976.3" class="st2" width="24.2" height="27.6"/>
	
		<text id="XMLID_28_" transform="matrix(1 0 0 1 -137.1181 984.8408)" style="display:inline; font-family:'ArialMT'; font-size:12px;">08</text>
	<rect id="XMLID_32_" x="51.5" y="976.3" class="st2" width="24.2" height="27.6"/>
	
		<text id="XMLID_30_" transform="matrix(1 0 0 1 51.4982 984.8408)" style="display:inline; font-family:'ArialMT'; font-size:12px;">09</text>
</g>
<g>
	<g id="XMLID_40_">
		<g id="XMLID_45_">
			<path id="XMLID_113_" class="st3" d="M-618.6,671.3v2c0,0.6,0.3,0.6,0.8,0.6v0.2c-0.4,0-0.8,0-1.2,0s-0.8,0-1.2,0V674
				c0.5,0,0.8-0.1,0.8-0.5v-4.4c0-0.6-0.3-0.6-0.8-0.6v-0.2c0.5,0,0.9,0,1.3,0c0.3,0,0.6,0,1.2,0c1.6,0,1.9,0.9,1.9,1.5
				c0,0.7-0.5,1.2-1.2,1.5c0.8,1.2,1.2,1.8,1.6,2.3c0.3,0.3,0.5,0.5,0.9,0.5v0.2c-0.2,0-0.5,0-0.6,0c-0.2,0-0.5,0-0.7,0
				c-0.8-0.9-1.3-1.9-1.9-2.8L-618.6,671.3L-618.6,671.3z M-618.1,668.5c-0.2,0-0.4,0-0.5,0.1v2.5c0.2,0,0.3,0.1,0.5,0.1
				c1.1,0,1.5-0.7,1.5-1.3C-616.7,669-617.1,668.5-618.1,668.5z"/>
		</g>
		<g id="XMLID_48_">
			<path id="XMLID_109_" class="st3" d="M-609.4,673.8c-0.2,0.2-0.5,0.5-0.9,0.5s-0.5-0.3-0.5-0.6c-0.4,0.4-0.8,0.6-1.3,0.6
				c-0.5,0-0.9-0.4-0.9-0.9c0-0.7,0.4-0.8,2.3-1.5v-0.5c0-0.5-0.3-0.7-0.9-0.7c-0.4,0-0.6,0.2-0.6,0.6c0,0.2-0.3,0.4-0.5,0.4
				c-0.2,0-0.2-0.1-0.2-0.2c0-0.5,0.4-0.7,1-1c0.3-0.2,0.5-0.3,0.8-0.3c0.4,0,1,0.2,1,0.7v2.3c0,0.3,0.2,0.5,0.3,0.5
				c0.1,0,0.2-0.1,0.3-0.2L-609.4,673.8z M-610.8,672.3c-0.5,0.2-1.6,0.4-1.6,1c0,0.3,0.3,0.6,0.6,0.6c0.4,0,0.6-0.2,0.9-0.5V672.3
				L-610.8,672.3z"/>
		</g>
		<g id="XMLID_51_">
			<path id="XMLID_105_" class="st3" d="M-608,674h0.2c0.2,0,0.4,0,0.4-0.3v-2.3c0-0.4-0.2-0.5-0.5-0.6v-0.2
				c0.4-0.2,0.9-0.3,0.9-0.3s0.1-0.1,0.2-0.1s0.1,0.1,0.1,0.2v3.3c0,0.3,0.2,0.3,0.5,0.3h0.2v0.2c-0.3,0-0.6,0-0.9,0
				c-0.3,0-0.6,0-0.9,0V674L-608,674z M-607.1,668.9c-0.2,0-0.4-0.2-0.4-0.5s0.2-0.4,0.4-0.4c0.2,0,0.4,0.2,0.4,0.4
				C-606.7,668.8-606.9,668.9-607.1,668.9z"/>
		</g>
		<g id="XMLID_54_">
			<path id="XMLID_102_" class="st3" d="M-604.3,671.4c0-0.3-0.1-0.4-0.5-0.5v-0.2c0.4-0.2,0.7-0.2,1.1-0.4c0,0,0.1,0,0.1,0.1v0.5
				c0.5-0.3,0.9-0.6,1.5-0.6c0.7,0,1,0.5,1,1.2v2.2c0,0.3,0.2,0.3,0.5,0.3h0.2v0.2c-0.3,0-0.6,0-0.9,0s-0.6,0-0.9,0V674h0.2
				c0.2,0,0.4,0,0.4-0.3v-2.2c0-0.5-0.3-0.7-0.8-0.7c-0.3,0-0.7,0.2-1,0.4v2.6c0,0.3,0.2,0.3,0.5,0.3h0.2v0.2c-0.3,0-0.6,0-0.9,0
				c-0.3,0-0.6,0-0.9,0V674h0.2c0.2,0,0.4,0,0.4-0.3V671.4L-604.3,671.4z"/>
		</g>
		<g id="XMLID_56_">
			<path id="XMLID_98_" class="st3" d="M-591.7,672.5c0.2,0.3,0.3,1.1,0.5,1.2c0.2,0.2,0.4,0.2,0.6,0.2v0.2c-0.3,0-0.6,0-1,0
				s-0.9,0-1.2,0V674h0.2c0.2,0,0.5-0.1,0.5-0.3c0-0.1-0.1-0.3-0.2-0.5l-0.5-1.2h-1.9l-0.2,0.6c-0.1,0.4-0.2,0.8-0.2,1
				c0,0.4,0.3,0.4,0.6,0.4h0.2v0.2c-0.3,0-0.7,0-1,0s-0.7,0-1,0V674c0.5-0.1,0.6-0.2,0.9-0.6c0.2-0.3,0.2-0.6,0.3-0.9l1.1-3
				c0.1-0.2,0.2-0.5,0.2-0.8c0-0.1,0-0.2,0-0.2c0.2-0.1,0.4-0.2,0.5-0.4h0.2L-591.7,672.5z M-594.6,671.6h1.8l-0.9-2.5l0,0
				L-594.6,671.6z"/>
		</g>
		<g id="XMLID_59_">
			<path id="XMLID_95_" class="st3" d="M-585.9,673.5c-0.4,0.5-1,0.9-1.6,0.9c-0.9,0-1.7-0.9-1.7-1.8c0-1.2,0.9-2.3,2.1-2.3
				c0.5,0,1.2,0.2,1.2,0.6c0,0.2-0.2,0.4-0.3,0.4c-0.4,0-0.3-0.7-1.2-0.7c-0.7,0-1.1,0.9-1.1,1.5c0,0.9,0.5,1.6,1.5,1.6
				c0.5,0,0.7-0.2,1-0.4L-585.9,673.5z"/>
		</g>
		<g id="XMLID_61_">
			<path id="XMLID_91_" class="st3" d="M-583.9,671.8c0,0.1,0,0.2,0,0.5c0.1,0.8,0.5,1.5,1.2,1.5c0.5,0,0.9-0.2,1.2-0.5l0.2,0.2
				c-0.4,0.5-0.9,0.9-1.6,0.9c-1.4,0-1.6-1.3-1.6-1.9c0-1.7,1.1-2.2,1.7-2.2c0.7,0,1.4,0.5,1.5,1.3c0,0.1,0,0.1,0,0.2l-0.1,0.1
				L-583.9,671.8L-583.9,671.8z M-582.3,671.6c0.2,0,0.2-0.1,0.2-0.2c0-0.5-0.2-0.8-0.8-0.8c-0.5,0-0.9,0.4-1,1H-582.3L-582.3,671.6
				z"/>
		</g>
	</g>
	<g id="XMLID_34_">
		<line id="XMLID_65_" class="st4" x1="-620.3" y1="666.2" x2="-581.3" y2="666.2"/>
		<rect id="XMLID_66_" x="-620.3" y="666" class="st3" width="38.9" height="0.4"/>
	</g>
	<g id="XMLID_35_">
		<line id="XMLID_33_" class="st4" x1="-620.3" y1="676.3" x2="-581.3" y2="676.3"/>
		<rect id="XMLID_64_" x="-620.3" y="676.1" class="st3" width="38.9" height="0.4"/>
	</g>
	<path class="st3" d="M-593.4,638.5L-593.4,638.5C-593.3,638.5-593.3,638.6-593.4,638.5c0.2,0.2,0.2,0.2,0.3,0.3
		c0.1,0.2,0.2,0.3,0.4,0.5s0.2,0.4,0.4,0.6c0.1,0.2,0.2,0.5,0.3,0.8c0.1,0.3,0.2,0.6,0.2,0.9c0,0.2,0,0.3,0.1,0.5c0,0.2,0,0.4,0,0.5
		c0,0.4-0.1,0.7-0.2,1.1s-0.2,0.7-0.3,1c-0.1,0.2-0.2,0.3-0.2,0.5s-0.2,0.3-0.2,0.5c-0.1,0.1-0.1,0.2-0.2,0.2s-0.1,0.2-0.2,0.2
		c-0.1,0.2-0.2,0.2-0.3,0.4c-0.2,0.2-0.4,0.5-0.5,0.6c-0.2,0.2-0.4,0.3-0.5,0.5c-0.2,0.2-0.3,0.2-0.5,0.3c-0.2,0.1-0.2,0.2-0.3,0.2
		c0,0-0.1,0-0.1,0.1l0,0l0,0h-0.1v-0.1c0,0,0.1-0.2,0.2-0.4c0.1-0.1,0.2-0.2,0.3-0.4c0.1-0.2,0.2-0.4,0.3-0.5
		c0.1-0.1,0.2-0.2,0.2-0.3s0.1-0.1,0.1-0.2c0-0.1,0.1-0.2,0.1-0.2c0.2-0.2,0.2-0.5,0.3-0.8c0.1-0.3,0.2-0.5,0.3-0.9
		c0.1-0.2,0.1-0.3,0.2-0.5l0.1-0.2l0.1-0.2c0.1-0.3,0.1-0.6,0.2-0.9c0-0.3,0.1-0.6,0.1-0.9c0-0.6-0.1-1.2-0.2-1.6
		c-0.1-0.2-0.1-0.5-0.2-0.6s-0.1-0.4-0.2-0.5c-0.1-0.2-0.2-0.4-0.2-0.4v-0.1C-593.5,638.5-593.5,638.5-593.4,638.5L-593.4,638.5z"/>
	<path class="st3" d="M-599.1,628.7c0,0,0.2,0.4,0.6,0.9c0.2,0.3,0.4,0.6,0.6,0.9c0.2,0.4,0.5,0.7,0.7,1.1c0.2,0.2,0.2,0.4,0.4,0.5
		s0.3,0.3,0.4,0.5c0.2,0.3,0.5,0.7,0.6,1c0.1,0.2,0.2,0.3,0.2,0.4c0.1,0.2,0.1,0.2,0.2,0.3c0,0.1,0.1,0.2,0.1,0.2s0,0.1,0,0.1
		s0,0,0,0.1l0,0l0,0c0,0,0,0-0.1-0.1c-0.1,0-0.1-0.1-0.2-0.2c-0.2-0.2-0.3-0.3-0.5-0.6c-0.2-0.2-0.5-0.5-0.8-0.9
		c-0.2-0.2-0.2-0.4-0.4-0.5c-0.1-0.2-0.2-0.4-0.3-0.6c-0.2-0.4-0.5-0.8-0.6-1.2c-0.2-0.4-0.4-0.8-0.5-1c-0.2-0.3-0.2-0.5-0.3-0.8
		C-599.1,628.7-599.1,628.7-599.1,628.7C-599.2,628.7-599.1,628.7-599.1,628.7C-599.1,628.6-599.1,628.7-599.1,628.7z"/>
	<path class="st3" d="M-585.4,638.1c-0.8-1-1.7-2-2.6-2.9c-3.3-3.1-7-5.7-10.3-8.7c2.5,4.7,7.4,8.1,8.6,13.2c0.8,3,0.1,6.4-1.9,8.9
		c-2,2.6-5.4,4.2-8.7,4.4c-3,0.2-6-0.8-8.3-2.6c-2.3-1.9-3.7-4.8-3.6-7.8c0.2-3.1,1.9-6,3.8-8.4c1.9-2.4,4.2-4.7,5.7-7.5
		c-3,2.4-6.1,4.5-9,6.9c-2.9,2.4-5.6,5.2-7.2,8.6c-1,2.1-1.6,4.5-1.4,6.9c1,8.6,12.2,11.1,17.6,4.9c-0.4,2.8-0.9,5.5-1.4,8.3
		c2.1,0,4.1,0,6.2,0c-0.4-2.7-0.8-5.5-1.2-8.2c2.3,2.5,5.6,3.8,9,3.6c1.9-0.2,3.7-0.8,5.1-1.9c2.6-2.1,3.7-5.6,3.3-8.9
		C-581.9,643.5-583.4,640.7-585.4,638.1z"/>
</g>
</svg>
