<?xml version="1.0" encoding="utf-8"?>
<!-- Generator: Adobe Illustrator 19.0.0, SVG Export Plug-In . SVG Version: 6.00 Build 0)  -->
<svg version="1.1" id="Layer_1" xmlns="http://www.w3.org/2000/svg" xmlns:xlink="http://www.w3.org/1999/xlink" x="0px" y="0px"
	 viewBox="-266 206.2 49.9 38.5" style="enable-background:new -266 206.2 49.9 38.5;" xml:space="preserve">
<style type="text/css">
	.st0{display:none;}
	.st1{display:inline;fill:none;stroke:#000000;stroke-miterlimit:10;}
	.st2{display:inline;fill:none;}
	.st3{fill:#BFE6EB;}
	.st4{fill:#FDF499;}
	.st5{fill:#FFFFFF;}
	.st6{fill:#E6E7E8;}
	.st7{fill:#58595B;}
	.st8{fill:#BCBEC0;}
	.st9{fill:#939598;}
	.st10{fill:#414042;}
	.st11{fill:none;}
</style>
<g id="background" class="st0">
	<polyline id="XMLID_6_" class="st1" points="129.1,218.4 129.1,407.3 -59.8,407.3 	"/>
	<polyline id="XMLID_10_" class="st1" points="318.1,218.4 318.1,407.3 129.1,407.3 129.1,218.4 	"/>
	<polyline id="XMLID_5_" class="st1" points="507.1,407.3 318.1,407.3 318.1,218.4 	"/>
	<polyline id="XMLID_13_" class="st1" points="-59.8,407.3 129.1,407.3 129.1,596.3 -59.8,596.3 	"/>
	<rect id="XMLID_31_" x="129.1" y="407.3" class="st1" width="189" height="189"/>
	<polyline id="XMLID_9_" class="st1" points="507.1,596.3 318.1,596.3 318.1,407.3 507.1,407.3 	"/>
	<polyline id="XMLID_8_" class="st1" points="-59.8,596.3 129.1,596.3 129.1,785.3 	"/>
	<polyline id="XMLID_11_" class="st1" points="129.1,785.3 129.1,596.3 318.1,596.3 318.1,785.3 	"/>
	<polyline id="XMLID_7_" class="st1" points="318.1,785.3 318.1,596.3 507.1,596.3 	"/>
	<rect id="XMLID_14_" x="-55.5" y="222.7" class="st2" width="24.2" height="27.6"/>
	
		<text id="XMLID_12_" transform="matrix(1 0 0 1 -55.5399 231.2418)" style="display:inline; font-family:'ArialMT'; font-size:12px;">01</text>
	<rect id="XMLID_16_" x="134.9" y="222.7" class="st2" width="24.2" height="27.6"/>
	
		<text id="XMLID_15_" transform="matrix(1 0 0 1 134.8818 231.2418)" style="display:inline; font-family:'ArialMT'; font-size:12px;">02</text>
	<rect id="XMLID_19_" x="323.5" y="222.7" class="st2" width="24.2" height="27.6"/>
	
		<text id="XMLID_18_" transform="matrix(1 0 0 1 323.4982 231.2418)" style="display:inline; font-family:'ArialMT'; font-size:12px;">03</text>
	<rect id="XMLID_21_" x="323.5" y="412.7" class="st2" width="24.2" height="27.6"/>
	
		<text id="XMLID_20_" transform="matrix(1 0 0 1 323.4982 421.287)" style="display:inline; font-family:'ArialMT'; font-size:12px;">06</text>
	<rect id="XMLID_23_" x="134.9" y="412.7" class="st2" width="24.2" height="27.6"/>
	
		<text id="XMLID_22_" transform="matrix(1 0 0 1 134.8818 421.287)" style="display:inline; font-family:'ArialMT'; font-size:12px;">05</text>
	<rect id="XMLID_25_" x="-55.5" y="412.7" class="st2" width="24.2" height="27.6"/>
	
		<text id="XMLID_24_" transform="matrix(1 0 0 1 -55.5399 421.287)" style="display:inline; font-family:'ArialMT'; font-size:12px;">04</text>
	<rect id="XMLID_27_" x="-55.5" y="600.4" class="st2" width="24.2" height="27.6"/>
	
		<text id="XMLID_26_" transform="matrix(1 0 0 1 -55.5399 608.9507)" style="display:inline; font-family:'ArialMT'; font-size:12px;">07</text>
	<rect id="XMLID_29_" x="134.9" y="600.4" class="st2" width="24.2" height="27.6"/>
	
		<text id="XMLID_28_" transform="matrix(1 0 0 1 134.8818 608.9507)" style="display:inline; font-family:'ArialMT'; font-size:12px;">08</text>
	<rect id="XMLID_32_" x="323.5" y="600.4" class="st2" width="24.2" height="27.6"/>
	
		<text id="XMLID_30_" transform="matrix(1 0 0 1 323.4982 608.9507)" style="display:inline; font-family:'ArialMT'; font-size:12px;">09</text>
</g>
<g id="XMLID_1_">
	<path id="XMLID_83_" class="st3" d="M-216.2,231c-0.2-1-0.7-2-1.5-2.9c-0.9-1.4-2.8-3.1-6.9-5c-0.5-0.2-1.1-0.5-1.6-0.7
		c-0.8-0.4-1.4-0.6-1.4-0.6l0,0c-3.5-1.4-7.1-2.7-7.1-2.7s-9.6,0.1-23.4-11.2l-6,0.8l0.1,3.8c-0.1,4.9-0.5,14.3-1.7,21.4
		c-0.6,3.8-0.1,6.2,0.3,6.9c0.6,1,0.8,1.5,2.3,2.4c0.8,0.5,3,1.3,4.3,1.2l0,0l4.1-0.4c11.1-0.9,19.2-0.7,24.4-0.3l7.8,1
		c0,0,2.3-0.6,3.8-3.5c2-3.6,2.5-5.9,2.5-7.4C-216,233-216.1,232.1-216.2,231z"/>
	<path id="XMLID_95_" class="st4" d="M-222.3,241.1c-21.3-21.2-35.2-33.5-37.7-34.7c-0.4-0.2-3.2-0.2-4.2-0.2
		c-0.2,0-0.3,0.2-0.3,0.4c1.5,8,2.9,19.1,3.8,27.2l0,0c-0.1,2-0.2,5.6-0.2,5.7c-0.1,2,0.2,2.8,0.5,3.6c0.2,0.6,0.3,0.9,1.9,1.2
		c1.5,0.3,5.5-0.7,8.2-0.7l-0.1-0.1h0.1v0.1l9.1-0.2c0.1,0,0.3-0.1,0.3-0.3c0-0.1,0-0.1,0-0.2l0,0l-0.1,0.4l9.5,0.3
		c4,0,7.7,0.9,8.9,0.9c0.7,0,1-0.6,1-1.3C-221.5,242.9-221.4,241.8-222.3,241.1z"/>
	<g id="XMLID_47_">
		<path id="XMLID_657_" class="st5" d="M-225.6,225.3c0,0,0,0.1-0.1,0.1c0,0,0,0-0.1,0.1c-0.1,0.1,0,0-0.1,0
			c-0.1,0.1-0.2,0.1-0.3,0.1c-0.1,0-0.2,0-0.3-0.1c-0.1,0-0.2-0.1-0.2-0.1l0,0c-0.1-0.1-0.2-0.1-0.2-0.2l-0.3-0.1l0.2,0.2
			c0.1,0,0.1,0.1,0.2,0.1c0,0,0,0,0.1,0.1c0.1,0.1,0.1,0.1,0.2,0.2c0,0.1,0.1,0.2,0.1,0.2v0.1c0,0,0,0,0,0.1l0,0l0,0l0,0
			c0,0,0,0.1-0.1,0.1h-0.1c-0.1,0-0.2,0-0.2,0c-0.1,0-0.2-0.1-0.2-0.1s-0.1,0-0.1-0.1l-0.1-0.1l-0.1-0.2l-0.1,0.2c0,0,0,0,0,0.1
			c0,0,0,0-0.1,0.1l-0.1,0.1c-0.1,0.1-0.2,0.1-0.3,0.1c-0.1,0-0.2,0-0.3-0.1l-0.1-0.1l-0.1-0.1l-0.1-0.1l-0.1,0.1c0,0,0,0,0,0.1
			c0,0,0,0-0.1,0.1l-0.1,0.1c-0.1,0.1-0.2,0.1-0.3,0h-0.1h-0.1h-0.1c0,0,0,0-0.1-0.1l-0.1-0.1c0,0,0,0,0-0.1l0,0l0,0l0,0v-0.3
			l-0.2,0.3l0,0l0,0l0,0c0,0,0,0-0.1,0c0,0,0,0-0.1,0c0,0-0.1,0-0.2,0h-0.1l0,0l0,0c0,0,0,0-0.1,0c0,0,0,0-0.1,0c0,0-0.1,0-0.1-0.1
			v-0.1v-0.1v-0.1l0.1-0.5l-0.3,0.4l0,0c0,0,0,0-0.1,0l-0.1,0.1h-0.1h-0.1h-0.1h-0.1c0,0,0,0-0.1,0c0,0,0,0-0.1,0l0,0c0,0,0,0,0-0.1
			s0,0,0-0.1l0,0c0.2-0.3,0.3-0.6,0.5-0.9l0.1-0.2l-0.2,0.1h-0.1h-0.1c-0.1,0-0.2,0-0.3,0.1c-0.2,0-0.4,0.1-0.6,0.1
			c-0.2,0-0.4,0-0.6,0s-0.4,0-0.6,0c-0.2,0-0.4,0-0.5-0.1h-0.3h-0.3c-0.1,0-0.2,0-0.3-0.1c-0.1,0-0.2,0-0.3-0.1
			c-0.1-0.1-0.2-0.1-0.3-0.1c-0.1,0-0.2-0.1-0.2-0.1c-0.2-0.1-0.3-0.1-0.5-0.2c-0.1,0-0.2-0.1-0.2-0.1c-0.1,0-0.1-0.1-0.2-0.1
			c-0.3-0.2-0.6-0.4-0.8-0.7c-0.6-0.4-1.1-0.9-1.7-1.3l-0.2-0.2c-0.1-0.1-0.2-0.1-0.2-0.1c-0.2-0.1-0.3-0.1-0.5-0.2
			c-0.1,0-0.2,0-0.3,0c-0.1,0-0.2,0-0.3,0c-0.2,0-0.4,0-0.5-0.1l0,0l0,0c-0.1,0.1-0.3,0.1-0.4,0.2c-0.1,0-0.1,0.1-0.2,0.1
			c0,0-0.1,0-0.1,0.1c0,0,0,0-0.1,0.1c0-0.1,0-0.2,0-0.3s0.1-0.2,0.1-0.3c0.1-0.2,0.2-0.3,0.3-0.5l0,0l0,0v-0.1v-0.1v-0.1v-0.1
			c0.1-0.2,0.2-0.3,0.3-0.4c0.1-0.1,0.3-0.2,0.5-0.3c0.1-0.1,0.3-0.1,0.4-0.1l0,0l0,0l0,0h0.1c0.1,0,0.3,0.1,0.5,0.2
			c0.2,0.1,0.4,0.2,0.7,0.3c0.1,0.1,0.3,0.1,0.4,0.2c0.1,0,0.2,0,0.4,0.1c0,0,0,0,0.1,0l0,0c0.3,0,0.6,0,0.9,0.1c0.1,0,0.3,0,0.4,0
			s0.1,0,0.2,0c0.1,0,0.1,0,0.2,0c0.1,0,0.1,0,0.1-0.1l0.1-0.1c0-0.1,0.1-0.1,0.1-0.2c0-0.1,0.1-0.1,0.1-0.1l0,0l0,0c0,0,0,0-0.1,0
			l-0.1,0.1c0,0-0.1,0.1-0.2,0.2l-0.1,0.1l0,0l0,0l0,0l0,0l0,0l0,0l0,0l0,0h-0.1c0,0-0.1,0-0.2,0c-0.1,0-0.3,0-0.4-0.1
			c-0.1,0-0.3,0-0.4-0.1s-0.3,0-0.4,0h-0.1c-0.6-0.7-0.7-1.6-0.9-2.4c-0.1-0.7-0.3-1.4-0.6-2.1c-0.3-0.7-0.6-1.4-0.9-2.1
			c-0.2-0.6-0.4-1.3-0.7-2c0,0,0,0,0.1,0c0,0,0.1,0,0.1,0.1c0.1,0,0.2,0.1,0.2,0.2l0.1,0.1l0.1,0.1l0.1,0.1l0.1,0.1l0.1,0.1
			c0,0,0,0.1,0.1,0.1c0,0,0,0.1,0.1,0.1l0.1,0.1c0,0,0,0.1,0.1,0.1v0.1c0,0.1,0,0.2,0.1,0.3l0,0l0.2,0.7v-0.4l-0.1-0.3l0,0l-0.2-0.8
			l-0.2-0.8c0-0.1,0-0.1,0-0.2c0,0,0,0,0-0.1l0.1,0.1c0,0,0,0.1,0.1,0.1l0,0l0,0l0,0c0,0.1,0.1,0.1,0.1,0.2c0,0.1,0.1,0.1,0.1,0.2
			l0.1,0.2l0.1,0.2c0,0.1,0.1,0.3,0.1,0.4c0,0.2,0.1,0.3,0.1,0.5c0.1,0.3,0.1,0.6,0.2,0.9l0.1,0.4V214v-0.2c0-0.1,0-0.1,0-0.2
			c0-0.3-0.1-0.6-0.1-0.9c0-0.4-0.1-0.8-0.1-1.1c0-0.1,0-0.1,0.1-0.2c0,0,0,0,0.1-0.1c0,0,0,0,0.1,0c0,0,0,0,0.1,0.1
			c0,0,0,0.1,0.1,0.1c0,0.1,0.1,0.1,0.1,0.2c0.1,0.2,0.1,0.5,0.2,0.7c0,0.2,0.1,0.5,0.1,0.7l0,0v0.5l0.1-0.1v-0.4l0,0
			c0-0.4,0-0.7,0-1.1l0,0l0,0v-0.1l0,0l0,0c0,0,0,0,0.1,0c0,0,0.1,0.1,0.1,0.2c0,0.1,0.1,0.1,0.1,0.2v0.5v0.7l0.2-0.7v-0.1
			c0,0,0-0.1,0.1-0.1c0,0,0-0.1,0.1-0.1l0,0l0,0l0,0c0,0,0,0.1,0.1,0.1c0,0.1,0.1,0.2,0.1,0.3v0.4v0.7l0.2-0.7v-0.1v-0.1l0,0l0,0
			v0.1c0,0.1,0,0.1,0,0.2v0.3v0.5l0.2-0.4c0,0,0-0.1,0.1-0.1c0,0,0-0.1,0.1-0.1l0,0l0,0c0,0,0,0,0,0.1v0.1c0,0.1,0,0.2,0,0.3v0.3
			l0.2-0.2l0,0l0,0l0,0l0,0l0,0l0,0l0,0l0,0l0,0l0,0l0,0v0.1v0.1v0.1c0,0.1,0,0.2,0,0.2v0.3l0.2-0.2c0,0,0.1,0,0.1-0.1h0.1l0,0l0,0
			l0,0l0,0c0,0.1,0,0.1,0,0.2c0,0.1,0,0.2,0,0.2v0.2l0.1-0.1c0,0,0,0,0.1,0c0,0,0,0,0.1,0c0,0,0,0,0.1,0c0,0,0,0,0.1,0l0,0l0,0l0,0
			c0,0,0,0,0,0.1s0,0,0,0.1c0,0,0,0,0,0.1v0.1c0,0,0,0,0,0.1v0.1v0.1v0.1h0.1c0.1,0,0.1,0,0.2,0h0.1l0,0l0,0l0,0l0,0l0,0l0,0l0,0
			l0,0l-0.1,0.1v0.1h0.1h0.1c0,0,0,0,0.1,0l0,0l0,0c0,0,0,0,0,0.1l0,0l0,0c0,0,0,0,0,0.1c0,0,0,0,0,0.1l0,0l0,0h0.1h0.1
			c0.1,0,0.1,0,0.2,0.1c-0.4,0.5-0.8,1.1-1.1,1.7c0,0.1,0.1,0.1,0.1,0.1c0.5-0.9,1.1-1.7,1.8-2.5c0.4-0.4,0.8-0.7,1.1-1.1
			c0.2-0.3,0.4-0.7,0.5-1.1c0.8-1.9,1.2-3.9,1.6-5.9l0,0c0.1,0,0.1,0,0.2,0c0.1,0,0.1,0.1,0.2,0.2c0.1,0.1,0.1,0.3,0.1,0.5
			c0,0.1,0,0.2,0,0.3s0,0.2,0,0.3c0,0.2,0,0.3,0,0.5l-0.1,0.5l0.2-0.4l0.4-0.9l0.2-0.4v-0.1v-0.1c0,0,0,0,0-0.1c0,0,0,0.1,0.1,0.2
			v0.1v0.1c0,0.1,0,0.3,0,0.5c0,0.3-0.1,0.6-0.2,0.9l-0.2,0.7l0.4-0.7l0.1-0.3l0.1-0.1v-0.1l0,0l0,0l0,0l0,0l0.1-0.1l0.1-0.1l0,0
			c0,0,0,0,0,0.1s0,0.2,0,0.3v0.3c0,0.1,0,0.2,0,0.3v0.1v0.1l-0.1,0.3l0.2-0.1c0.1,0,0.1-0.1,0.2-0.1h0.1h0.1c0,0,0,0,0,0.1v0.1
			c0,0.1,0,0.2,0,0.2c0,0.2-0.1,0.3-0.1,0.5c0,0.1,0,0.2-0.1,0.2c0,0.1-0.1,0.2-0.1,0.2l-0.1,0.3l0.2-0.2c0.1-0.1,0.1-0.1,0.2-0.1
			s0.1-0.1,0.2-0.1c0.1,0,0.1,0,0.1,0.1c0,0,0,0,0,0.1c0,0,0,0,0,0.1v0.1c0,0.2,0,0.3-0.1,0.4c-0.1,0.1-0.1,0.3-0.2,0.4l-0.1,0.2
			l0.2-0.1l0.1-0.1h0.1v0.1c0,0.1,0,0.1,0,0.2c-0.1,0.2-0.2,0.4-0.3,0.6l-0.1,0.1l0.1-0.1h0.1h0.1l0,0c0,0,0,0,0,0.1c0,0,0,0,0,0.1
			v0.1c0,0.1-0.1,0.2-0.1,0.3s-0.1,0.2-0.1,0.3l-0.1,0.2l0.2-0.1h0.1h0.1l0,0l0,0v0.1c0,0.1-0.1,0.2-0.1,0.3s-0.1,0.2-0.1,0.3l0.3,0
			h0.1l0,0l0,0c0,0,0,0,0,0.1s0,0.2-0.1,0.2c-0.1,0.2-0.2,0.3-0.3,0.5l-0.1,0.1h0.1c0,0,0,0,0.1,0c0,0,0,0,0.1,0.1l0.1,0.1
			c0,0.1-0.1,0.2-0.1,0.3s-0.1,0.1-0.1,0.1l0,0l0,0l0,0h-0.1c-0.1,0.1-0.2,0.1-0.4,0.1l-0.3,0.4l0.2,0.1c0,0,0.1,0,0.1,0.1
			c0,0,0.1,0,0.1,0.1c0.1,0.1,0.1,0.1,0.2,0.2l0,0l0,0l0,0l0,0h-0.1h-0.1h-0.2l0.1,0.1l0,0l0,0v0.1c0,0.1,0,0.1,0,0.2
			c0,0.1,0,0.1,0,0.1l-0.1,0.1h-0.1l0.1,0.1l0,0l0,0v0.1c0,0.1,0,0.1,0,0.2c0,0,0,0.1-0.1,0.1c0,0-0.1,0-0.2,0h-0.2l0.1,0.2l0,0
			c0,0,0,0,0,0.1v0.1c0,0.1,0,0.1,0,0.2s-0.1,0.1-0.2,0.1c-0.1,0-0.1,0-0.2,0h-0.2l0.1,0.2l0,0l0,0c0,0,0,0,0,0.1c0,0,0,0.1-0.1,0.1
			c-0.1,0.1-0.2,0.1-0.3,0.1h-0.2v0.2l0,0l0,0v0.1c0,0.1,0,0.1-0.1,0.1h-0.1c0,0-0.1,0-0.2,0h-0.1v0.1l0,0l0,0v0.1
			c0,0.1,0,0.1-0.1,0.1c-0.1,0-0.1,0.1-0.1,0.1c-0.1,0-0.1,0-0.2,0h-0.1v0.1l0,0l0,0v0.1c0,0,0,0.1-0.1,0.1c-0.1,0-0.2,0-0.3,0h-0.1
			v0.1l0,0l0,0c0,0,0,0.1-0.1,0.1c0,0.1-0.1,0.1-0.1,0.1c-0.1,0-0.3,0-0.4-0.1l-0.1-0.1v0.1c0,0,0,0,0,0.1c0,0,0,0,0,0.1v0.1
			c0,0.1-0.1,0.1-0.2,0.1c-0.1,0-0.2,0-0.2,0c-0.1,0-0.2,0-0.2-0.1c-0.2-0.2-0.4-0.5-0.5-0.7l-0.5-0.7l0,0l0.5,0.8
			c0.2,0.3,0.3,0.4,0.5,0.7l0.1,0.5l0.1,0.1c0.1,0,0.1,0,0.2,0.1c0.1,0.1,0.2,0.1,0.3,0c0.1,0,0.1,0,0.2-0.1
			c0.1-0.1,0.1-0.1,0.1-0.1s0-0.1,0.1-0.1l0,0c0,0,0.1,0,0.1,0.1c0.1,0,0.2,0,0.3,0c0.1,0,0.2-0.1,0.2-0.2l0,0
			c0.5,0.6,1.3,0.8,2.1,1.1h0.2l-0.1-0.2l0,0l0,0c-0.4-0.1-0.8-0.2-1.1-0.4l1.3-0.8c0.1,0,0.1-0.1,0.2-0.1c0.1,0,0.1-0.1,0.2-0.1
			c0.1,0,0.2-0.1,0.4-0.1c0.2,0,0.2,0,0.3,0.1c0,0,0.1,0.1,0.1,0.2c0,0.1,0,0.1,0,0.2v0.1h0.1c0,0,0,0,0.1,0h0.1h0.1
			c0.1,0,0.2,0,0.3,0.1c0.1,0,0.2,0.1,0.2,0.1c0.1,0.1,0.1,0.1,0.1,0.2l0,0l0,0l0,0l0,0c0,0,0,0,0,0.1c0,0,0,0,0,0.1l-0.3,0.2h0.4
			h0.1h0.1c0.1,0,0.2,0,0.3,0.1c0.1,0,0.2,0.1,0.2,0.2c0,0,0,0,0,0.1c0,0,0,0,0,0.1c0,0,0,0,0,0.1c0,0,0,0,0,0.1c0,0,0,0,0,0.1v0.1
			l-0.1,0.1l-0.3,0.1h0.3c0.1,0,0.1,0,0.2,0c0.1,0,0.1,0,0.2,0c0.1,0,0.2,0.1,0.3,0.1l0.1,0.1c0,0,0,0.1,0.1,0.1c0,0.1,0,0.2,0,0.3
			l0,0c0,0,0,0-0.1,0h-0.1c-0.1,0-0.2,0-0.2,0h-0.2l0.2,0.1c0.1,0,0.2,0.1,0.3,0.1c0.1,0,0.2,0.1,0.2,0.2
			C-225.6,225.1-225.6,225.2-225.6,225.3z"/>
		<g id="XMLID_49_">
			<g id="XMLID_533_">
				<g id="XMLID_646_">
					<path id="XMLID_652_" class="st6" d="M-231.8,224.2l-0.4-0.1c-0.1,0-0.2,0-0.3,0c-0.8-0.1-1.9-0.3-2.5-0.9
						c-0.3-0.2-0.9,0.3-0.7,0.5h-0.1c-0.3-0.1-0.6,0.4-0.2,0.5c2.2,0.7,2.6,0.4,3.7,0.4C-231.9,224.6-231.4,224.2-231.8,224.2z
						 M-235.4,223.9c0.1,0,0.2,0.1,0.3,0.1C-235.3,224-235.4,224-235.4,223.9z"/>
				</g>
				<g id="XMLID_534_">
					<path id="XMLID_535_" class="st6" d="M-238.6,221.5c-0.4-0.3-0.5-0.3-1-0.5c-0.3-0.1-0.8,0.3-0.4,0.4c0.5,0.2,0.8,0.5,1.2,0.8
						c0.4,0.3,0.7,0.5,1.1,0.7c0.3,0.2,0.2-0.4,0-0.7C-238,221.9-238.1,221.8-238.6,221.5z"/>
				</g>
			</g>
			<g id="XMLID_504_">
				<path id="XMLID_505_" class="st6" d="M-235.5,217.4c0.6,0,0.1-0.5-0.2-0.4h-0.1c0.1-0.2-0.1-0.5-0.5-0.5c-0.3,0-0.4,0.3-0.6,0.5
					c0.1-0.1,0.2-0.3,0.4-0.4c0.4-0.2,0.1-0.7-0.2-0.6l0,0c0.1-0.2,0-0.3-0.2-0.3c0-0.2-0.2-0.4-0.4-0.3c0.1-0.3-0.4-0.3-0.5,0
					c0,0.1-0.1,0.1-0.1,0.2c0-0.1,0.1-0.4,0.1-0.5c0.1-0.3-0.5-0.3-0.7,0l0,0c0-0.3,0-0.6,0-0.8c0-0.3-0.8-0.1-0.9,0.3
					c0-0.2-0.1-0.4-0.2-0.7s-0.8-0.1-0.6,0.2c0.9,1.8,1.1,3.7,1.7,5.4c0,0,0.1,0.2,0.2,0.2c0,0.1,0.1,0.1,0.2,0.2
					c0.2,0.1,0.5,0.1,0.7,0.2c0.2,0.1,0.4,0.1,0.5,0.1c0.1,0,0.2,0,0.4,0c0.2,0,0.2,0.1,0.3,0c0.1-0.2,0.3-0.3,0.4-0.4
					c0.3-0.5,0.7-1,0.9-1.5c0.1-0.2,0.1-0.4,0-0.5C-234.9,217.6-235.4,217.4-235.5,217.4z M-239.4,215.3c0-0.1-0.1-0.3-0.1-0.4
					C-239.5,215-239.4,215.1-239.4,215.3z M-238.7,215.5v-0.1C-238.7,215.4-238.7,215.4-238.7,215.5z"/>
			</g>
			<g id="XMLID_396_">
				<path id="XMLID_397_" class="st6" d="M-230.9,215.1L-230.9,215.1c0.3-0.3,0.6-0.7,0.8-1.2c0.1-0.2-0.1-0.4-0.3-0.4
					c0.1-0.3,0.1-0.6-0.2-1.1c0-0.1,0-0.1-0.1-0.2l0,0c0-0.2,0-0.2-0.1-0.4c-0.1-0.3-0.4-0.4-0.6,0c-0.4,1-0.5,2-1,2.8
					c-0.2,0.4-0.5,0.7-0.8,1.1c-0.3,0.4-0.3,0.4-0.7,0.7c-0.2,0.2-0.4,0.5-0.5,0.6c-0.1,0.1,0,0.2-0.1,0.3c-0.1,0.1-0.2,0.2-0.1,0.3
					c0,0,0,0,0,0.1c-0.1,0.3-0.2,0.5-0.2,0.7l-0.1,0.1l0,0c-0.1,0.2-0.1,0.2-0.2,0.4c-0.1,0.2-0.3,0.4-0.3,0.4l0,0
					c0,0-0.1,0-0.2,0.3c0,0.1-0.2,0.2-0.1,0.3c0,0-0.2,0.2-0.2,0.3c0,0-0.1,0.1-0.1,0.2c0,0.4,0.1,0.2,0,0.5c-0.1,0.6,1-0.4,1.8-0.1
					c0.5,0.2,1,0.2,1.4,0.6c0.3,0.3,0.7,0.1,0.4-0.2c-0.1-0.1-0.2-0.2-0.3-0.3l0,0c0.5,0.2,1.7,0,1.2-0.4c-0.1,0-0.1-0.1-0.2-0.1
					c0,0,0,0,0.1,0c0.4,0.2,0.8-0.4,0.5-0.6c0,0,0,0-0.1,0c0.4,0.1,0.7-0.5,0.5-0.8l0.1-0.1c0.1-0.1,0.2-0.3,0.2-0.5
					c0-0.1-0.1-0.2-0.2-0.3l0,0c0.3,0,0.1-0.3-0.2-0.4c0.1-0.2,0.1-0.6-0.2-0.5c-0.2,0-0.4,0.1-0.7,0.1c0.4-0.1,0.7-0.1,1.1-0.3
					c0.4-0.3,0.2-0.5-0.2-0.5c0.4-0.2,0.7-0.4,0.7-0.7C-229.9,215.1-230.6,214.9-230.9,215.1z M-234.7,218.9L-234.7,218.9
					L-234.7,218.9L-234.7,218.9z M-231.9,215.9C-231.9,215.9-232,215.9-231.9,215.9C-232,215.9-231.9,215.9-231.9,215.9z
					 M-232.9,219.6L-232.9,219.6L-232.9,219.6z M-231.7,216.4L-231.7,216.4L-231.7,216.4z"/>
			</g>
			<g id="XMLID_389_">
				<path id="XMLID_390_" class="st6" d="M-226.5,224.3l-0.1-0.1c-0.1-0.1-0.2-0.1-0.4-0.1c-0.3,0-0.6,0-0.8,0
					c0.9-0.1,1.2-0.6,1-0.6c-0.3-0.1-0.7,0-1.1,0c-0.1,0-0.5-0.1-0.6-0.1c0,0,0.3,0.1,0.3,0c0.3-0.1,0.6-1-0.2-0.8
					c-0.2,0.1-0.6,0.1-0.8,0.1c0.1,0,0.5-0.3,0.5-0.3c0.3-0.2,0.1-0.6-0.2-0.4c-0.2,0.1-0.5,0.3-0.7,0.3c-0.1,0-0.2,0.1-0.2,0.1
					h-0.1c-0.1,0-0.1,0-0.1,0c-0.1,0,0,0,0,0l0,0c-0.2,0.1-0.5,0.2-0.4,0.4c-0.1-0.1-0.3-0.2-0.4-0.3s-0.3-0.5-0.5-0.5
					c-0.3,0.2-0.5,0.2-0.6,0.1c-0.1,0-0.2,0.1-0.3,0.3c-0.2,0.2-0.4,0.3-0.2,0.3c0.2,0.1,0.4,0.1,0.6,0.1c0.4,0,0.6,0.1,1,0.3
					c0.3,0.2,0.6,0.3,0.9,0.4c0,0,0,0,0,0.1c0.1,0.1,0.1,0.2,0.1,0.2c0,0.1,0.1,0.2,0.1,0.3s0,0.1,0.1,0.1c-0.1,0.1-0.1,0.3-0.1,0.4
					c-0.3-0.2-0.5-0.4-0.8-0.5c-0.1,0-0.1-0.1-0.2,0l0,0c-0.1-0.1-0.3-0.1-0.4,0.1c-0.1,0.3-0.2,0.6-0.4,0.8
					c-0.1,0.3,0.4,0.3,0.7,0.1c-0.1,0.1-0.1,0.1-0.1,0.1c0.1,0,0.3-0.1,0.3-0.3v-0.1c0,0,0,0,0-0.1v-0.1c0.1,0.1,0.2,0.2,0.2,0.3
					c0.1,0.1,0.1,0.2,0.1,0.3c-0.1,0.3,0.5,0.5,0.5,0.1c0-0.1,0-0.2,0-0.2c0.2,0.2,0.4,0.4,0.6,0.5c0,0,0.1,0,0.1,0.1
					c0.2,0.1,0.3,0.1,0.4,0s0.1-0.2,0-0.3c0.1,0.1,0.3,0.1,0.4,0.1c0.1,0,0.2,0.1,0.2,0c0,0,0,0,0.1,0l0,0l0,0
					c0.2-0.1,0.3-0.2,0.2-0.3c0-0.1-0.1-0.1-0.1-0.1c0.1,0,0.1,0.1,0.2,0.1c0.1,0.1,0.3,0,0.3-0.1c0.2-0.1,0.4-0.3,0.2-0.3
					c-0.1,0-0.2,0-0.2-0.1l0,0c-0.1,0-0.2-0.1-0.3-0.1c-0.1-0.1-0.2-0.1-0.4-0.2c0.3,0,0.9,0,1.2-0.1
					C-226.6,224.6-226.4,224.4-226.5,224.3z M-230.7,225.3L-230.7,225.3L-230.7,225.3z"/>
			</g>
			<g id="XMLID_387_">
				<circle id="XMLID_388_" cx="-240.7" cy="220.1" r="0.1"/>
			</g>
			<g id="XMLID_384_">
				<path id="XMLID_385_" d="M-241.4,220.9c0,0,0,0.1-0.1,0.1c-0.1,0.1-0.2,0.2-0.3,0.2c0,0-0.1,0-0.1,0.1c0,0-0.1,0-0.1,0.1
					l-0.1,0.1c0,0.1-0.1,0.2-0.1,0.2l0,0v-0.1c0-0.1,0-0.1,0.1-0.2l0.1-0.1c0,0,0.1,0,0.1-0.1c0.1-0.1,0.2-0.2,0.3-0.2
					C-241.4,221-241.4,220.9-241.4,220.9z"/>
			</g>
			<g id="XMLID_382_">
				<path id="XMLID_383_" d="M-241.4,220.8c0,0-0.1,0.1-0.2,0.1c0,0,0,0-0.1,0.1c0,0,0,0-0.1,0h-0.1l0,0c0,0,0,0,0-0.1l0,0
					c0,0,0,0,0.1,0C-241.5,220.8-241.4,220.8-241.4,220.8L-241.4,220.8z"/>
			</g>
			<g id="XMLID_378_">
				<path id="XMLID_379_" d="M-240.7,220.4c-0.2,0-0.3-0.1-0.3-0.3s0.1-0.3,0.3-0.3h0.1h0.1l0,0l0,0c0,0,0,0,0.1,0
					c0.1,0,0.1,0.1,0.1,0.1l0,0v0.1l0,0c0,0,0,0-0.1,0.1l0,0l-0.1,0.1l0,0C-240.5,220.4-240.6,220.4-240.7,220.4z M-240.7,219.9
					c-0.1,0-0.2,0.1-0.2,0.2c0,0.1,0.1,0.2,0.2,0.2c0.1,0,0.1,0,0.1-0.1l0,0c0,0,0-0.1,0.1-0.1l0,0c0,0,0,0,0-0.1l0,0c0,0,0,0-0.1,0
					C-240.6,220-240.6,220-240.7,219.9L-240.7,219.9C-240.6,220-240.6,219.9-240.7,219.9L-240.7,219.9L-240.7,219.9z"/>
			</g>
			<g id="XMLID_376_">
				<path id="XMLID_377_" class="st7" d="M-235.4,218.7C-235.4,218.7-235.5,218.7-235.4,218.7c-0.1,0.1-0.1,0.1-0.1,0.2
					c-0.1,0.1-0.2,0.3-0.3,0.4c-0.1,0.1-0.2,0.3-0.3,0.4c0,0.1-0.1,0.1-0.1,0.1h-0.1c0,0,0,0,0.1,0l0.1-0.1c0.1-0.1,0.2-0.3,0.3-0.5
					C-235.7,219-235.6,218.9-235.4,218.7c-0.1-0.1,0-0.1,0-0.2v-0.1V218.7z"/>
			</g>
			<g id="XMLID_374_">
				<circle id="XMLID_375_" class="st5" cx="-240.6" cy="220.1" r="0.1"/>
			</g>
			<g id="XMLID_370_">
				<path id="XMLID_371_" class="st7" d="M-241.3,221.3h-0.1l0.2-0.6c0,0-0.1-0.1-0.2-0.1c-0.1,0-0.2,0-0.3,0.1l-0.1-0.1
					c0.2-0.1,0.3-0.1,0.4-0.1c0.2,0,0.3,0.2,0.3,0.2l0,0L-241.3,221.3z"/>
			</g>
			<g id="XMLID_368_">
				<path id="XMLID_369_" class="st8" d="M-230.8,211.7L-230.8,211.7L-230.8,211.7c0.1,0.1,0.2,0.2,0.2,0.3s0,0.1,0,0.2
					s0,0.1-0.1,0.2c0,0.1-0.1,0.1-0.1,0.2c0,0.1,0,0.1-0.1,0.2c0,0.1,0,0.1-0.1,0.2c0,0.1-0.1,0.1-0.1,0.2c-0.1,0.1-0.1,0.2-0.2,0.3
					c-0.1,0.1-0.1,0.2-0.1,0.2l-0.1,0.1l0,0c0,0,0,0,0-0.1s0-0.1,0.1-0.3c0-0.1,0.1-0.2,0.1-0.3s0.1-0.1,0.1-0.2
					c0-0.1,0.1-0.1,0.1-0.2s0.1-0.1,0.1-0.2c0-0.1,0-0.1,0.1-0.2c0-0.1,0-0.1,0-0.2c0-0.1,0-0.1,0-0.2
					C-230.7,211.9-230.8,211.9-230.8,211.7C-230.8,211.8-230.8,211.7-230.8,211.7L-230.8,211.7L-230.8,211.7z"/>
			</g>
			<g id="XMLID_366_">
				<path id="XMLID_367_" class="st8" d="M-230.4,212.8C-230.4,212.8-230.3,212.9-230.4,212.8c0.1,0.2,0.1,0.3,0.1,0.4
					c0,0.1,0,0.1,0,0.2c0,0.1,0,0.1-0.1,0.2c-0.1,0.1-0.1,0.1-0.1,0.2c0,0,0,0.1-0.1,0.1c0,0,0,0.1-0.1,0.1c0,0.1-0.1,0.1-0.1,0.2
					c0,0.1-0.1,0.1-0.1,0.2c-0.1,0.1-0.2,0.2-0.3,0.3c-0.2,0.1-0.3,0.2-0.3,0.2l0,0c0,0,0,0,0.1-0.1c0,0,0.1-0.1,0.2-0.2
					c0.1-0.1,0.2-0.2,0.3-0.3c0.1,0,0.1-0.1,0.1-0.1c0-0.1,0.1-0.1,0.1-0.2c0-0.1,0.1-0.1,0.1-0.2s0.1-0.1,0.1-0.2
					c0-0.1,0-0.1,0-0.2c0-0.1,0-0.1,0-0.2C-230.4,213.1-230.4,213-230.4,212.8C-230.4,212.9-230.4,212.8-230.4,212.8L-230.4,212.8z"
					/>
			</g>
			<g id="XMLID_364_">
				<path id="XMLID_365_" class="st8" d="M-230.1,213.8L-230.1,213.8c0,0.1,0,0.2,0,0.3c0,0,0,0.1-0.1,0.1l-0.1,0.1l-0.1,0.1
					l-0.1,0.1c0,0.1-0.1,0.1-0.1,0.1l-0.1,0.1c-0.1,0.1-0.2,0.1-0.3,0.2c-0.1,0.1-0.2,0.1-0.2,0.1c-0.1,0-0.1,0-0.1,0l0,0
					c0,0,0,0,0.1,0c0,0,0.1,0,0.1-0.1c0,0,0.1,0,0.1-0.1c0.1-0.1,0.2-0.1,0.3-0.2l0.1-0.1l0.1-0.1c0.1-0.1,0.2-0.2,0.3-0.3l0.1-0.1
					l0.1-0.1C-230.1,214-230.1,213.9-230.1,213.8L-230.1,213.8L-230.1,213.8L-230.1,213.8z"/>
			</g>
			<g id="XMLID_362_">
				<path id="XMLID_363_" class="st8" d="M-232.5,218L-232.5,218c0.1-0.1,0.2-0.1,0.3-0.2c0.1,0,0.1,0,0.2,0c0.1,0,0.1,0,0.2,0
					c0.1,0,0.3,0,0.4-0.1c0.1,0,0.1,0,0.2,0c0.1,0,0.1,0,0.2,0c0.1,0,0.1,0,0.2,0s0.1,0,0.2,0c0.1,0,0.1,0,0.1,0h0.1
					c0.1,0,0.1,0,0.1,0l0,0c0,0,0,0-0.1,0c-0.1,0-0.1,0-0.3,0c-0.2,0-0.5,0-0.8,0c-0.1,0-0.1,0-0.2,0c-0.1,0-0.1,0-0.2,0.1
					c-0.1,0-0.1,0-0.2,0.1c-0.1,0-0.1,0-0.2,0C-232.3,218-232.4,218-232.5,218C-232.5,218-232.6,218-232.5,218L-232.5,218z"/>
			</g>
			<g id="XMLID_357_">
				<path id="XMLID_361_" class="st8" d="M-232.2,217.1c0,0,0.1-0.1,0.3-0.1c0,0,0.1,0,0.2,0c0.1,0,0.1,0,0.2,0c0.1,0,0.1,0,0.2,0
					c0.1,0,0.1,0,0.2-0.1c0.1,0,0.1,0,0.2-0.1c0.1,0,0.1,0,0.2-0.1c0.1,0,0.2-0.1,0.3-0.1l0.1-0.1l0.1-0.1l0.1-0.1l0,0
					c0,0,0,0,0,0.1s-0.1,0.1-0.2,0.2c-0.1,0.1-0.2,0.1-0.3,0.2c-0.1,0-0.1,0-0.2,0c-0.1,0-0.1,0-0.2,0c-0.1,0-0.1,0-0.2,0
					c-0.1,0-0.1,0-0.2,0.1s-0.1,0-0.2,0.1c-0.1,0.1-0.1,0-0.2,0C-232,217.1-232.1,217.1-232.2,217.1L-232.2,217.1L-232.2,217.1z"/>
			</g>
			<g id="XMLID_355_">
				<path id="XMLID_356_" class="st8" d="M-232.3,216.5C-232.3,216.5-232.3,216.5-232.3,216.5c0.2,0,0.3-0.1,0.4-0.1
					c0.1,0,0.1,0,0.2-0.1c0.1-0.1,0.1,0,0.2,0c0.1,0,0.2,0,0.2-0.1c0.1,0,0.2-0.1,0.2-0.1c0.1,0,0.2-0.1,0.2-0.1l0.2-0.1
					c0,0,0.1-0.1,0.2-0.1s0.1-0.1,0.2-0.1c0.1-0.1,0.2-0.2,0.2-0.2l0.1-0.1l0,0c0,0,0,0,0,0.1s-0.1,0.2-0.2,0.3c0,0-0.1,0.1-0.2,0.1
					c-0.1,0-0.1,0.1-0.2,0.1s-0.2,0.1-0.2,0.1s-0.2,0-0.2,0.1c-0.1,0-0.2,0-0.2,0.1c-0.1,0-0.2,0.1-0.2,0.1c-0.1,0-0.1,0.1-0.2,0.1
					s-0.1,0-0.2,0.1C-232.1,216.5-232.3,216.5-232.3,216.5L-232.3,216.5z"/>
			</g>
			<g id="XMLID_353_">
				<path id="XMLID_354_" class="st8" d="M-231.5,217.4L-231.5,217.4C-231.4,217.4-231.4,217.4-231.5,217.4c0.1,0,0.1,0,0.2,0
					c0.1,0,0,0,0.1,0c0,0,0,0,0.1,0c0.1,0,0,0,0.1,0h0.1h0.1c0.1,0,0.1,0,0.1,0l0,0c0,0,0,0-0.1,0.1c0,0,0,0-0.1,0c0,0,0,0-0.1,0
					c0,0,0,0-0.1,0c0,0,0,0-0.1,0c0,0,0,0-0.1,0c0,0,0,0-0.1,0c0,0,0,0-0.1,0c-0.1,0,0,0-0.1,0
					C-231.5,217.5-231.5,217.4-231.5,217.4L-231.5,217.4z"/>
			</g>
			<g id="XMLID_351_">
				<path id="XMLID_352_" class="st8" d="M-232.1,218.3c0,0,0.1,0,0.3,0h0.1h0.1h0.1c0.1,0,0.1,0,0.2,0c0.1,0,0.2,0,0.3,0.1
					c0.1,0.1,0.2,0.1,0.3,0.1c0.1,0.1,0.1,0.1,0.1,0.2c0,0.1,0,0.1,0,0.1l0,0c0,0,0-0.1-0.1-0.2c-0.1,0-0.1-0.1-0.2-0.1h-0.1
					c0,0-0.1,0-0.1-0.1s-0.1,0-0.1,0h-0.1h-0.1h-0.1C-231.9,218.4-232,218.4-232.1,218.3C-232.1,218.4-232.1,218.4-232.1,218.3
					L-232.1,218.3z"/>
			</g>
			<g id="XMLID_349_">
				<path id="XMLID_350_" class="st8" d="M-232.5,219C-232.5,219-232.4,219-232.5,219c0.1,0,0.2,0,0.3,0c0,0,0.1,0,0.1,0.1
					c0,0,0.1,0,0.1,0.1l0.1,0.1c0,0,0.1,0,0.2,0.1c0.1,0,0.1,0,0.2,0c0.1,0,0.1,0,0.2,0.1c0,0,0.1,0,0.1,0.1s0.1,0.1,0.1,0.1
					c0,0.1,0,0.2,0,0.2s0,0,0,0.1l0,0l0,0l0,0c0,0,0,0,0-0.1c0,0,0-0.1,0-0.2c0,0,0-0.1-0.1-0.1c-0.1,0-0.1,0-0.1-0.1
					c0,0-0.1,0-0.1-0.1l-0.1-0.1l-0.1-0.1c-0.1,0-0.1,0-0.2,0s-0.1,0-0.1,0s-0.1,0-0.1-0.1C-232.3,219.1-232.3,219.1-232.5,219
					C-232.4,219-232.4,219-232.5,219L-232.5,219z"/>
			</g>
			<g id="XMLID_347_">
				<path id="XMLID_348_" class="st8" d="M-232.9,219.6c0,0,0.1,0,0.3,0.1c0.1,0,0.1,0,0.1,0.1c0.1,0,0.1,0.1,0.2,0.1
					c0.1,0.1,0.2,0.1,0.3,0.2c0.1,0,0.1,0,0.2,0.1c0.1,0.1,0.1,0.1,0.2,0.1s0.1,0.1,0.1,0.1s0,0,0.1,0.1c0,0,0,0,0,0.1l0,0l-0.1,0.1
					h-0.1c-0.1,0-0.1,0-0.1,0l0,0c0,0,0,0,0.1,0c0,0,0.1,0,0.1-0.1l0.1-0.1l0,0l0,0l-0.1-0.1l-0.1-0.1c-0.1,0-0.1-0.1-0.2-0.1
					c-0.1,0-0.1-0.1-0.2-0.1c-0.1,0-0.1,0-0.2-0.1s-0.1,0-0.2-0.1c-0.1,0-0.1,0-0.1-0.1C-232.8,219.7-232.9,219.7-232.9,219.6
					L-232.9,219.6z"/>
			</g>
			<g id="XMLID_345_">
				<path id="XMLID_346_" class="st8" d="M-233.2,220.3c0,0,0.1,0,0.2,0.1c0,0,0.1,0,0.1,0.1l0.1,0.1l0.1,0.1l0.1,0.1
					c0.1,0.1,0.1,0.1,0.2,0.2c0,0,0,0.1,0.1,0.1c0,0,0,0,0,0.1l0,0c0,0,0,0,0,0.1l0,0l0,0c0,0,0,0-0.1,0h-0.1h-0.1l0,0
					c0,0,0,0,0.1,0c0,0,0,0,0.1,0l0,0l0,0l0,0l0,0l0,0c0,0,0-0.1-0.1-0.1c0,0,0-0.1-0.1-0.1l-0.1-0.1l-0.1-0.1l-0.1-0.1
					c0,0-0.1,0-0.1-0.1c0,0-0.1,0-0.1-0.1S-233.1,220.4-233.2,220.3C-233.2,220.4-233.2,220.3-233.2,220.3L-233.2,220.3z"/>
			</g>
			<g id="XMLID_343_">
				<path id="XMLID_344_" class="st9" d="M-236.1,220.7L-236.1,220.7c0-0.1,0.1-0.1,0.1-0.1s0-0.1,0-0.2v-0.1v-0.1
					c0-0.1,0-0.1,0.1-0.1c0,0,0-0.1,0.1-0.1c0.1-0.1,0.1-0.2,0.2-0.3c0.1-0.2,0.2-0.4,0.4-0.6c0.1-0.2,0.3-0.4,0.4-0.6
					c0.1-0.1,0.1-0.2,0.2-0.3c0-0.1,0.1-0.2,0.1-0.3c0.1-0.2,0.1-0.3,0.2-0.4l0.1-0.1l0,0l0,0c0,0,0,0.1-0.1,0.1
					c0,0.1-0.1,0.2-0.1,0.4c0,0.1,0,0.2-0.1,0.3c0,0.1-0.1,0.2-0.2,0.3c-0.1,0.2-0.2,0.4-0.4,0.6c-0.1,0.2-0.3,0.4-0.4,0.6
					c-0.1,0.1-0.1,0.2-0.2,0.3c-0.1,0.1-0.1,0.2-0.1,0.2v0.1v0.1c0,0.1,0,0.1,0,0.2C-236,220.6-236,220.6-236.1,220.7L-236.1,220.7z
					"/>
			</g>
			<g id="XMLID_341_">
				<path id="XMLID_342_" class="st8" d="M-231.5,224.4c0,0,0.1-0.1,0.3-0.1c0.1,0,0.1,0,0.2,0c0.1,0,0.1,0,0.2,0h0.1h0.1
					c0.1,0,0.1,0.1,0.2,0.1s0.1,0.1,0.2,0.1c0.1,0,0.1,0.1,0.2,0.1c0.1,0.1,0.2,0.2,0.3,0.2c0.1,0.1,0.1,0.1,0.2,0.2l0.1,0.1l0,0
					c0,0,0,0-0.1-0.1c-0.1,0-0.1-0.1-0.2-0.1c-0.1-0.1-0.2-0.1-0.3-0.2l-0.1-0.1c-0.1,0-0.1-0.1-0.1-0.2c0,0-0.1-0.1-0.2-0.1
					c-0.1,0-0.1,0-0.2,0s-0.1,0-0.2,0s-0.1,0-0.2,0C-231.3,224.4-231.5,224.4-231.5,224.4L-231.5,224.4z"/>
			</g>
			<g id="XMLID_339_">
				<path id="XMLID_340_" class="st8" d="M-229.7,224.3c0,0,0.1,0,0.3,0.1c0,0,0.1,0,0.1,0.1l0.1,0.1l0.1,0.1c0,0,0.1,0,0.2,0.1
					s0.1,0,0.2,0.1c0,0,0.1,0,0.1,0.1c0.1,0,0.2,0.1,0.2,0.1c0.1,0,0.1,0.1,0.2,0.1l0.1,0.1l0,0c0,0,0,0-0.1,0c-0.1,0-0.1,0-0.2-0.1
					c-0.1,0-0.2-0.1-0.3-0.1l-0.1-0.1l-0.1-0.1l-0.1-0.1c0,0-0.1,0-0.1-0.1h-0.1c0,0-0.1,0-0.1-0.1
					C-229.6,224.4-229.7,224.3-229.7,224.3L-229.7,224.3z"/>
			</g>
			<g id="XMLID_336_">
				<path id="XMLID_338_" class="st8" d="M-230,223.6c0,0,0.1,0,0.3,0.1h0.1c0,0,0.1,0,0.1,0.1c0,0,0.1,0,0.2,0.1
					c0.1,0.1,0.1,0,0.2,0c0.1,0,0.1,0,0.2,0s0.1,0,0.2,0c0.1,0,0.2,0.1,0.3,0.1c0.1,0,0.2,0.1,0.2,0.1h0.1l0,0c0,0,0,0-0.1,0
					c-0.1,0-0.1,0-0.2,0h-0.1c0,0-0.1,0-0.2,0c-0.1,0-0.1,0-0.2-0.1c-0.1,0-0.1,0-0.2-0.1c-0.1,0-0.1,0-0.2-0.1c-0.1,0-0.1,0-0.2,0
					c-0.1,0-0.1,0-0.2,0s-0.1,0-0.1,0C-229.9,223.7-230,223.6-230,223.6L-230,223.6z"/>
			</g>
			<g id="XMLID_334_">
				<path id="XMLID_335_" class="st8" d="M-230.2,223c0,0,0.1,0,0.3,0.1c0,0,0.1,0,0.2,0c0.1,0,0.1,0,0.2,0.1c0.1,0,0.1,0,0.2,0.1
					c0.1,0,0.1,0,0.2,0s0.1,0,0.2,0c0.1,0,0.1,0,0.2,0c0.1,0,0.2,0,0.3,0.1c0.1,0,0.2,0,0.2,0.1c0.1,0,0.1,0,0.1,0l0,0
					c0,0,0,0-0.1,0c-0.1,0-0.1,0-0.3,0c-0.1,0-0.1,0-0.2,0c-0.1,0-0.1,0-0.2,0c-0.1,0-0.1,0-0.2,0c-0.1,0-0.1,0-0.2-0.1
					c-0.1,0-0.1,0-0.2-0.1c-0.1-0.1-0.1,0-0.2,0c-0.1,0-0.1,0-0.2,0c-0.1,0-0.1,0-0.2,0C-230.1,223.1-230.2,223-230.2,223
					L-230.2,223z"/>
			</g>
			<g id="XMLID_332_">
				<path id="XMLID_333_" class="st8" d="M-230.6,225.2L-230.6,225.2c0-0.1,0-0.1,0-0.1s0,0,0-0.1s0,0,0-0.1c0,0,0,0,0-0.1
					s0,0,0-0.1v-0.1v-0.1c0-0.1,0-0.1,0-0.1l0,0c0,0,0,0,0.1,0.1c0,0,0,0,0,0.1s0,0,0,0.1s0,0,0,0.1c0,0,0,0,0,0.1c0,0,0,0,0,0.1
					s0,0,0,0.1c0,0,0,0,0,0.1S-230.6,225.1-230.6,225.2L-230.6,225.2L-230.6,225.2z"/>
			</g>
			<g id="XMLID_330_">
				<path id="XMLID_331_" class="st8" d="M-228,222.1L-228,222.1C-228,222.2-228,222.2-228,222.1c-0.1,0.1-0.1,0.1-0.2,0.1
					c0,0,0,0-0.1,0c0,0,0,0-0.1,0c0,0,0,0-0.1,0c0,0,0,0-0.1,0c0,0,0,0-0.1,0h-0.1c-0.1,0-0.1,0-0.1,0l0,0c0,0,0,0,0.1-0.1
					c0,0,0.1,0,0.1-0.1c0,0,0,0,0.1,0h0.1h0.1c0,0,0,0,0.1,0c0.1,0,0,0,0.1,0c0,0,0,0,0.1,0C-228.1,222.1-228,222.1-228,222.1
					L-228,222.1L-228,222.1z"/>
			</g>
			<g id="XMLID_328_">
				<path id="XMLID_329_" class="st8" d="M-238.8,221C-238.8,221-238.8,221-238.8,221c0.2,0,0.3,0.1,0.4,0.1
					c0.1,0.1,0.3,0.1,0.4,0.2c0.2,0.1,0.3,0.2,0.5,0.3c0.2,0.1,0.3,0.2,0.4,0.3s0.3,0.2,0.4,0.3c0.1,0.1,0.2,0.2,0.2,0.2
					c0.1,0.1,0.1,0.1,0.1,0.1s-0.1-0.1-0.4-0.3c-0.1-0.1-0.2-0.2-0.4-0.3c-0.1-0.1-0.3-0.2-0.4-0.3c-0.2-0.1-0.3-0.2-0.4-0.3
					c-0.1-0.1-0.3-0.2-0.4-0.2C-238.6,221.1-238.8,221-238.8,221z"/>
			</g>
			<g id="XMLID_326_">
				<path id="XMLID_327_" class="st8" d="M-239.8,220.2C-239.8,220.2-239.8,220.2-239.8,220.2c0.2,0,0.2,0,0.3,0
					c0.1,0,0.2,0.1,0.2,0.1c0.1,0,0.1,0.1,0.1,0.1s0,0-0.1,0c-0.1,0-0.1,0-0.2,0C-239.6,220.3-239.7,220.3-239.8,220.2L-239.8,220.2
					z"/>
			</g>
			<g id="XMLID_324_">
				<path id="XMLID_325_" class="st8" d="M-239.9,213.7L-239.9,213.7c0.1,0.1,0.1,0.2,0.2,0.3c0,0,0,0.1,0,0.2c0,0.1,0,0.1,0,0.2
					c0,0.1,0,0.1,0,0.2c0,0.1,0,0.1,0.1,0.2c0,0.1,0,0.1,0.1,0.2c0,0.1,0,0.1,0.1,0.2c0,0.1,0.1,0.2,0.1,0.3s0,0.2,0,0.2
					c0,0.1,0,0.1,0,0.1l0,0c0,0,0,0,0-0.1s-0.1-0.1-0.1-0.2c0-0.1-0.1-0.2-0.1-0.3s0-0.1,0-0.2c0-0.1,0-0.1,0-0.2c0-0.1,0-0.1,0-0.2
					c0-0.1,0-0.1-0.1-0.2c0-0.1,0-0.1-0.1-0.2c-0.1-0.1,0-0.1,0-0.1C-239.8,213.9-239.9,213.9-239.9,213.7
					C-239.9,213.8-239.9,213.7-239.9,213.7L-239.9,213.7z"/>
			</g>
			<g id="XMLID_322_">
				<path id="XMLID_323_" class="st8" d="M-238.7,214.2L-238.7,214.2c0,0.1,0,0.2,0,0.2v0.1v0.1v0.1v0.1v0.1v0.1c0,0.1,0,0.2,0,0.2
					c0,0.1,0,0.2,0,0.2l0,0c0,0,0-0.1,0-0.2c0-0.1,0-0.2,0-0.2v-0.1v-0.1v-0.1v-0.1v-0.1v-0.1C-238.7,214.3-238.7,214.3-238.7,214.2
					L-238.7,214.2L-238.7,214.2z"/>
			</g>
			<g id="XMLID_318_">
				<path id="XMLID_321_" class="st8" d="M-238.4,216.2L-238.4,216.2c0-0.1,0-0.2,0-0.2v-0.1c0,0,0-0.1,0.1-0.1c0.1,0,0-0.1,0-0.1
					v-0.1c0-0.1,0-0.2,0-0.2c0-0.1,0-0.1,0.1-0.2c0-0.1,0.1-0.2,0.1-0.2l0,0c0,0,0,0.1,0,0.2v0.1v0.1v0.1c0,0,0,0.1-0.1,0.1v0.1v0.1
					v0.1v0.1C-238.3,216.2-238.4,216.3-238.4,216.2L-238.4,216.2z"/>
			</g>
			<g id="XMLID_312_">
				<path id="XMLID_315_" class="st8" d="M-238.1,217.1c0,0,0-0.1,0.1-0.3c0,0,0-0.1,0.1-0.1l0.1-0.1c0,0,0.1-0.1,0.1-0.2
					c0-0.1,0-0.1,0.1-0.2c0-0.1,0-0.1,0-0.2c0-0.1,0-0.1,0.1-0.2c0-0.1,0.1-0.2,0.1-0.3s0.1-0.1,0.1-0.2v-0.1l0,0c0,0,0,0,0,0.1
					s0,0.1,0,0.2c0,0.1-0.1,0.2-0.1,0.3s0,0.1-0.1,0.2c0,0.1-0.1,0.1-0.1,0.2c0,0.1-0.1,0.1-0.1,0.2c0,0.1,0,0.1-0.1,0.2
					c0,0.1,0,0.1,0,0.2s0,0.1-0.1,0.1C-238.1,217-238.1,217.1-238.1,217.1L-238.1,217.1z"/>
			</g>
			<g id="XMLID_308_">
				<path id="XMLID_311_" class="st8" d="M-237.6,216.8L-237.6,216.8c0-0.1,0-0.1,0.1-0.2v-0.1c0,0,0-0.1,0.1-0.1c0,0,0-0.1,0.1-0.1
					c0.1,0,0-0.1,0-0.1c0-0.1,0-0.2,0.1-0.2c0-0.1,0.1-0.1,0.1-0.2c0.1-0.1,0.1-0.2,0.1-0.2l0,0c0,0,0,0.1,0,0.2
					c0,0.1,0,0.1-0.1,0.2c0,0,0,0.1-0.1,0.1c0,0,0,0.1-0.1,0.1c0,0,0,0.1-0.1,0.1v0.1v0.1v0.1C-237.5,216.7-237.6,216.8-237.6,216.8
					L-237.6,216.8z"/>
			</g>
			<g id="XMLID_305_">
				<path id="XMLID_306_" class="st8" d="M-237.4,217L-237.4,217c0-0.1,0-0.1,0.1-0.2v-0.1c0,0,0-0.1,0.1-0.1c0.1,0,0.1-0.1,0.1-0.1
					v-0.1v-0.1c0,0,0-0.1,0.1-0.1c0-0.1,0.1-0.1,0.1-0.2c0.1-0.1,0.1-0.1,0.1-0.1l0,0c0,0,0,0.1-0.1,0.2c0,0.1-0.1,0.1-0.1,0.2
					c0,0,0,0.1-0.1,0.1c0,0,0,0.1-0.1,0.1l-0.1,0.1v0.1v0.1c0,0,0,0.1-0.1,0.1C-237.3,216.9-237.3,217-237.4,217L-237.4,217
					L-237.4,217z"/>
			</g>
			<g id="XMLID_303_">
				<path id="XMLID_304_" class="st8" d="M-237.6,217.7C-237.6,217.7-237.5,217.7-237.6,217.7c0.1-0.1,0.1-0.1,0.2-0.2l0.1-0.1
					l0.1-0.1l0.1-0.1l0.1-0.1l0.1-0.1l0.1-0.1c0.1-0.1,0.1-0.1,0.2-0.2c0.1-0.1,0.1-0.1,0.1-0.1l0.1-0.1l0,0c0,0,0,0,0,0.1
					c0,0-0.1,0.1-0.1,0.2c0,0.1-0.1,0.1-0.2,0.2l-0.1,0.1l-0.1,0.1l-0.1,0.1l-0.1,0.1l-0.1,0.1l-0.1,0.1
					C-237.4,217.6-237.5,217.6-237.6,217.7C-237.5,217.7-237.6,217.7-237.6,217.7L-237.6,217.7z"/>
			</g>
			<g id="XMLID_301_">
				<path id="XMLID_302_" class="st8" d="M-237.3,217.8L-237.3,217.8c0.1-0.1,0.1-0.2,0.2-0.2l0.1-0.1c0,0,0.1,0,0.1-0.1
					c0,0,0.1,0,0.1-0.1l0.1-0.1l0.1-0.1l0.1-0.1c0.1,0,0.2-0.1,0.2-0.1c0.1,0,0.1,0,0.2-0.1h0.1l0,0c0,0,0,0-0.1,0
					c0,0-0.1,0.1-0.2,0.1c-0.1,0-0.1,0.1-0.2,0.1c0,0-0.1,0-0.1,0.1c0,0-0.1,0-0.1,0.1s-0.1,0-0.1,0.1l-0.1,0.1l-0.1,0.1
					c0,0-0.1,0-0.1,0.1C-237.1,217.7-237.2,217.8-237.3,217.8C-237.2,217.8-237.3,217.8-237.3,217.8L-237.3,217.8z"/>
			</g>
			<g id="XMLID_299_">
				<path id="XMLID_300_" class="st8" d="M-236.7,217.9c0,0,0.1-0.1,0.2-0.2c0,0,0.1,0,0.1-0.1s0.1,0,0.1,0s0.1,0,0.1-0.1
					c0,0,0.1,0,0.1-0.1l0.1-0.1c0,0,0.1,0,0.1-0.1h0.1h0.1c0.1,0,0.2,0,0.2,0l0,0c0,0-0.1,0.1-0.2,0.1c-0.1,0-0.1,0.1-0.2,0.1
					c-0.1,0-0.2,0.1-0.3,0.1c0,0-0.1,0-0.1,0.1c0,0-0.1,0-0.1,0.1l-0.1,0.1c0,0-0.1,0-0.1,0.1C-236.5,217.9-236.5,217.9-236.7,217.9
					C-236.6,217.9-236.7,217.9-236.7,217.9L-236.7,217.9z"/>
			</g>
			<g id="XMLID_297_">
				<path id="XMLID_298_" class="st8" d="M-236.1,218.1L-236.1,218.1c0-0.1,0.1-0.1,0.1-0.1s0,0,0.1,0h0.1h0.1c0,0,0.1,0,0.1-0.1
					c0,0,0,0,0.1-0.1c0.1-0.1,0.1,0,0.1,0c0.1,0,0.1-0.1,0.1-0.1c0.1,0,0.2,0,0.2,0l0,0c0,0,0,0.1-0.1,0.1l-0.1,0.1h-0.1h-0.1h-0.1
					c0,0-0.1,0-0.1,0.1c0,0,0,0-0.1,0.1c0,0,0,0-0.1,0C-236,218.1-236,218.1-236.1,218.1L-236.1,218.1L-236.1,218.1z"/>
			</g>
			<g id="XMLID_295_">
				<path id="XMLID_296_" class="st10" d="M-236.4,223.5C-236.4,223.5-236.3,223.5-236.4,223.5c0.1,0,0.2,0,0.2,0.1l0.1,0.1v0.1
					c0,0,0,0-0.1,0c0,0-0.1,0-0.1-0.1S-236.3,223.6-236.4,223.5C-236.3,223.5-236.4,223.5-236.4,223.5z"/>
			</g>
			<g id="XMLID_293_">
				<path id="XMLID_294_" class="st11" d="M-236,223.4"/>
			</g>
			<g id="XMLID_291_">
				<path id="XMLID_292_" class="st10" d="M-235.6,223.2L-235.6,223.2c0.1,0,0.1,0,0.1,0s0,0,0,0.1l0,0l0,0h-0.1V223.2L-235.6,223.2
					z"/>
			</g>
			<g id="XMLID_286_">
				<path id="XMLID_290_" class="st7" d="M-225.6,224.9c-0.1-0.1-0.2-0.2-0.3-0.2c0,0-0.1,0-0.1-0.1h0.1h0.1c0,0,0,0,0.1,0
					c0,0,0,0,0.1,0l0,0l0,0c0-0.1,0.1-0.2,0.1-0.3s0-0.1-0.1-0.2c0-0.1-0.1-0.1-0.1-0.1c-0.1-0.1-0.2-0.1-0.3-0.2
					c-0.1,0-0.1,0-0.2,0l0,0l0,0c0,0,0-0.1,0.1-0.1c0,0,0-0.1,0.1-0.1l0,0l0,0v-0.1v-0.1v-0.1v-0.1c-0.1-0.1-0.2-0.2-0.3-0.2
					c-0.1-0.1-0.2-0.1-0.3-0.1h-0.1l0,0v-0.1c0,0,0,0,0-0.1s0,0,0,0l0,0l0,0l0,0l0,0c0-0.1,0-0.1-0.1-0.1l-0.1-0.1
					c-0.1-0.1-0.2-0.1-0.3-0.2c-0.1,0-0.2-0.1-0.3-0.1c-0.1,0-0.1,0-0.2,0c0,0,0,0-0.1,0v-0.1c0-0.1-0.1-0.1-0.1-0.2
					s-0.1-0.1-0.2-0.2c-0.1,0-0.2,0-0.2,0c-0.2,0-0.3,0.1-0.4,0.1c-0.1,0-0.1,0.1-0.2,0.1c-0.1,0-0.1,0.1-0.2,0.1l-1.3,0.9
					c0,0,0,0-0.1,0c-0.3-0.1-0.5-0.3-0.7-0.6h-0.1l0,0h0.1c0.1,0,0.2,0,0.2-0.1c0.1,0,0.1-0.1,0.2-0.2v-0.1h0.1c0.1,0,0.2,0,0.3-0.1
					c0.1-0.1,0.1-0.2,0.1-0.2v-0.1h0.1c0.1,0,0.2,0,0.3-0.1c0.1-0.1,0.1-0.2,0.1-0.3V221h0.1c0.1,0,0.2,0,0.2-0.1
					c0.1-0.1,0.1-0.2,0.1-0.2v-0.1c0.1,0,0.1,0,0.2,0s0.2-0.1,0.3-0.2c0.1-0.1,0.1-0.2,0.1-0.3s0-0.1,0-0.2l0,0h0.1l0.1-0.1l0.1-0.1
					c0-0.1,0-0.2,0-0.3v-0.1c0,0,0.1,0,0.1-0.1s0.1-0.1,0.1-0.1c0-0.1,0-0.1,0-0.1c0-0.1,0-0.2-0.1-0.3v-0.1l0,0
					c0.1,0,0.1,0,0.2-0.1c0,0,0.1,0,0.1-0.1v-0.1v-0.1v-0.1c0-0.1-0.1-0.1-0.1-0.1l-0.1-0.1l0,0c0.1,0,0.1,0,0.2-0.1
					c0,0,0.1,0,0.1-0.1l0,0l0,0l0,0c0.1-0.1,0.1-0.1,0.1-0.2s0.1-0.1,0.1-0.2c0-0.1,0.1-0.2,0-0.3c0-0.1,0-0.2-0.1-0.2l-0.1-0.1l0,0
					c0.1-0.1,0.2-0.3,0.2-0.4c0-0.1,0.1-0.2,0.1-0.3s0-0.1-0.1-0.2c0,0,0,0-0.1,0c0-0.1,0.1-0.1,0.1-0.2c0-0.1,0.1-0.2,0.1-0.3
					s0-0.1,0-0.2V215c0,0,0-0.1-0.1-0.1c-0.1,0-0.1,0-0.2,0l0,0c0-0.1,0.1-0.1,0.1-0.2c0-0.1,0.1-0.2,0.1-0.3s0-0.1,0-0.2v-0.1
					c0,0,0-0.1-0.1-0.1c-0.1,0-0.1,0-0.2,0c0,0,0,0-0.1,0c0.1-0.2,0.2-0.4,0.2-0.6c0-0.1,0-0.1,0-0.2v-0.1c0,0,0-0.1-0.1-0.1h-0.1
					h-0.1l0,0c0.1-0.1,0.1-0.2,0.1-0.3c0.1-0.1,0.1-0.3,0.1-0.5v-0.1c0,0,0,0,0-0.1c0,0,0,0,0-0.1c0,0,0-0.1-0.1-0.1h-0.1
					c-0.1,0-0.2,0.1-0.2,0.1l0,0l0,0c0-0.1,0.1-0.2,0.1-0.2c0-0.2,0.1-0.3,0.1-0.5v-0.1V211v-0.1c0,0,0-0.1-0.1-0.1
					c-0.1,0-0.1,0-0.2,0c-0.1,0-0.1,0-0.1,0s0,0-0.1,0v-0.1c0-0.1,0-0.2,0-0.3s0-0.2,0-0.3s0-0.2,0-0.3s0-0.1-0.1-0.2l-0.1-0.1h-0.1
					c-0.1,0-0.1,0.1-0.1,0.1l-0.1,0.1c0-0.1,0-0.2,0-0.3c0-0.2,0-0.3,0-0.5v-0.1v-0.1v-0.1c0,0,0-0.1-0.1-0.1l-0.1-0.1h-0.1
					c-0.1,0-0.1,0.1-0.1,0.1s0,0.1-0.1,0.1v0.1l-0.2,0.4l-0.2,0.5v-0.1c0-0.1,0-0.2,0-0.3s0-0.2,0-0.3c0-0.2-0.1-0.4-0.2-0.5
					c-0.1-0.1-0.1-0.1-0.2-0.2c-0.1,0-0.1,0-0.2,0h-0.1c-0.4,2.1-0.9,4.1-1.7,6.1c-0.2,0.5-0.4,0.9-0.8,1.3c-0.3,0.3-0.7,0.6-1,1
					c-0.6,0.7-1.1,1.4-1.5,2.2c0,0.1,0.1,0.1,0.1,0.1c0.5-0.9,1.1-1.7,1.8-2.5c0.4-0.4,0.8-0.7,1.1-1.1c0.2-0.3,0.4-0.7,0.5-1.1
					c0.8-1.9,1.2-3.9,1.6-5.9l0,0c0.1,0,0.1,0,0.2,0s0.1,0.1,0.2,0.2c0.1,0.1,0.1,0.3,0.1,0.5c0,0.1,0,0.2,0,0.3s0,0.2,0,0.3
					c0,0.2,0,0.3,0,0.5l-0.1,0.5l0.2-0.4l0.4-0.9l0.2-0.4v-0.1v-0.1c0,0,0,0,0-0.1c0,0,0,0.1,0.1,0.2v0.1v0.1c0,0.1,0,0.3,0,0.5
					c0,0.3-0.1,0.6-0.2,0.9l-0.2,0.7l0.4-0.7l0.1-0.3l0.1-0.1v-0.1l0,0l0,0l0,0l0,0l0.1-0.1l0.1-0.1l0,0c0,0,0,0,0,0.1s0,0.2,0,0.3
					v0.3c0,0.1,0,0.2,0,0.3v0.1v0.1l-0.1,0.3l0.2-0.1c0.1,0,0.1-0.1,0.2-0.1h0.1h0.1c0,0,0,0,0,0.1v0.1c0,0.1,0,0.2,0,0.2
					c0,0.2-0.1,0.3-0.1,0.5c0,0.1,0,0.2-0.1,0.2c0,0.1-0.1,0.2-0.1,0.2l-0.1,0.3l0.2-0.2c0.1-0.1,0.1-0.1,0.2-0.1
					c0.1,0,0.1-0.1,0.2-0.1c0.1,0,0.1,0,0.1,0.1c0,0,0,0,0,0.1c0,0,0,0,0,0.1v0.1c0,0.2,0,0.3-0.1,0.4c-0.1,0.1-0.1,0.3-0.2,0.4
					l-0.1,0.2l0.2-0.1l0.1-0.1h0.1v0.1c0,0.1,0,0.1,0,0.2c-0.1,0.2-0.2,0.4-0.3,0.6l-0.1,0.1l0.1-0.1h0.1h0.1l0,0c0,0,0,0,0,0.1
					c0,0,0,0,0,0.1v0.1c0,0.1-0.1,0.2-0.1,0.3s-0.1,0.2-0.1,0.3l-0.1,0.2l0.2-0.1h0.1h0.1l0,0l0,0v0.1c0,0.1-0.1,0.2-0.1,0.3
					s-0.1,0.2-0.1,0.3l-0.1,0.1h0.1l0,0l0,0c0,0,0,0,0,0.1s0,0.2-0.1,0.2c-0.1,0.2-0.2,0.3-0.3,0.5l-0.1,0.1h0.1c0,0,0,0,0.1,0
					c0,0,0,0,0.1,0.1l0.1,0.1c0,0.1-0.1,0.2-0.1,0.3s-0.1,0.1-0.1,0.1l0,0l0,0l0,0h-0.1c-0.1,0.1-0.2,0.1-0.4,0.1l-0.3,0.1l0.2,0.1
					c0,0,0.1,0,0.1,0.1c0,0,0.1,0,0.1,0.1c0.1,0.1,0.1,0.1,0.2,0.2l0,0l0,0l0,0l0,0h-0.1h-0.1h-0.2l0.1,0.1l0,0l0,0v0.1
					c0,0.1,0,0.1,0,0.2c0,0.1,0,0.1,0,0.1l-0.1,0.1h-0.1l0.1,0.1l0,0l0,0v0.1c0,0.1,0,0.1,0,0.2c0,0,0,0.1-0.1,0.1c0,0-0.1,0-0.2,0
					h0.7l0.1,0.2l0,0c0,0,0,0,0,0.1v0.1c0,0.1,0,0.1,0,0.2c0,0-0.1,0.1-0.2,0.1s-0.1,0-0.2,0h-0.2l0.1,0.2l0,0l0,0c0,0,0,0,0,0.1
					c0,0,0,0.1-0.1,0.1c-0.1,0.1-0.2,0.1-0.3,0.1h-0.2v0.2l0,0l0,0v0.1c0,0.1,0,0.1-0.1,0.1h-0.1c0,0-0.1,0-0.2,0h-0.1v0.1l0,0l0,0
					v0.1c0,0.1,0,0.1-0.1,0.1c-0.1,0-0.1,0.1-0.1,0.1c-0.1,0-0.1,0-0.2,0h-0.1v0.1l0,0l0,0v0.1c0,0,0,0.1-0.1,0.1
					c-0.1,0-0.2,0-0.3,0h-0.1v0.1l0,0l0,0c0,0,0,0.1-0.1,0.1c0,0.1-0.1,0.1-0.1,0.1c-0.1,0-0.3,0-0.4-0.1l-0.1-0.1v0.1
					c0,0,0,0,0,0.1c0,0,0,0,0,0.1v0.1c0,0.1-0.1,0.1-0.2,0.1s-0.2,0-0.2,0c-0.1,0-0.2,0-0.2-0.1c-0.2-0.2-0.4-0.5-0.5-0.7l-0.5-0.7
					l0,0l0.5,0.8c0.2,0.3,0.3,0.4,0.5,0.7l0.1,0.1l0.1,0.1c0.1,0,0.1,0,0.2,0.1c0.1,0,0.2,0.1,0.3,0c0.1,0,0.1,0,0.2-0.1l0.1-0.1
					c0,0,0-0.1,0.1-0.1l0,0c0,0,0.1,0,0.1,0.1c0.1,0,0.2,0,0.3,0c0.1,0,0.2-0.1,0.2-0.2l0,0c0.5,0.6,1.3,0.8,2.1,1.1h0.2l-0.1-0.2
					l0,0l0,0c-0.4-0.1-0.8-0.2-1.1-0.4l1.3-0.8c0.1,0,0.1-0.1,0.2-0.1c0.1,0,0.1-0.1,0.2-0.1s0.2-0.1,0.4-0.1c0.2,0,0.2,0,0.3,0.1
					c0,0,0.1,0.1,0.1,0.2c0,0.1,0,0.1,0,0.2v0.1h0.1c0,0,0,0,0.1,0h0.1h0.1c0.1,0,0.2,0,0.3,0.1c0.1,0,0.2,0.1,0.2,0.1
					c0.1,0.1,0.1,0.1,0.1,0.2l0,0l0,0l0,0l0,0c0,0,0,0,0,0.1c0,0,0,0,0,0.1l-0.3,0.2h0.4h0.1h0.1c0.1,0,0.2,0,0.3,0.1
					c0.1,0.1,0.2,0.1,0.2,0.2c0,0,0,0,0,0.1s0,0,0,0.1c0,0,0,0,0,0.1s0,0,0,0.1c0,0,0,0,0,0.1v0.1l-0.1,0.1l-0.3,0.1h0.3
					c0.1,0,0.1,0,0.2,0c0.1,0,0.1,0,0.2,0s0.2,0.1,0.3,0.1l0.1,0.1c0,0,0,0.1,0.1,0.1c0,0.1,0,0.2,0,0.3l0,0c0,0,0,0-0.1,0h-0.1
					c-0.1,0-0.2,0-0.2,0h-0.2l0.2,0.1c0.1,0,0.2,0.1,0.3,0.1C-225.7,224.8-225.7,224.8-225.6,224.9c0,0.1,0,0.2,0,0.3
					c0,0,0,0.1-0.1,0.1c0,0,0,0-0.1,0.1c0,0,0,0-0.1,0c-0.1,0.1-0.2,0.1-0.3,0.1c-0.1,0-0.2,0-0.3-0.1c-0.1,0-0.2-0.1-0.2-0.1l0,0
					c-0.1-0.1-0.2-0.1-0.2-0.2l-0.3-0.1l0.2,0.2c0.1,0,0.1,0.1,0.2,0.1c0,0,0,0,0.1,0.1c0.1,0.1,0.1,0.1,0.2,0.2
					c0,0.1,0.1,0.2,0.1,0.2v0.1c0,0,0,0,0,0.1l0,0l0,0l0,0c0,0,0,0.1-0.1,0.1h-0.1c-0.1,0-0.2,0-0.2,0l-0.2-0.1c0,0-0.1,0-0.1-0.1
					l-0.1-0.1l-0.1-0.2l-0.1,0.2c0,0,0,0,0,0.1c0,0,0,0-0.1,0.1l-0.1,0.1c-0.1,0.1-0.2,0.1-0.3,0.1c-0.1,0-0.2,0-0.3-0.1l-0.1-0.1
					l-0.1-0.1l-0.1-0.1l-0.1,0.1c0,0,0,0,0,0.1c0,0,0,0-0.1,0.1l-0.1,0.1c-0.1,0.1-0.2,0.1-0.3,0h-0.1h-0.1h-0.1c0,0,0,0-0.1-0.1
					l-0.1-0.1c0,0,0,0,0-0.1l0,0l0,0l0,0v-0.3l-0.2,0.3l0,0l0,0l0,0c0,0,0,0-0.1,0c0,0,0,0-0.1,0c0,0-0.1,0-0.2,0h-0.1l0,0l0,0
					c0,0,0,0-0.1,0c0,0,0,0-0.1,0c0,0-0.1,0-0.1-0.1v-0.1v-0.1v-0.1l0.1-0.5l-0.3,0.4l0,0c0,0,0,0-0.1,0l-0.1,0.1h-0.1h-0.1h-0.1
					h-0.1c0,0,0,0-0.1,0c0,0,0,0-0.1,0l0,0c0,0,0,0,0-0.1s0,0,0-0.1l0,0c0.2-0.3,0.3-0.6,0.5-0.9l0.1-0.2l-0.2,0.1h-0.1h-0.1
					c-0.1,0-0.2,0-0.3,0.1c-0.2,0-0.4,0.1-0.6,0.1c-0.2,0-0.4,0-0.6,0s-0.4,0-0.6,0c-0.2,0-0.4,0-0.5-0.1h-0.3h-0.3
					c-0.1,0-0.2,0-0.3-0.1c-0.1,0-0.2,0-0.3-0.1c-0.1,0-0.2-0.1-0.3-0.1c-0.1,0-0.2-0.1-0.2-0.1c-0.2-0.1-0.3-0.1-0.5-0.2
					c-0.1,0-0.2-0.1-0.2-0.1c-0.1,0-0.1-0.1-0.2-0.1c-0.3-0.2-0.6-0.4-0.8-0.7c-0.6-0.4-1.1-0.9-1.7-1.3l-0.2-0.2
					c-0.1-0.1-0.2-0.1-0.2-0.1c-0.2-0.1-0.3-0.1-0.5-0.2c-0.1,0-0.2,0-0.3,0c-0.1,0-0.2,0-0.3,0c-0.2,0-0.4,0-0.5-0.1l0,0l0,0
					c-0.1,0.1-0.3,0.1-0.4,0.2c-0.1,0-0.1,0.1-0.2,0.1c0,0-0.1,0-0.1,0.1c0,0,0,0-0.1,0.1c0-0.1,0-0.2,0-0.3s0.1-0.2,0.1-0.3
					c0.1-0.2,0.2-0.3,0.3-0.5l0,0l0,0v-0.1v-0.1v-0.1V220c0.1-0.2,0.2-0.3,0.3-0.4c0.1-0.1,0.3-0.2,0.5-0.3c0.1-0.1,0.3-0.1,0.4-0.1
					l0,0l0,0l0,0h0.1c0.1,0,0.3,0.1,0.5,0.2c0.2,0.1,0.4,0.2,0.7,0.3c0.1,0.1,0.3,0.1,0.4,0.2c0.1,0,0.2,0,0.4,0.1c0,0,0,0,0.1,0
					l0,0c0.3,0,0.6,0,0.9,0.1c0.1,0,0.3,0,0.4,0s0.1,0,0.2,0c0.1,0,0.1,0,0.2,0c0.1,0,0.1,0,0.1-0.1l0.1-0.1c0-0.1,0.1-0.1,0.1-0.2
					c0-0.1,0.1-0.1,0.1-0.1l0,0l0,0c0,0,0,0-0.1,0l-0.1,0.1c0,0.1-0.1,0.1-0.2,0.2l-0.1,0.1l0,0l0,0l0,0l0,0l0,0l0,0l0,0l0,0h-0.1
					c-0.1,0-0.1,0-0.2,0c-0.1,0-0.3,0-0.4-0.1c-0.1-0.1-0.3,0-0.4-0.1s-0.3,0-0.4,0h-0.1c-0.6-0.7-0.7-1.6-0.9-2.4
					c-0.1-0.7-0.3-1.4-0.6-2.1c-0.3-0.7-0.6-1.4-0.9-2.1c-0.2-0.6-0.4-1.3-0.7-2c0,0,0,0,0.1,0c0,0,0.1,0,0.1,0.1
					c0.1,0,0.2,0.1,0.2,0.2l0.1,0.1l0.1,0.1l0.1,0.1l0.1,0.1l0.1,0.1c0,0,0,0.1,0.1,0.1c0,0,0,0.1,0.1,0.1l0.1,0.1
					c0,0,0,0.1,0.1,0.1v0.1c0,0.1,0,0.2,0.1,0.3l0,0l0.2,0.7v-0.4l-0.1-0.3l0,0l-0.2-0.8l-0.2-0.8c0-0.1,0-0.1,0-0.2c0,0,0,0,0-0.1
					l0.1,0.1c0,0,0,0.1,0.1,0.1l0,0l0,0l0,0c0,0.1,0.1,0.1,0.1,0.2c0,0.1,0.1,0.1,0.1,0.2l0.1,0.2l0.1,0.2c0,0.1,0.1,0.3,0.1,0.4
					c0,0.2,0.1,0.3,0.1,0.5c0.1,0.3,0.1,0.6,0.2,0.9l0.1,0.4v-0.2v-0.2c0-0.1,0-0.1,0-0.2c0-0.3-0.1-0.6-0.1-0.9
					c0-0.4-0.1-0.8-0.1-1.1c0-0.1,0-0.1,0.1-0.2c0,0,0,0,0.1-0.1c0,0,0,0,0.1,0c0,0,0,0,0.1,0.1c0,0,0,0.1,0.1,0.1
					c0,0.1,0.1,0.1,0.1,0.2c0.1,0.2,0.1,0.5,0.2,0.7c0,0.2,0.1,0.5,0.1,0.7l0,0v0.5l0.1-0.1V213l0,0c0-0.4,0-0.7,0-1.1l0,0l0,0v-0.1
					l0,0l0,0c0,0,0,0,0.1,0c0,0,0.1,0.1,0.1,0.2c0,0.1,0.1,0.1,0.1,0.2v0.5v0.7l0.2-0.7v-0.1c0,0,0-0.1,0.1-0.1c0,0,0-0.1,0.1-0.1
					l0,0l0,0l0,0c0,0,0,0.1,0.1,0.1c0,0.1,0.1,0.2,0.1,0.3v0.4v0.7l0.2-0.7v-0.1V213l0,0l0,0v0.1c0,0.1,0,0.1,0,0.2v0.3v0.5l0.2-0.4
					c0,0,0-0.1,0.1-0.1c0,0,0-0.1,0.1-0.1l0,0l0,0c0,0,0,0,0,0.1v0.1c0,0.1,0,0.2,0,0.3v0.3l0.2-0.2l0,0l0,0l0,0l0,0l0,0l0,0l0,0
					l0,0l0,0l0,0l0,0v0.1v0.1v0.1c0,0.1,0,0.2,0,0.2v0.3l0.2-0.2c0,0,0.1,0,0.1-0.1h0.1l0,0l0,0l0,0l0,0c0,0.1,0,0.1,0,0.2
					c0,0.1,0,0.2,0,0.2v0.2l0.1-0.1c0,0,0,0,0.1,0c0,0,0,0,0.1,0c0,0,0,0,0.1,0c0,0,0,0,0.1,0l0,0l0,0l0,0c0,0,0,0,0,0.1s0,0,0,0.1
					c0,0,0,0,0,0.1v0.1c0,0,0,0,0,0.1v0.1v0.1v0.1h0.1c0.1,0,0.1,0,0.2,0h0.1l0,0l0,0l0,0l0,0l0,0l0,0l0,0l0,0l-0.1,0.1v0.1h0.1h0.1
					c0,0,0,0,0.1,0l0,0l0,0c0,0,0,0,0,0.1l0,0l0,0c0,0,0,0,0,0.1c0,0,0,0,0,0.1l0,0l0,0h0.1h0.1c0.1,0,0.1,0,0.2,0.1l0,0
					c-0.1,0-0.1-0.1-0.2-0.1h-0.1c0,0,0,0-0.1,0l0,0v-0.1l0,0l0,0v-0.1l0,0l0,0h-0.1h-0.1l0,0l0,0l0,0v-0.1c0,0,0,0,0-0.1s0,0,0-0.1
					s0,0,0-0.1c-0.1-0.1-0.1-0.1-0.2-0.1h-0.1l0,0v-0.1c0,0,0,0,0-0.1v-0.1v-0.1v-0.1v-0.1V215c0,0,0-0.1-0.1-0.1h-0.1h-0.1h-0.1
					l0,0v-0.1c0-0.1,0-0.2,0-0.3v-0.1c0,0,0-0.1-0.1-0.1h-0.1h-0.1c0,0,0,0-0.1,0c0,0,0,0,0-0.1v-0.1V214v-0.1v-0.1l0,0l0,0l0,0
					c0,0,0,0-0.1,0c0,0,0,0-0.1,0c0,0,0,0-0.1,0h-0.1c0,0,0,0,0-0.1v-0.1c0,0,0,0,0-0.1v-0.1c0,0,0-0.1-0.1-0.1
					c-0.1,0-0.1-0.1-0.1,0h-0.1l0,0l0,0l0,0l0,0c0-0.1,0-0.2-0.1-0.3v-0.1c0,0,0,0,0-0.1l0,0l0,0c0,0-0.1,0-0.2,0h-0.1
					c0-0.1-0.1-0.2-0.1-0.3s0-0.1-0.1-0.2c0,0,0-0.1-0.1-0.1l-0.1-0.1c-0.1,0-0.1,0-0.2,0l-0.1,0.1l0,0v-0.1l0,0l0,0
					c0-0.1-0.1-0.2-0.1-0.2c0-0.1-0.1-0.2-0.2-0.2c0,0,0,0-0.1-0.1h-0.1h-0.1c0,0-0.1,0-0.1,0.1l-0.1,0.1c0,0,0,0,0,0.1
					c0,0,0,0,0,0.1l0,0l0,0c0,0.1,0,0.1,0,0.2c0-0.2-0.1-0.4-0.2-0.6l0,0l0,0c0-0.1-0.1-0.1-0.1-0.2c0,0,0-0.1-0.1-0.1l-0.1-0.1
					h-0.1c-0.1,0-0.1,0.1-0.1,0.1c0,0.1-0.1,0.1-0.1,0.2l0,0l0,0c0,0.3,0.1,0.6,0.1,0.9l0,0c0-0.2-0.1-0.3-0.1-0.5l-0.1-0.2
					l-0.1-0.2c0-0.1-0.1-0.1-0.1-0.2c0-0.1-0.1-0.2-0.1-0.2l0,0l0,0l0,0l-0.1-0.1l-0.1-0.1l-0.1-0.1h-0.1c0,0-0.1,0-0.1,0.1
					s0,0.1-0.1,0.2c0,0.1,0,0.2,0,0.3l0,0l0,0l0.1,0.6c0,0,0,0,0-0.1l-0.1-0.1l-0.1-0.1l-0.1-0.1l-0.1-0.1l-0.1-0.1
					c-0.1-0.1-0.2-0.1-0.3-0.1c-0.1,0-0.2-0.1-0.2-0.1c0-0.1-0.2,0-0.1,0.1c0.3,0.7,0.5,1.5,0.8,2.2c0.3,0.8,0.7,1.5,1,2.3
					c0.4,1.3,0.3,2.9,1.2,4c0,0,0,0-0.1,0c-0.1,0-0.3-0.1-0.4-0.1s-0.3-0.1-0.4-0.2c-0.1,0-0.2-0.1-0.3-0.1
					c-0.2-0.1-0.4-0.1-0.5-0.1c-0.1,0-0.1,0-0.2,0l0,0c-0.1,0-0.2,0-0.3,0h-0.1h-0.1c-0.1,0-0.2,0.1-0.3,0.1c-0.1,0-0.2,0.1-0.3,0.1
					l-0.1,0.1l-0.1,0.1c-0.1,0.1-0.1,0.2-0.2,0.3c0,0.1,0,0.1,0,0.2v0.1v0.1v0.1c0,0,0,0,0,0.1l0,0l-0.1,0.1l-0.1,0.1
					c0,0,0,0.1-0.1,0.2c0,0.1-0.1,0.2-0.1,0.3s0,0.1,0,0.2c0,0.1,0,0.1,0.1,0.1l0,0l0,0l0,0l0,0l0,0l0.1-0.1c0,0,0.1,0,0.1-0.1
					c0.1,0,0.1-0.1,0.2-0.1c0.1-0.1,0.3-0.1,0.4-0.2c0.2,0,0.3,0.1,0.5,0.1c0.1,0,0.2,0,0.3,0h0.1h0.1c0.2,0,0.3,0.1,0.4,0.2
					c0.1,0,0.1,0.1,0.2,0.1l0.2,0.2c0.3,0.2,0.6,0.4,0.8,0.7l0.4,0.3l0.4,0.3l0.4,0.3c0.1,0.1,0.3,0.2,0.4,0.3
					c0.1,0.1,0.2,0.1,0.2,0.1c0.1,0,0.2,0.1,0.2,0.1c0.2,0.1,0.3,0.2,0.5,0.2c0.1,0,0.2,0.1,0.3,0.1c0.1,0,0.2,0.1,0.3,0.1
					c0.1,0,0.2,0,0.3,0.1c0.1,0.1,0.2,0,0.3,0h0.3h0.3c0.2,0,0.4,0,0.5,0l0,0l0,0h0.3h0.3c0.2,0,0.4,0,0.6,0s0.4,0,0.6,0
					c0.1,0,0.2,0,0.3,0h0.1c-0.1,0.3-0.3,0.5-0.4,0.8l0,0l0,0c0,0.1,0,0.1,0,0.1v0.1c0,0,0,0.1,0.1,0.1c0,0,0,0.1,0.1,0.1
					c0,0,0.1,0,0.1,0.1h0.1h0.1h0.1c0.1,0,0.1,0,0.2,0c0.1,0,0.1,0,0.2,0c0,0,0.1,0,0.1-0.1c0,0.1,0,0.1,0.1,0.2
					c0,0.1,0.1,0.1,0.2,0.2h0.1h0.1h0.1h0.1h0.1c0.1,0,0.1,0,0.2-0.1c0,0,0.1,0,0.1-0.1c0,0,0,0,0.1-0.1c0,0.1,0.1,0.1,0.2,0.2
					c0,0,0.1,0,0.1,0.1c0,0,0.1,0,0.1,0.1h0.1h0.1c0.2,0,0.3,0,0.5-0.1c0.1,0,0.1-0.1,0.2-0.1c0,0,0,0,0.1-0.1l0,0
					c0.1,0,0.1,0.1,0.2,0.1c0,0,0.1,0,0.1,0.1s0.1,0,0.1,0h0.1h0.1c0.2,0,0.3-0.1,0.4-0.2c0.1,0,0.1-0.1,0.1-0.2l0,0l0,0l0.1,0.1
					c0.1,0.1,0.2,0.1,0.3,0.1c0.1,0,0.2,0,0.3,0c0.1,0,0.1,0,0.2-0.1l0.1-0.1l0,0l0,0l0,0v-0.1c0-0.1,0-0.1,0-0.2
					c0-0.1-0.1-0.2-0.1-0.2l0,0c0.1,0,0.2,0.1,0.3,0.1c0.1,0,0.2,0,0.3-0.1c0,0,0,0,0.1-0.1c0,0,0,0,0.1-0.1l0.1-0.1
					c0-0.1,0-0.1,0-0.2C-225.5,225-225.5,225-225.6,224.9z"/>
			</g>
			<g id="XMLID_105_">
				<path id="XMLID_279_" class="st8" d="M-232.7,224.5L-232.7,224.5c-0.1-0.1-0.1-0.1-0.2-0.1c-0.1,0-0.1,0-0.2,0h-0.1h-0.1h-0.1
					c0,0,0-0.1-0.1-0.1l0,0c0,0,0-0.1-0.1-0.1l0,0h0.1c0,0,0,0,0.1,0h0.1l0.1,0.1h0.1h0.1l0,0c0,0,0.1,0,0.1-0.1l0.1-0.1l0,0h-0.1
					l0,0c0,0,0,0-0.1,0h-0.1h-0.1c0,0,0,0-0.1-0.1h-0.1c0,0,0,0-0.1,0c0,0,0,0-0.1,0h-0.1c0,0,0,0,0-0.1l0,0c0,0,0.1,0,0.1-0.1
					l0.1-0.1v-0.1c0,0,0,0-0.1,0h-0.1c-0.1,0-0.2,0-0.2,0v0.1v0.1l-0.1,0.1v0.1v0.1c0,0,0,0,0,0.1l0.1,0.1v0.1c0,0,0,0,0,0.1l0,0
					l0,0v0.1v0.1l0,0h0.1c0,0,0,0,0.1,0c0,0,0,0,0.1,0c0.1,0,0.1,0,0.2,0c0,0,0.1,0,0.2,0c0,0,0.1,0,0.2-0.1l0,0l0,0l0,0
					c-0.1,0-0.1,0-0.2-0.1c-0.1,0-0.1,0-0.2,0c-0.1,0-0.1,0-0.2,0c0,0,0,0-0.1,0l0,0l0,0l0,0l0,0l0,0c0,0,0-0.1-0.1-0.1
					c0,0,0,0,0-0.1l0,0v0.1l0.1,0.1l0,0l0.1,0.1l0,0l0,0l0,0c0.1,0,0.1,0,0.1,0s0,0,0.1,0h0.1l0,0h0.1
					C-232.8,224.6-232.8,224.6-232.7,224.5L-232.7,224.5L-232.7,224.5z"/>
				<path id="XMLID_127_" class="st7" d="M-233.5,225L-233.5,225c-0.1,0-0.1,0-0.1,0h-0.1c0,0-0.1,0-0.1-0.1v-0.1v-0.1l0,0
					c0,0,0,0,0-0.1c0,0,0,0,0-0.1v-0.1c0,0,0-0.1-0.1-0.1v-0.1v-0.1V224c0-0.1,0-0.1,0.1-0.1c0,0,0,0,0-0.1s0-0.1,0.1-0.2
					c0,0,0.1-0.1,0.2-0.1h0.1h0.1v0.1l-0.1,0.1v0.1l0,0h0.1h0.1l0,0c0,0,0,0,0,0.1c0,0,0,0,0.1,0h0.1c0,0,0,0,0.1,0l0,0
					c0,0,0.1,0,0.1,0.1l0,0v0.1l0,0l-0.1,0.1c0,0-0.1,0-0.1,0.1c0,0,0,0,0.1,0c0.1,0,0.1,0,0.2,0.1l0,0v0.1l0,0
					c-0.1,0-0.1,0.1-0.2,0.1h-0.1c0,0,0,0,0,0.1l0,0v0.1c-0.1,0-0.1,0.1-0.2,0.1C-233.3,224.9-233.3,224.9-233.5,225
					C-233.4,225-233.4,225-233.5,225L-233.5,225z M-233.7,224.9h0.1c0,0,0,0,0.1,0c0.1,0,0,0,0.1,0c0.1,0,0.1,0,0.2,0
					c0,0,0.1,0,0.2,0c0,0,0.1,0,0.1-0.1l0,0c-0.1,0-0.1,0-0.1,0c-0.1,0-0.1,0-0.2,0c-0.1,0-0.1,0-0.2,0c0,0,0,0-0.1,0l0,0l0,0l0,0
					l0,0l0,0l0,0l0,0l0,0l0,0c0,0,0-0.1-0.1-0.1c0,0,0,0,0-0.1l0,0l0.1-0.1l0,0c0,0,0,0,0,0.1l0.1,0.1l0,0l0.1,0.1l0,0
					c0.1,0,0.1,0,0.2,0h0.1c0,0,0,0,0.1,0l0,0h0.1c0,0,0.1,0,0.1-0.1l0,0c-0.1,0-0.1-0.1-0.1-0.1h-0.1c0,0,0,0-0.1,0h-0.1h-0.1l0,0
					l0,0c0,0,0-0.1-0.1-0.1l0,0c0,0,0-0.1-0.1-0.1l-0.1-0.1h0.1l0,0h0.1l0,0h0.1c0,0,0,0,0.1,0l0,0l0,0l0,0l0,0c0,0,0.1,0,0.1-0.1
					c0,0,0,0,0.1-0.1h-0.1l0,0l0,0c0,0,0,0-0.1,0h-0.1h-0.1c0,0-0.1,0-0.1-0.1l0,0c0,0,0,0-0.1,0l0,0l0,0l0,0h-0.1v-0.1
					c0,0,0,0,0-0.1s0,0,0,0s0,0,0-0.1l0,0l0.1-0.1l0,0l0,0h-0.1c-0.1,0-0.1,0-0.2,0v0.1c0,0.1,0,0.1,0,0.1l-0.1,0.1v0.1v0.1l0,0
					l0.1,0.1v0.1c0,0,0,0,0,0.1l0,0l0,0l0,0l0,0v0.1L-233.7,224.9z M-233.5,224.6L-233.5,224.6L-233.5,224.6L-233.5,224.6
					L-233.5,224.6L-233.5,224.6C-233.6,224.6-233.5,224.6-233.5,224.6L-233.5,224.6L-233.5,224.6z M-233.3,224.4
					C-233.2,224.4-233.2,224.4-233.3,224.4C-233.2,224.4-233.2,224.4-233.3,224.4L-233.3,224.4L-233.3,224.4
					c0.1-0.1,0.1-0.1,0.1-0.1h-0.1l0,0l0,0l0,0l0,0C-233.3,224.3-233.3,224.3-233.3,224.4L-233.3,224.4L-233.3,224.4z"/>
			</g>
			<g id="XMLID_51_">
				<path id="XMLID_102_" class="st8" d="M-233.8,224.7C-233.8,224.7-233.9,224.7-233.8,224.7c-0.1,0-0.1-0.1-0.2-0.1
					c-0.1,0,0,0-0.1,0c0,0,0,0-0.1,0l0,0c-0.1,0-0.2,0-0.2,0l0,0l0,0l0,0h-0.1h-0.1c0,0,0,0-0.1-0.1l0,0c-0.1,0-0.2,0-0.3,0l0,0
					c0,0,0,0.1,0.1,0.1c0,0,0,0,0.1,0h0.1h0.1c0,0,0,0,0.1,0.1c0,0,0,0.1,0.1,0.1c0,0,0,0,0.1,0.1c0,0,0.1,0,0.1,0.1
					c0.1,0,0.2,0,0.2,0l0,0c0,0,0-0.1-0.1-0.1c0,0-0.1,0-0.1-0.1l0,0c0,0,0,0,0.1,0c0,0,0,0,0.1,0c0.1,0,0,0,0.1,0.1c0,0,0,0,0.1,0
					h0.1c0.1,0,0.1,0,0.1,0l0,0C-233.7,224.8-233.8,224.8-233.8,224.7z"/>
				<path id="XMLID_53_" class="st7" d="M-234.1,225C-234.2,225-234.2,225-234.1,225c-0.2,0-0.2,0-0.3-0.1c0,0,0,0-0.1-0.1
					c0,0,0,0-0.1-0.1l0,0l0,0c0,0,0,0-0.1,0l0,0h-0.1c0,0,0,0-0.1,0l0,0l-0.1-0.1l0,0v-0.1h0.1c0.1,0,0.2,0,0.3,0l0,0l0,0l0,0
					c0,0,0,0,0.1,0l0,0l0,0v-0.1h0.1c0.1,0,0.2,0,0.2,0l0,0l0,0l0,0l0,0l0,0c0,0,0,0,0.1,0c0,0,0,0,0.1,0c0,0,0.1,0,0.1,0.1l0,0
					c0.1,0.1,0.1,0.1,0.1,0.1l0,0l0,0l0,0h-0.1c-0.1,0-0.1,0-0.1,0s0,0-0.1,0v0.1l0,0V225L-234.1,225L-234.1,225z M-234.5,224.7
					C-234.5,224.8-234.5,224.8-234.5,224.7L-234.5,224.7C-234.4,224.8-234.4,224.8-234.5,224.7c0.1,0.1,0.1,0.1,0.1,0.1h0.1h0.1
					c0,0,0-0.1-0.1-0.1c0,0,0,0-0.1-0.1l0,0h-0.1C-234.4,224.7-234.4,224.7-234.5,224.7L-234.5,224.7L-234.5,224.7z M-234.1,224.7
					L-234.1,224.7L-234.1,224.7C-234,224.8-234,224.8-234.1,224.7c0.1,0.1,0.1,0.1,0.1,0.1h0.1h0.1c0,0,0,0-0.1-0.1h-0.1
					C-233.9,224.7-234,224.7-234.1,224.7C-234,224.7-234,224.7-234.1,224.7L-234.1,224.7C-234,224.7-234.1,224.7-234.1,224.7z
					 M-234.3,224.7L-234.3,224.7L-234.3,224.7C-234.2,224.7-234.3,224.7-234.3,224.7z M-234.8,224.6L-234.8,224.6
					C-234.7,224.7-234.7,224.7-234.8,224.6c0.1,0.1,0.1,0.1,0.1,0.1l0,0l0,0l0,0l0,0C-234.7,224.6-234.7,224.6-234.8,224.6z"/>
			</g>
		</g>
	</g>
	<g id="XMLID_452_">
		<path id="XMLID_46_" class="st5" d="M-258.7,237.1c-1.4,0-2.7-0.4-3.8-1.2c-0.3-0.2-0.5-0.6-0.5-1.1c0-0.7,0.6-1.3,1.3-1.3
			c0.3,0,0.6,0.1,0.8,0.3c0.7,0.5,1.5,0.8,2.3,0.8c0.3,0,1.1,0,1.1-0.6c0-0.3,0-0.5-1.7-0.9c-1.9-0.5-3.5-1.1-3.5-3.3
			c0-1.9,1.5-3.3,3.7-3.3c1.2,0,2.3,0.3,3.3,0.9c0.3,0.2,0.6,0.6,0.6,1.1c0,0.7-0.6,1.3-1.3,1.3c-0.3,0-0.5-0.1-0.7-0.2
			c-0.7-0.4-1.3-0.6-1.9-0.6s-0.9,0.2-0.9,0.5c0,0.4,0.2,0.5,1.8,1c1.7,0.5,3.3,1.2,3.3,3.2S-256.4,237.1-258.7,237.1z"/>
		<path id="XMLID_44_" d="M-259.1,226.7c1.2,0,2.2,0.3,3.1,0.9c0.2,0.1,0.5,0.4,0.5,0.8c0,0.6-0.4,1-1,1c-0.2,0-0.4-0.1-0.5-0.2
			c-0.7-0.4-1.4-0.7-2-0.7c-0.8,0-1.2,0.4-1.2,0.8l0,0c0,0.6,0.4,0.8,2.1,1.3c2,0.5,3.1,1.2,3.1,2.9l0,0c0,1.9-1.5,3-3.6,3
			c-1.3,0-2.6-0.4-3.7-1.2c-0.2-0.2-0.4-0.5-0.4-0.8c0-0.6,0.4-1,1-1c0.3,0,0.5,0.1,0.6,0.2c0.7,0.5,1.5,0.9,2.5,0.9
			c0.9,0,1.4-0.3,1.4-0.9l0,0c0-0.5-0.3-0.8-2-1.2c-2-0.5-3.2-1-3.2-3l0,0C-262.5,227.9-261.1,226.7-259.1,226.7 M-259.1,226.1
			c-2.4,0-4.1,1.5-4.1,3.6l0,0c0,2.5,1.8,3.1,3.7,3.6c1.2,0.3,1.4,0.5,1.5,0.5c0,0,0,0,0,0.1l0,0c0,0.2-0.4,0.2-0.7,0.2
			c-0.7,0-1.4-0.2-2.1-0.7c-0.3-0.2-0.6-0.3-1-0.3c-0.9,0-1.7,0.7-1.7,1.7c0,0.5,0.3,1.1,0.7,1.4c1.2,0.8,2.6,1.3,4,1.3
			c2.6,0,4.2-1.4,4.2-3.7l0,0c0-2.3-1.8-3.1-3.6-3.6c-0.4-0.1-1.5-0.4-1.6-0.6c0,0,0,0,0-0.1l0,0c0-0.1,0.2-0.2,0.6-0.2
			c0.5,0,1.1,0.2,1.7,0.6c0.3,0.2,0.6,0.2,0.9,0.2c0.9,0,1.7-0.7,1.7-1.7c0-0.6-0.3-1.1-0.8-1.4
			C-256.7,226.4-257.8,226.1-259.1,226.1L-259.1,226.1z"/>
	</g>
	<g id="XMLID_445_">
		<path id="XMLID_43_" class="st5" d="M-249.1,237c-0.5,0-0.8-0.2-1.1-0.6l-1.5-2.1l-0.4,0.4v1c0,0.7-0.6,1.3-1.3,1.3
			s-1.3-0.6-1.3-1.3v-7.6c0-0.7,0.6-1.3,1.3-1.3c0.7,0,1.3,0.6,1.3,1.3v3.5l1.9-1.8c0.3-0.3,0.6-0.5,1.1-0.5c0.7,0,1.2,0.6,1.2,1.2
			c0,0.5-0.3,0.8-0.6,1.1l-1.3,1.1l1.7,2.2c0.2,0.2,0.3,0.5,0.3,0.8C-247.8,236.5-248.4,237-249.1,237z"/>
		<path id="XMLID_41_" d="M-253.4,227.1c0.5,0,1,0.4,1,1v4.3l2.4-2.3c0.3-0.3,0.5-0.4,0.9-0.4c0.5,0,0.9,0.4,0.9,0.9
			c0,0.3-0.2,0.6-0.5,0.9l-1.5,1.3l1.8,2.5c0.2,0.2,0.2,0.4,0.2,0.6c0,0.5-0.4,0.9-0.9,0.9c-0.4,0-0.6-0.1-0.9-0.5l-1.7-2.4
			l-0.8,0.7v1.1c0,0.5-0.4,1-1,1c-0.6,0-1-0.4-1-1v-7.6C-254.4,227.6-254,227.1-253.4,227.1 M-253.4,226.4c-0.9,0-1.6,0.7-1.6,1.6
			v7.6c0,0.9,0.7,1.6,1.6,1.6c0.9,0,1.6-0.7,1.6-1.6v-0.8l0,0l1.3,1.8c0.4,0.5,0.8,0.7,1.4,0.7c0.9,0,1.6-0.7,1.6-1.6
			c0-0.5-0.2-0.8-0.4-1l-1.5-2l1.1-0.9l0,0l0,0c0.3-0.3,0.7-0.7,0.7-1.3c0-0.9-0.7-1.5-1.5-1.5c-0.6,0-1,0.3-1.3,0.6l-1.3,1.2v-2.7
			C-251.8,227.2-252.5,226.4-253.4,226.4L-253.4,226.4z"/>
	</g>
	<g id="XMLID_438_">
		<path id="XMLID_40_" class="st5" d="M-245.8,239c-0.4,0-0.8-0.1-1.2-0.2c-0.5-0.2-0.8-0.6-0.8-1.1c0-0.6,0.5-1.1,1.1-1.1
			c0.2,0,0.3,0,0.4,0.1c0.1,0,0.2,0.1,0.3,0.1c0.2,0,0.3,0,0.4-0.2l-2.3-5.3c-0.1-0.2-0.1-0.4-0.1-0.6c0-0.7,0.6-1.3,1.3-1.3
			c0.6,0,1,0.3,1.3,1l1.2,3.2l1.1-3.1c0.2-0.6,0.7-1,1.3-1c0.7,0,1.3,0.6,1.3,1.2c0,0.2-0.1,0.5-0.1,0.6l-2.4,5.8
			C-243.7,238.2-244.4,239-245.8,239z"/>
		<path id="XMLID_38_" d="M-241.9,229.6c0.5,0,0.9,0.4,0.9,0.9c0,0.2-0.1,0.4-0.1,0.5l-2.4,5.8c-0.6,1.4-1.2,1.9-2.3,1.9
			c-0.4,0-0.7-0.1-1.1-0.2c-0.3-0.1-0.6-0.3-0.6-0.8s0.4-0.8,0.8-0.8c0.2,0,0.2,0,0.3,0.1c0.2,0.1,0.3,0.1,0.4,0.1
			c0.3,0,0.5-0.1,0.7-0.4l0.1-0.2l-2.3-5.5c-0.1-0.1-0.1-0.3-0.1-0.5c0-0.6,0.4-0.9,1-0.9c0.5,0,0.8,0.3,0.9,0.7l1.5,4l1.4-4
			C-242.7,230-242.4,229.6-241.9,229.6 M-241.9,228.9c-0.7,0-1.3,0.4-1.6,1.2l-0.8,2.3l-0.9-2.3c-0.4-1-1.1-1.2-1.6-1.2
			c-0.9,0-1.6,0.7-1.6,1.6c0,0.2,0.1,0.5,0.2,0.7l0,0l0,0l2.2,5.1c0,0-0.1,0-0.2,0c-0.1,0-0.3-0.1-0.5-0.1c-0.8,0-1.4,0.7-1.4,1.5
			c0,0.7,0.4,1.2,1.1,1.4c0.4,0.2,0.8,0.2,1.3,0.2c1.6,0,2.4-0.9,2.9-2.3l2.4-5.8c0.1-0.2,0.1-0.5,0.1-0.7
			C-240.3,229.7-241,228.9-241.9,228.9L-241.9,228.9z"/>
	</g>
	<g id="XMLID_431_">
		<path id="XMLID_37_" class="st5" d="M-236.7,237c-0.7,0-1.3-0.6-1.3-1.3v-5.8l-0.3,0.1c-0.1,0-0.3,0.1-0.4,0.1
			c-0.6,0-1.2-0.5-1.2-1.2c0-0.6,0.4-1,0.9-1.2l1.3-0.4c0.4-0.1,0.7-0.2,1-0.2c0.7,0,1.3,0.6,1.3,1.3v7.3
			C-235.4,236.4-236,237-236.7,237z"/>
		<path id="XMLID_35_" d="M-236.7,227.5c0.5,0,1,0.4,1,1v7.3c0,0.5-0.4,1-1,1c-0.5,0-1-0.4-1-1v-6.2l-0.7,0.2
			c-0.1,0-0.2,0.1-0.3,0.1c-0.5,0-0.9-0.4-0.9-0.9c0-0.4,0.3-0.7,0.7-0.9l1.3-0.4C-237.3,227.5-237.1,227.5-236.7,227.5
			L-236.7,227.5 M-236.7,226.8L-236.7,226.8c-0.4,0-0.7,0.1-1.1,0.2l-1.3,0.4c-0.7,0.2-1.1,0.8-1.1,1.5c0,0.8,0.7,1.5,1.5,1.5
			c0.1,0,0.3,0,0.4,0v5.4c0,0.9,0.7,1.6,1.6,1.6c0.9,0,1.6-0.7,1.6-1.6v-7.3C-235.1,227.5-235.8,226.8-236.7,226.8L-236.7,226.8z"/>
	</g>
	<g id="XMLID_416_">
		<path id="XMLID_34_" class="st5" d="M-230.8,237.1c-2.5,0-4.3-2.1-4.3-5s1.8-5,4.4-5c2.5,0,4.3,2.1,4.3,5
			S-228.2,237.1-230.8,237.1z M-230.8,229.6c-1,0-1.6,1-1.6,2.5s0.7,2.6,1.7,2.6s1.6-1,1.6-2.5
			C-229.1,230.6-229.8,229.6-230.8,229.6z"/>
		<path id="XMLID_33_" d="M-230.7,227.4c2.4,0,4,2,4,4.6l0,0c0,2.6-1.6,4.7-4,4.7c-2.4,0-4-2-4-4.6l0,0
			C-234.8,229.5-233.1,227.4-230.7,227.4 M-230.7,235c1.2,0,2-1.2,2-2.8l0,0c0-1.6-0.8-2.9-2-2.9c-1.2,0-2,1.2-2,2.8l0,0
			C-232.7,233.7-231.9,235-230.7,235 M-230.7,226.8c-2.7,0-4.7,2.2-4.7,5.3l0,0c0,3.1,2,5.3,4.7,5.3c2.7,0,4.7-2.2,4.7-5.3l0,0
			C-226.1,229-228,226.8-230.7,226.8L-230.7,226.8z M-230.7,234.3c-0.9,0-1.3-1.1-1.3-2.2l0,0c0-1,0.4-2.2,1.3-2.2
			c0.8,0,1.3,0.9,1.3,2.2l0,0C-229.4,233.2-229.8,234.3-230.7,234.3L-230.7,234.3z"/>
	</g>
	<g id="XMLID_409_">
		<path id="XMLID_17_" class="st5" d="M-223.2,237.1c-1.2,0-2.2-0.3-3-0.9c-0.3-0.3-0.5-0.6-0.5-1c0-0.7,0.6-1.3,1.3-1.3
			c0.3,0,0.5,0.1,0.7,0.2c0.5,0.4,1,0.5,1.5,0.5c0.3,0,1.1-0.1,1.1-0.9c0-0.7-0.7-0.9-1.3-0.9c-0.4,0-0.7,0.1-0.9,0.1
			c-0.2,0-0.3,0.1-0.4,0.1c-0.4,0-0.7-0.1-1.1-0.5c-0.4-0.3-0.5-0.6-0.5-1.1l0.2-3c0-0.7,0.6-1.2,1.2-1.2h3.9c0.7,0,1.2,0.6,1.2,1.2
			c0,0.7-0.5,1.2-1.2,1.2h-2.7l-0.1,0.8c0.2,0,0.5-0.1,0.8-0.1c2.2,0,3.5,1.2,3.5,3.2C-219.5,235.7-220.9,237.1-223.2,237.1z"/>
		<path id="XMLID_4_" d="M-221,227.6c0.5,0,0.9,0.4,0.9,0.9s-0.4,0.9-0.9,0.9h-3l-0.1,1.6c0.4-0.1,0.7-0.2,1.2-0.2
			c1.8,0,3.2,0.9,3.2,2.9l0,0c0,1.9-1.4,3.1-3.4,3.1c-1.3,0-2.1-0.3-2.8-0.9c-0.2-0.2-0.4-0.4-0.4-0.8c0-0.5,0.4-1,0.9-1
			c0.2,0,0.4,0.1,0.5,0.2c0.6,0.4,1.1,0.6,1.7,0.6c0.8,0,1.5-0.5,1.5-1.2l0,0c0-0.8-0.7-1.2-1.6-1.2c-0.8,0-1.1,0.2-1.4,0.2
			s-0.5-0.1-0.9-0.4c-0.3-0.2-0.4-0.5-0.4-0.8l0.2-3.1c0-0.5,0.4-0.9,0.9-0.9L-221,227.6 M-221,226.9h-3.9c-0.8,0-1.5,0.7-1.5,1.5
			l-0.2,3.1c0,0.6,0.2,1.1,0.6,1.4c0.4,0.3,0.8,0.5,1.3,0.5c0.2,0,0.4-0.1,0.5-0.1c0.2-0.1,0.4-0.1,0.8-0.1c0.3,0,0.9,0.1,0.9,0.6
			l0,0c0,0.5-0.4,0.6-0.8,0.6c-0.5,0-0.9-0.1-1.3-0.5c-0.3-0.2-0.6-0.3-0.9-0.3c-0.9,0-1.6,0.7-1.6,1.6c0,0.5,0.2,1,0.7,1.3
			c0.9,0.7,2,1,3.2,1c2.4,0,4-1.6,4-3.8l0,0c0-2.2-1.5-3.6-3.8-3.6c-0.2,0-0.3,0-0.5,0V230h2.5c0.9,0,1.5-0.7,1.5-1.5
			C-219.5,227.6-220.1,226.9-221,226.9L-221,226.9z"/>
	</g>
	<g id="XMLID_2_">
		<path id="XMLID_3_" d="M-259.4,242.6l-0.2-2.3h0.3l0.1,1.4l1.2-1.5h0.3l-0.9,1.1l1.2,1.2h-0.3l-1-1l-0.4,0.6l0.1,0.6L-259.4,242.6
			z"/>
		<path id="XMLID_36_" d="M-257.1,241.6c0,0.2,0.1,0.3,0.2,0.4c0.1,0.1,0.3,0.1,0.4,0.1c0.2,0,0.4-0.1,0.5-0.3l0.2,0.1
			c-0.2,0.2-0.4,0.4-0.7,0.4c-0.2,0-0.5,0-0.6-0.2c-0.2-0.2-0.3-0.4-0.3-0.6c0-0.3,0-0.5,0.2-0.7c0.1-0.2,0.3-0.3,0.6-0.3
			c0.2,0,0.4,0,0.6,0.2c0.2,0.2,0.3,0.4,0.3,0.6v0.1L-257.1,241.6z M-257.1,241.4l1.1-0.1c0-0.2-0.1-0.3-0.2-0.4
			c-0.1-0.1-0.2-0.1-0.4-0.1c-0.1,0-0.3,0.1-0.4,0.2C-257.1,241.1-257.1,241.2-257.1,241.4z"/>
		<path id="XMLID_39_" d="M-255.1,241.4c0,0.2,0.1,0.3,0.2,0.4c0.1,0.1,0.3,0.1,0.4,0.1c0.2,0,0.4-0.1,0.5-0.3l0.2,0.1
			c-0.2,0.2-0.4,0.4-0.7,0.4c-0.2,0-0.5,0-0.6-0.2c-0.2-0.2-0.3-0.4-0.3-0.6c0-0.3,0-0.5,0.2-0.7c0.1-0.2,0.3-0.3,0.6-0.3
			c0.2,0,0.4,0.1,0.6,0.2c0.2,0.2,0.2,0.4,0.3,0.6v0.1L-255.1,241.4z M-255.1,241.2l1.1-0.1c0-0.2-0.1-0.3-0.2-0.4
			c-0.1-0.1-0.2-0.1-0.4-0.1c-0.1,0-0.3,0.1-0.4,0.2C-255.1,240.9-255.1,241-255.1,241.2z"/>
		<path id="XMLID_42_" d="M-253.2,242.5l-0.2-2.3h0.3v0.3c0.2-0.3,0.4-0.4,0.6-0.4c0.2,0,0.4,0.1,0.6,0.2c0.2,0.2,0.3,0.4,0.3,0.6
			c0,0.3,0,0.5-0.2,0.7c-0.2,0.2-0.3,0.3-0.6,0.3s-0.5-0.1-0.7-0.3l0.1,0.9H-253.2z M-252.4,241.8c0.2,0,0.3-0.1,0.4-0.2
			c0.1-0.1,0.2-0.3,0.1-0.5c-0.1-0.2-0.1-0.4-0.2-0.5s-0.3-0.2-0.4-0.2c-0.2,0-0.3,0.1-0.4,0.2c-0.1,0.1-0.2,0.3-0.2,0.5
			s0.1,0.3,0.2,0.5C-252.7,241.7-252.5,241.8-252.4,241.8z"/>
		<path id="XMLID_45_" d="M-251.2,239.8v-0.3h0.3v0.3H-251.2z M-251,241.9l-0.1-1.7h0.3l0.1,1.7H-251z"/>
		<path id="XMLID_48_" d="M-250.2,241.8l-0.1-1.7h0.3v0.3c0.1-0.2,0.3-0.4,0.6-0.4c0.2,0,0.4,0,0.5,0.2c0.1,0.1,0.2,0.3,0.2,0.5
			l0.1,1.1h-0.3l-0.1-1c0-0.2-0.1-0.3-0.1-0.4c-0.1-0.1-0.2-0.1-0.4-0.1c-0.1,0-0.3,0.1-0.4,0.2c-0.1,0.1-0.1,0.2-0.1,0.4l0.1,1
			L-250.2,241.8z"/>
		<path id="XMLID_50_" d="M-247.3,242.2c-0.3,0-0.6-0.1-0.8-0.2l0.1-0.2c0.2,0.1,0.4,0.2,0.7,0.2c0.2,0,0.3-0.1,0.5-0.2
			c0.1-0.1,0.2-0.3,0.1-0.5v-0.2c-0.2,0.2-0.4,0.4-0.7,0.4c-0.2,0-0.4-0.1-0.6-0.2c-0.2-0.1-0.3-0.3-0.3-0.6c0-0.2,0.1-0.4,0.2-0.6
			c0.1-0.2,0.3-0.2,0.6-0.2s0.5,0.1,0.7,0.3v-0.3h0.3l0.1,1.4c0,0.3-0.1,0.5-0.2,0.6C-246.8,242.1-247,242.2-247.3,242.2z
			 M-247.4,241.3c0.2,0,0.3-0.1,0.4-0.2c0.1-0.1,0.2-0.3,0.2-0.4c0-0.2-0.1-0.3-0.2-0.4c-0.1-0.1-0.3-0.2-0.5-0.1
			c-0.2,0-0.3,0.1-0.4,0.2c-0.1,0.1-0.2,0.3-0.2,0.4c0,0.2,0.1,0.3,0.2,0.4C-247.7,241.3-247.5,241.3-247.4,241.3z"/>
		<path id="XMLID_60_" d="M-243.5,241.3c-0.2,0.2-0.4,0.3-0.6,0.3c-0.3,0-0.5-0.1-0.6-0.2c-0.2-0.2-0.3-0.4-0.3-0.6
			c0-0.2,0.1-0.5,0.2-0.6c0.2-0.2,0.4-0.3,0.6-0.3c0.3,0,0.5,0.1,0.6,0.2c0.2,0.2,0.3,0.4,0.3,0.6S-243.3,241.2-243.5,241.3z
			 M-244.1,241.4c0.2,0,0.3-0.1,0.5-0.2c0.1-0.1,0.2-0.3,0.2-0.5s-0.1-0.3-0.2-0.5c-0.1-0.1-0.3-0.2-0.5-0.2s-0.3,0.1-0.4,0.2
			c-0.1,0.1-0.2,0.3-0.2,0.5s0.1,0.3,0.2,0.5C-244.5,241.3-244.3,241.4-244.1,241.4z"/>
		<path id="XMLID_63_" d="M-242.1,241.6c-0.2,0-0.4-0.1-0.5-0.2c-0.1-0.1-0.2-0.3-0.2-0.5v-1.1h0.3v1c0,0.2,0,0.3,0.1,0.4
			c0.1,0.1,0.2,0.1,0.4,0.1c0.1,0,0.3-0.1,0.4-0.2c0.1-0.1,0.1-0.2,0.1-0.4v-1h0.3v1.7h-0.3v-0.3
			C-241.7,241.5-241.9,241.6-242.1,241.6z"/>
		<path id="XMLID_65_" d="M-240.7,241.5v-1.7h0.3v0.5c0.1-0.1,0.2-0.3,0.3-0.4c0.1-0.1,0.3-0.1,0.4-0.1v0.3l0,0
			c-0.2,0-0.4,0.1-0.5,0.2c-0.1,0.1-0.2,0.3-0.2,0.6v0.7L-240.7,241.5z"/>
		<path id="XMLID_67_" d="M-238.3,241.6v-1.5h-0.2v-0.2h0.2v-0.2c0-0.2,0.1-0.3,0.2-0.4c0.1-0.1,0.2-0.1,0.4-0.1c0.1,0,0.2,0,0.3,0
			v0.2c-0.1,0-0.2,0-0.2,0c-0.2,0-0.3,0.1-0.3,0.4v0.1h0.5v0.2h-0.5v1.5H-238.3z"/>
		<path id="XMLID_69_" d="M-236.7,241.6c-0.2,0-0.3-0.1-0.4-0.2c-0.1-0.1-0.2-0.2-0.2-0.4s0.1-0.3,0.2-0.4c0.1-0.1,0.3-0.1,0.5-0.1
			s0.4,0,0.5,0.1v-0.1c0-0.2,0-0.3-0.1-0.4c-0.1-0.1-0.2-0.1-0.4-0.1s-0.3,0-0.5,0.1l-0.1-0.2c0.2-0.1,0.4-0.1,0.6-0.1
			s0.4,0.1,0.6,0.2c0.1,0.1,0.2,0.3,0.2,0.5v1.1h-0.3v-0.3C-236.2,241.5-236.4,241.6-236.7,241.6z M-236.6,241.4
			c0.2,0,0.3,0,0.4-0.1c0.1-0.1,0.2-0.2,0.2-0.3v-0.2c-0.2-0.1-0.3-0.1-0.5-0.1s-0.3,0-0.4,0.1c-0.1,0.1-0.1,0.1-0.1,0.3
			c0,0.1,0,0.2,0.1,0.3C-236.8,241.4-236.7,241.4-236.6,241.4z"/>
		<path id="XMLID_72_" d="M-235.3,241.6l0.1-1.7h0.3l-0.1,1.7H-235.3z M-235.2,239.5v-0.3h0.3v0.3H-235.2z"/>
		<path id="XMLID_75_" d="M-233.8,241.7c-0.1,0-0.3-0.1-0.3-0.1c-0.1-0.1-0.1-0.2-0.1-0.4l0.1-1h-0.2V240h0.2v-0.5h0.3v0.5h0.5v0.2
			h-0.5l-0.1,1c0,0.2,0.1,0.3,0.3,0.3c0.1,0,0.2,0,0.3,0v0.2C-233.6,241.7-233.7,241.7-233.8,241.7z"/>
		<path id="XMLID_77_" d="M-233.1,241.7l0.2-2.4h0.3l-0.1,1c0.2-0.2,0.4-0.3,0.6-0.3s0.4,0.1,0.5,0.2c0.1,0.1,0.2,0.3,0.1,0.5
			l-0.1,1.1h-0.3l0.1-1c0-0.2,0-0.3-0.1-0.4c-0.1-0.1-0.2-0.2-0.3-0.2c-0.1,0-0.3,0-0.4,0.1c-0.1,0.1-0.2,0.2-0.2,0.4l-0.1,1
			L-233.1,241.7z"/>
		<path id="XMLID_79_" d="M-229.5,242.1c-0.2,0-0.3-0.1-0.4-0.2c-0.1-0.1-0.2-0.2-0.1-0.4c0-0.2,0.1-0.3,0.2-0.4
			c0.1-0.1,0.3-0.1,0.6-0.1c0.2,0,0.4,0.1,0.5,0.1V241c0-0.2,0-0.3-0.1-0.4c-0.1-0.1-0.2-0.1-0.4-0.2c-0.2,0-0.3,0-0.5,0.1l-0.1-0.2
			c0.2-0.1,0.4-0.1,0.6-0.1c0.2,0,0.4,0.1,0.5,0.2c0.1,0.1,0.2,0.3,0.1,0.5l-0.1,1.1h-0.3v-0.3C-229,242-229.3,242.1-229.5,242.1z
			 M-229.5,241.9c0.2,0,0.3,0,0.4-0.1s0.2-0.2,0.2-0.3v-0.2c-0.2-0.1-0.3-0.1-0.5-0.1c-0.2,0-0.3,0-0.4,0.1s-0.1,0.1-0.2,0.2
			c0,0.1,0,0.2,0.1,0.3C-229.7,241.8-229.6,241.9-229.5,241.9z"/>
		<path id="XMLID_82_" d="M-228.1,242.2l0.3-2.4h0.3l-0.3,2.4H-228.1z"/>
		<path id="XMLID_85_" d="M-227.2,242.3l0.2-1.7h0.3l-0.2,1.7H-227.2z M-227,240.2v-0.3h0.3v0.3H-227z"/>
		<path id="XMLID_88_" d="M-225.8,242.5l-0.5-1.8h0.3l0.4,1.5l0.8-1.3h0.3l-1,1.6H-225.8z"/>
		<path id="XMLID_90_" d="M-224.3,242c0,0.2,0,0.3,0.1,0.4c0.1,0.1,0.2,0.2,0.4,0.2s0.4,0,0.6-0.1l0.1,0.2c-0.2,0.2-0.5,0.2-0.8,0.2
			c-0.2,0-0.4-0.2-0.6-0.4c-0.1-0.2-0.2-0.4-0.1-0.7c0-0.2,0.2-0.4,0.3-0.6c0.2-0.1,0.4-0.2,0.6-0.2c0.2,0,0.4,0.2,0.5,0.4
			c0.1,0.2,0.1,0.4,0.1,0.7v0.1L-224.3,242z M-224.2,241.8l1.1,0.2c0-0.2,0-0.3-0.1-0.4c-0.1-0.1-0.2-0.2-0.3-0.2
			c-0.1,0-0.3,0-0.4,0.1C-224.1,241.5-224.2,241.6-224.2,241.8z"/>
	</g>
</g>
</svg>
