<?xml version="1.0" encoding="utf-8"?>
<!-- Generator: Adobe Illustrator 19.0.0, SVG Export Plug-In . SVG Version: 6.00 Build 0)  -->
<svg version="1.1" id="Layer_1" xmlns="http://www.w3.org/2000/svg" xmlns:xlink="http://www.w3.org/1999/xlink" x="0px" y="0px"
	 viewBox="0 0 50 45.9" style="enable-background:new 0 0 50 45.9;" xml:space="preserve">
<style type="text/css">
	.st0{fill:#231F20;}
	.st1{fill-rule:evenodd;clip-rule:evenodd;}
	.st2{fill-rule:evenodd;clip-rule:evenodd;fill:#231F20;}
	.st3{fill:#3F3B3C;}
</style>
<g id="XMLID_151_">
	<g id="XMLID_3_">
		<path id="XMLID_6_" class="st0" d="M45.5,13.2C41.6,5.4,33.6,0.4,25.1,0.4c-8.5,0-16.5,5-20.4,12.8L4.4,13c3.9-7.9,12-13,20.7-13
			s16.8,5.1,20.7,13L45.5,13.2z"/>
	</g>
	<g id="XMLID_4_">
		<path id="XMLID_5_" class="st0" d="M25.1,45.9c-8.6,0-16.4-4.7-20.3-12.2l0.3-0.2c3.8,7.4,11.5,12,20,12c8.5,0,16.1-4.6,20-12
			l0.3,0.2C41.5,41.2,33.7,45.9,25.1,45.9z"/>
	</g>
	<path id="XMLID_189_" class="st1" d="M16.6,8.8c0.1,0,0.2-0.1,0.3-0.1c-0.1-0.1-0.2-0.2-0.3-0.2c-0.6-0.1-1.2-0.1-1.9-0.2
		c-0.1,0-0.3,0-0.4,0.1c0.1,0.1,0.3,0.1,0.4,0.2c0.1,0.1,0.2,0.1,0.2,0.2c-0.1,0-0.2,0-0.2-0.1c-0.3,0-0.6-0.2-0.8-0.1
		c-0.4,0.2-0.6,0.5-1,0.7c0,0-0.1,0-0.1,0c-0.2-0.3-0.3-0.6-0.5-0.8c0,0,0-0.1,0-0.1C12.5,8.2,12.7,8,13,7.8
		c0.1-0.1,0.3-0.1,0.4-0.1C13.6,7.8,13.9,8,14.1,8c3-0.3,6-0.8,9.1-1.1c3.4-0.3,6.8-0.9,10.3-0.3c1.4,0.2,2.7,0.6,3.7,1.5
		c0.1,0.1,0.2,0.2,0.3,0.4c-0.1-0.1-0.2-0.2-0.3-0.2c-0.8-0.3-1.6-0.7-2.4-0.8c-1.1-0.2-2.2-0.2-3.3-0.2c-0.1,0-0.1,0.1-0.2,0.1
		c0.1,0.1,0.1,0.2,0.2,0.2c0.5,0.1,1,0.2,1.6,0.3c1.6,0.2,3.2,0.6,4.4,1.8c0.1,0.1,0.3,0.2,0.4,0.3c0-0.2,0-0.4,0-0.6
		c0,0,0-0.1,0-0.1c0,0,0.1,0.1,0.1,0.1c-0.1,0.3-0.2,0.9-0.4,1c-1.1,0.4-2.2,0.6-3.3,0.8c-1.4,0.3-2.8,0.8-4.2,0.9
		c-1.8,0.2-3.7,0.3-5.6,0.3c-1.3,0-2.6-0.3-3.9-0.5c-0.9-0.2-1.8-0.4-2.6-0.9c-0.7-0.4-1.1-1.1-1.7-1.6c-0.1-0.1-0.2-0.2-0.3-0.2
		c0.2,0.1,0.3,0.1,0.5,0.2c0.7,0.6,1.3,1.3,2.1,1.8c0.3,0.2,0.8,0.2,1.1,0.3c0.1,0,0.2,0,0.3,0c-0.1-0.1-0.1-0.1-0.2-0.2
		c0,0-0.1-0.1-0.1-0.1c0.1,0,0.1,0,0.2,0c0.3,0.1,0.7,0.2,1,0.3c0.2,0.1,0.4,0.2,0.7,0.3c0.1,0,0.2,0,0.3,0c0,0-0.1-0.1-0.1-0.1
		c0,0,0,0-0.1-0.1c0.2,0,0.3,0,0.5,0c0,0,0,0,0,0c0,0.1,0,0.2,0.1,0.2c0.3,0,0.6,0,0.9,0c0,0,0.1,0,0.1,0c0,0,0-0.1-0.1-0.1
		c-0.5-0.3-0.9-0.6-1.4-0.8c-1.7-0.7-3.4-1.4-5.1-2.1c0,0-0.1,0-0.1-0.1c0,0,0,0,0.1,0c0.1,0,0.1,0,0.2,0
		C16.7,8.9,16.7,8.8,16.6,8.8L16.6,8.8z M35.9,8.8c-1.2-0.4-2.5-0.6-3.8-0.9c-0.1,0-0.3,0-0.4-0.1c-0.1,0-0.1,0-0.2,0
		c0.1,0.1,0.1,0.1,0.2,0.2c0.5,0.2,1,0.4,1.5,0.5c0.6,0.2,1.3,0.4,1.9,0.7c0.7,0.4,1.2,0.9,1.8,1.3c0.1,0.1,0.3,0.1,0.4,0
		c0.1-0.1,0.2-0.2,0.4-0.3c-0.3-0.2-0.5-0.5-0.8-0.7l0,0C36.5,9.2,36.2,8.9,35.9,8.8z M29.2,11.2c0.1,0,0.1,0.1,0.2,0.1
		c0.5,0.2,1.1,0.4,1.6,0.5c0.2,0.1,0.5-0.1,0.7-0.1c0-0.1,0-0.2-0.1-0.2c-1.2-1-2.6-1.4-4.1-1.5c-1.3-0.1-2.6-0.3-3.9-0.5
		c-1-0.1-1.9-0.3-2.9-0.4c-0.9-0.1-1.8-0.2-2.7-0.3c-0.1,0-0.2,0.1-0.3,0.1c0.1,0,0.1,0.1,0.2,0.1c1,0.1,1.9,0.3,2.9,0.4
		c1.1,0.1,2.1,0.3,3.2,0.4c0.8,0.1,1.5,0.3,2.2,0.4c1,0.3,1.9,0.6,2.9,0.9c0,0,0,0,0,0c0,0-0.1,0-0.1,0c-0.2,0-0.3-0.1-0.5-0.1
		c0,0,0,0,0,0c0,0,0,0,0,0c0.2,0,0.3,0.1,0.5,0.1C29,11.1,29.1,11.1,29.2,11.2z M17.4,9.1c0.1,0.1,0.3,0.1,0.4,0.2
		c1.4,0.6,2.9,1.2,4.3,1.9c0,0,0.1,0,0.1,0c0,0,0-0.1-0.1-0.1c-0.5-0.2-1-0.5-1.4-0.7c0,0,0,0-0.1-0.1c0,0,0.1,0,0.1,0
		c0.8,0.4,1.6,0.9,2.4,1.3c0,0,0,0.1,0,0.1c0.1,0,0.2-0.1,0.2,0c0.1,0.1,0.1,0.2,0.1,0.3c0.1,0.1,0.2,0.1,0.4,0.1
		c0.5,0.1,1,0.1,1.5,0.2c0.6,0,1.2,0.1,1.8,0.1c0.4,0,0.8-0.1,1.1-0.1c0.2,0,0.5,0,0.7,0c0.3,0,0.6,0,0.8-0.1c0.2,0,0.4-0.1,0.6-0.2
		c0,0,0.1-0.1,0.1-0.1c-0.1-0.1-0.1-0.2-0.2-0.2c-1.7-0.5-3.4-1-5.1-1.4c-2.2-0.5-4.5-0.7-6.8-1.1c-0.2,0-0.4-0.1-0.7-0.1
		C17.7,9.1,17.6,9.1,17.4,9.1z M18,8.3C18,8.3,18,8.3,18,8.3c0,0.1,0,0.2,0.1,0.2C19,8.5,20,8.6,20.9,8.7c0.6,0.1,1.2,0.2,1.7,0.3
		c0.3,0,0.6,0,0.9,0c0.1,0,0.3,0.1,0.4,0.2c0.3,0,0.6,0,0.9,0.1c0.4,0,0.8,0.1,1.1,0.1c0.2,0,0.4,0.1,0.6,0.2c0,0,0.1,0,0.1,0
		c0,0,0.1-0.1,0.1-0.1c0,0,0.1,0.1,0.1,0.1c0.2,0.1,0.3,0.1,0.5,0.1c0.2,0,0.4,0.1,0.6,0.1c0.3,0.1,0.5,0.1,0.8,0.2
		c0.2,0,0.4,0.2,0.6,0.1c0.5-0.2,1-0.4,1.4-0.6c0.1,0,0.1,0,0.2-0.1c0.1-0.1,0.2-0.1,0.4-0.2C31.2,9,31,8.7,30.8,8.6
		c-0.6-0.1-1.2-0.2-1.9-0.3c-2.8-0.1-5.5-0.2-8.1-0.2C19.7,8.2,18.9,8.2,18,8.3z M30.8,8.5c0.2,0,0.5-0.3,0.7-0.4c0,0,0-0.2-0.1-0.2
		c-0.2-0.2-0.5-0.4-0.7-0.4c-0.8-0.1-1.6-0.1-2.3,0c-1.7,0.1-3.4,0.3-5.2,0.4c-0.3,0-0.6,0-0.9,0.1c-0.1,0-0.2,0.1-0.3,0.2
		c0.1,0,0.2,0,0.3,0c0.9,0,1.8,0,2.7,0c0,0,0-0.1,0-0.1C26.9,8.1,28.8,8.3,30.8,8.5z M33,11.3c0,0,0-0.2,0-0.2
		c-0.4-0.5-0.7-1.1-1.2-1.5c-0.1-0.1-0.6-0.1-0.9,0c-0.3,0.1-0.5,0.3-0.7,0.5c0,0.1,0.2,0.4,0.3,0.5c0.4,0.3,0.9,0.6,1.3,0.9
		c0.1,0,0.2,0,0.4,0.1C32.4,11.6,32.7,11.5,33,11.3z M34.2,9.6c0.4,0.5,0.8,1,1.3,1.3c0.2,0.1,0.6-0.1,0.9-0.2
		c0.1,0,0.3-0.1,0.4-0.1c-0.1-0.1-0.2-0.2-0.4-0.3c-0.7-0.4-1.4-0.8-2.1-1.2c0,0-0.1,0-0.3,0C34.1,9.2,34.1,9.5,34.2,9.6z M32.7,9.2
		c0,0.2,0.2,0.5,0.4,0.6c0.4,0.4,0.9,0.8,1.4,1.2c0,0,0.1,0,0.2,0c0,0,0-0.1,0-0.1c0,0,0-0.1,0-0.1c0.1,0,0.1,0,0.2,0.1
		c0.1,0,0.1,0,0.2,0c0-0.1,0-0.2-0.1-0.2c-0.3-0.4-0.6-0.7-0.9-1.1c-0.2-0.3-0.4-0.5-0.7-0.8c0,0-0.1,0-0.1,0
		C33.1,8.9,32.8,9,32.7,9.2z M34.1,11.2C34,11,34,10.8,33.8,10.6c-0.2-0.3-0.5-0.5-0.8-0.7c-0.1-0.1-0.2-0.4-0.3-0.4
		c-0.3-0.1-0.6-0.2-0.9-0.3c0,0.1,0,0.1,0,0.2c0.5,0.7,0.9,1.3,1.4,2c0,0,0.1,0,0.1,0.1C33.6,11.3,33.9,11.2,34.1,11.2z M31.4,8.4
		C31.4,8.4,31.4,8.4,31.4,8.4C31.2,8.6,31.3,9,31.6,9c0.5,0,1,0.1,1.4-0.1c0.6-0.4-0.1-0.5-0.3-0.6c-0.3-0.2-0.6-0.2-1-0.3
		C31.5,8.1,31.4,8.3,31.4,8.4z M33.4,7.2C33.3,7.2,33.3,7.2,33.4,7.2C33.3,7.2,33.3,7.2,33.4,7.2c0.9,0.2,1.9,0.4,2.8,0.5
		c0,0,0,0,0.1,0c0,0,0-0.1,0-0.1C35.6,7.4,35,7.2,34.6,7C34,7.1,33.7,7.1,33.4,7.2z M33.7,8.7c0.1,0.1,0.2,0.1,0.3,0.2
		c0,0,0.1,0,0.1,0c0,0-0.1,0-0.1,0c0,0,0,0,0,0C33.9,8.8,33.8,8.8,33.7,8.7z M22,8c-0.1,0-0.2,0-0.3,0c0,0-0.1,0-0.1,0
		c0.1,0,0.2,0,0.2,0.1C21.9,8,21.9,8,22,8z M17.3,9c-0.1,0-0.2-0.1-0.3-0.1c0,0,0,0,0,0C17,9,17.1,9,17.3,9C17.2,9,17.2,9,17.3,9z"
		/>
	<g id="XMLID_118_">
		<path id="XMLID_119_" class="st0" d="M2.8,22.3h0.3l2.1,5.2c0.1,0.2,0.3,0.3,0.5,0.3h0.2v0.3H3.5v-0.3h0.2c0.2,0,0.4,0,0.5-0.1
			c0.1,0,0.1-0.1,0.1-0.2c0,0,0-0.1,0-0.1l-0.5-1.2H1.6l-0.3,0.7c-0.1,0.2-0.1,0.3-0.1,0.4c0,0.1,0.1,0.2,0.2,0.3
			c0.1,0.1,0.3,0.1,0.5,0.1h0.2v0.3H0v-0.3c0.2,0,0.4,0,0.5-0.1c0.1-0.1,0.2-0.3,0.4-0.6L2.8,22.3z M2.7,23.4l-1,2.6h2L2.7,23.4z"/>
		<path id="XMLID_122_" class="st0" d="M6,22.4h2.7v0.3H8.1c-0.1,0-0.2,0-0.2,0.1S7.8,22.9,7.8,23v4.5c0,0.1,0,0.2,0.1,0.2
			c0.1,0,0.2,0.1,0.4,0.1H9c0.4,0,0.8-0.1,1.1-0.4s0.5-0.8,0.6-1.5h0.3l-0.1,2.2H6v-0.3h0.5c0.2,0,0.3,0,0.3-0.1
			c0.1-0.1,0.1-0.2,0.1-0.3V23c0-0.1,0-0.2-0.1-0.2c-0.1,0-0.1-0.1-0.2-0.1H6V22.4z"/>
		<path id="XMLID_124_" class="st0" d="M15.7,22.9l0.3-0.6h0.2l0.1,2.3H16c-0.2-0.6-0.4-1.1-0.6-1.4c-0.3-0.4-0.7-0.6-1.1-0.6
			c-0.5,0-0.9,0.2-1.2,0.6c-0.3,0.4-0.5,1.2-0.5,2.2c0,0.9,0.2,1.5,0.5,2c0.3,0.4,0.7,0.6,1.2,0.6c0.5,0,0.9-0.1,1.2-0.4
			c0.3-0.3,0.5-0.7,0.6-1.4h0.3c-0.1,0.7-0.3,1.2-0.7,1.6c-0.4,0.4-0.9,0.6-1.5,0.6c-0.5,0-0.9-0.1-1.3-0.4c-0.4-0.2-0.7-0.6-1-1
			c-0.2-0.5-0.4-0.9-0.4-1.5c0-0.6,0.1-1.1,0.4-1.6s0.6-0.9,0.9-1.1c0.4-0.3,0.8-0.4,1.2-0.4c0.2,0,0.5,0,0.7,0.1
			C15.2,22.5,15.4,22.6,15.7,22.9z"/>
		<path id="XMLID_126_" class="st0" d="M17.2,22.4h2.4v0.3h-0.4c-0.2,0-0.3,0-0.3,0.1c0,0.1-0.1,0.2-0.1,0.4V25h2.6v-1.8
			c0-0.2,0-0.4-0.1-0.4c0-0.1-0.2-0.1-0.3-0.1h-0.4v-0.3h2.4v0.3h-0.4c-0.1,0-0.2,0-0.2,0c0,0-0.1,0.1-0.1,0.1c0,0,0,0.2,0,0.3v4.1
			c0,0.2,0,0.3,0.1,0.4c0.1,0.1,0.2,0.1,0.4,0.1h0.4v0.3h-2.4v-0.3H21c0.2,0,0.3,0,0.3-0.1c0,0,0.1-0.2,0.1-0.4v-2h-2.6v2
			c0,0.2,0,0.3,0,0.4c0.1,0.1,0.2,0.1,0.3,0.1h0.4v0.3h-2.4v-0.3h0.5c0.1,0,0.1,0,0.2-0.1c0,0,0.1-0.1,0.1-0.1c0,0,0-0.2,0-0.3v-4.1
			c0-0.2,0-0.3-0.1-0.4c0-0.1-0.2-0.1-0.3-0.1h-0.4V22.4z"/>
		<path id="XMLID_128_" class="st0" d="M23.9,22.4h4.5l0.1,1.9h-0.3c-0.1-0.6-0.3-1-0.5-1.3s-0.5-0.4-0.9-0.4h-1.1
			c-0.1,0-0.2,0-0.2,0.1c0,0-0.1,0.1-0.1,0.2v2h0.5c0.3,0,0.5-0.1,0.6-0.3c0.2-0.2,0.3-0.5,0.3-0.9h0.3v2.7H27
			c0-0.4-0.1-0.8-0.3-0.9c-0.2-0.2-0.4-0.3-0.7-0.3h-0.4v2.3c0,0.1,0,0.1,0.1,0.2s0.1,0.1,0.3,0.1h0.9c1,0,1.5-0.6,1.7-1.8h0.3
			l-0.1,2.1h-4.7v-0.3h0.4c0.2,0,0.3,0,0.3-0.1c0.1-0.1,0.1-0.1,0.1-0.2V23c0-0.1,0-0.2-0.1-0.2c-0.1,0-0.1-0.1-0.3-0.1h-0.5V22.4z"
			/>
		<path id="XMLID_130_" class="st0" d="M29.3,22.4h1.9l1.7,4.5l1.6-4.5h2v0.3H36c-0.2,0-0.3,0-0.3,0.1c-0.1,0-0.1,0.1-0.1,0.3v4.5
			c0,0.1,0,0.2,0.1,0.2c0.1,0,0.2,0.1,0.4,0.1h0.4v0.3h-2.6v-0.3h0.5c0.1,0,0.2,0,0.3-0.1c0.1-0.1,0.1-0.1,0.1-0.2v-4.9l-1.9,5.4
			h-0.3l-2-5.4v4.2c0,0.2,0,0.4,0.1,0.6c0.1,0.1,0.2,0.2,0.3,0.3c0.1,0.1,0.3,0.1,0.6,0.1v0.3h-2.2v-0.3c0.4,0,0.6-0.1,0.7-0.2
			c0.1-0.1,0.2-0.4,0.2-0.7v-4c0-0.1,0-0.2-0.1-0.2c-0.1,0-0.2-0.1-0.3-0.1h-0.5V22.4z"/>
		<path id="XMLID_132_" class="st0" d="M36.9,22.4h2.6v0.3h-0.5c-0.2,0-0.3,0-0.4,0.1c-0.1,0.1-0.1,0.2-0.1,0.3v4.3
			c0,0.2,0,0.3,0.1,0.3c0.1,0.1,0.2,0.1,0.3,0.1h0.5v0.3h-2.6v-0.3h0.5c0.2,0,0.3,0,0.3-0.1c0.1-0.1,0.1-0.2,0.1-0.3v-4.3
			c0-0.2,0-0.3-0.1-0.3c-0.1-0.1-0.2-0.1-0.4-0.1h-0.4V22.4z"/>
		<path id="XMLID_134_" class="st0" d="M43.6,22.8l0.3-0.5h0.3l0,2.1H44c-0.2-0.6-0.4-1.1-0.7-1.4c-0.3-0.3-0.7-0.4-1.1-0.4
			c-0.3,0-0.6,0.1-0.8,0.3c-0.2,0.2-0.3,0.5-0.3,0.7c0,0.2,0,0.3,0.1,0.5c0.1,0.1,0.2,0.3,0.4,0.3c0.2,0.1,0.5,0.2,0.9,0.3
			c0.6,0.1,1.1,0.3,1.3,0.4c0.3,0.1,0.4,0.3,0.6,0.5c0.1,0.2,0.2,0.5,0.2,0.8c0,0.5-0.2,0.9-0.5,1.3c-0.3,0.3-0.8,0.5-1.3,0.5
			c-0.6,0-1.1-0.2-1.5-0.6l-0.4,0.5h-0.3V26h0.3c0.1,0.6,0.4,1.1,0.7,1.4c0.4,0.4,0.8,0.5,1.3,0.5c0.4,0,0.7-0.1,0.9-0.3
			c0.2-0.2,0.4-0.5,0.4-0.8c0-0.2,0-0.3-0.1-0.5c-0.1-0.1-0.2-0.3-0.4-0.3c-0.2-0.1-0.6-0.2-1.2-0.3c-0.6-0.1-1.1-0.3-1.3-0.5
			c-0.3-0.3-0.5-0.6-0.5-1.1c0-0.5,0.2-0.9,0.5-1.2c0.3-0.3,0.7-0.5,1.2-0.5c0.2,0,0.5,0,0.7,0.1C43.1,22.5,43.3,22.6,43.6,22.8z"/>
		<path id="XMLID_136_" class="st0" d="M45.2,22.4h4.7l0.1,2.2h-0.3c-0.2-1.3-0.6-1.9-1.4-1.9c-0.1,0-0.3,0-0.3,0.1
			C48,22.8,48,22.9,48,23v4.6c0,0.1,0,0.2,0.1,0.2c0.1,0,0.1,0.1,0.3,0.1h0.6v0.3h-2.7v-0.3h0.7c0.1,0,0.2,0,0.2-0.1
			s0.1-0.1,0.1-0.2V23c0-0.1,0-0.2-0.1-0.2c-0.1-0.1-0.2-0.1-0.3-0.1c-0.4,0-0.7,0.2-0.9,0.5c-0.2,0.3-0.4,0.8-0.4,1.4h-0.3
			L45.2,22.4z"/>
	</g>
	<g id="XMLID_1_">
		<path id="XMLID_7_" class="st0" d="M15.4,16.9v-0.2h1.3v0.2h-0.5v2.2h-0.2v-2.2H15.4z"/>
		<path id="XMLID_9_" class="st0" d="M17,16.6h0.2v1c0.1-0.1,0.2-0.2,0.3-0.3c0.1-0.1,0.2-0.1,0.4-0.1c0.1,0,0.3,0,0.4,0.1
			c0.1,0.1,0.2,0.2,0.2,0.3c0,0.1,0.1,0.3,0.1,0.5v0.9h-0.2v-0.9c0-0.2,0-0.3,0-0.4c0-0.1-0.1-0.2-0.2-0.3c-0.1-0.1-0.2-0.1-0.3-0.1
			c-0.1,0-0.3,0-0.4,0.1c-0.1,0.1-0.2,0.2-0.2,0.3c0,0.1,0,0.3,0,0.5v0.7H17V16.6z"/>
		<path id="XMLID_100_" class="st0" d="M20.6,18.5l0.2,0.1c-0.1,0.1-0.1,0.2-0.2,0.3c-0.1,0.1-0.2,0.1-0.3,0.2
			c-0.1,0-0.2,0.1-0.4,0.1c-0.3,0-0.5-0.1-0.7-0.3c-0.2-0.2-0.2-0.4-0.2-0.7c0-0.2,0.1-0.4,0.2-0.6c0.2-0.2,0.4-0.3,0.7-0.3
			c0.3,0,0.6,0.1,0.7,0.4c0.1,0.2,0.2,0.4,0.2,0.6h-1.6c0,0.2,0.1,0.4,0.2,0.5c0.1,0.1,0.3,0.2,0.5,0.2c0.1,0,0.2,0,0.3,0
			c0.1,0,0.2-0.1,0.2-0.1C20.5,18.7,20.6,18.6,20.6,18.5z M20.6,18c0-0.1-0.1-0.2-0.1-0.3c-0.1-0.1-0.1-0.1-0.2-0.2
			c-0.1,0-0.2-0.1-0.3-0.1c-0.2,0-0.3,0.1-0.5,0.2c-0.1,0.1-0.2,0.2-0.2,0.4H20.6z"/>
		<path id="XMLID_103_" class="st0" d="M23.9,18.7l0.2-0.1c0.1,0.3,0.3,0.4,0.5,0.4c0.1,0,0.2,0,0.2-0.1c0.1,0,0.1-0.1,0.2-0.2
			c0-0.1,0.1-0.1,0.1-0.2c0-0.1,0-0.2-0.1-0.2c-0.1-0.1-0.2-0.2-0.4-0.4c-0.2-0.2-0.3-0.3-0.4-0.3c-0.1-0.1-0.1-0.2-0.1-0.4
			c0-0.1,0-0.2,0.1-0.3s0.1-0.2,0.2-0.2c0.1-0.1,0.2-0.1,0.3-0.1c0.1,0,0.2,0,0.3,0.1c0.1,0.1,0.2,0.2,0.3,0.3l-0.2,0.2
			C25,17,25,17,24.9,16.9c-0.1,0-0.1-0.1-0.2-0.1c-0.1,0-0.2,0-0.2,0.1s-0.1,0.1-0.1,0.2c0,0.1,0,0.1,0,0.2c0,0,0.1,0.1,0.1,0.2
			c0,0,0.1,0.1,0.3,0.2c0.2,0.2,0.4,0.3,0.4,0.4c0.1,0.1,0.1,0.2,0.1,0.4c0,0.2-0.1,0.3-0.2,0.5c-0.1,0.1-0.3,0.2-0.5,0.2
			c-0.1,0-0.3,0-0.4-0.1C24.2,19,24,18.9,23.9,18.7z"/>
		<path id="XMLID_105_" class="st0" d="M25.8,16.6h0.2v2.5h-0.2V16.6z"/>
		<path id="XMLID_107_" class="st0" d="M28.1,18.5l0.2,0.1c-0.1,0.1-0.1,0.2-0.2,0.3c-0.1,0.1-0.2,0.1-0.3,0.2
			c-0.1,0-0.2,0.1-0.4,0.1c-0.3,0-0.5-0.1-0.7-0.3c-0.2-0.2-0.2-0.4-0.2-0.7c0-0.2,0.1-0.4,0.2-0.6c0.2-0.2,0.4-0.3,0.7-0.3
			c0.3,0,0.6,0.1,0.7,0.4c0.1,0.2,0.2,0.4,0.2,0.6h-1.6c0,0.2,0.1,0.4,0.2,0.5c0.1,0.1,0.3,0.2,0.5,0.2c0.1,0,0.2,0,0.3,0
			c0.1,0,0.2-0.1,0.2-0.1C27.9,18.7,28,18.6,28.1,18.5z M28.1,18c0-0.1-0.1-0.2-0.1-0.3c-0.1-0.1-0.1-0.1-0.2-0.2
			c-0.1,0-0.2-0.1-0.3-0.1c-0.2,0-0.3,0.1-0.5,0.2c-0.1,0.1-0.2,0.2-0.2,0.4H28.1z"/>
		<path id="XMLID_110_" class="st0" d="M30.3,18.5l0.2,0.1c-0.1,0.1-0.1,0.2-0.2,0.3c-0.1,0.1-0.2,0.1-0.3,0.2
			c-0.1,0-0.2,0.1-0.4,0.1c-0.3,0-0.5-0.1-0.7-0.3c-0.2-0.2-0.2-0.4-0.2-0.7c0-0.2,0.1-0.4,0.2-0.6c0.2-0.2,0.4-0.3,0.7-0.3
			c0.3,0,0.6,0.1,0.7,0.4c0.1,0.2,0.2,0.4,0.2,0.6h-1.6c0,0.2,0.1,0.4,0.2,0.5c0.1,0.1,0.3,0.2,0.5,0.2c0.1,0,0.2,0,0.3,0
			c0.1,0,0.2-0.1,0.2-0.1C30.1,18.7,30.2,18.6,30.3,18.5z M30.3,18c0-0.1-0.1-0.2-0.1-0.3c-0.1-0.1-0.1-0.1-0.2-0.2
			c-0.1,0-0.2-0.1-0.3-0.1c-0.2,0-0.3,0.1-0.5,0.2C29,17.7,29,17.9,28.9,18H30.3z"/>
		<path id="XMLID_113_" class="st0" d="M31,17.3h0.2v0.3c0.1-0.1,0.2-0.2,0.3-0.3c0.1-0.1,0.3-0.1,0.4-0.1c0.3,0,0.5,0.1,0.7,0.3
			c0.2,0.2,0.3,0.4,0.3,0.7c0,0.3-0.1,0.5-0.3,0.7c-0.2,0.2-0.4,0.3-0.7,0.3c-0.1,0-0.3,0-0.4-0.1c-0.1-0.1-0.2-0.1-0.3-0.3v1H31
			V17.3z M31.9,17.5c-0.2,0-0.4,0.1-0.5,0.2c-0.1,0.1-0.2,0.3-0.2,0.5c0,0.1,0,0.3,0.1,0.4c0.1,0.1,0.1,0.2,0.3,0.3
			c0.1,0.1,0.2,0.1,0.4,0.1c0.1,0,0.2,0,0.4-0.1c0.1-0.1,0.2-0.2,0.3-0.3c0.1-0.1,0.1-0.2,0.1-0.4c0-0.1,0-0.3-0.1-0.4
			c-0.1-0.1-0.2-0.2-0.3-0.3C32.2,17.5,32,17.5,31.9,17.5z"/>
		<path id="XMLID_116_" class="st0" d="M33.1,17.3h0.2l0.6,1.4l0.6-1.4h0.2l-1.1,2.5h-0.2l0.3-0.8L33.1,17.3z"/>
	</g>
	<circle id="XMLID_99_" class="st2" cx="4.1" cy="14.7" r="0.4"/>
	<circle id="XMLID_98_" class="st2" cx="46.5" cy="15" r="0.4"/>
	<g id="XMLID_2_">
		<path id="XMLID_97_" class="st3" d="M39.4,34.5C39.4,34.5,39.4,34.5,39.4,34.5C39.3,34.5,39.4,34.5,39.4,34.5z"/>
		<polygon id="XMLID_96_" class="st3" points="38.7,34.4 38.7,34.4 38.6,34.4 		"/>
		<path id="XMLID_95_" class="st3" d="M38.1,34.4c0.1,0,0.2,0,0.3,0l0,0l0.1,0C38.3,34.4,38.1,34.4,38.1,34.4z"/>
		<path id="XMLID_94_" class="st3" d="M37.7,34.4C37.7,34.4,37.6,34.4,37.7,34.4C37.8,34.4,37.8,34.4,37.7,34.4
			C37.8,34.4,37.7,34.4,37.7,34.4z"/>
		<path id="XMLID_93_" class="st3" d="M37.8,34.4C37.8,34.4,37.7,34.4,37.8,34.4L37.8,34.4z"/>
		<path id="XMLID_92_" class="st3" d="M37.5,34.4L37.5,34.4C37.5,34.4,37.5,34.4,37.5,34.4C37.4,34.4,37.4,34.4,37.5,34.4z"/>
		<path id="XMLID_91_" class="st3" d="M37.4,34.4L37.4,34.4C37.4,34.4,37.4,34.4,37.4,34.4z"/>
		<path id="XMLID_90_" class="st3" d="M37.5,34.4L37.5,34.4C37.4,34.4,37.4,34.4,37.5,34.4C37.5,34.4,37.5,34.4,37.5,34.4z"/>
		<path id="XMLID_89_" class="st3" d="M37.6,34.4C37.6,34.4,37.7,34.4,37.6,34.4C37.8,34.4,37.7,34.4,37.6,34.4z"/>
		<path id="XMLID_88_" class="st3" d="M38,34.4L38,34.4l0.1,0C38.1,34.4,38,34.4,38,34.4z"/>
		<path id="XMLID_87_" class="st3" d="M36.9,34.3C36.9,34.4,36.9,34.4,36.9,34.3l0.1,0C37,34.4,36.9,34.4,36.9,34.3z"/>
		<path id="XMLID_86_" class="st3" d="M37,34.4L37,34.4C36.9,34.4,37,34.4,37,34.4z"/>
		<polygon id="XMLID_85_" class="st3" points="37.4,34.4 37.5,34.4 37.3,34.4 		"/>
		<polygon id="XMLID_84_" class="st3" points="36.5,34.3 36.6,34.3 36.5,34.3 		"/>
		<path id="XMLID_83_" class="st3" d="M36.3,34.3C36.3,34.3,36.2,34.3,36.3,34.3c-0.1,0-0.1,0-0.2,0C36.2,34.3,36.2,34.3,36.3,34.3z
			"/>
		<path id="XMLID_82_" class="st3" d="M36,34.3C36,34.3,36.1,34.3,36,34.3C36.1,34.3,36.1,34.3,36,34.3z"/>
		<path id="XMLID_81_" class="st3" d="M36.7,34.4C36.7,34.4,36.7,34.4,36.7,34.4L36.7,34.4C36.7,34.4,36.7,34.4,36.7,34.4z"/>
		<path id="XMLID_80_" class="st3" d="M36.7,34.4L36.7,34.4C36.6,34.4,36.6,34.4,36.7,34.4C36.6,34.4,36.6,34.4,36.7,34.4z"/>
		<path id="XMLID_79_" class="st3" d="M36.7,34.4L36.7,34.4C36.7,34.4,36.7,34.4,36.7,34.4z"/>
		<path id="XMLID_78_" class="st3" d="M37.1,34.4C37.1,34.4,36.9,34.4,37.1,34.4C37.1,34.4,37,34.4,37.1,34.4z"/>
		<path id="XMLID_77_" class="st3" d="M36.7,34.4l0.1,0c0,0,0,0,0,0L36.7,34.4z"/>
		<polygon id="XMLID_76_" class="st3" points="36.7,34.4 36.7,34.4 36.7,34.4 		"/>
		<path id="XMLID_75_" class="st3" d="M36.2,34.4c0,0-0.1,0-0.1,0C36.1,34.4,36.2,34.4,36.2,34.4C36.2,34.4,36.3,34.4,36.2,34.4z"/>
		<path id="XMLID_74_" class="st3" d="M36.4,34.4L36.4,34.4C36.4,34.4,36.4,34.4,36.4,34.4z"/>
		<polygon id="XMLID_73_" class="st3" points="35.5,34.3 35.5,34.3 35.5,34.3 		"/>
		<path id="XMLID_72_" class="st3" d="M36.2,34.4C36.3,34.4,36.3,34.4,36.2,34.4C36.3,34.4,36.3,34.4,36.2,34.4
			C36.2,34.4,36.2,34.4,36.2,34.4z"/>
		<path id="XMLID_71_" class="st3" d="M35.9,34.3C35.9,34.3,35.9,34.3,35.9,34.3C35.9,34.3,35.9,34.3,35.9,34.3z"/>
		<path id="XMLID_70_" class="st3" d="M36.4,34.4L36.4,34.4C36.4,34.4,36.4,34.4,36.4,34.4z"/>
		<path id="XMLID_69_" class="st3" d="M36.4,34.4C36.4,34.4,36.4,34.4,36.4,34.4C36.4,34.4,36.4,34.4,36.4,34.4
			C36.4,34.4,36.4,34.4,36.4,34.4z"/>
		<path id="XMLID_68_" class="st3" d="M35.3,34.5c0,0,0.1,0,0.2,0c0.1,0,0-0.1-0.1-0.1c0,0,0,0-0.1,0c0,0,0.2,0,0.1,0
			C35.4,34.4,35.4,34.4,35.3,34.5c0.1-0.1-0.1,0-0.1,0L35.3,34.5C35.4,34.5,35.3,34.5,35.3,34.5z"/>
		<path id="XMLID_67_" class="st3" d="M35.7,34.4L35.7,34.4c0,0,0,0-0.1,0c-0.1,0-0.1,0-0.1,0L35.7,34.4L35.7,34.4z"/>
		<path id="XMLID_66_" class="st3" d="M35.9,34.4C35.9,34.4,35.8,34.4,35.9,34.4C36,34.4,36,34.4,35.9,34.4
			C35.8,34.4,36.1,34.4,35.9,34.4c0,0,0.1,0,0.1,0C36,34.4,36,34.3,35.9,34.4C35.9,34.3,36,34.3,35.9,34.4L35.9,34.4L35.9,34.4
			C36,34.3,36,34.4,35.9,34.4C36,34.3,35.9,34.3,35.9,34.4C35.9,34.4,35.9,34.4,35.9,34.4C35.9,34.4,35.9,34.4,35.9,34.4L35.9,34.4
			L35.9,34.4l-0.2,0C35.8,34.4,35.8,34.4,35.9,34.4z"/>
		<path id="XMLID_65_" class="st3" d="M36.9,34.5C36.9,34.5,36.9,34.4,36.9,34.5C36.9,34.4,36.9,34.5,36.9,34.5z"/>
		<path id="XMLID_64_" class="st3" d="M36.9,34.4C36.9,34.4,36.9,34.4,36.9,34.4C37,34.4,36.9,34.4,36.9,34.4
			C37,34.4,37,34.4,36.9,34.4L36.9,34.4C36.9,34.4,36.7,34.4,36.9,34.4C36.8,34.4,36.8,34.4,36.9,34.4z"/>
		<path id="XMLID_63_" class="st3" d="M36.4,34.4l-0.2,0L36.4,34.4L36.4,34.4C36.4,34.4,36.4,34.4,36.4,34.4z"/>
		<polygon id="XMLID_62_" class="st3" points="35.5,34.3 35.5,34.3 35.4,34.3 		"/>
		<polygon id="XMLID_61_" class="st3" points="35.3,34.3 35.3,34.3 35.2,34.3 		"/>
		<path id="XMLID_60_" class="st3" d="M23.1,34.7L23.1,34.7C23,34.7,23.1,34.7,23.1,34.7z"/>
		<path id="XMLID_59_" class="st3" d="M23.4,34.7L23.4,34.7C23.4,34.7,23.4,34.7,23.4,34.7z"/>
		<path id="XMLID_58_" class="st3" d="M30,34.3c-0.1,0-0.2-0.1-0.1,0l0,0C29.9,34.2,29.9,34.2,30,34.3z"/>
		<path id="XMLID_57_" class="st3" d="M26.3,34.5L26.3,34.5C26.4,34.5,26.4,34.5,26.3,34.5C26.4,34.4,26.3,34.5,26.3,34.5z"/>
		<path id="XMLID_56_" class="st3" d="M26.3,34.6L26.3,34.6C26.2,34.6,26.2,34.6,26.3,34.6z"/>
		<path id="XMLID_55_" class="st3" d="M21.1,34.7L21.1,34.7C21.2,34.7,21.1,34.7,21.1,34.7z"/>
		<path id="XMLID_54_" class="st3" d="M33.1,34.3c-0.1,0-0.1,0-0.2,0C33,34.3,33,34.3,33.1,34.3z"/>
		<path id="XMLID_53_" class="st3" d="M23.2,34.3C23.2,34.3,23.2,34.3,23.2,34.3C23.2,34.3,23.2,34.3,23.2,34.3z"/>
		<path id="XMLID_52_" class="st3" d="M32.7,34.3C32.7,34.3,32.7,34.3,32.7,34.3c0.1,0,0.1,0,0.2,0C32.8,34.3,32.8,34.3,32.7,34.3z"
			/>
		<path id="XMLID_51_" class="st3" d="M14.1,34.5C14.1,34.5,14.1,34.5,14.1,34.5C14.1,34.5,14.1,34.5,14.1,34.5z"/>
		<path id="XMLID_50_" class="st3" d="M12.1,34.4C12.1,34.4,12.1,34.4,12.1,34.4C12.1,34.4,12.1,34.4,12.1,34.4z"/>
		<path id="XMLID_49_" class="st3" d="M34.4,34.3C34.4,34.3,34.4,34.3,34.4,34.3L34.4,34.3z"/>
		<path id="XMLID_48_" class="st3" d="M34.6,34.4C34.6,34.4,34.6,34.4,34.6,34.4C34.6,34.4,34.6,34.4,34.6,34.4z"/>
		<path id="XMLID_47_" class="st3" d="M32.3,34.5L32.3,34.5C32.3,34.5,32.3,34.5,32.3,34.5z"/>
		<path id="XMLID_46_" class="st3" d="M34.5,34.3L34.5,34.3C34.4,34.3,34.4,34.3,34.5,34.3z"/>
		<path id="XMLID_45_" class="st3" d="M34.5,34.3C34.5,34.3,34.5,34.3,34.5,34.3C34.5,34.3,34.5,34.3,34.5,34.3z"/>
		<path id="XMLID_44_" class="st3" d="M34.3,34.3C34.4,34.3,34.4,34.3,34.3,34.3C34.4,34.3,34.4,34.3,34.3,34.3
			C34.4,34.3,34.4,34.3,34.3,34.3z"/>
		<path id="XMLID_43_" class="st3" d="M17.9,34.5C17.9,34.5,17.9,34.5,17.9,34.5C17.8,34.6,17.8,34.5,17.9,34.5z"/>
		<polygon id="XMLID_42_" class="st3" points="28.8,34.6 28.8,34.6 28.8,34.6 		"/>
		<path id="XMLID_41_" class="st3" d="M28.6,34.7c0.1,0,0.1,0,0.2,0l-0.1-0.1L28.6,34.7z"/>
		<path id="XMLID_34_" class="st3" d="M22.2,34.7l0.1,0c-0.1,0.1-0.2,0-0.1,0.1c0-0.1,0.4,0,0.5-0.1l0.1,0c0,0,0,0,0,0
			c0.1,0.1,0.1-0.1,0.3-0.1c0.1,0,0.1,0,0.1,0l0.1,0c0,0,0,0,0,0l0.2,0l0,0c0,0,0.1,0,0.1-0.1c0.1,0,0,0,0,0l0.1,0
			c0.1,0-0.1,0.1-0.1,0.1c0.1,0.1,0.1,0,0.4,0l-0.1,0c0.1,0.1,0.2,0,0.3,0.1c0,0-0.3-0.1-0.1-0.1c0,0,0.1,0,0.2,0c0,0,0.1,0,0.2,0
			l0,0.1c0.1,0,0.1,0,0.1-0.1c0.1,0,0.1,0,0.2,0.1c0.2,0-0.1-0.1,0.1-0.1c0.1,0,0.2,0,0.4,0c0.1,0,0,0,0,0.1l0.1,0c0,0,0,0,0,0
			c0.1,0,0-0.1,0.1-0.1c0-0.1,0.2,0.1,0.4,0c0,0,0,0,0,0.1c0.2,0,0.2,0,0.3-0.1l0.1,0c-0.1,0,0-0.1,0.1-0.1c0,0-0.1,0-0.1,0l0.2,0
			c0,0,0,0,0,0.1c0,0,0,0,0,0c0.1,0,0,0.1,0,0.1c0,0,0,0-0.1,0c0,0-0.1,0.1-0.1,0.1c0,0,0,0,0.1,0c0,0,0,0,0,0c0,0,0,0,0.1,0l0,0.1
			l0,0l0.2,0c0.2-0.1,0.3-0.2,0.6-0.2c-0.1,0,0,0.1,0,0.1c-0.1-0.1-0.2,0-0.4,0c0.1,0,0.1,0,0,0l0.3-0.1c0,0,0.1,0,0.1,0.1
			c0-0.1,0.2-0.1,0.3-0.1c0,0,0,0.1-0.1,0.1c0.1,0.1,0.2-0.1,0.3,0c0,0,0,0-0.1,0c0.1,0,0.2,0,0.2,0l0,0c0.2,0,0.6,0,0.7-0.1
			c0,0,0,0.1,0,0.1l0.4-0.2c0,0.1,0.1,0.2-0.1,0.2c0,0,0.1,0,0.2,0c0,0-0.1-0.1,0-0.1c0.1,0.1,0.1,0,0.2,0.1c0,0,0-0.1,0.1-0.1
			c0,0,0,0.1,0,0.1l0.2-0.1c0,0,0,0.1,0,0.1c0,0,0.2,0,0.2,0l-0.1,0c0.2,0,0.2-0.1,0.4-0.1c0,0-0.1,0.1,0,0.1c0.1,0,0.2-0.2,0.4-0.3
			l0,0l0.1,0c-0.1,0.1-0.4,0.2-0.5,0.3c0.1,0,0,0,0.1,0c0,0-0.1,0-0.1,0l0.3,0c0-0.1,0.2-0.1,0.2-0.1l-0.3,0.1
			c0-0.1,0.2-0.2,0.4-0.1c0.1,0,0,0.1,0,0.1c0,0,0.2,0,0.2,0l-0.1,0c0.1,0,0.2-0.1,0.3,0c0,0,0.1,0.1,0.1,0c-0.1-0.1-0.1-0.2,0-0.3
			c0,0,0.2,0.1,0.3,0.1c0.1,0-0.1,0.1-0.1,0.1c0,0,0,0,0.1,0c0,0,0,0,0.1,0c0,0,0.2,0,0.1,0c0.1,0,0.1,0,0.2,0c0,0,0.1-0.1,0.2-0.1
			c0,0,0,0,0,0c0.2,0,0.3,0,0.5,0c0,0,0.1,0,0.1,0c0,0,0.1,0,0.1,0c0.1,0-0.1,0,0,0.1c0,0,0.2,0,0.2-0.1c0,0-0.2,0-0.3,0
			c0-0.1,0.2-0.1,0.4-0.1c0.2,0,0.1,0,0.1,0c0.3,0,0.3-0.1,0.5,0c0.1,0,0,0.1,0,0.1c-0.1,0-0.2,0-0.3,0l0.1,0c0,0-0.1,0-0.2,0
			c0.1,0,0.5,0,0.8,0c0,0,0.1,0,0.1,0l-0.1,0c-0.1,0,0.1,0,0,0c0.1,0,0.2,0,0.4,0l0,0c0,0-0.1,0-0.1,0c0.1,0,0.2,0,0.3,0l-0.1,0
			c0.1,0,0.2,0,0.4,0c-0.1,0,0,0-0.1,0c0.1,0-0.3,0-0.2,0c-0.1,0-0.2,0-0.3-0.1c0,0,0,0-0.1,0c0,0,0,0,0,0c0,0,0,0,0,0l0,0
			c0,0,0,0,0,0c0,0,0,0,0.1,0c-0.1,0-0.2,0-0.3,0c-0.1,0,0,0,0,0l-0.1,0c0,0-0.2,0,0-0.1l-0.1,0c-0.1,0-0.2,0-0.3,0
			c-0.1,0-0.2,0-0.1,0l-0.2,0l0,0c-0.2,0-0.4,0-0.7,0c-0.1,0-0.1,0-0.3,0l0,0c-0.1,0-0.3,0-0.3,0c-0.1-0.1-0.4,0-0.6,0l0,0
			c-0.1,0-0.2,0-0.4,0l0,0c-0.1,0-0.3,0-0.5,0c0,0,0.1,0,0.1,0c-0.2-0.1-0.5,0.1-0.7,0c0,0-0.1,0-0.1,0l0,0c0,0,0,0,0,0
			c0,0,0,0-0.1,0c0,0,0,0,0.1,0c0,0-0.1,0-0.2,0l0,0c0,0,0,0,0,0c-0.1,0,0,0,0,0c0,0-0.1,0-0.1,0c0-0.1-0.2,0-0.2,0
			c0,0-0.3,0-0.3,0.1c0,0,0,0,0,0c-0.1,0-0.1,0-0.2,0l0-0.1l-0.1,0.1c-0.1,0-0.1-0.1,0-0.1c-0.2,0.1-0.2,0-0.3,0.1l0,0
			c-0.1,0-0.2,0-0.2,0c-0.1-0.1-0.7,0-1-0.1c0.1,0.1-0.2,0-0.2,0c0,0-0.1,0,0-0.1c-0.2,0-0.3,0-0.4,0c0,0,0,0,0,0c0,0-0.1,0-0.1,0
			c0,0,0,0,0.1,0c-0.2,0-0.2,0.1-0.2,0.1c-0.1,0-0.1,0-0.2,0c0,0-0.1,0,0-0.1c-0.1,0-0.4,0-0.4,0c0,0-0.1,0-0.1,0
			c-0.1,0-0.2,0-0.3,0l0,0c-0.1,0.1-0.1,0-0.2,0l0,0c-0.3,0-0.1,0-0.4,0l0,0c0,0.1-0.2-0.1-0.4,0l0.1,0c-0.1,0-0.2-0.1-0.3-0.1
			c0,0,0,0,0.1,0c-0.2-0.1,0,0.1-0.2,0.1c0,0,0-0.1-0.1-0.1c-0.1,0-0.3,0.1-0.5,0c0,0,0.1,0,0,0.1c-0.1,0-0.3-0.1-0.4,0c0,0,0,0,0,0
			c-0.1,0-0.3,0-0.3,0.1c-0.1-0.1-0.5,0.1-0.5-0.1l-0.3,0l0,0c-0.2,0-0.2,0-0.3,0.1c0,0,0,0,0,0c-0.3,0-0.3,0-0.5,0l0,0
			c-0.1,0-0.4-0.1-0.6,0c0,0,0,0,0,0c-0.3,0-0.7-0.1-0.8,0l-0.2,0c0.2,0,0,0.1,0.1,0.1c-0.1,0-0.2,0-0.1,0l0,0c0-0.1-0.3,0-0.3-0.1
			c-0.5,0-0.9,0-1.4,0l0.1,0l-0.2,0c0,0-0.1,0,0.1,0c-0.1,0-0.2,0-0.2,0c-0.2,0,0.1-0.1,0-0.1l-0.1,0l0,0c-0.1,0-0.1,0-0.2,0
			c-0.1,0,0,0-0.1,0c0,0,0,0-0.1,0l-0.2,0l0.1,0c-0.1,0-0.2,0-0.1,0c-0.1-0.1-0.7,0-0.8,0c-0.1,0-0.2,0-0.4,0c0,0,0.1,0-0.1,0
			c0-0.1-0.2,0-0.3-0.1c0.1,0-0.4,0-0.2,0.1c-0.1,0,0,0-0.1,0c-0.3,0-0.6,0-0.9,0c0,0,0,0,0,0l-0.2,0c-0.1,0-0.1,0-0.2,0
			c0,0,0,0,0,0c-0.6,0-1.2,0-1.9,0c0.1,0,0,0,0,0c0,0,0,0,0,0l-0.3,0c0,0-0.3,0-0.3,0l0.1,0c-0.1,0,0.2,0,0.1,0c0.1,0,0.3,0,0.5,0
			c0,0,0,0,0,0c0.1,0,0.1,0,0.2,0l0,0c0.3,0,0.5,0,0.8,0l0,0c0.1,0,0.1,0,0.1,0c0.1,0-0.2,0-0.1,0c0.1,0,0.5,0,0.6,0
			c0.1,0,0,0,0.1,0l0,0l0,0c0.1,0,0.1,0,0.1,0c0,0-0.1,0-0.1,0c0.1,0,0.3,0,0.3,0l-0.1,0c0.3,0,0.7,0,1,0l0,0c0.2,0,0.2,0,0.5,0l0,0
			c0.1,0,0.1,0,0.2,0c-0.1,0,0.1,0,0,0c0.3,0,0.1,0,0.3-0.1l0,0c0.1,0,0.1,0,0.2,0c-0.1,0,0.1,0,0,0.1c0.3,0.1,0.4,0,0.5,0
			c0.1-0.1-0.2,0-0.2,0c-0.1,0,0.1,0,0.2,0c0.1,0,0.1,0.1,0.4,0.1c0,0,0,0,0,0c0.1,0,0.2,0,0.3,0c0.1,0,0.1,0,0.1,0l-0.2,0
			c0.1,0,0.2-0.1,0.4,0c0,0-0.1,0-0.1,0c0.1,0,0.1,0,0.2,0c0,0.1-0.2,0-0.4,0c0.1,0,0.2,0,0.2,0c0.1-0.1,0.2,0,0.4,0l0,0
			c0,0,0.1,0,0.1,0l-0.1,0c0.1,0,0.2,0,0.3,0c-0.2,0-0.1,0-0.2-0.1c0.3,0,0.2,0.1,0.5,0.1c0,0-0.2,0-0.1,0c0.1,0,0.1,0,0.2,0
			c0.2,0,0,0,0.1-0.1c0.1,0,0.1,0,0.2,0l0,0c0.3,0,0.1-0.1,0.3,0l-0.1,0l0.1,0l0,0c0.1,0,0.2,0,0.3,0c0,0,0-0.1,0.1-0.1
			c0.1,0,0,0,0.1,0c0,0-0.1,0.1-0.1,0c0,0,0,0,0,0c0.1,0,0.2,0,0.3,0c0,0,0,0-0.1,0l0.2,0c0,0,0,0,0,0c0,0,0.1,0,0.1,0
			c0,0,0,0.1-0.1,0.1l0.2,0c0,0,0.1,0,0.1,0c0.1,0,0.3-0.1,0.5,0c0,0,0,0,0.1,0c0.2,0,0.3,0,0.5,0l0.1,0.1c0.1,0-0.1-0.1,0.1-0.1
			c0.2,0,0.1,0.1,0.1,0.1c0.1,0,0.2-0.1,0.4,0C22.3,34.7,22.3,34.7,22.2,34.7z M23.9,34.6c0,0-0.1,0-0.1,0
			C23.9,34.6,23.9,34.6,23.9,34.6z M26.6,34.5c0,0-0.1,0-0.1,0C26.5,34.5,26.5,34.5,26.6,34.5z M33.9,34.3L33.9,34.3
			C33.8,34.3,33.8,34.3,33.9,34.3z M34.1,34.3C34.1,34.3,34.1,34.3,34.1,34.3C34,34.3,34,34.3,34.1,34.3C34,34.3,34,34.3,34.1,34.3z
			 M17.4,34.3L17.4,34.3C17.3,34.4,17.4,34.3,17.4,34.3z"/>
		<path id="XMLID_33_" class="st3" d="M26.3,34.6C26.3,34.6,26.3,34.6,26.3,34.6C26.2,34.6,26.2,34.6,26.3,34.6z"/>
		<polygon id="XMLID_32_" class="st3" points="21.1,34.7 21.1,34.7 21.1,34.7 		"/>
		<path id="XMLID_31_" class="st3" d="M31.6,34.6C31.6,34.6,31.6,34.6,31.6,34.6C31.6,34.6,31.6,34.6,31.6,34.6z"/>
		<path id="XMLID_30_" class="st3" d="M34.9,34.3L34.9,34.3C34.8,34.3,34.8,34.3,34.9,34.3C34.9,34.3,34.8,34.3,34.9,34.3z"/>
		<path id="XMLID_29_" class="st3" d="M35.7,34.5C35.8,34.5,35.8,34.5,35.7,34.5L35.7,34.5C35.7,34.4,35.7,34.5,35.7,34.5z"/>
		<path id="XMLID_28_" class="st3" d="M35,34.4c0,0,0.1,0,0.1,0l0,0C35.1,34.4,35,34.4,35,34.4z"/>
		<path id="XMLID_27_" class="st3" d="M35.1,34.4C35.1,34.4,35.2,34.4,35.1,34.4C35.2,34.4,35.2,34.4,35.1,34.4z"/>
		<path id="XMLID_26_" class="st3" d="M34.2,34.3C34.3,34.3,34.3,34.3,34.2,34.3C34.3,34.3,34.1,34.3,34.2,34.3z"/>
		<polygon id="XMLID_25_" class="st3" points="35,34.5 35,34.4 35,34.5 		"/>
		<path id="XMLID_24_" class="st3" d="M34.5,34.4l0.1,0c0,0,0,0,0,0C34.5,34.4,34.5,34.4,34.5,34.4z"/>
		<path id="XMLID_23_" class="st3" d="M34.6,34.4C34.6,34.4,34.7,34.4,34.6,34.4C34.7,34.4,34.6,34.4,34.6,34.4z"/>
		<polygon id="XMLID_22_" class="st3" points="34.9,34.5 34.8,34.5 34.8,34.5 		"/>
		<path id="XMLID_21_" class="st3" d="M33.3,34.4l-0.1,0C33.1,34.4,33.2,34.5,33.3,34.4C33.2,34.4,33.3,34.4,33.3,34.4z"/>
		<path id="XMLID_20_" class="st3" d="M33.6,34.5C33.6,34.5,33.6,34.5,33.6,34.5L33.6,34.5L33.6,34.5z"/>
		<path id="XMLID_19_" class="st3" d="M33.3,34.5C33.3,34.5,33.1,34.6,33.3,34.5C33.3,34.5,33.4,34.5,33.3,34.5z"/>
		<polygon id="XMLID_18_" class="st3" points="31.5,34.5 31.5,34.5 31.5,34.4 		"/>
		<path id="XMLID_17_" class="st3" d="M29.8,34.7c0.1,0,0-0.1,0.2,0C30,34.6,29.9,34.6,29.8,34.7C29.9,34.6,29.8,34.6,29.8,34.7z"/>
		<path id="XMLID_16_" class="st3" d="M29.9,34.6C30,34.6,30,34.6,29.9,34.6C30,34.6,29.9,34.6,29.9,34.6z"/>
		<polygon id="XMLID_15_" class="st3" points="11.7,34.4 11.6,34.4 11.7,34.4 		"/>
		<path id="XMLID_14_" class="st3" d="M11.6,34.5L11.6,34.5L11.6,34.5C11.5,34.5,11.5,34.5,11.6,34.5z"/>
		<path id="XMLID_13_" class="st3" d="M24.2,34.8L24.2,34.8C24.2,34.7,24.2,34.7,24.2,34.8L24.2,34.8z"/>
		<polygon id="XMLID_12_" class="st3" points="22.9,34.7 23,34.7 22.9,34.7 		"/>
		<path id="XMLID_11_" class="st3" d="M21.9,34.8c0,0,0.1,0,0.1,0C21.9,34.8,21.9,34.7,21.9,34.8z"/>
	</g>
</g>
</svg>
