<?xml version="1.0" encoding="utf-8"?>
<!-- Generator: Adobe Illustrator 19.0.0, SVG Export Plug-In . SVG Version: 6.00 Build 0)  -->
<svg version="1.1" id="Layer_1" xmlns="http://www.w3.org/2000/svg" xmlns:xlink="http://www.w3.org/1999/xlink" x="0px" y="0px"
	 viewBox="133 -20 765.8 768" style="enable-background:new 133 -20 765.8 768;" xml:space="preserve">
<style type="text/css">
	.st0{fill:#2B2867;}
	.st1{fill:#FFFFFF;}
</style>
<g>
	<circle id="XMLID_34_" class="st0" cx="515.9" cy="364.5" r="363.1"/>
	<g id="XMLID_19_">
		<path id="XMLID_31_" class="st1" d="M331.7,303.8h33.7c27.7,0,42.9,11.9,43.6,43.6v39c-1.3,31.7-16.5,43.6-43.6,43.6h-33.7V303.8z
			 M355.5,408.1h8.6c13.2,0,21.1-5.9,21.1-25.1v-33c0-17.8-5.9-25.1-21.1-25.1h-8.6V408.1z"/>
		<path id="XMLID_29_" class="st1" d="M429.4,416.7L429.4,416.7c0-6.6,5.3-12.5,12.5-12.5l0,0c6.6,0,12.5,5.3,12.5,12.5l0,0
			c0,6.6-5.3,12.5-12.5,12.5l0,0C434.7,429.2,429.4,423.9,429.4,416.7z"/>
		<path id="XMLID_26_" class="st1" d="M475,344c0-31,16.5-42.3,39.6-42.3c23.1,0,39.6,11.2,39.6,42.3v44.9c0,31-16.5,42.3-39.6,42.3
			c-23.1,0-39.6-11.2-39.6-42.3V344z M498.7,392.2c0,13.9,5.9,17.8,15.8,17.8c9.2,0,15.8-4,15.8-17.8v-50.8
			c0-13.9-5.9-17.8-15.8-17.8c-9.2,0-15.8,4-15.8,17.8V392.2z"/>
		<path id="XMLID_24_" class="st1" d="M574.7,416.7L574.7,416.7c0-6.6,5.3-12.5,12.5-12.5l0,0c6.6,0,12.5,5.3,12.5,12.5l0,0
			c0,6.6-5.3,12.5-12.5,12.5l0,0C579.9,429.2,574.7,423.9,574.7,416.7z"/>
		<path id="XMLID_22_" class="st1" d="M694.8,303.8v21.1h-27.7v104.3h-23.8V324.9h-27.7v-21.1H694.8z"/>
		<path id="XMLID_20_" class="st1" d="M696.8,416.7L696.8,416.7c0-6.6,5.3-12.5,12.5-12.5l0,0c6.6,0,12.5,5.3,12.5,12.5l0,0
			c0,6.6-5.3,12.5-12.5,12.5l0,0C702.7,429.2,696.8,423.9,696.8,416.7z"/>
	</g>
</g>
</svg>
