<?xml version="1.0" encoding="utf-8"?>
<!-- Generator: Adobe Illustrator 16.0.4, SVG Export Plug-In . SVG Version: 6.00 Build 0)  -->
<!DOCTYPE svg PUBLIC "-//W3C//DTD SVG 1.1//EN" "http://www.w3.org/Graphics/SVG/1.1/DTD/svg11.dtd">
<svg version="1.1" id="Layer_1" xmlns="http://www.w3.org/2000/svg" xmlns:xlink="http://www.w3.org/1999/xlink" x="0px" y="0px"
	 width="595.28px" height="264px" viewBox="0 0 595.28 264" enable-background="new 0 0 595.28 264" xml:space="preserve">
<g>
	<path fill="none" stroke="#ED1C24" stroke-width="0.2488" stroke-miterlimit="10" d="M41.818,87.451"/>
	<path fill="none" stroke="#ED1C24" stroke-width="0.2488" stroke-miterlimit="10" d="M110.213,37.458"/>
	<path fill="#E6E6E6" d="M153.98,81.756c-3.644-1.546-6.221-2.612-14.309-6.781c-1.299-0.669-4.79-3.359-4.79-3.359
		s-1.369-0.871-2.115-2.364s-5.102-10.514-5.102-10.514s-2.426-5.475-8.398-11.198c-5.972-5.723-9.054-10.083-9.054-10.083
		l-1.465,9.385c0,0-21.044,5.741-36.39,22.668C61.873,81.075,49.999,89.248,49.999,89.248l-8.18-1.797
		c0,0,41.121,36.459,51.008,51.685l0.575-0.152c0.268-1.279-0.879-5.689-2.89-7.306c-2.012-1.617-2.443-4.311-2.443-4.311
		s-0.395-2.73,1.904-3.449c3.735-1.167,5.676,1.904,6.717,5.208c1.042,3.302,3.284,5.5,3.287,5.503l2.349,0.524l0.747-4.521
		l5.101,1.203l0.912-4.77l4.604,0.995l1.079-4.768l3.359,0.414l0.374-6.304l4.935,2.322l-0.083-6.261l4.645-0.664l-0.374-5.517
		l5.186,0.664c0,0-4.22-8.258-9.297-14.86c-1.718-2.232-4.059-3.856-6.375-4.907c-4.434-2.014-6.658-3.272-9.027-4.232
		c-1.856-0.751-3.95-1.975-8.011-0.056c-4.062,1.918-4.626,0.508-5.585-0.958c-0.958-1.467-5.133-1.186-6.374-1.016
		s-4.231-0.452-4.626-2.934c-0.395-2.482-0.508-3.61,4.457-4.513c4.965-0.902,13.709-1.297,16.755-8.688
		c3.047-7.39,6.938-8.236,8.462-7.616s3.668,2.765,0.564,7.729c-3.103,4.965-4.173,11.171-2.989,12.919
		c1.184,1.749,3.723,7.899,10.097,8.632c6.375,0.733,22.622-0.018,30.943,4.532l3.442,3.526l2.737-3.277l5.185,3.194l1.369-2.655
		l3.275,2.364c-2.25-2.705-3.412-3.827-7.331-6.067s-14.247-3.639-20.996-3.608c-6.75,0.031-11.229-4.697-11.727-5.288
		c-0.498-0.591-2.146-1.618-3.67-1.244c-1.524,0.374-2.426,0.187-3.609-1.12c-1.182-1.307-0.497-3.173,0.934-4.697
		c1.431-1.524,2.955-3.546,4.417-6.563c1.461-3.017,3.11-1.991,3.11-1.991c1.493,0.622,0.716,1.618-0.218,5.506
		c-1.581,6.584,7.279,9.456,7.279,9.456s11.665,5.568,20.032,6.781c8.368,1.213,16.715,11.033,16.715,11.033l2.383-2.323
		C175.132,95.007,168.547,87.937,153.98,81.756z M84.028,94.843c0,0,1.493-0.139,4.096-0.521c2.604-0.381,3.992,0.59,4.27,1.146
		s-0.069,1.561-1.354,2.36c-1.285,0.799-1.215,2.638-1.145,3.054c0.069,0.417,0.624,0.973,0.035,2.986
		c-0.59,2.013-1.875,2.256-3.159,2.013c-1.285-0.243-2.048-1.839-1.146-2.812c0.903-0.972,0.452-2.569,0.452-2.569
		c-0.312-0.59-0.902-1.11-3.609-1.318c-4.64-0.358-4.652-0.833-9.511-1.875c-4.859-1.042-4.338-2.811-4.338-2.811
		c0.243-0.868,3.228-1.91,6.803-0.452S84.028,94.843,84.028,94.843z"/>
	<path fill="#CCCCCC" d="M112.912,20.167l-4.164,26.676c0,0-21.044,5.741-36.39,22.668C61.873,81.075,49.999,89.248,49.999,89.248
		L17,82c0,0,11.449-2.373,14.958-4.009c9.25-4.318,24.84-12.136,44.717-27.294C98.109,34.353,96.412,32.04,112.912,20.167z"/>
	<path fill="none" stroke="#ED1C24" stroke-width="0.2488" stroke-miterlimit="10" d="M41.818,87.451"/>
	<path fill="none" stroke="#ED1C24" stroke-width="0.2488" stroke-miterlimit="10" d="M110.213,37.458"/>
	<path fill="#DEDFE0" d="M110.213,37.458l2.699-17.291c0,0,6.709,9.369,11.573,14.859c0,0,10.895,14.567,19.729,28.627
		c0,0,32.537,16.548,46.41,26.377l-2.302,2.24l-2.924-1.805l-1.306,1.929l-3.857-0.746l-1.183,3.733l-3.919-0.374
		c0,0-6.585-7.071-21.152-13.251c-3.644-1.546-6.221-2.612-14.309-6.781c-1.299-0.669-4.79-3.359-4.79-3.359
		s-1.369-0.871-2.115-2.364s-5.102-10.514-5.102-10.514s-2.426-5.475-8.398-11.198C113.294,41.817,110.213,37.458,110.213,37.458z"
		/>
	<path fill="#DEDFE0" d="M92.827,139.136c0.559,0.859,1.493,3.816,1.493,3.816l-3.317,1.575l1.824,3.567l-0.746,3.484l2.323,2.489
		l-2.323,3.317c0,0-0.995,0.082-7.382-9.207c-6.388-9.291-9.706-12.692-24.055-27.789c-14.35-15.095-27.871-24.386-31.687-27.871
		C25.141,89.035,23.375,87.822,17,82l24.818,5.451C41.818,87.451,82.939,123.911,92.827,139.136z"/>
	<path fill="#A1A3A5" d="M92.827,139.136l1.493,3.816l-3.317,1.575l1.824,3.567l-0.746,3.484l2.323,2.489l-2.323,3.317
		c0,0,2.876,3.329,7.513,4.35c0,0-3.532-3.19-2.17-6.168c1.362-2.978,2.723-3.276,6.893-4.552
		c4.168-1.276,19.016-4.808,25.611-11.742c2.033-2.139,2.127-2.894,5.404-14.892c0,0,2.638-12.718,10.04-17.483
		c7.402-4.765,12.167-4.085,17.783-3.488c5.616,0.595,9.759,2.422,13.656-2.384c2.553-3.149,2.978-3.915,3.872-5.531
		c0.545-0.987,1.665-2.759,3.409-3.1l-3.857-0.746l-1.183,3.733l-3.919-0.374l-2.383,2.323l-3.692-2.571l-1.244,0.374l-3.275-2.364
		l-1.369,2.655l-5.185-3.194l-2.737,3.277l-3.442-3.526l-1.618,3.816l-4.811-1.576l-1.742,4.23l-4.23-1.327l-1.204,4.81
		l-4.976-0.041l-0.415,6.055l-5.186-0.664l0.374,5.517l-4.645,0.664l0.083,6.261l-4.935-2.322l-0.374,6.304l-3.359-0.414
		l-1.079,4.768l-4.604-0.995l-0.912,4.77l-5.101-1.203l-0.747,4.521l-4.272-0.953l-0.996,3.814L92.827,139.136z"/>
	<path fill="#B7B9BC" d="M190.624,90.03l-2.302,2.24l-2.924-1.805l-1.306,1.929c-1.744,0.341-2.864,2.113-3.409,3.1
		c-0.894,1.617-1.319,2.382-3.872,5.531c-3.897,4.806-8.041,2.979-13.656,2.384c-5.617-0.597-10.381-1.277-17.783,3.488
		c-7.402,4.765-10.04,17.483-10.04,17.483c-3.276,11.998-3.371,12.752-5.404,14.892c-6.595,6.935-21.442,10.466-25.611,11.742
		c-4.17,1.276-5.531,1.575-6.893,4.552c-1.362,2.978,2.17,6.168,2.17,6.168l1.861-4.268l3.649,2.903l1.409-5.723l6.221,1.991
		l0.996-4.644l7.881,1.741l0.995-4.313l6.221,1.742l3.401-4.811l5.226,0.746l2.902-4.561l8.046,0.829l1.327-5.393l5.806,0.996
		l4.23-6.967l5.475,1.41l1.742-5.889l5.226-0.248l1.411-5.061l4.728-0.414l0.416-6.139l2.902,0.747l0.333-6.47l3.069,1.078
		l0.167-4.479l5.142-0.165l-1.492-6.139l4.313,1.494L190.624,90.03z"/>
	<path fill="#D6D6D6" d="M68.617,94.497c0,0-0.521,1.769,4.338,2.811c4.859,1.042,4.871,1.517,9.511,1.875
		c2.707,0.208,3.298,0.729,3.609,1.318c0,0,0.452,1.598-0.452,2.569c-0.902,0.972-0.139,2.569,1.146,2.812
		c1.285,0.243,2.569,0,3.159-2.013c0.589-2.013,0.034-2.569-0.035-2.986c-0.07-0.416-0.14-2.254,1.145-3.054
		c1.285-0.799,1.632-1.804,1.354-2.36s-1.667-1.528-4.27-1.146c-2.603,0.382-4.096,0.521-4.096,0.521s-5.032,0.66-8.608-0.798
		S68.86,93.629,68.617,94.497z"/>
	<path fill="#D6D6D6" d="M167.813,95.133l1.244-0.374l3.692,2.571c0,0-8.348-9.819-16.715-11.033
		c-8.368-1.213-20.032-6.781-20.032-6.781s-8.859-2.872-7.279-9.456c0.934-3.889,1.711-4.884,0.218-5.506
		c0,0-1.649-1.026-3.11,1.991c-1.462,3.018-2.986,5.04-4.417,6.563c-1.431,1.524-2.115,3.39-0.934,4.697
		c1.183,1.306,2.084,1.493,3.609,1.12c1.524-0.374,3.173,0.653,3.67,1.244c0.498,0.591,4.977,5.319,11.727,5.288
		c6.75-0.031,17.077,1.368,20.996,3.608S165.563,92.428,167.813,95.133z"/>
	<path fill="none" stroke="#ED1C24" stroke-width="0.2488" stroke-miterlimit="10" d="M93.402,138.984"/>
	<path fill="#F1F2F2" d="M93.402,138.984l3.656-0.968l0.996-3.814l1.923,0.429c0,0-2.245-2.199-3.288-5.503
		c-1.041-3.304-2.982-6.376-6.717-5.208c-2.298,0.718-1.904,3.449-1.904,3.449s0.431,2.694,2.443,4.311
		C92.523,133.294,93.67,137.706,93.402,138.984z"/>
	<path fill="#F1F2F2" d="M151.804,91.98l-1.618,3.816l-4.811-1.576l-1.742,4.23l-4.23-1.327l-1.204,4.81l-4.976-0.041l-0.415,6.055
		c0,0-4.22-8.258-9.297-14.86c-1.718-2.232-4.059-3.856-6.375-4.907c-4.434-2.014-6.658-3.272-9.027-4.232
		c-1.856-0.751-3.95-1.975-8.011-0.056c-4.062,1.918-4.626,0.508-5.585-0.958c-0.958-1.467-5.133-1.186-6.374-1.016
		s-4.231-0.452-4.626-2.934c-0.395-2.482-0.508-3.61,4.457-4.513c4.965-0.902,13.709-1.297,16.755-8.688
		c3.047-7.39,6.938-8.236,8.462-7.616s3.668,2.765,0.564,7.729c-3.103,4.965-4.173,11.171-2.989,12.919
		c1.184,1.749,3.723,7.899,10.097,8.632C127.236,88.181,143.483,87.43,151.804,91.98z"/>
</g>
<path fill="#E6E7E8" d="M184.787,219.622l-12.035,1.852l-5.22,4.43l-10.231-0.309l-0.83,2.479l-7.468-1.237l-1.934,2.167h-6.634
	L137.66,230l-7.506-0.446l-3.361,1.37l-4.163-0.503l-4.069,1.664l-5.262-0.638l-1.645,1.352l-7.125-0.434l-1.667,1.316l-5.38-0.634
	l-2.518,1.536l-2.594-0.759l-2.659,1.084l-6.688-1.364l-7.336-4.016c-10.064-5.623-39.955-21.017-39.955-21.017
	c23.994,0.031,101.839-18.516,101.839-18.516s12.035,12.035,31.479,17.591c10.008,2.862,15.737,2.773,27.775,3.704
	C198.542,211.42,192.805,216.829,184.787,219.622z"/>
<g>
	<path fill="#CA3C55" d="M525.64,157.732c0-3.943,3.197-7.13,7.15-7.13c3.936,0,7.133,3.187,7.133,7.13v0.663
		c3.467-4.702,8.264-8.176,15.686-8.176c11.729,0,22.91,9.205,22.91,26.012v0.188c0,16.804-10.994,26.012-22.91,26.012
		c-7.611,0-12.305-3.471-15.686-7.506v15.022c0,3.943-3.197,7.14-7.133,7.14c-3.953,0-7.15-3.197-7.15-7.14V157.732z
		 M564.245,176.42v-0.188c0-8.357-5.639-13.9-12.303-13.9c-6.674,0-12.215,5.543-12.215,13.9v0.188
		c0,8.357,5.541,13.897,12.215,13.897C558.606,190.317,564.245,184.879,564.245,176.42z"/>
</g>
<g>
	<path fill="#E29A99" d="M528.075,163.814c-0.01,0-0.02,0-0.025,0c-0.889-0.013-1.59-0.743-1.574-1.626
		c0.006-0.752,0.037-1.546,0.016-2.368c-0.156-6.021,2.863-7.625,6.148-7.704c0.881-0.021,1.686,0.491,1.811,1.367
		c0.115,0.874-0.492,1.677-1.359,1.805c-0.355,0.057-3.492-0.047-3.396,4.532c0.018,0.845-0.006,1.654-0.025,2.419
		C529.661,163.116,528.944,163.814,528.075,163.814z"/>
</g>
<g>
	<g>
		<g>
			<path fill="#6D6E71" d="M226.783,217.428h7.088c4.273,0,7.085,2.273,7.085,6.008v0.052c0,4.088-3.412,6.191-7.437,6.191h-4.596
				v6.686h-2.141V217.428z M233.595,227.733c3.137,0,5.195-1.665,5.195-4.163v-0.052c0-2.708-2.03-4.109-5.081-4.109h-4.786v8.324
				H233.595z"/>
		</g>
	</g>
	<g>
		<g>
			<path fill="#6D6E71" d="M244.5,222.379h2.083v3.656c1.025-2.325,3.052-4.001,5.704-3.896v2.242h-0.166
				c-3.054,0-5.538,2.19-5.538,6.413v5.572H244.5V222.379z"/>
		</g>
	</g>
	<g>
		<g>
			<path fill="#6D6E71" d="M253.986,229.443v-0.056c0-3.949,3.086-7.301,7.3-7.301c4.19,0,7.281,3.296,7.281,7.245v0.056
				c0,3.94-3.117,7.3-7.326,7.3C257.045,236.688,253.986,233.388,253.986,229.443z M266.429,229.443v-0.056
				c0-3-2.243-5.464-5.188-5.464c-3.035,0-5.122,2.464-5.122,5.408v0.056c0,3.003,2.225,5.433,5.167,5.433
				C264.323,234.82,266.429,232.391,266.429,229.443z"/>
		</g>
	</g>
	<g>
		<g>
			<path fill="#6D6E71" d="M272.321,222.379h2.089v2.358c0.918-1.383,2.168-2.651,4.514-2.651c2.273,0,3.731,1.211,4.485,2.783
				c1.005-1.545,2.493-2.783,4.936-2.783c3.208,0,5.188,2.164,5.188,5.621v8.658h-2.084v-8.171c0-2.703-1.357-4.219-3.631-4.219
				c-2.107,0-3.869,1.568-3.869,4.328v8.062h-2.047v-8.227c0-2.625-1.381-4.163-3.602-4.163c-2.211,0-3.891,1.845-3.891,4.41v7.979
				h-2.089V222.379z"/>
		</g>
	</g>
	<g>
		<g>
			<path fill="#6D6E71" d="M297.169,229.443v-0.056c0-3.949,3.084-7.301,7.312-7.301c4.193,0,7.275,3.296,7.275,7.245v0.056
				c0,3.94-3.113,7.3-7.34,7.3C300.236,236.688,297.169,233.388,297.169,229.443z M309.618,229.443v-0.056
				c0-3-2.25-5.464-5.201-5.464c-3.026,0-5.11,2.464-5.11,5.408v0.056c0,3.003,2.221,5.433,5.175,5.433
				C307.509,234.82,309.618,232.391,309.618,229.443z"/>
		</g>
	</g>
	<g>
		<g>
			<path fill="#6D6E71" d="M316.241,232.661v-8.438h-1.947v-1.844h1.947v-4.219h2.076v4.219h4.439v1.844h-4.439v8.167
				c0,1.702,0.945,2.324,2.359,2.324c0.697,0,1.293-0.139,2.018-0.487v1.777c-0.725,0.39-1.504,0.604-2.5,0.604
				C317.942,236.608,316.241,235.495,316.241,232.661z"/>
		</g>
	</g>
	<g>
		<g>
			<path fill="#6D6E71" d="M326.485,217.024h2.381v2.303h-2.381V217.024z M326.62,222.379h2.092v13.986h-2.092V222.379z"/>
		</g>
	</g>
	<g>
		<g>
			<path fill="#6D6E71" d="M332.679,229.443v-0.056c0-3.949,3.084-7.301,7.307-7.301c4.188,0,7.27,3.296,7.27,7.245v0.056
				c0,3.94-3.107,7.3-7.33,7.3C335.735,236.688,332.679,233.388,332.679,229.443z M345.116,229.443v-0.056
				c0-3-2.244-5.464-5.191-5.464c-3.023,0-5.109,2.464-5.109,5.408v0.056c0,3.003,2.223,5.433,5.17,5.433
				C343.007,234.82,345.116,232.391,345.116,229.443z"/>
		</g>
	</g>
	<g>
		<g>
			<path fill="#6D6E71" d="M351.015,222.379h2.082v2.44c0.926-1.522,2.375-2.733,4.789-2.733c3.373,0,5.354,2.265,5.354,5.595v8.684
				h-2.084v-8.171c0-2.599-1.402-4.219-3.871-4.219c-2.398,0-4.188,1.763-4.188,4.384v8.006h-2.082V222.379z"/>
		</g>
	</g>
	<g>
		<g>
			<path fill="#6D6E71" d="M366.614,232.3v-0.048c0-3.004,2.438-4.571,5.979-4.571c1.791,0,3.037,0.247,4.273,0.596v-0.431
				c0-2.487-1.516-3.787-4.135-3.787c-1.652,0-2.951,0.405-4.248,0.997l-0.623-1.702c1.545-0.706,3.029-1.185,5.092-1.185
				c1.973,0,3.51,0.54,4.51,1.541c0.973,0.971,1.459,2.325,1.459,4.105v8.55h-2.055v-2.082c-0.971,1.238-2.564,2.375-5.025,2.375
				C369.21,236.658,366.614,235.173,366.614,232.3z M376.897,231.22v-1.293c-1.029-0.304-2.385-0.596-4.096-0.596
				c-2.594,0-4.08,1.14-4.08,2.816v0.056c0,1.751,1.623,2.782,3.525,2.782C374.812,234.985,376.897,233.44,376.897,231.22z"/>
		</g>
	</g>
	<g>
		<g>
			<path fill="#6D6E71" d="M383.519,216.619h2.076v19.746h-2.076V216.619z"/>
		</g>
	</g>
	<g>
		<g>
			<path fill="#6D6E71" d="M398.903,217.428h7.084c4.281,0,7.088,2.273,7.088,6.008v0.052c0,4.088-3.408,6.191-7.43,6.191h-4.605
				v6.686h-2.137V217.428z M405.716,227.733c3.141,0,5.191-1.665,5.191-4.163v-0.052c0-2.708-2.027-4.109-5.086-4.109h-4.781v8.324
				H405.716z"/>
		</g>
	</g>
	<g>
		<g>
			<path fill="#6D6E71" d="M416.612,222.379h2.082v3.656c1.027-2.325,3.057-4.001,5.703-3.896v2.242h-0.154
				c-3.062,0-5.549,2.19-5.549,6.413v5.572h-2.082V222.379z"/>
		</g>
	</g>
	<g>
		<g>
			<path fill="#6D6E71" d="M426.108,229.443v-0.056c0-3.949,3.078-7.301,7.303-7.301c4.186,0,7.275,3.296,7.275,7.245v0.056
				c0,3.94-3.109,7.3-7.334,7.3C429.159,236.688,426.108,233.388,426.108,229.443z M438.548,229.443v-0.056
				c0-3-2.244-5.464-5.195-5.464c-3.031,0-5.1,2.464-5.1,5.408v0.056c0,3.003,2.209,5.433,5.158,5.433
				C436.431,234.82,438.548,232.391,438.548,229.443z"/>
		</g>
	</g>
	<g>
		<g>
			<path fill="#6D6E71" d="M443.63,229.413v-0.053c0-4.567,3.33-7.274,6.678-7.274c2.596,0,4.275,1.402,5.355,2.97v-8.437h2.08
				v19.746h-2.08v-2.816c-1.129,1.676-2.791,3.109-5.355,3.109C446.96,236.658,443.63,234.01,443.63,229.413z M455.745,229.387
				v-0.056c0-3.218-2.461-5.385-5.062-5.385c-2.695,0-4.916,2.007-4.916,5.385v0.056c0,3.299,2.264,5.411,4.916,5.411
				C453.284,234.798,455.745,232.601,455.745,229.387z"/>
		</g>
	</g>
	<g>
		<g>
			<path fill="#6D6E71" d="M462.183,231.063v-8.684h2.074v8.167c0,2.603,1.41,4.222,3.871,4.222c2.385,0,4.199-1.759,4.199-4.38
				v-8.009h2.053v13.986h-2.053v-2.43c-0.953,1.515-2.387,2.723-4.801,2.723C464.153,236.658,462.183,234.389,462.183,231.063z"/>
		</g>
	</g>
	<g>
		<g>
			<path fill="#6D6E71" d="M478.183,229.443v-0.056c0-3.949,3.096-7.301,7.174-7.301c2.65,0,4.301,1.11,5.596,2.486l-1.377,1.463
				c-1.109-1.166-2.355-2.111-4.254-2.111c-2.826,0-4.988,2.407-4.988,5.408v0.056c0,3.025,2.207,5.433,5.133,5.433
				c1.781,0,3.164-0.885,4.268-2.077l1.326,1.237c-1.402,1.567-3.08,2.708-5.703,2.708
				C481.278,236.688,478.183,233.357,478.183,229.443z"/>
		</g>
	</g>
	<g>
		<g>
			<path fill="#6D6E71" d="M495.226,232.661v-8.438h-1.945v-1.844h1.945v-4.219h2.082v4.219h4.438v1.844h-4.438v8.167
				c0,1.702,0.943,2.324,2.354,2.324c0.697,0,1.299-0.139,2.031-0.487v1.777c-0.732,0.39-1.523,0.604-2.525,0.604
				C496.925,236.608,495.226,235.495,495.226,232.661z"/>
		</g>
	</g>
	<g>
		<g>
			<path fill="#6D6E71" d="M504.259,234.576l1.053-1.485c1.512,1.136,3.186,1.781,4.836,1.781c1.686,0,2.896-0.863,2.896-2.212
				v-0.06c0-1.402-1.652-1.943-3.482-2.46c-2.193-0.623-4.635-1.38-4.635-3.945v-0.057c0-2.407,2.01-4,4.762-4
				c1.703,0,3.602,0.6,5.033,1.538l-0.953,1.575c-1.293-0.848-2.779-1.354-4.125-1.354c-1.65,0-2.707,0.866-2.707,2.021v0.06
				c0,1.327,1.725,1.837,3.594,2.408c2.166,0.653,4.482,1.485,4.482,4.005v0.049c0,2.651-2.182,4.192-4.967,4.192
				C508.046,236.631,505.827,235.847,504.259,234.576z"/>
		</g>
	</g>
</g>
<g>
	<g>
		<path fill="#CA3C55" d="M191.683,125.897c0,1.552-1.264,2.808-2.807,2.808c-1.55,0-2.81-1.255-2.81-2.808
			c0-1.546,1.259-2.808,2.81-2.808C190.419,123.089,191.683,124.351,191.683,125.897z"/>
	</g>
</g>
<g>
	<g>
		<circle fill="#CA3C55" cx="150.933" cy="211.436" r="2.807"/>
	</g>
</g>
<g>
	<g>
		<path fill="#CA3C55" d="M100.056,190.125c0,1.549-1.264,2.808-2.807,2.808c-1.552,0-2.807-1.259-2.807-2.808
			c0-1.549,1.254-2.808,2.807-2.808C98.792,187.317,100.056,188.577,100.056,190.125z"/>
	</g>
</g>
<g>
	<g>
		<path fill="#CA3C55" d="M128.669,166.533c0,1.552-1.256,2.817-2.807,2.817c-1.552,0-2.806-1.265-2.806-2.817
			c0-1.542,1.254-2.805,2.806-2.805C127.413,163.728,128.669,164.99,128.669,166.533z"/>
	</g>
</g>
<g>
	<g>
		<path fill="#CA3C55" d="M154.615,113.83c0,1.552-1.258,2.808-2.809,2.808c-1.547,0-2.807-1.256-2.807-2.808
			c0-1.546,1.259-2.808,2.807-2.808C153.357,111.021,154.615,112.284,154.615,113.83z"/>
	</g>
</g>
<g>
	<g>
		<path fill="#CA3C55" d="M126.167,131.93c0,1.549-1.252,2.812-2.803,2.812s-2.801-1.262-2.801-2.812
			c0-1.542,1.25-2.804,2.801-2.804S126.167,130.388,126.167,131.93z"/>
	</g>
</g>
<g>
	<path fill="#CA3C55" d="M154.035,192.713c-2.121-1.53-3.165-3.844-2.491-6.387c0.814-3.085,4.031-4.959,7.113-4.137
		c0.912,0.242,1.59,0.612,2.156,1.052c3.511,2.869,7.495,5.087,12.664,6.461c9.447,2.489,15.095-0.87,17.4-9.584l0.623-2.361
		c-5.383,3.821-10.617,5.638-17.977,3.7c-11.35-3.003-19.425-13.973-15.61-28.416l0.051-0.182
		c3.842-14.522,16.44-19.931,27.61-16.982c7.539,1.996,11.148,6.35,13.784,11.417l0.03-0.093c0.981-3.723,4.885-5.989,8.696-4.982
		c3.815,1.011,6.083,4.912,5.078,8.721l-8.282,31.326c-2.303,8.714-6.077,14.518-11.24,17.521
		c-5.738,3.337-13.257,3.487-22.706,0.991C164.497,199.076,159.153,196.494,154.035,192.713z M195.412,162.963l0.051-0.185
		c1.75-6.626-2.203-12.638-8.921-14.404c-6.713-1.775-13.027,1.514-14.777,8.135l-0.043,0.181
		c-1.785,6.719,2.105,12.609,8.818,14.381C187.259,172.85,193.663,169.586,195.412,162.963z"/>
</g>
<g>
	<path fill="#CA3C55" d="M266.196,197.476c-0.361,3.927-3.836,6.808-7.756,6.445c-3.937-0.357-6.813-3.835-6.455-7.765l0.054-0.555
		c-3.664,3.901-8.224,7.343-15.427,6.681c-10.757-0.995-16.362-8.676-15.303-20.182l2.397-25.895
		c0.364-3.93,3.839-6.814,7.765-6.454c3.925,0.36,6.813,3.834,6.446,7.764l-1.976,21.413c-0.623,6.735,2.237,10.483,7.664,10.993
		c5.417,0.498,9.202-2.652,9.822-9.377l1.979-21.416c0.363-3.92,3.839-6.812,7.765-6.448c3.928,0.36,6.812,3.838,6.446,7.765
		L266.196,197.476z"/>
</g>
<g>
	<path fill="#CA3C55" d="M279.511,160.018c0.014-3.939,3.219-7.126,7.155-7.108c3.952,0.013,7.134,3.21,7.126,7.153l-0.008,0.57
		c3.3-4.217,7.635-8.055,14.869-8.036c6.572,0.022,11.539,2.945,14.154,8.026c4.432-5.151,9.699-7.95,16.543-7.924
		c10.627,0.029,16.988,6.439,16.951,18.551l-0.08,26.2c-0.016,3.946-3.221,7.127-7.162,7.112c-3.945-0.01-7.127-3.213-7.121-7.156
		l0.07-21.505c0.025-6.76-2.971-10.248-8.332-10.264c-5.342-0.019-8.643,3.446-8.66,10.209l-0.068,21.512
		c-0.01,3.939-3.223,7.121-7.166,7.111c-3.943-0.019-7.117-3.219-7.111-7.166l0.064-21.502c0.025-6.757-2.971-10.25-8.319-10.263
		c-5.359-0.026-8.66,3.451-8.671,10.212l-0.069,21.501c-0.016,3.946-3.221,7.127-7.164,7.117c-3.945-0.012-7.126-3.219-7.117-7.165
		L279.511,160.018z"/>
</g>
<g>
	<path fill="#CA3C55" d="M419.286,195.159c0,3.942-3.195,7.136-7.139,7.136c-3.945,0-7.133-3.194-7.133-7.136v-0.66
		c-3.479,4.698-8.266,8.166-15.686,8.166c-11.74,0-22.912-9.199-22.912-26.003v-0.191c0-16.81,10.984-26.009,22.912-26.009
		c7.607,0,12.303,3.468,15.686,7.503V139.75c0-3.937,3.188-7.133,7.133-7.133c3.943,0,7.139,3.196,7.139,7.133V195.159z
		 M380.69,176.471v0.191c0,8.357,5.629,13.894,12.305,13.894c6.66,0,12.207-5.537,12.207-13.894v-0.191
		c0-8.357-5.547-13.9-12.207-13.9C386.319,162.571,380.69,168.015,380.69,176.471z"/>
</g>
<g>
	<path fill="#CA3C55" d="M432.046,157.732c0-3.943,3.199-7.13,7.143-7.13c3.938,0,7.133,3.187,7.133,7.13v2.26
		c2.076-4.886,5.447-9.39,9.674-9.39c4.418,0,6.955,2.907,6.955,6.942c0,3.761-2.447,6.008-5.354,6.667
		c-7.236,1.689-11.275,7.235-11.275,17.372v13.342c0,3.939-3.195,7.133-7.133,7.133c-3.943,0-7.143-3.194-7.143-7.133V157.732z"/>
</g>
<g>
	<path fill="#CA3C55" d="M462.179,179.11v-0.191c0-14.458,11.646-26.2,27.33-26.2c15.586,0,27.137,11.554,27.137,26.015v0.185
		c0,14.471-11.648,26.203-27.322,26.203C473.729,205.122,462.179,193.568,462.179,179.11z M502.556,179.11v-0.191
		c0-7.414-5.354-13.897-13.232-13.897c-8.172,0-13.049,6.298-13.049,13.712v0.185c0,7.423,5.344,13.903,13.234,13.903
		C497.671,192.822,502.556,186.53,502.556,179.11z"/>
</g>
<g>
	<path fill="#E29A99" d="M161.834,153.678c-0.18,0-0.366-0.032-0.549-0.102c-0.831-0.306-1.259-1.224-0.952-2.052
		c1.002-2.722,2.607-5.3,4.775-7.682c5.589-6.123,13.758-8.14,21.32-5.265c0.827,0.319,1.243,1.24,0.928,2.069
		c-0.311,0.826-1.24,1.237-2.065,0.927c-6.306-2.396-13.135-0.704-17.813,4.431c-1.89,2.068-3.281,4.296-4.139,6.63
		C163.104,153.277,162.488,153.678,161.834,153.678z"/>
</g>
<g>
	<path fill="#E29A99" d="M160.643,165.831c-0.568-0.118-1.046-0.545-1.219-1.134c-0.035-0.138-0.892-3.291-0.129-7.513
		c0.155-0.867,0.988-1.446,1.862-1.284c0.803,0.156,1.443,0.985,1.287,1.857c-0.621,3.459,0.061,6.054,0.072,6.083
		c0.229,0.849-0.271,1.727-1.124,1.961C161.141,165.872,160.883,165.88,160.643,165.831z"/>
</g>
<g>
	<path fill="#E29A99" d="M371.53,170.083c-0.178,0-0.363-0.038-0.551-0.102c-0.826-0.305-1.256-1.224-0.943-2.059l0.156-0.427
		c0.803-2.193,1.613-4.844,3.9-7.35c5.99-6.56,13.592-8.951,20.654-6.261c0.83,0.318,1.24,1.243,0.928,2.072
		c-0.318,0.826-1.246,1.237-2.074,0.924c-7.895-3.009-14.207,2.038-17.178,5.289c-1.865,2.046-2.457,4.326-3.223,6.423l-0.166,0.437
		C372.802,169.676,372.187,170.083,371.53,170.083z"/>
</g>
<g>
	<path fill="#E29A99" d="M370.823,183.566c-0.662,0-1.277-0.411-1.512-1.064c-0.047-0.134-1.115-3.223-0.641-7.484
		c0.1-0.883,0.896-1.505,1.77-1.415c0.881,0.095,1.512,0.892,1.418,1.766c-0.389,3.487,0.469,6.04,0.475,6.062
		c0.301,0.835-0.146,1.747-0.98,2.043C371.179,183.534,371.001,183.566,370.823,183.566z"/>
</g>
<g>
	<path fill="#E29A99" d="M467.993,171.938c-0.178,0-0.367-0.032-0.545-0.102c-0.836-0.299-1.266-1.224-0.959-2.053
		c0.969-2.642,2.66-5.782,5.234-8.16c6.775-6.282,14.285-8.202,21.432-6.432c0.859,0.213,1.24,1.237,0.928,2.065
		c-0.318,0.826-1.133,0.769-1.988,0.552c-7.625-1.938-14.662,2.688-18.049,5.825c-2.205,2.046-3.746,5.066-4.549,7.25
		C469.261,171.537,468.649,171.938,467.993,171.938z"/>
</g>
<g>
	<path fill="#E29A99" d="M466.364,184.503c-0.717,0-1.363-0.484-1.553-1.205c-0.039-0.137-0.826-3.302,0.018-7.506
		c0.18-0.871,1.021-1.428,1.885-1.256c0.873,0.175,1.436,1.017,1.254,1.887c-0.691,3.439-0.061,6.053-0.051,6.079
		c0.217,0.854-0.301,1.728-1.154,1.951C466.628,184.487,466.489,184.503,466.364,184.503z"/>
</g>
<g>
	<path fill="#E29A99" d="M226.201,162.606c-0.035,0-0.065,0-0.105,0c-0.88-0.058-1.551-0.819-1.497-1.702
		c0.046-0.743,0.094-1.533,0.124-2.359c0.25-5.418,3.832-7.23,6.502-7.42c0.871-0.062,1.661,0.567,1.739,1.447
		c0.081,0.88-0.557,1.746-1.434,1.744c-1.001-0.001-3.431,0.5-3.602,4.37c-0.04,0.845-0.086,1.657-0.133,2.422
		C227.745,161.956,227.039,162.606,226.201,162.606z"/>
</g>
<g>
	<path fill="#E29A99" d="M282.18,165.819c-0.008,0-0.019,0-0.026,0c-0.882-0.02-1.591-0.743-1.574-1.626
		c0.011-0.752,0.021-1.542,0.021-2.371c-0.006-5.422,2.852-7.181,6.144-7.707c0.863-0.138,1.683,0.491,1.81,1.371
		c0.115,0.873-0.482,1.787-1.357,1.804c-1.294,0.024-3.398,0.663-3.396,4.53c0,0.851-0.011,1.654-0.019,2.425
		C283.766,165.117,283.054,165.819,282.18,165.819z"/>
</g>
<g>
	<path fill="#E29A99" d="M434.706,171.087c-0.873-0.032-1.561-0.755-1.549-1.629c0.002-0.051,0.029-1.109-0.01-2.826
		c-0.027-0.881,0.684-1.615,1.564-1.636c0.875-0.022,1.615,0.684,1.635,1.564c0.035,1.797,0.02,2.894,0.018,2.958
		c-0.02,0.88-0.746,1.586-1.627,1.57C434.724,171.088,434.712,171.087,434.706,171.087z"/>
</g>
<g>
	<path fill="#E29A99" d="M434.616,163.975C434.87,164.046,434.624,163.975,434.616,163.975c-0.879-0.016-1.59-0.746-1.574-1.629
		c0.018-0.742,0.018-1.536,0.018-2.368c0-5.418,3.441-7.568,5.566-7.864c0.861-0.125,1.855,0.272,1.973,1.149
		c0.121,0.874-0.398,1.757-1.266,1.885c-0.357,0.057-3.07,0.954-3.07,4.831c0,0.848,0,1.657-0.016,2.422
		C436.229,163.273,435.454,163.934,434.616,163.975z"/>
</g>
<path fill="#E29A99" d="M529.552,166.135l-0.02,0.007c-0.094-0.764-0.717-1.373-1.508-1.407c-0.887-0.071-1.635,0.637-1.684,1.517
	c-0.076,1.715,0.004,2.728,0.004,2.797v0.661l0.027,0c0.105,0.775,0.762,1.375,1.564,1.375c0.818,0,1.484-0.625,1.568-1.423l0.023,0
	L529.552,166.135z"/>
<path fill="#E29A99" d="M283.98,168.533l-0.021,0.007c-0.094-0.764-0.717-1.373-1.507-1.407c-0.887-0.071-1.636,0.637-1.684,1.517
	c-0.077,1.715,0.004,2.728,0.004,2.797v0.661l0.027,0c0.105,0.775,0.762,1.375,1.563,1.375c0.818,0,1.484-0.625,1.568-1.423l0.023,0
	L283.98,168.533z"/>
<path fill="#E29A99" d="M227.519,165.486l-0.021,0.005c-0.019-0.77-0.579-1.437-1.362-1.547c-0.876-0.157-1.69,0.474-1.824,1.345
	c-0.245,1.699-0.263,2.715-0.27,2.784l-0.065,0.658l0.028,0.002c0.029,0.782,0.624,1.442,1.421,1.521
	c0.814,0.081,1.538-0.476,1.7-1.263l0.023,0.002L227.519,165.486z"/>
</svg>
