<?xml version="1.0" encoding="utf-8"?>
<!-- Generator: Adobe Illustrator 23.0.1, SVG Export Plug-In . SVG Version: 6.00 Build 0)  -->
<svg version="1.1" id="Layer_1" xmlns="http://www.w3.org/2000/svg" xmlns:xlink="http://www.w3.org/1999/xlink" x="0px" y="0px"
	 viewBox="0 0 211.3 464.5" style="enable-background:new 0 0 211.3 464.5;" xml:space="preserve">
<style type="text/css">
	.st0{fill:#999999;}
</style>
<path class="st0" d="M85.5,12.9c2.8,8.9,6.6,17.7,8.2,26.9c14.9,85.9,26.8,172.1,29.3,259.4c0.1,3.3,0.8,6.7,1.6,12.9
	c11.4-19.3,21.3-36,31.1-52.9c5.1-8.6,11.7-14.6,22.4-14.7c20-0.3,31.4,19.3,20.9,37.4c-23.6,40.7-47.8,81.1-71.9,121.5
	c-7.2,12.1-15.2,23.8-22.4,35.9c-5.2,8.9-12.5,14.6-22.7,13.9c-11.4-0.8-18.2-8.1-21.5-18.8c-9.9-32.2-19.8-64.4-29.8-96.6
	c-6.6-21.3-13.7-42.5-19.9-63.9c-2-6.9-7.9-16.9,2-20.5c4.6-1.7,14.8,4.4,18.5,9.7c11.5,16.6,21.1,34.6,32.4,53.5
	c0.5-4.9,1.1-9.2,1.2-13.4c3.4-88.6,6.7-177.2,10.3-265.9c0.3-7.9,3.3-15.8,5.1-23.7C82.1,13.5,83.8,13.2,85.5,12.9z"/>
</svg>
