<?xml version="1.0" encoding="utf-8"?>
<!-- Generator: Adobe Illustrator 23.0.1, SVG Export Plug-In . SVG Version: 6.00 Build 0)  -->
<svg version="1.1" id="Layer_1" xmlns="http://www.w3.org/2000/svg" xmlns:xlink="http://www.w3.org/1999/xlink" x="0px" y="0px"
	 viewBox="0 0 511.5 315" style="enable-background:new 0 0 511.5 315;" xml:space="preserve">
<style type="text/css">
	.st0{fill:#7C7C7C;}
	.st1{fill:#A1A1A1;}
</style>
<g>
	<path class="st0" d="M257.3,149.1c6.5-8.4,13-16.8,19.6-25.1c30.2-38.3,60.5-76.5,90.8-114.7c5.6-7,3.6-6.1,12.8-6.1
		c35.7,0,71.5,0,107.2,0c2.1,0,4.3-0.3,6.5,0.5c0.5,1.9-0.8,2.9-1.6,4c-5.3,7-10.7,14-16.1,20.9c-34.9,45.1-69.8,90.2-104.7,135.2
		c-37,47.8-74.1,95.7-111.1,143.5c-1,1.3-2.1,2.5-3.1,3.8c-1.3-2-1.1-4.2-1.1-6.4c0-49.4,0-98.7,0-148.1
		C256.4,154.2,257,151.7,257.3,149.1z"/>
	<path class="st1" d="M257.3,149.1c-0.3,2.5-0.9,5-0.9,7.6c-0.1,49.4,0,98.7,0,148.1c0,2.2-0.2,4.4,1.1,6.4c-0.7,0.8-1.6,1-2.4,0.2
		c-1.1-1-2-2.1-2.9-3.3c-15.9-20.6-31.8-41.2-47.8-61.7c-24.1-31.1-48.3-62.3-72.4-93.4c-16-20.7-32.1-41.5-48.1-62.2
		C62.8,63.5,41.7,36.3,20.7,9c-1.1-1.4-2.1-2.9-3.4-4.8c1.2-0.4,2-0.9,2.7-1c1.5-0.1,2.9-0.1,4.4-0.1c33.9,0,67.8,0,101.7,0
		c8.2,0,6.8-0.6,12,5.6c17.4,20.8,34.7,41.7,52.1,62.5c15.6,18.7,31.2,37.4,46.8,56.1c4.6,5.5,9.1,11,13.7,16.5
		c1.2,1.4,2.3,2.9,3.7,4C255.1,148.7,256.3,148.8,257.3,149.1z"/>
</g>
</svg>
