<?xml version="1.0" encoding="utf-8"?>
<!-- Generator: Adobe Illustrator 23.0.1, SVG Export Plug-In . SVG Version: 6.00 Build 0)  -->
<svg version="1.1" id="Layer_1" xmlns="http://www.w3.org/2000/svg" xmlns:xlink="http://www.w3.org/1999/xlink" x="0px" y="0px"
	 viewBox="0 0 511.5 515" style="enable-background:new 0 0 511.5 515;" xml:space="preserve">
<style type="text/css">
	.st0{fill:#0983CE;}
</style>
<path class="st0" d="M324,258.5L490.6,92c18.7-18.8,18.7-49.2,0-67.9c-18.8-18.7-49.2-18.7-67.9,0L255.8,191L88.9,24.1
	C70.1,5.4,39.7,5.4,21,24.1C2.3,42.9,2.3,73.3,21,92l166.6,166.5L21,425c-18.7,18.8-18.7,49.2,0,67.9c18.8,18.7,49.2,18.7,67.9,0
	L255.8,326l166.9,166.9c18.8,18.7,49.2,18.7,67.9,0c18.7-18.8,18.7-49.2,0-67.9L324,258.5z"/>
</svg>
