<?xml version="1.0" encoding="utf-8"?>
<!-- Generator: Adobe Illustrator 23.0.1, SVG Export Plug-In . SVG Version: 6.00 Build 0)  -->
<svg version="1.1" id="Layer_1" xmlns="http://www.w3.org/2000/svg" xmlns:xlink="http://www.w3.org/1999/xlink" x="0px" y="0px"
	 viewBox="0 0 53.2 29.4" style="enable-background:new 0 0 53.2 29.4;" xml:space="preserve">
<style type="text/css">
	.st0{fill:#FFFFFF;}
	.st1{opacity:0.9;fill:#414042;}
	.st2{opacity:0.9;fill:url(#SVGID_5_);}
	.st3{fill:#CF3761;}
	.st4{fill:#2E2E2F;}
	.st5{fill:#AEE2FA;}
	.st6{fill:#262262;}
	.st7{fill:#BCBEC0;}
	.st8{fill:#414042;}
	.st9{fill:#2E261F;}
	.st10{fill:#8BD7F8;}
	.st11{fill:#0A2A44;}
	.st12{opacity:0.42;fill:#414042;}
	.st13{fill:#606161;}
	.st14{fill:#9DDCF9;}
	.st15{font-family:'SabonLTStd-Bold';}
	.st16{font-size:24.4067px;}
	.st17{letter-spacing:-1;}
	.st18{font-size:18.3051px;}
	.st19{letter-spacing:-5;}
</style>
<g>
	<text transform="matrix(0.9974 -7.220000e-02 7.220000e-02 0.9974 5.0017 24.0987)"><tspan x="0" y="0" class="st14 st15 st16 st17">N</tspan><tspan x="18.4" y="0" class="st14 st15 st18"> </tspan><tspan x="23.8" y="0" class="st14 st15 st18 st19"> </tspan><tspan x="23.8" y="0" class="st14 st15 st18"> </tspan><tspan x="28.9" y="0" class="st14 st15 st16">L</tspan></text>
</g>
<g>
	<g>
		<g>
			<path class="st5" d="M24.1,13.3c2.4,1.9,4.6,3.8,6.7,6c1,1,2.5-0.5,1.5-1.5c-2.1-2.1-4.4-4.1-6.7-6C24.6,11,23,12.5,24.1,13.3
				L24.1,13.3z"/>
		</g>
	</g>
	<g>
		<g>
			<path class="st5" d="M30.1,11c-2.1,1.9-3.9,4-5.5,6.4c-0.8,1.1,1.1,2.2,1.8,1.1c1.5-2.2,3.2-4.2,5.1-5.9
				C32.6,11.6,31.1,10.1,30.1,11L30.1,11z"/>
		</g>
	</g>
</g>
</svg>
