<?xml version="1.0" encoding="utf-8"?>
<!-- Generator: Adobe Illustrator 19.0.0, SVG Export Plug-In . SVG Version: 6.00 Build 0)  -->
<svg version="1.1" id="Layer_1" xmlns="http://www.w3.org/2000/svg" xmlns:xlink="http://www.w3.org/1999/xlink" x="0px" y="0px"
	 viewBox="-264 390.9 65.8 61" style="enable-background:new -264 390.9 65.8 61;" xml:space="preserve">
<style type="text/css">
	.st0{fill:#B3B3B3;}
</style>
<g>
	<path class="st0" d="M-246.1,412.2h-8.5l-1.2,4h-7.7l9.2-24.4h8.2l9.2,24.4h-7.9L-246.1,412.2z M-247.8,406.9l-2.7-8.8l-2.7,8.8
		H-247.8z"/>
	<path class="st0" d="M-229.6,404.3l-6.5-0.7c0.2-1.1,0.6-2,1.1-2.7s1.1-1.2,2-1.7c0.6-0.3,1.5-0.6,2.6-0.8c1.1-0.2,2.3-0.3,3.5-0.3
		c2,0,3.7,0.1,4.9,0.3c1.2,0.2,2.3,0.7,3.1,1.4c0.6,0.5,1,1.2,1.4,2.1c0.3,0.9,0.5,1.8,0.5,2.6v7.8c0,0.8,0.1,1.5,0.2,2
		c0.1,0.5,0.3,1.1,0.7,1.8h-6.3c-0.3-0.5-0.4-0.8-0.5-1s-0.2-0.6-0.2-1.1c-0.9,0.9-1.8,1.5-2.6,1.8c-1.2,0.5-2.6,0.7-4.2,0.7
		c-2.1,0-3.7-0.5-4.8-1.5s-1.6-2.2-1.6-3.6c0-1.3,0.4-2.4,1.2-3.3s2.2-1.5,4.4-1.9c2.5-0.5,4.2-0.9,4.9-1.1c0.8-0.2,1.6-0.5,2.4-0.8
		c0-0.8-0.2-1.4-0.5-1.7c-0.3-0.3-0.9-0.5-1.8-0.5c-1.1,0-1.9,0.2-2.5,0.5C-229,403-229.3,403.5-229.6,404.3z M-223.8,407.8
		c-0.9,0.3-1.9,0.6-2.9,0.9c-1.4,0.4-2.2,0.7-2.6,1.1c-0.4,0.4-0.6,0.8-0.6,1.2c0,0.5,0.2,1,0.6,1.3s0.9,0.5,1.6,0.5
		c0.8,0,1.5-0.2,2.1-0.5c0.6-0.4,1.1-0.8,1.4-1.3s0.4-1.2,0.4-2.1V407.8z"/>
	<path class="st0" d="M-205.1,408.6h-6.3V408c0-1.1,0.1-1.9,0.4-2.6c0.2-0.7,0.6-1.3,1.1-1.8c0.5-0.6,1.6-1.5,3.2-2.9
		c0.9-0.7,1.3-1.4,1.3-2s-0.2-1.1-0.5-1.4c-0.4-0.3-0.9-0.5-1.6-0.5c-0.8,0-1.4,0.3-2,0.8c-0.5,0.5-0.8,1.4-1,2.7l-6.4-0.8
		c0.2-2.4,1.1-4.3,2.6-5.7c1.5-1.4,3.8-2.2,6.9-2.2c2.4,0,4.4,0.5,5.8,1.5c2,1.4,3,3.2,3,5.4c0,0.9-0.3,1.8-0.8,2.7
		s-1.6,1.9-3.2,3.2c-1.1,0.9-1.8,1.6-2.1,2.1C-205,407-205.1,407.7-205.1,408.6z M-211.8,410.3h6.8v6h-6.8V410.3z"/>
</g>
</svg>
