<?xml version="1.0" encoding="utf-8"?>
<!-- Generator: Adobe Illustrator 19.0.0, SVG Export Plug-In . SVG Version: 6.00 Build 0)  -->
<svg version="1.1" id="Layer_1" xmlns="http://www.w3.org/2000/svg" xmlns:xlink="http://www.w3.org/1999/xlink" x="0px" y="0px"
	 viewBox="0 0 65.8 61" style="enable-background:new 0 0 65.8 61;" xml:space="preserve">
<style type="text/css">
	.st0{fill:#B3B3B3;}
</style>
<g id="XMLID_470_">
	<g id="XMLID_444_">
		<path id="XMLID_448_" class="st0" d="M37.3,30.5c0,8.8,0,17.6,0,26.5c0,1.5-0.3,2.7-1.8,3.3c-1.5,0.7-2.6,0-3.6-1
			c-5-5-10.1-10.1-15.1-15.2c-0.6-0.6-1.3-0.9-2.2-0.9c-3.6,0.1-7.3,0-10.9,0c-2.1,0-3.2-1.1-3.2-3.2c0-6.3,0-12.6,0-18.9
			c0-2.2,1-3.3,3.2-3.3c3.6,0,7.3,0,10.9-0.1c0.7,0,1.6-0.4,2.2-0.9c5.1-5,10.1-10,15-15.1c1.1-1.1,2.2-1.6,3.6-1.1
			C37,1.3,37.3,2.5,37.3,4C37.3,12.8,37.3,21.6,37.3,30.5z"/>
	</g>
	<path id="XMLID_450_" class="st0" d="M56.9,30.5l7.5-7.5c1.1-1.1,1.1-2.8,0-3.9c-1.1-1.1-2.8-1.1-3.9,0L53,26.6l-7.5-7.5
		c-1.1-1.1-2.8-1.1-3.9,0c-1.1,1.1-1.1,2.8,0,3.9l7.5,7.5L41.6,38c-1.1,1.1-1.1,2.8,0,3.9c0.5,0.5,1.2,0.8,1.9,0.8
		c0.7,0,1.4-0.3,1.9-0.8l7.5-7.5l7.5,7.5c0.5,0.5,1.2,0.8,1.9,0.8s1.4-0.3,1.9-0.8c1.1-1.1,1.1-2.8,0-3.9L56.9,30.5z"/>
</g>
</svg>
