<?xml version="1.0" encoding="utf-8"?>
<!-- Generator: Adobe Illustrator 19.0.0, SVG Export Plug-In . SVG Version: 6.00 Build 0)  -->
<svg version="1.1" id="Layer_1" xmlns="http://www.w3.org/2000/svg" xmlns:xlink="http://www.w3.org/1999/xlink" x="0px" y="0px"
	 viewBox="0 0 65.8 61" style="enable-background:new 0 0 65.8 61;" xml:space="preserve">
<style type="text/css">
	.st0{fill:#B3B3B3;}
</style>
<g id="XMLID_441_">
	<path id="XMLID_523_" class="st0" d="M37.9,30.5c0,8.8,0,17.6,0,26.5c0,1.5-0.3,2.7-1.8,3.3c-1.5,0.7-2.6,0-3.6-1
		c-5-5-10.1-10.1-15.1-15.2c-0.6-0.6-1.3-0.9-2.2-0.9c-3.6,0.1-7.3,0-10.9,0c-2.1,0-3.2-1.1-3.2-3.2c0-6.3,0-12.6,0-18.9
		c0-2.2,1-3.3,3.2-3.3c3.6,0,7.3,0,10.9-0.1c0.7,0,1.6-0.4,2.2-0.9c5.1-5,10.1-10,15-15.1c1.1-1.1,2.2-1.6,3.6-1.1
		c1.5,0.6,1.8,1.8,1.8,3.3C37.9,12.8,37.9,21.6,37.9,30.5z"/>
	<path id="XMLID_477_" class="st0" d="M64.6,30.5C64.1,41.1,59.2,49,49.5,53.7c-1.8,0.9-3.4,0.4-4.2-1.2c-0.8-1.7-0.1-3.2,1.7-4.1
		c8.2-4,12.6-11.7,11.5-20.6C57.7,21,54,16,47.9,12.8c-0.4-0.2-0.8-0.4-1.2-0.6c-1.6-0.8-2.1-2.4-1.4-3.9c0.7-1.5,2.3-2,3.9-1.3
		c5.3,2.3,9.4,6,12.2,11C63.5,21.9,64.6,26,64.6,30.5z"/>
	<path id="XMLID_475_" class="st0" d="M52.5,31.7c-0.2,4.3-2.8,8.4-7.8,10.9c-1.7,0.8-3.3,0.3-4-1.2c-0.8-1.5-0.2-3.1,1.5-3.9
		c2.9-1.5,4.6-3.8,4.6-7.1c0-3.3-1.7-5.7-4.7-7.2c-1.7-0.8-2.2-2.4-1.5-4c0.7-1.4,2.3-1.9,4-1.3C49.3,20,52.6,25.1,52.5,31.7z"/>
</g>
</svg>
